<svg width="69" height="69" viewBox="0 0 69 69" fill="none" xmlns="http://www.w3.org/2000/svg">
<path d="M52.7791 40.9017L45.3041 48.3767C43.4066 50.255 40.6849 51.0409 38.0974 50.4084L22.6491 46.7475C22.1508 46.6517 21.6524 46.3834 21.2691 45.9809C20.1382 44.85 20.1382 43.0484 21.2691 41.9175C21.6524 41.5342 22.1316 41.2659 22.6107 41.1509H22.6299L29.7407 39.5409L14.8291 24.6292C13.6982 23.5175 13.6982 21.6967 14.8291 20.5659C15.3849 20.01 16.1132 19.7417 16.8607 19.7417C17.5891 19.7417 18.3366 20.01 18.8924 20.5659L26.9424 28.6159C25.9074 27.485 25.9457 25.7217 27.0191 24.6292C27.5749 24.0734 28.3224 23.805 29.0507 23.805C29.7982 23.805 30.5266 24.0734 31.0824 24.6292L32.4432 25.99C31.3124 24.8784 31.3124 23.0575 32.4432 21.9267C33.0182 21.3517 33.7466 21.0834 34.4749 21.0834C35.2224 21.0834 35.9508 21.3517 36.5066 21.9267L37.8674 23.2875C36.7366 22.1567 36.7366 20.3359 37.8674 19.2242C38.4232 18.6684 39.1516 18.3809 39.8991 18.3809C40.6274 18.3809 41.3749 18.6684 41.9307 19.2242L52.7791 30.0534C55.7691 33.0625 55.7691 37.9117 52.7791 40.9017Z" fill="#F9FAFC"/>
<path d="M26.9616 46.7475C26.4632 46.6517 25.9649 46.3834 25.5816 45.9809C24.4507 44.85 24.4507 43.0484 25.5816 41.9175C25.9649 41.5342 26.4441 41.2659 26.9232 41.1509H26.9424L34.0532 39.5409L19.1416 24.6292C18.0548 23.5616 18.0414 21.8519 19.0419 20.7154L18.8924 20.5659C18.3366 20.01 17.5891 19.7417 16.8607 19.7417C16.1132 19.7417 15.3849 20.01 14.8291 20.5659C13.6982 21.6967 13.6982 23.5175 14.8291 24.6292L29.7407 39.5409L22.6299 41.1509H22.6107C22.1316 41.2659 21.6524 41.5342 21.2691 41.9175C20.1382 43.0484 20.1382 44.85 21.2691 45.9809C21.6524 46.3834 22.1507 46.6517 22.6491 46.7475L38.0974 50.4084C39.4103 50.7284 40.7577 50.6824 42.0151 50.3144L26.9616 46.7475Z" fill="#E2E7EE"/>
<path d="M55.0181 12.698C53.433 12.698 52.1431 11.4081 52.1431 9.823C52.1431 8.23791 53.433 6.948 55.0181 6.948C56.6032 6.948 57.8931 8.23791 57.8931 9.823C57.8931 11.4081 56.6032 12.698 55.0181 12.698ZM55.0181 8.86466C54.491 8.86466 54.0597 9.29591 54.0597 9.823C54.0597 10.3501 54.491 10.7813 55.0181 10.7813C55.5452 10.7813 55.9764 10.3501 55.9764 9.823C55.9764 9.29591 55.5452 8.86466 55.0181 8.86466Z" fill="#A6AFC0"/>
<path d="M5.19043 18.7834H9.02376V20.7001H5.19043V18.7834Z" fill="#A6AFC0"/>
<path d="M11.8989 12.0751H13.8156V15.9084H11.8989V12.0751Z" fill="#A6AFC0"/>
<path d="M39.8992 52.0663C39.1938 52.0663 38.4809 51.9839 37.7736 51.8153L22.3195 48.1506C21.5739 47.9992 20.8437 47.5986 20.2476 47.0025C18.5628 45.3197 18.5628 42.5808 20.2457 40.8998C20.8226 40.3229 21.5356 39.9262 22.3042 39.7537L22.3099 39.7786C22.8313 39.6387 24.0062 39.3684 26.8735 38.7187L13.8095 25.6528C12.1286 23.9718 12.1286 21.2348 13.8095 19.5539C15.4904 17.873 18.2274 17.873 19.9083 19.5539L33.4611 33.1067L31.4275 35.1403L17.8748 21.5875C17.3132 21.0259 16.4028 21.0259 15.8412 21.5875C15.2815 22.1472 15.2815 23.0614 15.8412 23.6211L30.749 38.5289C31.1189 38.8988 31.2589 39.4432 31.1132 39.9434C30.9675 40.4475 30.5593 40.8308 30.0494 40.9458C30.0494 40.9458 23.2798 42.4792 22.9578 42.5539C22.9482 42.5558 22.9367 42.5578 22.9271 42.5616C22.6952 42.6114 22.4633 42.7456 22.2754 42.9315C21.7138 43.4931 21.7138 44.4054 22.2754 44.967C22.4709 45.1606 22.7067 45.2948 22.9386 45.3427L38.4348 49.0169C40.5508 49.5172 42.7378 48.9 44.2768 47.3609L51.7538 39.884C52.9306 38.7091 53.5784 37.1432 53.5784 35.4795C53.5784 33.8158 52.9306 32.2499 51.7538 31.075L40.9131 20.2324C40.3688 19.6881 39.42 19.6919 38.8776 20.2324C38.3179 20.7921 38.3179 21.7063 38.8776 22.266L36.844 24.2996C35.1631 22.6187 35.1631 19.8817 36.844 18.2008C38.4713 16.5735 41.3156 16.5697 42.9448 18.2008L53.7854 29.0433C55.5047 30.7607 56.4534 33.0492 56.4534 35.4795C56.4534 37.9098 55.5066 40.1983 53.7854 41.9157L46.3085 49.3926C44.5758 51.131 42.2797 52.0663 39.8992 52.0663Z" fill="#262B37"/>
<path d="M35.4928 31.0769L30.0725 25.6547C29.5109 25.0931 28.6005 25.0931 28.0389 25.6547C27.4773 26.2163 27.4773 27.1286 28.0389 27.6902L26.0053 29.7238C24.3225 28.0428 24.3225 25.3039 26.0053 23.623C27.6345 21.9938 30.475 21.9938 32.1041 23.623L37.5244 29.0453L35.4928 31.0769Z" fill="#262B37"/>
<path d="M31.4257 27.0116C30.6111 26.197 30.1626 25.1141 30.1626 23.9603C30.1626 22.8083 30.6111 21.7254 31.4257 20.9108C33.1066 19.2299 35.8436 19.2299 37.5245 20.9108L41.5898 24.9761L39.5562 27.0097L35.4909 22.9444C34.9485 22.402 34.0017 22.402 33.4573 22.9444C33.1852 23.2166 33.0357 23.5769 33.0357 23.9603C33.0357 24.3436 33.1852 24.7058 33.4573 24.9742L31.4257 27.0116Z" fill="#262B37"/>
</svg>
