<svg width="581" height="607" viewBox="0 0 581 607" fill="none" xmlns="http://www.w3.org/2000/svg">
<path d="M74.3221 265.696L74.3232 265.698C90.3798 291.917 125.814 307.754 172.116 309.843L173.439 309.902L173.662 308.597C185.896 237.142 236.535 165.037 310.556 114.56C358.477 81.9723 407.455 57.3513 451.841 42.5561C496.265 27.7481 535.93 22.8361 565.303 29.4684C593.771 35.957 607.743 51.6003 614.684 63.6222C619.232 71.5 624.051 83.765 623.393 99.943C622.736 116.116 616.6 136.331 599.025 160.107C568.596 201.129 510.141 246.535 420.001 299.174C357.88 335.338 295.722 358.405 237.18 367.497L235.539 367.752L235.959 369.359C240.218 385.658 247.828 400.941 259.336 414.577C278.715 438.169 305.932 453.846 337.636 461.744L339.168 462.126L339.47 460.576C342.461 445.261 348.314 429.752 357.077 414.624L357.081 414.617C376.589 380.525 410.38 347.324 452.527 321.205L452.533 321.201C489.217 298.235 531.604 280.917 569.552 276.431C607.495 271.945 640.641 280.302 659.535 308.173L660.672 310.143C671.711 329.263 674.206 351.87 667.436 374.289L667.434 374.297C655.249 415.472 614.286 453.799 541.258 490.889L541.257 490.889C502.101 510.818 460.205 523.4 418.999 527.86L416.221 528.16L418.007 530.309C430.924 545.857 450.448 561.273 479.156 566.828L479.165 566.83C517.283 573.965 570.086 562.002 621.101 532.801L661.327 577.815C629 596.31 594.157 611.142 560.742 620.153C526.756 629.318 494.348 632.436 467.596 627.349L467.595 627.349C419.332 618.21 378.717 588.965 353.182 544.737C349.857 538.978 347.108 533.192 344.931 527.378L344.625 526.56L343.762 526.423C289.712 517.823 243.188 492.761 212.045 454.749L212.043 454.748C192.055 430.413 179.152 402.913 174.074 373.579L173.868 372.393L172.666 372.337C103.151 369.045 48.7317 342.367 21.5618 297.869C1.6063 264.838 -2.99258 223.109 8.79913 177.123C30.9211 91.2918 106.473 3.83509 211.27 -56.6694C304.396 -110.436 375.233 -135.667 423.452 -147.461C468.331 -158.438 493.642 -157.782 499.178 -157.638C499.219 -157.637 499.259 -157.636 499.297 -157.635L537.172 -104.334C536.241 -104.281 535.078 -104.209 533.69 -104.11C529.773 -103.829 524.07 -103.328 516.736 -102.426C502.069 -100.62 480.882 -97.2064 454.412 -90.7209C401.472 -77.7497 327.405 -52.4925 242.112 -3.24871C151.714 48.9428 86.6256 122.137 68.6998 192.4C61.2045 221.715 62.9779 247.111 74.3221 265.696ZM401.739 464.94L401.165 466.796L403.106 466.882C436.635 468.368 475.232 456.88 513.117 435.607C550.13 414.836 573.025 397.879 587.075 384.721C601.097 371.589 606.394 362.162 608.04 356.425C609.67 351.091 609.567 346.284 607.509 342.14L607.405 341.932L607.243 341.765C605.98 340.459 604.058 339.45 601.698 338.704C599.315 337.95 596.366 337.427 592.924 337.173C586.037 336.664 577.04 337.221 566.361 339.28C544.993 343.399 516.756 353.552 484.951 373.416L484.949 373.417C469.821 382.902 451.954 396.37 436.413 412.144C420.888 427.901 407.584 446.061 401.739 464.94ZM238.318 302.674L237.641 305.026L240.044 304.563C287.622 295.392 338.819 275.416 389.074 246.101C490.531 186.927 532.349 146.945 549.5 123.759C555.476 115.778 558.814 109.361 560.49 104.591C561.327 102.207 561.76 100.205 561.886 98.6063C562.008 97.0714 561.865 95.6933 561.312 94.7349C560.622 93.5387 559.204 92.5701 557.596 91.8181C555.927 91.0378 553.801 90.375 551.37 89.9197C542.586 87.9206 530.779 87.9839 516.723 90.0741C502.628 92.17 486.18 96.3182 468.089 102.565C431.907 115.058 389.075 135.971 345.25 165.766L345.246 165.768C292.058 202.177 252.576 253.174 238.318 302.674Z" stroke="white" stroke-opacity="0.5" stroke-width="3"/>
</svg>
