<svg width="533" height="807" viewBox="0 0 533 807" fill="none" xmlns="http://www.w3.org/2000/svg">
<path d="M697.103 541.551L697.101 541.553C673.663 563.856 632.546 570.599 583.506 560.592L582.213 560.328L582.302 559.049C587.538 483.524 552.666 397.287 487.811 326.815C445.808 281.291 400.682 243.55 357.884 216.952C315.049 190.332 274.691 174.965 242.197 173.983C210.687 173.092 192.073 185.271 181.752 195.623C174.989 202.407 166.831 213.563 163.428 230.117C160.027 246.668 161.352 268.746 173.773 297.42C195.312 346.914 245.128 408.173 326.315 485.034C382.302 537.896 441.642 577.519 500.726 602.054L502.259 602.69L501.464 604.114C492.884 619.481 481.05 632.945 465.548 643.721C439.283 662.508 406.806 671.237 371.595 670.925L370.021 670.911L370.089 669.385C370.825 653.098 368.608 635.864 363.242 618.253L363.24 618.246C351.4 578.625 324.358 536.17 286.767 498.697L286.762 498.692C254.104 465.843 214.034 437.21 175.367 422.726C136.699 408.242 99.8062 408.017 72.9357 431.287L71.2443 432.984C54.8321 449.446 46.4941 471.68 47.9263 496.159L47.9267 496.167C50.2958 541.059 83.5811 590.591 150.766 647.243L150.767 647.244C186.787 677.669 227.536 701.377 269.617 716.683L272.261 717.645L269.978 719.259C252.515 731.602 228.168 742.076 196.699 740.181L196.689 740.18C154.945 737.419 102.616 711.484 56.5191 668.561L2.84251 703.657C32.0846 730.874 64.9029 755.042 97.6972 772.933C131.016 791.11 164.217 802.757 193.566 804.618L193.567 804.618C246.496 808.011 296.478 789.049 334.431 750.982C339.373 746.024 343.719 740.888 347.472 735.574L347.98 734.854L348.874 734.937C407.726 740.392 462.846 727.213 505.109 696.904L505.111 696.903C532.22 677.512 552.701 653.063 565.442 624.706L565.937 623.605L567.15 623.849C640.876 638.727 704.689 625.983 744.43 588.063C773.708 559.861 789.08 518.831 788.341 469.2C786.843 376.537 729.73 268.246 635.153 179.576C551.115 100.789 483.229 56.7062 435.653 32.1426C391.372 9.27958 364.664 3.31236 358.821 2.00697C358.761 1.99368 358.704 1.98093 358.649 1.96858L305.328 46.099C306.321 46.4046 307.587 46.8012 309.113 47.2966C313.146 48.6063 318.996 50.6052 326.453 53.4379C341.367 59.1033 362.708 68.103 388.81 81.5929C441.016 108.573 512.261 153.513 589.212 225.657C670.763 302.114 720.47 393.178 721.502 468.919C721.95 500.523 713.677 525.732 697.103 541.551ZM303.526 657.442L303.654 659.385L301.69 658.983C266.197 651.712 228.663 629.998 194.339 598.567C160.796 567.867 141.09 544.724 129.696 527.745C118.324 510.799 115.165 499.895 114.89 493.686C114.53 487.88 115.848 483.06 119.043 479.419L119.199 479.242L119.403 479.119C121.046 478.136 123.302 477.62 125.956 477.484C128.635 477.346 131.85 477.588 135.517 478.231C142.853 479.518 152.132 482.433 162.798 487.309C184.14 497.064 211.159 514.72 239.468 543.133L239.47 543.135C252.924 556.686 268.242 574.982 280.54 595C292.826 614.998 302.172 636.835 303.526 657.442ZM515.836 536.07L515.946 538.515L513.664 537.472C466.124 515.743 417.519 482.137 372.258 439.329C280.872 352.905 247.156 301.52 235.046 273.594C230.801 263.962 228.927 256.605 228.378 251.353C228.103 248.728 228.155 246.597 228.425 244.955C228.685 243.377 229.179 242.034 229.99 241.221C231.004 240.203 232.72 239.598 234.59 239.259C236.528 238.908 238.917 238.795 241.574 238.97C251.269 239.247 263.616 242.398 277.815 248.19C292.051 253.998 308.237 262.497 325.616 273.55C360.375 295.657 399.978 328.023 438.379 369.633L438.383 369.636C484.917 420.379 513.402 482.285 515.836 536.07Z" stroke="#E2E7EE" stroke-opacity="0.5" stroke-width="3"/>
</svg>
