<svg width="58" height="58" viewBox="0 0 58 58" fill="none" xmlns="http://www.w3.org/2000/svg">
<path d="M30.0757 25.7327V45.841H26.3672V24.3218L30.0757 25.7327Z" fill="#262B37"/>
<path d="M15.2607 23.8584C15.2607 18.7165 18.0328 15.9136 21.2824 15.9136C24.5321 15.9136 24.991 16.387 28.6808 18.2525C32.3706 20.118 33.3071 20.5915 35.1614 20.5915C37.0156 20.5915 37.9334 19.171 37.9334 16.3776H41.1643C41.6326 21.9835 38.3923 24.3224 35.1426 24.3224C31.893 24.3224 30.9752 23.8489 27.7443 21.9835C24.5134 20.118 23.5769 19.6445 21.7226 19.6445C19.8683 19.6445 18.9506 21.0649 18.4917 24.3224L15.2607 23.8584Z" fill="#262B37"/>
<path d="M28.6803 58C23.0079 58 17.4629 56.2992 12.7464 53.1126C8.02994 49.9261 4.35392 45.3969 2.18317 40.0978C0.0124268 34.7988 -0.555539 28.9678 0.551097 23.3424C1.65773 17.7169 4.38927 12.5496 8.40028 8.49391C12.4113 4.43819 17.5216 1.67621 23.0851 0.55724C28.6485 -0.561731 34.4152 0.0125653 39.6558 2.20751C44.8965 4.40245 49.3757 8.11945 52.5271 12.8885C55.6786 17.6575 57.3606 23.2644 57.3606 29C57.352 36.6886 54.3275 44.0598 48.9508 49.4964C43.5741 54.9331 36.2842 57.9912 28.6803 58V58ZM28.6803 1.89389C23.3746 1.89389 18.1881 3.48475 13.7766 6.46529C9.36506 9.44583 5.92669 13.6822 3.89629 18.6386C1.86589 23.5951 1.33465 29.049 2.36974 34.3108C3.40483 39.5725 5.95976 44.4058 9.71145 48.1993C13.4631 51.9928 18.2431 54.5762 23.4468 55.6228C28.6506 56.6694 34.0444 56.1323 38.9462 54.0792C43.848 52.0262 48.0377 48.5495 50.9854 44.0888C53.9331 39.6281 55.5064 34.3838 55.5064 29.0189C55.5014 21.8265 52.6735 14.93 47.6437 9.84418C42.6139 4.75833 35.7935 1.89891 28.6803 1.89389V1.89389Z" fill="#262B37"/>
</svg>
