<svg width="118" height="33" viewBox="0 0 118 33" fill="none" xmlns="http://www.w3.org/2000/svg">
<g clip-path="url(#clip0_33_1599)">
<path d="M0.50292 21.2636C0.310707 21.0073 0.2146 20.6869 0.2146 20.3025C0.2146 19.7472 0.492242 19.2773 1.04753 18.8929C1.34652 18.7007 1.6562 18.6046 1.97656 18.6046C2.42506 18.6046 2.85219 18.8075 3.25798 19.2133C3.89869 19.8753 4.56076 20.3665 5.24418 20.6869C5.94897 21.0073 6.79258 21.1674 7.775 21.1674C9.44086 21.1033 10.2738 20.4734 10.2738 19.2773C10.2738 18.658 9.98545 18.1882 9.40879 17.8678C8.8535 17.5474 7.97791 17.2271 6.78189 16.9067C5.54319 16.565 4.52873 16.2233 3.73851 15.8816C2.96966 15.5399 2.29691 15.0273 1.72027 14.3438C1.16499 13.6391 0.887348 12.6994 0.887348 11.5247C0.887348 10.4996 1.17567 9.61327 1.75231 8.86583C2.35031 8.09694 3.11916 7.50965 4.05887 7.10383C5.01994 6.67669 6.0344 6.46313 7.10226 6.46313C8.19145 6.46313 9.28064 6.666 10.3699 7.07182C11.4591 7.47758 12.3134 8.07556 12.9327 8.86583C13.2103 9.20751 13.3492 9.59195 13.3492 10.0191C13.3492 10.5103 13.1463 10.9161 12.7405 11.2364C12.4415 11.4713 12.0998 11.5888 11.7154 11.5888C11.2455 11.5888 10.8611 11.4393 10.5621 11.1404C10.1777 10.6705 9.67577 10.2967 9.05642 10.0191C8.45844 9.74142 7.775 9.60264 7.00612 9.60264C5.38301 9.60264 4.57144 10.1899 4.57144 11.3646C4.57144 11.8344 4.72093 12.2189 5.01994 12.5178C5.31893 12.7955 5.69268 13.0197 6.14118 13.1906C6.61105 13.3401 7.26241 13.5323 8.09537 13.7672C9.24864 14.0876 10.2097 14.4186 10.9786 14.7604C11.7474 15.102 12.3988 15.6253 12.9327 16.3301C13.4666 17.0349 13.7336 17.9639 13.7336 19.1172C13.7336 20.1637 13.4239 21.082 12.8046 21.8722C12.1852 22.6411 11.3843 23.2284 10.4019 23.6342C9.44086 24.04 8.44775 24.2428 7.42263 24.2428C6.01304 24.2428 4.69958 24.0079 3.48223 23.5381C2.26488 23.0683 1.27177 22.3101 0.50292 21.2636Z" fill="#003399"/>
<path d="M31.7133 6.46301C32.2686 6.46301 32.7278 6.64456 33.0908 7.00763C33.4539 7.37069 33.6354 7.84052 33.6354 8.41719V21.9682C33.6354 22.5235 33.4539 22.9934 33.0908 23.3778C32.7278 23.7409 32.2686 23.9224 31.7133 23.9224C31.158 23.9224 30.6988 23.7409 30.3358 23.3778C29.994 23.0147 29.8125 22.5555 29.7912 22.0003C29.2572 22.6196 28.5311 23.1535 27.6127 23.602C26.7158 24.0292 25.7654 24.2427 24.7616 24.2427C23.2879 24.2427 21.9531 23.869 20.7572 23.1215C19.5611 22.3526 18.6108 21.2954 17.906 19.95C17.2225 18.6045 16.8809 17.0775 16.8809 15.3689C16.8809 13.6604 17.2225 12.1333 17.906 10.7878C18.5894 9.42099 19.5184 8.3638 20.6931 7.6163C21.889 6.84741 23.2025 6.46301 24.6335 6.46301C25.6586 6.46301 26.6196 6.65525 27.5167 7.03963C28.4136 7.40269 29.1718 7.87259 29.7912 8.44919V8.41719C29.7912 7.8619 29.9727 7.40269 30.3358 7.03963C30.6988 6.65525 31.158 6.46301 31.7133 6.46301ZM25.2421 20.7188C26.6303 20.7188 27.7623 20.2169 28.6379 19.2131C29.5135 18.188 29.9513 16.9066 29.9513 15.3689C29.9513 13.8312 29.5135 12.5498 28.6379 11.5246C27.7623 10.4995 26.6303 9.9869 25.2421 9.9869C23.8753 9.9869 22.754 10.4995 21.8784 11.5246C21.0028 12.5498 20.5649 13.8312 20.5649 15.3689C20.5649 16.9066 20.9921 18.188 21.8464 19.2131C22.722 20.2169 23.8539 20.7188 25.2421 20.7188Z" fill="#003399"/>
<path d="M42.606 21.9684C42.606 22.5237 42.4137 22.9936 42.0293 23.378C41.6662 23.7411 41.2071 23.9227 40.6518 23.9227C40.1178 23.9227 39.6694 23.7411 39.3063 23.378C38.9433 22.9936 38.7617 22.5237 38.7617 21.9684V2.17049C38.7617 1.61521 38.9433 1.15603 39.3063 0.792963C39.6907 0.408536 40.1606 0.216324 40.7159 0.216324C41.2498 0.216324 41.6983 0.408536 42.0614 0.792963C42.4244 1.15603 42.606 1.61521 42.606 2.17049V21.9684Z" fill="#003399"/>
<path d="M62.7815 14.9526C62.7601 15.4651 62.5573 15.8816 62.1728 16.202C61.7884 16.5223 61.3399 16.6825 60.8273 16.6825H50.2556C50.5119 17.9426 51.0992 18.9357 52.0175 19.6618C52.9359 20.3666 53.9717 20.719 55.125 20.719C56.0006 20.719 56.684 20.6442 57.1752 20.4947C57.6665 20.3239 58.0509 20.153 58.3285 19.9822C58.6276 19.79 58.8304 19.6618 58.9372 19.5977C59.3216 19.4055 59.6847 19.3094 60.0264 19.3094C60.4749 19.3094 60.8593 19.4696 61.1797 19.79C61.5001 20.1103 61.6602 20.4841 61.6602 20.9112C61.6602 21.4878 61.3612 22.0111 60.7633 22.4809C60.1652 22.9721 59.3644 23.3886 58.3606 23.7303C57.3568 24.072 56.3423 24.2429 55.3172 24.2429C53.5232 24.2429 51.9535 23.8691 50.608 23.1217C49.2839 22.3742 48.2587 21.349 47.5326 20.0463C46.8064 18.7221 46.4434 17.2378 46.4434 15.5933C46.4434 13.7566 46.8277 12.1441 47.5966 10.7559C48.3654 9.36769 49.3799 8.31057 50.64 7.58438C51.9001 6.83694 53.2456 6.46317 54.6765 6.46317C56.0861 6.46317 57.4102 6.84756 58.6489 7.61645C59.909 8.38527 60.9127 9.42114 61.6602 10.7239C62.4077 12.0267 62.7815 13.4362 62.7815 14.9526ZM54.6765 9.98705C52.1991 9.98705 50.7361 11.151 50.2876 13.479H58.6809V13.2547C58.5955 12.3577 58.1577 11.5888 57.3675 10.9482C56.5773 10.3074 55.6802 9.98705 54.6765 9.98705Z" fill="#003399"/>
<path d="M75.5007 6.46347C76.9742 6.46347 78.3091 6.84787 79.5048 7.61676C80.7012 8.36426 81.6409 9.41076 82.3238 10.7562C83.0286 12.1017 83.3809 13.6288 83.3809 15.3373C83.3809 17.0458 83.0398 18.5836 82.3562 19.9504C81.6725 21.2959 80.7329 22.3531 79.5372 23.122C78.3626 23.8694 77.0593 24.2432 75.6287 24.2432C74.6033 24.2432 73.6319 24.0403 72.7134 23.6345C71.8166 23.2074 71.069 22.6948 70.4711 22.0968V22.289C70.4711 22.8443 70.289 23.3142 69.9261 23.6986C69.5632 24.0616 69.1039 24.2432 68.5489 24.2432C67.9933 24.2432 67.534 24.0616 67.1711 23.6986C66.8082 23.3355 66.6267 22.8657 66.6267 22.289V2.17071C66.6267 1.61542 66.8082 1.15625 67.1711 0.793176C67.534 0.40875 67.9933 0.216537 68.5489 0.216537C69.1039 0.216537 69.5632 0.40875 69.9261 0.793176C70.289 1.15625 70.4711 1.61542 70.4711 2.17071V8.86617C70.9832 8.22543 71.6992 7.67014 72.6171 7.20031C73.5356 6.7091 74.4964 6.46347 75.5007 6.46347ZM75.0197 20.7193C76.3869 20.7193 77.5081 20.2067 78.3837 19.1816C79.2594 18.1564 79.6969 16.875 79.6969 15.3373C79.6969 13.7996 79.2594 12.5289 78.3837 11.5251C77.5292 10.5 76.408 9.98736 75.0197 9.98736C73.6319 9.98736 72.4996 10.5 71.6239 11.5251C70.7483 12.5289 70.3108 13.7996 70.3108 15.3373C70.3108 16.875 70.7483 18.1564 71.6239 19.1816C72.4996 20.2067 73.6319 20.7193 75.0197 20.7193Z" fill="#003399"/>
<path d="M103.694 15.3691C103.694 17.0777 103.31 18.6154 102.541 19.9822C101.772 21.3277 100.715 22.3742 99.3696 23.1217C98.0452 23.8692 96.5823 24.2429 94.9807 24.2429C93.3575 24.2429 91.884 23.8692 90.5596 23.1217C89.2359 22.3742 88.1893 21.3277 87.4206 19.9822C86.6518 18.6154 86.2671 17.0777 86.2671 15.3691C86.2671 13.6606 86.6518 12.1335 87.4206 10.788C88.1893 9.4212 89.2359 8.36402 90.5596 7.61651C91.884 6.84762 93.3575 6.46323 94.9807 6.46323C96.5823 6.46323 98.0452 6.84762 99.3696 7.61651C100.715 8.36402 101.772 9.4212 102.541 10.788C103.31 12.1335 103.694 13.6606 103.694 15.3691ZM99.85 15.3691C99.85 14.3226 99.6256 13.3936 99.1776 12.582C98.75 11.7491 98.1627 11.1084 97.4157 10.6599C96.6892 10.2114 95.8775 9.98711 94.9807 9.98711C94.084 9.98711 93.2618 10.2114 92.5141 10.6599C91.7876 11.1084 91.2003 11.7491 90.7523 12.582C90.3247 13.3936 90.1115 14.3226 90.1115 15.3691C90.1115 16.4156 90.3247 17.3447 90.7523 18.1562C91.2003 18.9678 91.7876 19.5978 92.5141 20.0463C93.2618 20.4948 94.084 20.7191 94.9807 20.7191C95.8775 20.7191 96.6892 20.4948 97.4157 20.0463C98.1627 19.5978 98.75 18.9678 99.1776 18.1562C99.6256 17.3447 99.85 16.4156 99.85 15.3691Z" fill="#003399"/>
<path d="M115.813 20.3024C116.112 20.3024 116.379 20.4518 116.614 20.7508C116.87 21.0285 116.998 21.4023 116.998 21.8721C116.998 22.4488 116.678 22.94 116.037 23.3457C115.418 23.7302 114.713 23.9224 113.923 23.9224C112.599 23.9224 111.478 23.6447 110.559 23.0894C109.662 22.5128 109.214 21.3061 109.214 19.4694V10.6276H107.74C107.228 10.6276 106.801 10.4568 106.459 10.115C106.117 9.77334 105.946 9.34621 105.946 8.83362C105.946 8.3424 106.117 7.93665 106.459 7.61628C106.801 7.27453 107.228 7.10369 107.74 7.10369H109.214V5.05343C109.214 4.49814 109.395 4.03897 109.758 3.6759C110.143 3.29147 110.613 3.09926 111.168 3.09926C111.701 3.09926 112.15 3.29147 112.513 3.6759C112.876 4.03897 113.058 4.49814 113.058 5.05343V7.10369H115.332C115.845 7.10369 116.272 7.27453 116.614 7.61628C116.955 7.95796 117.126 8.3851 117.126 8.89769C117.126 9.3889 116.955 9.80535 116.614 10.1471C116.272 10.4675 115.845 10.6276 115.332 10.6276H113.058V19.3093C113.058 19.7577 113.176 20.0888 113.411 20.3024C113.645 20.4945 113.966 20.5907 114.371 20.5907C114.542 20.5907 114.777 20.5479 115.076 20.4625C115.332 20.3558 115.578 20.3024 115.813 20.3024Z" fill="#003399"/>
</g>
<circle cx="104.492" cy="29.795" r="2.53918" fill="#FED08C"/>
<circle cx="95.3522" cy="29.7949" r="2.53918" fill="#FED08C"/>
<circle cx="86.2108" cy="29.7948" r="2.53918" fill="#FED08C"/>
<defs>
<clipPath id="clip0_33_1599">
<rect width="117.458" height="24.4154" fill="white"/>
</clipPath>
</defs>
</svg>
