<svg width="120" height="24" viewBox="0 0 120 24" fill="none" xmlns="http://www.w3.org/2000/svg">
<path fill-rule="evenodd" clip-rule="evenodd" d="M19.471 7.17334C20.1351 7.17334 20.749 7.71671 21.3124 8.80345C21.4734 9.0857 21.5937 9.34681 21.6747 9.58831C22.6407 8.38083 23.7772 7.77658 25.0858 7.77658C25.9507 7.77658 26.726 8.06336 27.4102 8.63742C28.094 9.21097 28.4366 9.93043 28.4366 10.7953V11.1274C29.6637 9.59837 31.1635 8.83363 32.934 8.83363C34.0212 8.83363 34.8463 9.11538 35.4093 9.67887C35.9728 10.2419 36.2551 10.9367 36.2551 11.7618C36.2551 12.5874 36.1947 13.3315 36.074 13.9961C35.9527 14.6592 35.8174 15.2831 35.6664 15.8672C35.5155 16.4509 35.3796 16.9686 35.2589 17.4214C35.1381 17.8747 35.0773 18.2274 35.0773 18.4779C35.0773 18.7305 35.1578 18.8553 35.3193 18.8553C35.6206 18.8553 35.9929 18.6646 36.4362 18.2822L36.4564 18.2647C36.3148 17.7235 36.2477 17.1457 36.255 16.5315C36.2349 14.1366 36.9896 12.0738 38.5191 10.3426C40.0485 8.61236 42.0515 7.747 44.5263 7.747C45.6533 7.747 46.5584 7.88787 47.2431 8.16962C48.4305 8.65211 49.0242 9.10491 49.0242 9.52753C49.0242 9.85003 48.1935 10.0161 46.5342 10.0261C44.8734 10.0362 43.4848 10.6097 42.3674 11.7463C41.2515 12.8833 40.692 14.3172 40.692 16.049C40.692 16.9541 40.9592 17.7133 41.4925 18.3276C42.0258 18.9419 42.7805 19.2483 43.7565 19.2483C44.7326 19.2483 45.5426 19.0471 46.1866 18.6441C44.7572 17.6781 44.0428 16.2799 44.0428 14.448C44.0227 13.4826 44.3703 12.6026 45.0848 11.8072C45.7992 11.0122 46.7149 10.6097 47.8318 10.5997C48.9482 10.5896 49.7482 10.8965 50.2317 11.5204C50.7147 12.1443 50.9562 12.9442 50.9562 13.9203C50.9562 14.8963 50.7247 15.9277 50.2619 17.015H50.443C51.3285 16.9943 52.0927 16.6824 52.7372 16.0781C52.9787 15.8366 53.1845 15.6253 53.356 15.4447C53.5266 15.2636 53.7037 15.173 53.8843 15.173C54.1661 15.173 54.3069 15.5056 54.3069 16.1687C54.3069 17.3968 53.9447 18.3175 53.2202 18.9308C52.4957 19.5451 51.6957 19.8515 50.8203 19.8515C49.9449 19.8515 49.2053 19.7917 48.6016 19.6709C47.0117 21.543 45.1044 22.4783 42.8811 22.4783C40.6568 22.4783 38.9915 21.9093 37.8851 20.7722C37.8346 20.7204 37.7853 20.668 37.7372 20.615C36.41 21.7564 34.9997 22.3268 33.508 22.3268C32.0586 22.3268 31.3346 21.0091 31.3346 18.3728C31.3346 17.7087 31.4448 16.7925 31.6666 15.6252C31.8875 14.459 31.9987 13.6032 31.9987 13.0593C31.9987 12.3957 31.6163 12.0637 30.8516 12.0637C30.3283 12.0637 29.7447 12.5718 29.1007 13.5881C28.4562 14.6044 27.9934 15.6962 27.7121 16.8634V16.9233C27.7121 17.6085 27.8173 18.3129 28.0286 19.0369C28.2399 19.7614 28.346 20.2645 28.346 20.5462C28.346 21.2305 27.4902 21.9047 25.7801 22.5688C25.518 22.6689 25.2866 22.7202 25.0858 22.7202C24.5827 22.7202 24.2351 22.4576 24.0439 21.9349C23.8527 21.4121 23.7571 20.7027 23.7571 19.8067C23.7571 18.9111 23.7828 18.0664 23.8331 17.2714C23.8829 16.4765 23.9337 15.7425 23.984 15.0673C24.0343 14.3931 24.0846 13.7994 24.1344 13.2862C24.1848 12.7731 24.2104 12.356 24.2104 12.0335C24.2104 11.3497 23.898 11.0071 23.2746 11.0071C22.6507 11.0071 21.9257 11.7366 21.1011 13.1957C20.2755 14.6552 19.8635 15.8119 19.8635 16.6667C19.8635 17.523 19.9691 18.3129 20.1804 19.0369C20.3917 19.7614 20.4974 20.2645 20.4974 20.5462C20.4974 21.2305 19.6416 21.9047 17.9315 22.5688C17.6699 22.6689 17.4379 22.7202 17.2372 22.7202C16.7341 22.7202 16.3869 22.4576 16.1957 21.9349C16.1071 21.6933 16.0392 21.3912 15.9917 21.0288C15.5845 21.3027 15.1546 21.5445 14.7018 21.7543C13.8767 22.1362 13.0717 22.3269 12.2868 22.3269C11.2197 22.3269 10.5063 21.3916 10.1436 19.5195C9.61981 20.3853 8.93557 21.0947 8.09084 21.6482C7.2456 22.2021 6.11358 22.4783 4.69478 22.4783C3.27549 22.4783 2.13391 22.0361 1.26855 21.1496C0.403181 20.2646 -0.0194387 19.1874 0.000686071 17.9196C0.000686071 14.4994 1.13723 11.8026 3.41183 9.82941C4.37832 9.00479 5.2784 8.46143 6.11358 8.1998C6.94876 7.93818 7.82921 7.80687 8.75495 7.80687C9.68069 7.80687 10.4354 7.96837 11.019 8.28986C11.3007 7.70675 11.6227 7.41494 11.985 7.41494C12.6893 7.41494 13.3585 7.72134 13.9924 8.33565C14.6263 8.94995 14.9438 9.52753 14.9438 10.0709C14.6611 10.7355 14.249 11.5305 13.7056 12.4562C13.5446 13.3814 13.4636 14.68 13.4636 16.3503C13.4636 18.0212 13.6755 18.8554 14.0981 18.8554C14.4221 18.8554 15.0318 18.4544 15.927 17.6519C15.9664 15.7438 16.0708 14.3039 16.241 13.3315C16.5424 11.4594 17.2266 9.68894 18.2937 8.01808C18.656 7.45509 19.0484 7.17334 19.471 7.17334ZM10.5063 9.85959C8.8757 10.1821 7.45691 10.967 6.24942 12.2142C5.04194 13.4624 4.43819 15.0327 4.43819 16.9234C4.43819 18.474 5.01225 19.2483 6.15886 19.2483C7.38597 19.2287 8.40277 18.5741 9.20776 17.2861C9.48951 16.8439 9.72094 16.3005 9.90206 15.6555C9.90206 13.4021 10.1033 11.4706 10.5063 9.85959ZM48.1789 13.0297C47.9978 13.0297 47.8469 13.1606 47.7261 13.4222C47.6054 13.6838 47.545 13.9354 47.545 14.1769C47.545 14.9818 47.8066 15.646 48.3299 16.1687C48.672 15.4447 48.8436 14.7398 48.8436 14.0561C48.8436 13.3719 48.6212 13.0297 48.1789 13.0297Z" fill="#C7C8CA"/>
<path fill-rule="evenodd" clip-rule="evenodd" d="M62.8617 0C65.0371 0 66.1249 0.971019 66.1249 2.91004C66.1249 4.02394 65.9206 4.91346 65.5111 5.5816C65.1 6.24873 64.6845 6.5828 64.2608 6.5828C63.6948 6.5828 63.2018 6.36093 62.7781 5.91466C62.3535 5.47041 61.8876 5.23948 61.379 5.22388C60.8698 5.20828 59.4893 5.17005 58.315 7.05674C57.4944 8.37542 57.6207 8.24159 57.3087 9.13211C56.6879 10.9136 56.3236 12.2811 56.3236 14.6659C56.3518 15.811 57.3757 17.5619 58.2798 18.1349C58.9006 18.5158 59.6417 18.8363 60.4834 18.7301C62.2987 18.5022 63.3175 17.6413 64.0596 16.8464C64.7443 16.1124 65.3476 15.4166 65.9981 14.6679C66.6466 13.9213 67.2187 13.2305 67.7142 12.5936C67.8034 12.4789 67.8885 12.3745 67.9698 12.2805C68.8108 9.65382 69.6855 7.62594 70.5953 6.19656C70.7955 5.89519 71.0873 5.58376 71.4707 5.26126C71.853 4.93927 72.2656 4.77827 72.7078 4.77827C72.9695 4.77827 73.1008 5.12089 73.1008 5.80463C73.1008 6.48837 73.0595 7.13286 72.98 7.73661C72.7984 8.90384 72.5675 9.99058 72.2852 10.9968C71.5612 13.7333 71.1985 15.3332 71.1985 15.7961V20.2336C71.1985 21.3203 70.7859 22.0654 69.9613 22.4684C69.5779 22.649 69.2117 22.8201 68.859 22.9811C68.5068 23.1421 68.1088 23.2231 67.6666 23.2231C66.8219 23.2231 66.3992 22.2521 66.3992 20.3095C66.3992 20.2161 66.4003 20.1215 66.4024 20.0258C65.6088 20.8108 64.6549 21.4981 63.5409 22.0859C62.1553 22.8179 60.5242 23.1837 58.6465 23.1837C56.7669 23.1837 55.1222 22.5568 53.7104 21.3C52.2972 20.0432 51.5918 18.23 51.5918 15.8608C51.5918 13.4931 51.9229 11.3458 52.587 9.4219C53.2506 7.49798 54.126 5.83618 55.2137 4.437C56.301 3.03733 57.5377 1.94808 58.9217 1.16874C60.3058 0.39042 61.6185 0 62.8617 0ZM74.7007 0.0538694C77.0553 0.064047 78.9968 0.512326 80.5268 1.39731C80.9719 1.65746 81.3618 1.94992 81.6963 2.2747C81.949 1.88238 82.304 1.52942 82.7606 1.21624C83.7462 0.491245 84.9441 0.129503 86.3518 0.129503C88.163 0.129503 89.2302 0.974742 89.5527 2.66522C89.6322 3.16834 89.693 3.70164 89.7333 4.26463C91.222 1.4683 93.1037 0.0691285 95.3788 0.0691285C97.8541 0.0691285 99.2729 1.25699 99.6357 3.63121C99.7564 4.31545 99.8067 5.05 99.7861 5.83487V6.07586C101.094 4.26463 102.643 3.35952 104.435 3.35952C106.971 3.35952 108.238 4.889 108.238 7.94797C108.238 9.2762 108.032 10.8308 107.62 12.6114C107.207 14.3929 106.905 15.6713 106.715 16.4456C106.523 17.2199 106.428 17.8192 106.428 18.2418C106.428 19.0065 106.694 19.3884 107.228 19.3884C107.76 19.3884 109.033 18.3429 111.046 16.2489C111.409 15.8469 111.67 15.6457 111.831 15.6457C112.173 15.6457 112.344 16.1085 112.344 17.0343C112.344 17.5374 112.133 18.1467 111.711 18.8611C111.288 19.5755 110.739 20.2296 110.065 20.8223C109.39 21.417 108.64 21.905 107.816 22.2863C106.991 22.6697 106.12 22.8604 105.205 22.8604C104.29 22.8604 103.575 22.5636 103.062 21.9699C102.548 21.3767 102.292 20.7121 102.292 19.977C102.292 19.243 102.412 18.4128 102.654 17.4871C102.896 16.5614 103.158 15.5954 103.439 14.5891C104.204 11.913 104.596 10.0309 104.617 8.94414C104.617 8.48127 104.556 8.12406 104.435 7.87199C104.314 7.62044 104.083 7.49466 103.741 7.49466C103.137 7.49466 102.493 7.8574 101.809 8.58139C101.124 9.30639 100.48 10.2321 99.8772 11.3586C98.4881 13.9351 97.754 16.4507 97.673 18.9059C97.7132 19.1881 97.754 19.4694 97.7943 19.7511C97.8345 20.0334 97.8541 20.3347 97.8541 20.6562C97.8541 21.3007 97.5377 21.8894 96.9037 22.4232C96.2698 22.9555 95.5604 23.2231 94.7755 23.2231C94.3127 23.2231 93.9706 22.9957 93.7487 22.5429C93.5263 22.0911 93.4161 21.5317 93.4161 20.8686C93.4161 20.2044 93.5665 19.2983 93.8694 18.1512C94.1718 17.0036 94.5034 15.786 94.8656 14.4981C95.8316 11.0975 96.3251 8.56177 96.3448 6.89142C96.3448 6.04567 96.2396 5.38206 96.0283 4.89856C95.817 4.41607 95.409 4.17458 94.8057 4.17458C93.719 4.17458 92.6408 4.94938 91.5747 6.49898C90.5076 8.04909 89.5527 10.4535 88.7064 13.7137C88.4855 14.5589 88.3145 15.294 88.1937 15.9169L88.1631 16.4909C88.5454 18.3429 88.7371 19.5499 88.7371 20.1139C88.7371 21.2811 88.324 22.0655 87.4999 22.4685C87.1166 22.6491 86.7488 22.8202 86.3971 22.9811C86.0454 23.1421 85.6681 23.2231 85.2651 23.2231C84.395 23.2231 83.901 22.5042 83.7833 21.067C83.1869 21.5521 82.5335 21.959 81.8249 22.2863C80.9992 22.6697 80.2144 22.8603 79.4703 22.8603C78.7256 22.8603 78.142 22.72 77.7194 22.4377C77.2968 22.156 76.9647 21.7736 76.7227 21.2911C76.3811 20.6069 76.0989 19.3033 75.878 17.3809C75.6556 15.46 75.4347 14.1167 75.2134 13.3514C74.6896 13.2508 74.2328 13.045 73.8399 12.7326C73.4479 12.4206 73.2512 12.0383 73.2512 11.5855C73.2512 11.1327 73.4575 10.8051 73.8706 10.6039C74.2821 10.4036 74.7555 10.302 75.2893 10.302C75.8216 10.302 76.3006 10.4333 76.7227 10.6949C77.2862 10.2321 77.7441 9.68367 78.0967 9.04924C78.4484 8.41531 78.6245 7.56051 78.6245 6.48384C78.6245 5.40767 78.2628 4.54683 77.5378 3.90284C76.8133 3.25835 75.7522 2.93685 74.353 2.93685C72.9544 2.93685 71.8822 3.04754 71.1386 3.26891C70.3935 3.49028 69.754 3.73228 69.2212 3.9934C68.6879 4.25502 68.215 4.49652 67.8024 4.71789C67.3899 4.93927 67.0025 5.04995 66.6407 5.04995C66.2785 5.04995 66.0974 4.93423 66.0974 4.7028C66.0974 4.47187 66.288 4.09453 66.6704 3.57078C67.0528 3.04754 67.6168 2.5248 68.3614 2.00055C70.2325 0.692945 72.3461 0.0439223 74.7007 0.0538694ZM116.979 16.4367C118.648 16.4367 120 17.7891 120 19.4574C120 21.1257 118.647 22.4781 116.978 22.4781C115.311 22.4771 113.959 21.1247 113.959 19.4564C113.959 17.7881 115.312 16.4357 116.979 16.4367ZM84.6925 3.23878C84.4103 3.23878 84.1537 3.31927 83.9218 3.48027C83.6908 3.64127 83.4589 3.81183 83.228 3.99345C83.1281 4.07144 83.0276 4.14755 82.9262 4.22181C83.1176 4.79333 83.2135 5.42188 83.2135 6.1065C83.2331 7.83773 82.7803 9.27615 81.8545 10.4233C80.9288 11.5704 79.7822 12.396 78.4132 12.8986C78.7156 13.5622 78.9616 14.2766 79.1533 15.0414C79.3435 15.8066 79.5306 16.5115 79.7113 17.155C79.8929 17.7995 80.0982 18.3323 80.3301 18.7549C80.561 19.1775 80.8433 19.3888 81.1753 19.3888C81.5074 19.3888 81.9104 19.1931 82.3828 18.8002C82.8557 18.4077 83.3237 17.9806 83.7865 17.5177L83.9921 17.3116C84.2446 15.2592 84.6995 12.5103 85.3567 9.06438C85.738 7.05241 85.9297 5.92543 85.9297 5.68393C85.9297 4.05332 85.5166 3.23878 84.6925 3.23878Z" fill="#87D6F7"/>
</svg>
