<svg width="91" height="42" viewBox="0 0 91 42" fill="none" xmlns="http://www.w3.org/2000/svg">
<path d="M54.57 18.2264H52.3201C52.2751 18.0131 52.2301 17.7997 52.2151 17.5711C52.1701 17.0835 52.1701 16.611 52.2151 16.1234C52.2451 15.8795 52.2751 15.6662 52.3201 15.4681H57.915V33.5269C57.63 33.5726 57.36 33.6183 57.075 33.6335C56.79 33.6488 56.505 33.664 56.235 33.664C55.965 33.664 55.695 33.6488 55.425 33.6335C55.14 33.6183 54.855 33.5726 54.585 33.5269V18.2264H54.57ZM74.0396 22.7678C74.0396 22.1125 73.9496 21.4877 73.7846 20.8781C73.6346 20.3142 73.3646 19.7808 73.0196 19.3084C72.6746 18.8512 72.2396 18.4855 71.7446 18.2417C71.2347 17.9673 70.6047 17.8302 69.8997 17.8302C68.4897 17.8302 67.4247 18.2721 66.6748 19.1408C65.9248 20.0094 65.4748 21.2134 65.3098 22.7678C65.3098 22.7678 74.0396 22.7678 74.0396 22.7678ZM65.2798 25.3737C65.3248 27.3396 65.8198 28.7874 66.7798 29.7017C67.7397 30.6161 69.1497 31.0733 71.0097 31.0733C72.6446 31.0733 74.1896 30.7837 75.6746 30.1894C75.8546 30.5399 76.0045 30.9666 76.1245 31.4695C76.2445 31.9572 76.3045 32.4601 76.3345 32.963C75.5696 33.2983 74.7446 33.5421 73.8296 33.7097C72.9146 33.8774 71.9096 33.9536 70.8147 33.9536C69.2097 33.9536 67.8297 33.725 66.6748 33.2678C65.5198 32.8106 64.5748 32.1705 63.8248 31.3324C63.0748 30.4942 62.5349 29.5189 62.1899 28.3759C61.8449 27.2329 61.6649 25.9833 61.6649 24.627C61.6649 23.2859 61.8299 22.0363 62.1599 20.8781C62.4899 19.7199 62.9998 18.7141 63.6898 17.8454C64.3798 16.992 65.2498 16.3062 66.2998 15.8033C67.3497 15.3004 68.5797 15.0414 70.0047 15.0414C71.2197 15.0414 72.2996 15.2547 73.2146 15.6814C74.0996 16.0777 74.8946 16.672 75.5246 17.4187C76.1395 18.1655 76.6195 19.0341 76.9345 20.0552C77.2495 21.0762 77.4145 22.1887 77.4145 23.3774C77.4145 23.7126 77.3995 24.0479 77.3845 24.4136C77.3695 24.7184 77.3395 25.0385 77.3095 25.3433L65.2798 25.3737ZM81.1794 15.4833C81.4194 15.4376 81.6594 15.4071 81.8994 15.3766C82.1394 15.3462 82.3794 15.3462 82.6194 15.3462C82.8744 15.3462 83.1294 15.3614 83.3844 15.3766C83.6394 15.4071 83.8644 15.4376 84.0744 15.4833C84.1494 15.8338 84.2094 16.3062 84.2844 16.8701C84.3593 17.4492 84.3894 17.9369 84.3894 18.3331C84.8843 17.5254 85.5443 16.8091 86.3093 16.2605C87.1043 15.6814 88.1243 15.3766 89.3692 15.3766C89.5492 15.3766 89.7442 15.3766 89.9392 15.3919C90.1042 15.4071 90.2692 15.4224 90.4342 15.4376C90.4792 15.6509 90.5092 15.8795 90.5392 16.1081C90.5842 16.6415 90.5842 17.1901 90.5242 17.7235C90.4942 18.0131 90.4492 18.3179 90.4042 18.6074C90.2242 18.5617 90.0292 18.5312 89.8342 18.5312H89.3692C88.7543 18.5312 88.1543 18.6226 87.5843 18.7903C87.0143 18.9732 86.4893 19.2932 86.0693 19.7199C85.6193 20.1618 85.2593 20.7714 85.0043 21.5486C84.7343 22.3258 84.6143 23.3164 84.6143 24.5356V33.5116C84.3294 33.5573 84.0594 33.603 83.7744 33.6183C83.4894 33.6335 83.2044 33.6488 82.9344 33.6488C82.3494 33.6488 81.7794 33.6031 81.2094 33.5116L81.1794 15.4833ZM56.97 5.83672C56.97 6.26343 56.895 6.67489 56.745 7.07112C56.355 7.22351 55.95 7.29971 55.53 7.29971C55.11 7.29971 54.705 7.22351 54.315 7.07112C54.165 6.67489 54.0901 6.26343 54.0901 5.83672C54.0901 5.39478 54.165 4.98331 54.315 4.60232C54.705 4.44993 55.11 4.37373 55.53 4.37373C55.95 4.37373 56.37 4.44993 56.745 4.60232C56.895 4.98331 56.97 5.41002 56.97 5.83672ZM61.1849 4.86139H57.84L60.2099 2.45355C59.8349 1.92017 59.3849 1.44775 58.8599 1.082L56.49 3.48984V0.0761974C56.175 0.0152395 55.86 0 55.545 0C55.215 0 54.9 0.030479 54.6 0.0761974V3.48984L52.2301 1.082C51.9751 1.26488 51.7201 1.47823 51.4951 1.70682C51.2701 1.93541 51.0601 2.19448 50.8801 2.45355L53.2501 4.86139H49.9051C49.9051 4.86139 49.8301 5.50145 49.8301 5.83672C49.8301 6.17199 49.8601 6.49202 49.9051 6.81205H53.2201L50.8501 9.21988C51.2251 9.75327 51.6751 10.2105 52.2001 10.5914L54.57 8.1836V11.5972C54.885 11.643 55.2 11.6734 55.515 11.6734H55.53C55.845 11.6734 56.16 11.643 56.475 11.5972V8.1836L58.8449 10.5914C59.3699 10.2105 59.8199 9.75327 60.1949 9.21988L57.825 6.81205H61.1699C61.2149 6.49202 61.2449 6.17199 61.2449 5.83672V5.82148C61.2599 5.50145 61.2299 5.18142 61.1849 4.86139ZM0.571289 33.0544L9.88607 18.2569H1.68126C1.60627 17.7845 1.57627 17.3273 1.57627 16.8549C1.57627 16.3672 1.60627 15.91 1.68126 15.4833H14.971L15.151 15.9405L5.76117 30.7685H14.566C14.641 31.2409 14.671 31.7134 14.671 32.2163C14.671 32.6887 14.641 33.1306 14.566 33.5573H0.766284L0.571289 33.0544ZM27.4507 25.0537C27.0157 24.9927 26.5807 24.947 26.1457 24.9165C25.6957 24.8708 25.2457 24.8556 24.7957 24.8403C23.3708 24.8403 22.2758 25.1147 21.5408 25.648C20.7908 26.1814 20.4158 27.0044 20.4158 28.1168C20.4158 28.8179 20.5358 29.3665 20.7908 29.7779C21.0458 30.1742 21.3608 30.479 21.7358 30.6923C22.1258 30.9057 22.5608 31.0428 22.9958 31.0733C23.4608 31.119 23.8957 31.1495 24.3007 31.1495C24.8257 31.1495 25.3807 31.119 25.9357 31.0581C26.5057 30.9971 27.0007 30.9057 27.4357 30.799L27.4507 25.0537ZM27.4507 21.6401C27.4507 20.2533 27.1057 19.2932 26.4157 18.7446C25.7257 18.2112 24.7207 17.9369 23.4158 17.9369C22.6058 17.9369 21.8558 17.9978 21.1508 18.135C20.4608 18.2569 19.7708 18.4398 19.0959 18.6379C18.6609 17.8607 18.4359 16.9311 18.4359 15.8491C19.2159 15.59 20.0858 15.3919 21.0308 15.2547C21.9308 15.1176 22.8458 15.0414 23.7608 15.0414C26.0557 15.0414 27.8107 15.5747 29.0106 16.6415C30.2106 17.7083 30.8106 19.4151 30.8106 21.762V33.0697C30.0006 33.2525 29.0256 33.4507 27.8707 33.6488C26.7007 33.8469 25.5307 33.9536 24.3457 33.9536C23.2208 33.9536 22.2008 33.8469 21.2858 33.6335C20.3708 33.4202 19.6058 33.0849 18.9759 32.6125C18.3459 32.1553 17.8359 31.5305 17.5059 30.8142C17.1609 30.0827 16.9959 29.1988 16.9959 28.1778C16.9959 27.172 17.1909 26.2881 17.5959 25.5261C17.9859 24.7794 18.5559 24.1241 19.2309 23.6212C19.9508 23.103 20.7608 22.7221 21.6158 22.4935C22.5158 22.2496 23.4608 22.1277 24.4507 22.1277C25.1857 22.1277 25.7857 22.143 26.2657 22.1734C26.7307 22.2039 27.1357 22.2496 27.4507 22.2954V21.6401ZM37.9504 30.5856C38.3854 30.7533 38.8354 30.8752 39.3004 30.9361C39.7654 31.0123 40.3654 31.0428 41.1004 31.0428C41.9253 31.0428 42.6903 30.9057 43.3803 30.6313C44.0703 30.3723 44.6703 29.9303 45.1653 29.3817C45.6602 28.8179 46.0502 28.1016 46.3352 27.2482C46.6202 26.3948 46.7702 25.3737 46.7702 24.2003C46.7702 22.3258 46.4252 20.8324 45.7502 19.7351C45.0753 18.6379 43.9653 18.074 42.4203 18.074C41.8503 18.074 41.2953 18.1807 40.7704 18.3941C40.2454 18.6074 39.7504 18.9274 39.3604 19.3389C38.9404 19.7656 38.6104 20.299 38.3554 20.939C38.1004 21.5791 37.9804 22.3563 37.9804 23.2402V30.5856H37.9504ZM34.5305 15.4833C35.0105 15.3919 35.4905 15.3462 35.9855 15.3462C36.2105 15.3462 36.4505 15.3614 36.7055 15.3766C36.9604 15.4071 37.2004 15.4376 37.4254 15.4833C37.4404 15.529 37.4704 15.6814 37.5154 15.9253C37.5454 16.1691 37.5904 16.4282 37.6204 16.7177C37.6504 16.992 37.6954 17.2663 37.7254 17.5254C37.7554 17.7845 37.7704 17.9521 37.7704 18.0131C37.9954 17.6321 38.2804 17.2663 38.5954 16.9158C38.9404 16.5501 39.3304 16.23 39.7504 15.971C40.2304 15.6814 40.7404 15.4528 41.2653 15.3004C41.8803 15.1328 42.5103 15.0414 43.1403 15.0566C44.1753 15.0566 45.1353 15.2395 46.0202 15.59C46.9052 15.9405 47.6852 16.5044 48.3002 17.2206C48.9302 17.9673 49.4252 18.897 49.7852 20.0399C50.1451 21.1829 50.3251 22.5239 50.3251 24.0784C50.3251 27.172 49.5002 29.5951 47.8502 31.3476C46.2002 33.1001 43.8753 33.9688 40.8604 33.9688C40.3354 33.9688 39.8254 33.9383 39.3004 33.8621C38.7754 33.7859 38.3104 33.6945 37.9204 33.5878V41.8628C37.6354 41.9086 37.3354 41.9543 37.0354 41.9695C36.7505 41.9848 36.4655 42 36.1955 42C35.9105 42 35.6255 41.9848 35.3555 41.9695C35.0705 41.9543 34.7855 41.9086 34.5155 41.8628V15.4833H34.5305Z" fill="#FF4A00"/>
</svg>
