<svg width="135" height="44" viewBox="0 0 135 44" fill="none" xmlns="http://www.w3.org/2000/svg">
<path d="M44.7265 23.4863C44.7265 26.3835 46.9339 28.5909 50.038 28.5909C52.0661 28.5909 53.3215 27.6527 54.0527 26.7008C54.4804 26.1351 54.7977 25.5005 55.0047 24.7969H56.1084V23.0724H51.3487V24.7969H52.8663C52.7421 25.1418 52.549 25.4591 52.3006 25.7351C51.8729 26.2179 51.1831 26.6594 50.038 26.6594C48.1618 26.6594 46.9339 25.4315 46.9339 23.4863C46.9339 21.5962 48.2032 20.3132 50.038 20.3132C51.1417 20.3132 51.8178 20.7132 52.2454 21.1409C52.48 21.3755 52.6731 21.6514 52.7973 21.9687H54.9357C54.7563 21.2927 54.4528 20.6995 54.0389 20.1752C53.3353 19.2784 52.1213 18.3817 50.038 18.3817C46.9339 18.3817 44.7265 20.5891 44.7265 23.4863ZM56.4331 24.7969C56.4331 26.8663 58.0748 28.5219 60.296 28.5219C62.4896 28.5219 64.159 26.8663 64.159 24.7969C64.159 22.7275 62.4896 21.0719 60.296 21.0719C58.0748 21.0719 56.4331 22.7275 56.4331 24.7969ZM58.4335 24.7969C58.4335 23.5553 59.2613 22.7275 60.296 22.7275C61.3307 22.7275 62.1585 23.5553 62.1585 24.7969C62.1585 26.0386 61.3307 26.8663 60.296 26.8663C59.2613 26.8663 58.4335 26.0386 58.4335 24.7969ZM64.7612 24.7969C64.7612 26.8663 66.403 28.5219 68.6241 28.5219C70.8177 28.5219 72.4871 26.8663 72.4871 24.7969C72.4871 22.7275 70.8177 21.0719 68.6241 21.0719C66.403 21.0719 64.7612 22.7275 64.7612 24.7969ZM66.7617 24.7969C66.7617 23.5553 67.5894 22.7275 68.6241 22.7275C69.6589 22.7275 70.4866 23.5553 70.4866 24.7969C70.4866 26.0386 69.6589 26.8663 68.6241 26.8663C67.5894 26.8663 66.7617 26.0386 66.7617 24.7969ZM73.1583 24.7279C73.1583 26.9215 74.6069 28.3839 76.4004 28.3839C77.173 28.3839 77.6973 28.108 78.0698 27.8321C78.2767 27.6665 78.4561 27.4734 78.6078 27.2664H78.6768V29.2807H74.193V30.9362H80.6083V21.2789H78.6768V22.1894H78.6078C78.4561 21.9825 78.2767 21.8031 78.0698 21.6376C77.6973 21.3617 77.173 21.0719 76.4004 21.0719C74.6069 21.0719 73.1583 22.5343 73.1583 24.7279ZM75.1588 24.7279C75.1588 23.4725 75.9038 22.7275 76.9523 22.7275C77.9318 22.7275 78.6768 23.4725 78.6768 24.7279C78.6768 25.9834 77.9318 26.7284 76.9523 26.7284C75.9038 26.7284 75.1588 25.9834 75.1588 24.7279ZM82.0334 28.3149H85.5515V26.6594H83.9649V18.6576H82.0334V28.3149ZM85.9463 24.7969C85.9463 26.8663 87.588 28.5219 89.7402 28.5219C91.2578 28.5219 92.1545 27.9011 92.7064 27.2802C93.0237 26.9077 93.2444 26.4938 93.3962 26.0386H91.3268C91.244 26.1903 91.1336 26.3283 90.9957 26.4525C90.7335 26.6594 90.361 26.8663 89.7402 26.8663C88.8435 26.8663 88.0985 26.1076 87.9467 25.2108H93.4652V24.7969C93.4652 22.7413 91.9476 21.0719 89.7402 21.0719C87.588 21.0719 85.9463 22.7275 85.9463 24.7969ZM88.0157 24.0381C88.2226 23.3345 88.8435 22.7275 89.7402 22.7275C90.637 22.7275 91.2578 23.3483 91.3958 24.0381H88.0157ZM98.5213 28.3149H100.108V24.452H104.178V22.9344H100.108V20.1752H105.281V18.6576H98.5213V28.3149ZM105.462 24.7969C105.462 26.8525 107.063 28.4529 109.118 28.4529C111.174 28.4529 112.774 26.8525 112.774 24.7969C112.774 22.7413 111.174 21.1409 109.118 21.1409C107.063 21.1409 105.462 22.7413 105.462 24.7969ZM106.98 24.7969C106.98 23.3621 107.863 22.4516 109.118 22.4516C110.374 22.4516 111.257 23.3621 111.257 24.7969C111.257 26.2317 110.374 27.1423 109.118 27.1423C107.863 27.1423 106.98 26.2317 106.98 24.7969ZM113.921 28.3149H115.37V24.521C115.37 23.3483 116.198 22.5895 117.301 22.5895H118.198V21.2099H117.37C116.667 21.2099 116.198 21.4858 115.88 21.7618C115.701 21.9273 115.549 22.1067 115.439 22.3136H115.37V21.2789H113.921V28.3149ZM119.205 28.3149H120.653V24.452C120.653 23.2793 121.495 22.4516 122.447 22.4516C123.426 22.4516 123.964 23.0034 123.964 24.1761V28.3149H125.413V24.452C125.413 23.2793 126.254 22.4516 127.206 22.4516C128.186 22.4516 128.724 23.0034 128.724 24.1761V28.3149H130.173V24.1071C130.173 22.1618 129.152 21.1409 127.551 21.1409C126.655 21.1409 126.048 21.472 125.675 21.8031C125.441 21.9963 125.261 22.217 125.137 22.4516H125.068C124.958 22.217 124.806 21.9963 124.599 21.8031C124.254 21.472 123.688 21.1409 122.792 21.1409C122.019 21.1409 121.522 21.4169 121.191 21.6928C120.998 21.8583 120.846 22.0377 120.722 22.2446H120.653V21.2789H119.205V28.3149Z" fill="#727C90"/>
<g clip-path="url(#clip0_33_1622)">
<mask id="mask0_33_1622" style="mask-type:alpha" maskUnits="userSpaceOnUse" x="0" y="0" width="32" height="44">
<path d="M19.5772 -3.05176e-05H2.93658C1.32146 -3.05176e-05 0 1.32143 0 2.93655V40.1332C0 41.7484 1.32146 43.0698 2.93658 43.0698H28.3869C30.0021 43.0698 31.3235 41.7484 31.3235 40.1332V11.7463L19.5772 -3.05176e-05Z" fill="white"/>
</mask>
<g mask="url(#mask0_33_1622)">
<path d="M19.5772 -6.10352e-05H2.93658C1.32146 -6.10352e-05 0 1.3214 0 2.93652V40.1332C0 41.7483 1.32146 43.0698 2.93658 43.0698H28.3869C30.0021 43.0698 31.3235 41.7483 31.3235 40.1332V11.7463L24.4715 6.85196L19.5772 -6.10352e-05Z" fill="#673AB7"/>
</g>
<mask id="mask1_33_1622" style="mask-type:alpha" maskUnits="userSpaceOnUse" x="0" y="0" width="32" height="44">
<path d="M19.5772 -3.05176e-05H2.93658C1.32146 -3.05176e-05 0 1.32143 0 2.93655V40.1332C0 41.7484 1.32146 43.0698 2.93658 43.0698H28.3869C30.0021 43.0698 31.3235 41.7484 31.3235 40.1332V11.7463L19.5772 -3.05176e-05Z" fill="white"/>
</mask>
<g mask="url(#mask1_33_1622)">
<path d="M12.725 33.2813H23.4925V31.3236H12.725V33.2813ZM12.725 21.535V23.4927H23.4925V21.535H12.725ZM10.2779 22.5138C10.2779 23.3239 9.61961 23.9821 8.8096 23.9821C7.99959 23.9821 7.34131 23.3239 7.34131 22.5138C7.34131 21.7038 7.99959 21.0456 8.8096 21.0456C9.61961 21.0456 10.2779 21.7038 10.2779 22.5138ZM10.2779 27.4081C10.2779 28.2182 9.61961 28.8764 8.8096 28.8764C7.99959 28.8764 7.34131 28.2182 7.34131 27.4081C7.34131 26.5981 7.99959 25.9399 8.8096 25.9399C9.61961 25.9399 10.2779 26.5981 10.2779 27.4081ZM10.2779 32.3024C10.2779 33.1125 9.61961 33.7707 8.8096 33.7707C7.99959 33.7707 7.34131 33.1125 7.34131 32.3024C7.34131 31.4924 7.99959 30.8342 8.8096 30.8342C9.61961 30.8342 10.2779 31.4924 10.2779 32.3024ZM12.725 28.387H23.4925V26.4293H12.725V28.387Z" fill="#F1F1F1"/>
</g>
<mask id="mask2_33_1622" style="mask-type:alpha" maskUnits="userSpaceOnUse" x="0" y="0" width="32" height="44">
<path d="M19.5772 -3.05176e-05H2.93658C1.32146 -3.05176e-05 0 1.32143 0 2.93655V40.1332C0 41.7484 1.32146 43.0698 2.93658 43.0698H28.3869C30.0021 43.0698 31.3235 41.7484 31.3235 40.1332V11.7463L19.5772 -3.05176e-05Z" fill="white"/>
</mask>
<g mask="url(#mask2_33_1622)">
<path d="M20.4355 10.8876L31.3229 21.7725V11.7465L20.4355 10.8876Z" fill="url(#paint0_linear_33_1622)"/>
</g>
<mask id="mask3_33_1622" style="mask-type:alpha" maskUnits="userSpaceOnUse" x="0" y="0" width="32" height="44">
<path d="M19.5772 -3.05176e-05H2.93658C1.32146 -3.05176e-05 0 1.32143 0 2.93655V40.1332C0 41.7484 1.32146 43.0698 2.93658 43.0698H28.3869C30.0021 43.0698 31.3235 41.7484 31.3235 40.1332V11.7463L19.5772 -3.05176e-05Z" fill="white"/>
</mask>
<g mask="url(#mask3_33_1622)">
<path d="M19.5771 2.67029e-05V8.80977C19.5771 10.4322 20.8913 11.7463 22.5137 11.7463H31.3235L19.5771 2.67029e-05Z" fill="#B39DDB"/>
</g>
<mask id="mask4_33_1622" style="mask-type:alpha" maskUnits="userSpaceOnUse" x="0" y="0" width="32" height="44">
<path d="M19.5772 -3.05176e-05H2.93658C1.32146 -3.05176e-05 0 1.32143 0 2.93655V40.1332C0 41.7484 1.32146 43.0698 2.93658 43.0698H28.3869C30.0021 43.0698 31.3235 41.7484 31.3235 40.1332V11.7463L19.5772 -3.05176e-05Z" fill="white"/>
</mask>
<g mask="url(#mask4_33_1622)">
<path d="M2.93658 -6.10352e-05C1.32146 -6.10352e-05 0 1.3214 0 2.93652V3.18123C0 1.56611 1.32146 0.244654 2.93658 0.244654H19.5772V-6.10352e-05H2.93658Z" fill="white" fill-opacity="0.2"/>
</g>
<mask id="mask5_33_1622" style="mask-type:alpha" maskUnits="userSpaceOnUse" x="0" y="0" width="32" height="44">
<path d="M19.5772 -3.05176e-05H2.93658C1.32146 -3.05176e-05 0 1.32143 0 2.93655V40.1332C0 41.7484 1.32146 43.0698 2.93658 43.0698H28.3869C30.0021 43.0698 31.3235 41.7484 31.3235 40.1332V11.7463L19.5772 -3.05176e-05Z" fill="white"/>
</mask>
<g mask="url(#mask5_33_1622)">
<path d="M28.3869 42.8249H2.93658C1.32146 42.8249 0 41.5035 0 39.8884V40.1331C0 41.7482 1.32146 43.0697 2.93658 43.0697H28.3869C30.0021 43.0697 31.3235 41.7482 31.3235 40.1331V39.8884C31.3235 41.5035 30.0021 42.8249 28.3869 42.8249Z" fill="#311B92" fill-opacity="0.2"/>
</g>
<mask id="mask6_33_1622" style="mask-type:alpha" maskUnits="userSpaceOnUse" x="0" y="0" width="32" height="44">
<path d="M19.5772 -3.05176e-05H2.93658C1.32146 -3.05176e-05 0 1.32143 0 2.93655V40.1332C0 41.7484 1.32146 43.0698 2.93658 43.0698H28.3869C30.0021 43.0698 31.3235 41.7484 31.3235 40.1332V11.7463L19.5772 -3.05176e-05Z" fill="white"/>
</mask>
<g mask="url(#mask6_33_1622)">
<path d="M22.5137 11.7462C20.8913 11.7462 19.5771 10.432 19.5771 8.80959V9.0543C19.5771 10.6768 20.8913 11.9909 22.5137 11.9909H31.3235V11.7462H22.5137Z" fill="#311B92" fill-opacity="0.1"/>
</g>
<path d="M19.5772 -6.10352e-05H2.93658C1.32146 -6.10352e-05 0 1.3214 0 2.93652V40.1332C0 41.7483 1.32146 43.0698 2.93658 43.0698H28.3869C30.0021 43.0698 31.3235 41.7483 31.3235 40.1332V11.7463L19.5772 -6.10352e-05Z" fill="url(#paint1_radial_33_1622)"/>
</g>
<defs>
<linearGradient id="paint0_linear_33_1622" x1="25.8798" y1="11.8222" x2="25.8798" y2="21.774" gradientUnits="userSpaceOnUse">
<stop stop-color="#311B92" stop-opacity="0.2"/>
<stop offset="1" stop-color="#311B92" stop-opacity="0.02"/>
</linearGradient>
<radialGradient id="paint1_radial_33_1622" cx="0" cy="0" r="1" gradientUnits="userSpaceOnUse" gradientTransform="translate(0.992345 0.856042) scale(50.5087)">
<stop stop-color="white" stop-opacity="0.1"/>
<stop offset="1" stop-color="white" stop-opacity="0"/>
</radialGradient>
<clipPath id="clip0_33_1622">
<rect width="31.7647" height="43.6765" fill="white"/>
</clipPath>
</defs>
</svg>
