<svg width="127" height="33" viewBox="0 0 127 33" fill="none" xmlns="http://www.w3.org/2000/svg">
<path d="M66.2501 8.25573H62.1489L59.2465 13.3429H57.7526L57.7048 2.33336H53.8223V22.2169H57.7048L57.7526 16.7596H59.2369L63.0909 22.2169H67.3921L62.3675 14.9848L66.2501 8.25573Z" fill="black"/>
<path d="M95.6352 14.8045C94.8464 14.2954 93.9913 13.8962 93.0942 13.6181L92.2377 13.2955L92.0095 13.21C91.4766 13.0107 90.9152 12.8019 90.8961 12.2609C90.8913 12.1007 90.9266 11.9418 91.0001 11.7991C91.0732 11.6563 91.1816 11.5344 91.3148 11.4447C91.596 11.2515 91.9254 11.1398 92.2663 11.122C93.0097 11.0709 93.7469 11.29 94.3408 11.7389L94.4454 11.8054L96.5199 9.42314L96.4153 9.33776C96.157 9.10809 95.8768 8.90462 95.5779 8.73033C95.0427 8.425 94.4611 8.21014 93.8557 8.09442C92.9834 7.90938 92.082 7.90938 91.2102 8.09442C90.3671 8.20571 89.5673 8.53266 88.8884 9.04352C88.4539 9.38233 88.0911 9.80319 87.8199 10.2819C87.5492 10.7607 87.3754 11.288 87.3086 11.8339C87.1897 12.8188 87.4403 13.8128 88.0128 14.6242C88.7729 15.4639 89.7669 16.0586 90.8674 16.3326L91.0388 16.3895L91.4289 16.5224C92.8373 16.9969 93.237 17.1868 93.4652 17.4715C93.5717 17.6147 93.6313 17.787 93.6366 17.965C93.6366 18.6389 92.8087 18.9141 92.2472 19.085C91.8548 19.1585 91.4513 19.1509 91.0617 19.0628C90.6721 18.9747 90.305 18.8078 89.9827 18.5724C89.4609 18.2245 89.0145 17.776 88.6693 17.2532C88.4506 17.481 86.2997 19.5975 86.3379 19.6354L86.4047 19.7303C87.4408 21.0243 88.8927 21.9226 90.5155 22.2739C90.886 22.3454 91.2613 22.393 91.6385 22.4163H92.0286C93.3105 22.443 94.5662 22.0533 95.6065 21.3059C96.3103 20.8094 96.8498 20.1157 97.1577 19.3127C97.3449 18.7737 97.4108 18.2002 97.3516 17.6329C97.2924 17.0655 97.1095 16.5179 96.8149 16.0289C96.5141 15.5411 96.1117 15.1236 95.6352 14.8045Z" fill="black"/>
<path d="M108.177 14.8044C107.392 14.2954 106.541 13.8962 105.646 13.6181L104.78 13.2954L104.562 13.21C104.019 13.0106 103.467 12.8018 103.439 12.2609C103.441 12.1009 103.481 11.9438 103.556 11.8021C103.63 11.6603 103.737 11.5379 103.867 11.4446C104.148 11.2513 104.478 11.1397 104.818 11.122C105.562 11.0725 106.298 11.2914 106.893 11.7389L106.988 11.8053L109.062 9.42306L108.967 9.33763C108.707 9.10577 108.424 8.90215 108.12 8.73025C107.589 8.42529 107.01 8.21039 106.407 8.09434C105.532 7.90906 104.628 7.90906 103.753 8.09434C102.911 8.20891 102.111 8.53553 101.431 9.04344C100.994 9.37906 100.627 9.79753 100.353 10.2748C100.079 10.752 99.9017 11.2786 99.832 11.8243C99.7074 12.8096 99.9586 13.8056 100.536 14.6146C101.296 15.4543 102.29 16.049 103.391 16.323L103.553 16.38L103.943 16.5128C105.361 16.9873 105.76 17.1772 105.989 17.4619C106.098 17.6027 106.156 17.7772 106.151 17.9554C106.151 18.6293 105.332 18.9045 104.771 19.0754C104.377 19.1491 103.971 19.1417 103.58 19.0536C103.189 18.9654 102.82 18.7984 102.497 18.5629C101.979 18.2099 101.534 17.7622 101.183 17.2436C100.974 17.4714 98.8232 19.5879 98.8518 19.6259L98.9278 19.7208C99.9643 21.0147 101.416 21.913 103.039 22.2643C103.41 22.3364 103.785 22.384 104.162 22.4067H104.552C105.834 22.4335 107.09 22.0437 108.13 21.2962C108.834 20.7999 109.373 20.1061 109.681 19.3031C109.868 18.7641 109.934 18.1907 109.875 17.6233C109.816 17.0559 109.633 16.5084 109.338 16.0193C109.041 15.5374 108.646 15.1235 108.177 14.8044Z" fill="black"/>
<path d="M79.0011 8.25575V9.62242H78.8302C77.7674 8.56113 76.3274 7.9609 74.824 7.95204C73.902 7.93385 72.9863 8.10956 72.1374 8.46766C71.288 8.8258 70.5236 9.35832 69.8944 10.0306C68.6253 11.4479 67.945 13.2939 67.9913 15.1936C67.9421 17.1252 68.621 19.0048 69.8944 20.4611C70.5088 21.1338 71.2608 21.6667 72.1001 22.0238C72.939 22.3808 73.8452 22.5535 74.7571 22.5301C76.263 22.5019 77.7111 21.9478 78.8488 20.9641H79.0011V22.1885H83.036V8.25575H79.0011ZM79.2012 15.2696C79.2418 16.3924 78.8655 17.4906 78.1446 18.3541C77.7994 18.7399 77.373 19.0453 76.8961 19.2487C76.4196 19.452 75.9035 19.5484 75.3854 19.531C74.8827 19.5394 74.3842 19.4346 73.9278 19.2242C73.4714 19.0138 73.0684 18.7035 72.7495 18.3161C72.0371 17.4348 71.6719 16.3245 71.7215 15.1936C71.6891 14.0968 72.0615 13.0261 72.7681 12.185C73.0937 11.8036 73.4995 11.4985 73.9569 11.2918C74.4143 11.085 74.9118 10.9817 75.4136 10.9891C75.9288 10.9731 76.4406 11.0713 76.9128 11.2764C77.385 11.4816 77.8061 11.7886 78.1446 12.1755C78.8655 13.0428 79.2413 14.1439 79.2012 15.2696Z" fill="black"/>
<path d="M122.889 8.25571V9.62242H122.717C121.657 8.56342 120.221 7.96333 118.721 7.95199C117.798 7.9349 116.881 8.111 116.03 8.469C115.18 8.82704 114.414 9.359 113.782 10.0305C112.513 11.4479 111.833 13.2939 111.879 15.1936C111.83 17.1252 112.509 19.0049 113.782 20.4611C114.397 21.1338 115.149 21.6667 115.987 22.0237C116.827 22.3807 117.733 22.5534 118.645 22.5301C120.151 22.5019 121.598 21.9478 122.737 20.9641H122.889V22.1885H126.924V8.25571H122.889ZM123.089 15.2695C123.134 16.393 122.757 17.4929 122.032 18.3541C121.687 18.7399 121.261 19.0453 120.784 19.2487C120.307 19.452 119.791 19.5484 119.273 19.531C118.77 19.5394 118.272 19.4346 117.815 19.2242C117.359 19.0139 116.956 18.7034 116.637 18.3161C115.925 17.4348 115.559 16.3245 115.609 15.1936C115.577 14.0967 115.949 13.0261 116.656 12.185C116.981 11.8035 117.387 11.4985 117.845 11.2918C118.302 11.085 118.8 10.9817 119.301 10.9891C119.816 10.9731 120.328 11.0712 120.8 11.2764C121.273 11.4815 121.693 11.7886 122.032 12.1755C122.757 13.0406 123.133 14.1432 123.089 15.2695Z" fill="black"/>
<path d="M27.3188 0C18.9424 0 12.2793 6.74052 12.2793 15C12.2793 23.3544 19.0376 30 27.3188 30C35.6 30 42.3582 23.2595 42.3582 15C42.3582 6.74052 35.6 0 27.3188 0ZM27.3188 20.5063C24.2728 20.5063 21.7028 17.943 21.7028 14.905C21.7028 11.8671 24.2728 9.30381 27.3188 9.30381C30.3648 9.30381 32.9348 11.8671 32.9348 14.905C32.8396 18.038 30.3648 20.5063 27.3188 20.5063Z" fill="url(#paint0_linear_33_1664)"/>
<path d="M12.1839 4.27218V26.1076H6.85342L0 4.27218H12.1839Z" fill="url(#paint1_linear_33_1664)"/>
<defs>
<linearGradient id="paint0_linear_33_1664" x1="27.3188" y1="0" x2="27.3188" y2="30" gradientUnits="userSpaceOnUse">
<stop stop-color="#0160D1"/>
<stop offset="1" stop-color="#00479C"/>
</linearGradient>
<linearGradient id="paint1_linear_33_1664" x1="6.09194" y1="4.27218" x2="6.09194" y2="26.1076" gradientUnits="userSpaceOnUse">
<stop stop-color="#0160D1"/>
<stop offset="1" stop-color="#00479C"/>
</linearGradient>
</defs>
</svg>
