<svg width="133" height="31" viewBox="0 0 133 31" fill="none" xmlns="http://www.w3.org/2000/svg">
<path opacity="0.75" d="M0 0V19.9001H20.0341L0 0Z" fill="#6AB0FF"/>
<path d="M20.0341 0H0V19.9001L20.0341 0Z" fill="#6AB0FF"/>
<path d="M92.9489 3.98089C89.9618 3.98089 87.3394 6.3845 87.3394 9.35147V15.9191H89.7448V13.5296H96.1537V15.9191H98.5591V9.35147C98.5591 6.3845 95.936 3.98089 92.9489 3.98089ZM96.1537 11.1447H89.7448V9.35611C89.7448 7.70838 91.2901 6.37041 92.9489 6.37041C94.6077 6.37041 96.1537 7.70838 96.1537 9.35611V11.1447Z" fill="#6AB0FF"/>
<path d="M126.202 3.98089C123.215 3.98089 120.592 6.3845 120.592 9.35147V15.9191H122.998V13.5296H129.406V15.9191H131.811V9.35147C131.811 6.3845 129.189 3.98089 126.202 3.98089ZM129.406 11.1447H122.998V9.35611C122.998 7.70838 124.543 6.37041 126.202 6.37041C127.861 6.37041 129.406 7.70838 129.406 9.35611V11.1447Z" fill="#6AB0FF"/>
<path d="M68.5096 3.98089C65.192 3.98089 62.498 6.65208 62.498 9.95232C62.498 13.2479 65.1872 15.9237 68.5096 15.9237C71.8272 15.9237 74.5211 13.2526 74.5211 9.95232C74.5211 6.65208 71.8272 3.98089 68.5096 3.98089ZM68.5096 13.5296C66.52 13.5296 64.9037 11.924 64.9037 9.94768C64.9037 7.97126 66.52 6.36572 68.5096 6.36572C70.4996 6.36572 72.1157 7.97126 72.1157 9.94768C72.1157 11.9287 70.4996 13.5296 68.5096 13.5296Z" fill="#6AB0FF"/>
<path d="M59.9507 9.31894C60.2485 8.79782 60.4186 8.20168 60.4186 7.55851C60.4186 5.5821 58.8023 3.97656 56.8125 3.97656H52.0864V15.9148H58.0177C60.0075 15.9148 61.6237 14.3092 61.6237 12.3328C61.6191 11.07 60.9527 9.9574 59.9507 9.31894ZM54.4873 6.36608H56.8125C57.4742 6.36608 58.013 6.90127 58.013 7.55851C58.013 8.21574 57.4742 8.75092 56.8125 8.75092H54.4873V6.36608ZM58.013 13.5299H54.4873V11.1404H58.013C58.6747 11.1404 59.2134 11.6756 59.2134 12.3328C59.2134 12.99 58.6747 13.5299 58.013 13.5299Z" fill="#6AB0FF"/>
<path d="M44.6711 3.98089C41.3533 3.98089 38.6594 6.65208 38.6594 9.95232C38.6594 13.2479 41.3486 15.9237 44.6711 15.9237C47.9936 15.9237 50.6828 13.2526 50.6828 9.95232C50.6828 6.65208 47.9889 3.98089 44.6711 3.98089ZM44.6711 13.5296C42.6814 13.5296 41.0651 11.924 41.0651 9.94768C41.0651 7.97126 42.6814 6.36572 44.6711 6.36572C46.6608 6.36572 48.2771 7.97126 48.2771 9.94768C48.2771 11.9287 46.6608 13.5296 44.6711 13.5296Z" fill="#6AB0FF"/>
<path d="M106.158 8.77868L106.172 8.75526H103.37C102.708 8.75526 102.17 8.22008 102.17 7.56285C102.17 6.90561 102.708 6.37041 103.37 6.37041H107.774L109.377 3.98089H103.365C101.376 3.98089 99.7588 5.58643 99.7588 7.56285C99.7588 9.4125 101.167 10.9335 102.978 11.1213L102.964 11.1447H105.766C106.427 11.1447 106.966 11.6799 106.966 12.3372C106.966 12.9944 106.427 13.5296 105.766 13.5296H101.361L99.7588 15.9191H105.77C107.76 15.9191 109.377 14.3136 109.377 12.3372C109.377 10.4875 107.963 8.96647 106.158 8.77868Z" fill="#6AB0FF"/>
<path d="M113.38 3.98089C111.39 3.98089 109.774 5.58643 109.774 7.56285C109.774 9.4125 111.182 10.9335 112.992 11.1213L112.978 11.1447H115.781C116.443 11.1447 116.982 11.6799 116.982 12.3372C116.982 12.9944 116.443 13.5296 115.781 13.5296H111.376L109.774 15.9191H115.786C117.775 15.9191 119.392 14.3136 119.392 12.3372C119.392 10.4875 117.983 8.96647 116.173 8.77868L116.188 8.75526H113.385C112.723 8.75526 112.184 8.22008 112.184 7.56285C112.184 6.90561 112.723 6.37041 113.385 6.37041H117.79L119.392 3.98089H113.38Z" fill="#6AB0FF"/>
<path d="M86.0152 3.98089L81.1002 9.17774L86.1381 15.9144H83.3353L79.5028 10.8631L78.5291 12.018V15.9097H76.123V3.98089H78.5291V8.68953L82.8625 3.98089H86.0152Z" fill="#6AB0FF"/>
<path d="M30.4506 15.9191H28.0449V3.98089H33.7068C34.7182 3.98089 35.5878 4.3236 36.3204 5.0137C37.0672 5.71318 37.6485 6.7413 37.6626 7.75999C37.6721 8.68482 37.4499 9.43591 36.8592 10.1495C36.2968 10.8396 35.7249 11.3607 34.8553 11.5438L37.8611 15.9191H35.0585L32.2323 11.7879C32.1189 11.633 31.9393 11.5438 31.7455 11.5438H30.4506V15.9191ZM30.4506 9.35147H33.6549C34.5386 9.35147 35.257 8.63785 35.257 7.75999C35.257 6.88213 34.5386 6.16855 33.6549 6.16855H30.4506V9.35147Z" fill="#6AB0FF"/>
<path fill-rule="evenodd" clip-rule="evenodd" d="M92.02 30.0329C91.7095 30.0329 91.4424 29.7724 91.4424 29.4685V25.9085C91.4424 24.4324 92.7312 23.2168 94.2418 23.2168C95.7965 23.2168 97.0406 24.4324 97.0406 25.9085C97.0406 27.3846 95.7517 28.6002 94.2418 28.6002C93.7082 28.6002 93.2194 28.47 92.7312 28.2095L92.5977 28.1226V29.4251C92.5977 29.7724 92.3312 30.0329 92.02 30.0329ZM94.1971 24.3021C93.3089 24.3021 92.5089 25.0402 92.5089 25.9085C92.5089 26.7768 93.2642 27.5148 94.1971 27.5148C95.0853 27.5148 95.8853 26.7768 95.8853 25.9085C95.8853 25.0402 95.0853 24.3021 94.1971 24.3021Z" fill="#6AB0FF"/>
<path d="M105.747 29.9459C105.437 29.9459 105.17 29.6854 105.17 29.3815V27.6015L103.127 24.4323C103.037 24.302 103.037 24.1718 103.037 23.9981C103.082 23.8679 103.171 23.7376 103.304 23.6508C103.393 23.6074 103.482 23.564 103.615 23.564C103.837 23.564 104.015 23.6508 104.104 23.8245L105.747 26.3425L107.391 23.8245C107.48 23.6508 107.703 23.564 107.88 23.564C107.969 23.564 108.102 23.6074 108.191 23.6508C108.324 23.7376 108.413 23.8679 108.457 23.9981C108.502 24.1283 108.457 24.302 108.368 24.4323L106.325 27.5581V29.3381C106.325 29.6854 106.103 29.9459 105.747 29.9459Z" fill="#6AB0FF"/>
<path d="M102.104 29.5986C102.193 29.8157 102.415 29.9459 102.638 29.9459C102.682 29.9459 102.771 29.9459 102.86 29.9025C103.171 29.7723 103.304 29.4683 103.171 29.1645L100.772 23.9113C100.683 23.7811 100.594 23.6508 100.461 23.6074C100.416 23.564 100.327 23.564 100.238 23.564C100.017 23.564 99.7943 23.6942 99.7055 23.9113L97.3067 29.1645C97.1732 29.4249 97.3067 29.7723 97.6172 29.9025C97.662 29.9459 97.7508 29.9459 97.8396 29.9459C98.062 29.9459 98.2837 29.8157 98.3725 29.5986L100.238 25.5176L102.104 29.5986Z" fill="#6AB0FF"/>
<path d="M111.344 29.9893C110.634 29.9893 109.879 29.7288 109.479 29.3381C109.346 29.2513 109.301 29.0776 109.301 28.9474C109.301 28.7737 109.346 28.6435 109.479 28.5566C109.612 28.4264 109.746 28.383 109.923 28.383C110.056 28.383 110.234 28.4264 110.323 28.5566C110.545 28.7737 110.989 28.904 111.344 28.904C111.967 28.904 112.322 28.6001 112.322 28.1225C112.322 27.5147 111.744 27.3411 111.078 27.1674C110.234 26.9503 109.257 26.6464 109.257 25.344C109.257 24.3454 110.145 23.564 111.3 23.564C112.144 23.564 113.033 23.8679 113.033 24.4323C113.033 24.7361 112.766 24.9533 112.5 24.9533C112.411 24.9533 112.277 24.9098 112.1 24.823C111.878 24.7361 111.612 24.6493 111.3 24.6493H111.167C110.723 24.6928 110.501 24.9533 110.501 25.344C110.501 25.865 111.078 26.0386 111.744 26.2123H111.789C112.677 26.4728 113.655 26.7333 113.655 28.0357C113.566 29.1211 112.544 29.9893 111.344 29.9893Z" fill="#6AB0FF"/>
<path fill-rule="evenodd" clip-rule="evenodd" d="M126.982 29.3817C126.982 29.6856 127.205 29.9026 127.515 29.9026H128.937C130.759 29.9026 132.225 28.47 132.225 26.7768C132.225 25.0836 130.759 23.6509 128.937 23.6509H127.515C127.205 23.6509 126.982 23.8681 126.982 24.1719V29.3817ZM128.937 28.8607H128.182V24.6495H128.982C130.092 24.6495 130.981 25.5612 130.981 26.7334C130.981 27.9056 130.092 28.8607 128.937 28.8607Z" fill="#6AB0FF"/>
<path d="M115.387 29.9026C115.076 29.8591 114.854 29.6421 114.854 29.3382V24.1719C114.854 23.8679 115.121 23.6074 115.432 23.6074H118.142C118.453 23.6074 118.675 23.8245 118.675 24.1284C118.675 24.4323 118.453 24.6494 118.142 24.6494H116.009V25.9952H117.964C118.275 25.9952 118.497 26.2123 118.497 26.5162C118.497 26.8201 118.275 27.0372 117.964 27.0372H116.009V28.8606H118.142C118.453 28.8606 118.675 29.0777 118.675 29.3816C118.675 29.6854 118.453 29.9026 118.142 29.9026H115.387Z" fill="#6AB0FF"/>
<path d="M124.273 29.6854C124.361 29.8591 124.584 29.9459 124.761 29.9459C125.073 29.9459 125.339 29.6854 125.339 29.3815V24.1283C125.339 23.8245 125.073 23.564 124.761 23.564C124.45 23.564 124.184 23.8245 124.184 24.1283V27.8186L124.006 27.6015C123.073 26.2991 121.207 23.8245 121.163 23.7811C121.074 23.6508 120.896 23.564 120.719 23.564C120.408 23.564 120.141 23.8245 120.141 24.1283V29.3815C120.141 29.6854 120.408 29.9459 120.719 29.9459C121.03 29.9459 121.296 29.6854 121.296 29.3815V25.6913L124.273 29.6854Z" fill="#6AB0FF"/>
<path d="M30.0914 29.9898C29.3806 29.9898 28.6254 29.7293 28.2256 29.3386C28.0923 29.2518 28.0479 29.0781 28.0479 28.9479C28.0479 28.7742 28.0923 28.644 28.2256 28.5571C28.3588 28.4269 28.4921 28.3835 28.6698 28.3835C28.8031 28.3835 28.9808 28.4269 29.0697 28.5571C29.2918 28.7742 29.736 28.9045 30.0914 28.9045C30.7134 28.9045 31.0688 28.6006 31.0688 28.123C31.0688 27.5152 30.4912 27.3415 29.8249 27.1679C29.0252 26.9508 28.0923 26.6035 28.0923 25.301C28.0923 24.3025 28.9808 23.5211 30.1359 23.5211C30.9799 23.5211 31.8684 23.825 31.8684 24.3893C31.8684 24.6933 31.6019 24.9103 31.3353 24.9103C31.2465 24.9103 31.1132 24.8669 30.9355 24.7801C30.6689 24.6933 30.4024 24.6064 30.0914 24.6064H29.9582C29.5139 24.6498 29.2918 24.9103 29.2918 25.301C29.2918 25.822 29.8693 25.9957 30.5357 26.1693H30.5801C31.4686 26.4298 32.4459 26.6903 32.4459 27.9928C32.3127 29.1215 31.3353 29.9898 30.0914 29.9898Z" fill="#6AB0FF"/>
<path d="M39.8199 29.9026C39.6422 29.9026 39.509 29.8593 39.3757 29.729C39.2424 29.5988 39.198 29.4685 39.198 29.2948V24.2588C39.198 24.0851 39.2424 23.9549 39.3757 23.8246C39.509 23.6944 39.6422 23.6509 39.8199 23.6509H42.1301C42.3966 23.6509 42.7076 23.6944 42.9297 23.8246C43.1963 23.9114 43.4184 24.0851 43.5961 24.2588C43.7738 24.4324 43.9515 24.6495 44.0404 24.91C44.1736 25.1705 44.2181 25.4309 44.2181 25.6914C44.2181 26.0821 44.1292 26.4295 43.9071 26.7768C43.685 27.0807 43.4184 27.3412 43.1074 27.5148L43.9959 29.1212C44.0404 29.208 44.0848 29.2948 44.0848 29.3817C44.0848 29.5119 44.0404 29.6421 43.9071 29.7724C43.8182 29.9026 43.6405 29.9461 43.5073 29.9461C43.4184 29.9461 43.2851 29.9026 43.1963 29.8593C43.1074 29.8158 43.0186 29.729 42.9742 29.6421L41.9079 27.7319H40.4863V29.2948C40.4863 29.4685 40.4419 29.5988 40.3086 29.729C40.1753 29.8593 39.9976 29.9026 39.8199 29.9026ZM40.4863 24.6495V26.69H42.0412C42.1745 26.69 42.3522 26.6466 42.4855 26.6031C42.6188 26.5598 42.7076 26.4729 42.7965 26.3861C42.8853 26.2993 42.9742 26.169 43.0186 26.0821C43.063 25.9519 43.1074 25.8217 43.1074 25.6914C43.1074 25.5612 43.063 25.431 43.0186 25.3007C42.9742 25.1705 42.8853 25.0836 42.7965 24.9534C42.7076 24.8666 42.5743 24.7798 42.4855 24.7363C42.3522 24.6929 42.2189 24.6495 42.0857 24.6495H40.4863Z" fill="#6AB0FF"/>
<path d="M47.7276 29.9028C47.5499 29.9028 47.3722 29.8594 47.1945 29.7292C47.0612 29.5989 46.9279 29.4687 46.8835 29.2951L45.1509 24.2589C45.1509 24.2156 45.1064 24.1287 45.1064 24.0853C45.1064 23.9116 45.1509 23.7814 45.2841 23.6946C45.4174 23.5643 45.5507 23.5209 45.7284 23.5209C45.8617 23.5209 45.995 23.5643 46.0838 23.6511C46.2171 23.6511 46.2615 23.738 46.306 23.8682L47.6831 28.2096L49.0603 23.8682C49.1047 23.738 49.1936 23.6511 49.2824 23.5643C49.3713 23.4775 49.5045 23.4341 49.6378 23.4341C49.8155 23.4341 49.9488 23.4775 50.0821 23.6077C50.2153 23.7814 50.2598 23.9116 50.2598 24.0419C50.2598 24.0853 50.2598 24.1721 50.2153 24.2156L48.5272 29.2951C48.4828 29.4687 48.3495 29.5989 48.2162 29.7292C48.083 29.8594 47.9053 29.9028 47.7276 29.9028Z" fill="#6AB0FF"/>
<path d="M52.2147 29.9029C52.037 29.9029 51.9038 29.8594 51.7705 29.7292C51.6372 29.5989 51.5928 29.4687 51.5928 29.2951V24.0854C51.5928 23.9117 51.6372 23.7814 51.7705 23.6512C51.9038 23.5209 52.037 23.4775 52.2147 23.4775C52.3924 23.4775 52.5257 23.5209 52.659 23.6512C52.7923 23.7814 52.8367 23.9117 52.8367 24.0854V29.2951C52.8367 29.4687 52.7923 29.5989 52.659 29.7292C52.5701 29.8594 52.3924 29.9029 52.2147 29.9029Z" fill="#6AB0FF"/>
<path d="M59.0116 28.1663C59.1448 28.1663 59.2781 28.2097 59.4114 28.3399C59.5447 28.4268 59.5891 28.557 59.5891 28.7307C59.5891 28.8175 59.5891 28.8609 59.5447 28.9478C59.5002 29.0346 59.4558 29.078 59.4114 29.1214C59.1448 29.3819 58.8338 29.599 58.4784 29.7292C58.123 29.8594 57.7232 29.9463 57.3233 29.9463C56.8791 29.9463 56.4793 29.8594 56.0794 29.6858C55.6796 29.5121 55.3687 29.2951 55.0577 28.9912C54.7911 28.6873 54.5246 28.3399 54.3913 27.9492C54.2136 27.5585 54.1248 27.1244 54.1248 26.6468C54.1248 26.2126 54.2136 25.7785 54.3913 25.3878C54.569 24.997 54.7911 24.6497 55.0577 24.3892C55.3242 24.0854 55.6352 23.8682 56.035 23.738C56.4348 23.5644 56.8347 23.4775 57.2789 23.4775C57.6787 23.4775 58.0342 23.5209 58.3451 23.6512C58.6561 23.7814 58.9671 23.9551 59.2337 24.1721C59.367 24.3024 59.4114 24.4326 59.4114 24.5629C59.4114 24.6931 59.367 24.8234 59.2781 24.9102C59.1893 25.0404 59.056 25.0839 58.8783 25.0839C58.745 25.0839 58.6117 25.0404 58.5229 24.9536C58.2119 24.6497 57.7676 24.5194 57.2789 24.5194C57.0124 24.5194 56.7458 24.5629 56.5237 24.6931C56.2571 24.8234 56.0794 24.9536 55.9017 25.1273C55.7241 25.3009 55.5908 25.5614 55.4575 25.8219C55.3687 26.0824 55.2798 26.3863 55.2798 26.6902C55.2798 26.9941 55.3242 27.298 55.4575 27.5585C55.5464 27.819 55.7241 28.0794 55.9017 28.2531C56.0794 28.4268 56.3016 28.6004 56.5237 28.7307C56.7458 28.8609 57.0124 28.9044 57.2789 28.9044C57.5455 28.9044 57.7676 28.8609 57.9897 28.7307C58.2119 28.6439 58.3896 28.4702 58.5673 28.2966C58.6117 28.2531 58.7006 28.2097 58.745 28.1663C58.8783 28.1663 58.9671 28.1663 59.0116 28.1663Z" fill="#6AB0FF"/>
<path d="M62.1663 28.7305H64.8318C64.9651 28.7305 65.0983 28.7739 65.1872 28.8607C65.276 28.9476 65.3205 29.0778 65.3205 29.208C65.3205 29.3383 65.276 29.4685 65.1872 29.5553C65.0983 29.6421 64.9651 29.6856 64.8318 29.6856H61.5444C61.3667 29.6856 61.2334 29.6421 61.1001 29.5119C60.9668 29.3817 60.9224 29.2514 60.9224 29.0778V24.2588C60.9224 24.0851 60.9668 23.9549 61.1001 23.8246C61.2334 23.6944 61.3667 23.6509 61.5444 23.6509H64.8318C64.9651 23.6509 65.0983 23.6944 65.1872 23.7812C65.276 23.8681 65.3649 23.9983 65.3649 24.1285C65.3649 24.2588 65.3205 24.389 65.2316 24.4758C65.1428 24.5626 65.0095 24.6061 64.8762 24.6061H62.2108V26.0388H64.2099C64.3431 26.0388 64.4764 26.0821 64.5653 26.169C64.6541 26.2558 64.6985 26.3861 64.6985 26.5163C64.6985 26.6466 64.6541 26.7768 64.5653 26.8636C64.4764 27.0373 64.3431 27.1241 64.1654 27.1241H62.1663V28.7305Z" fill="#6AB0FF"/>
<path d="M77.0932 29.7723C76.9155 29.7723 76.782 29.7289 76.6491 29.5986C76.5155 29.4684 76.4714 29.3382 76.4714 29.1645V24.2152C76.4714 24.0416 76.5155 23.9114 76.6491 23.7811C76.782 23.6509 76.9155 23.6074 77.0932 23.6074H79.3143C79.5367 23.6074 79.759 23.6509 79.9367 23.7377C80.1143 23.8245 80.2919 23.9114 80.4248 24.085C80.5584 24.2152 80.692 24.3889 80.7808 24.5626C80.8696 24.7362 80.9137 24.9533 80.9137 25.1704C80.9137 25.344 80.8696 25.4743 80.8249 25.6479C80.7808 25.7782 80.692 25.9519 80.6472 26.0386C80.9137 26.2123 81.1361 26.4728 81.3137 26.7767C81.4913 27.0806 81.5354 27.3845 81.5354 27.7752C81.5354 28.0791 81.4913 28.3396 81.3578 28.5567C81.2249 28.8172 81.0913 29.0342 80.9137 29.2079C80.736 29.3816 80.5137 29.5552 80.2472 29.6421C79.9807 29.7289 79.7143 29.8157 79.4478 29.8157H77.0932V29.7723ZM77.7596 25.6914H79.2255C79.359 25.6914 79.4919 25.6479 79.5807 25.5177C79.6696 25.3874 79.7143 25.3006 79.7143 25.1269C79.7143 24.9967 79.6696 24.8664 79.5807 24.7796C79.4919 24.6928 79.359 24.6494 79.2255 24.6494H77.7596V25.6914ZM77.7596 26.6464V28.7304H79.359C79.4919 28.7304 79.6255 28.6869 79.759 28.6435C79.8919 28.6001 79.9807 28.5133 80.0696 28.4264C80.1584 28.3396 80.2472 28.2094 80.2919 28.0791C80.336 27.9489 80.3808 27.8186 80.3808 27.6884C80.3808 27.5582 80.336 27.4279 80.2919 27.2977C80.2472 27.1674 80.1584 27.0806 80.0696 26.9504C79.9807 26.8635 79.8479 26.7767 79.759 26.7333C79.6255 26.6899 79.4919 26.6464 79.359 26.6464H77.7596Z" fill="#6AB0FF"/>
<path fill-rule="evenodd" clip-rule="evenodd" d="M66.6975 29.3817C66.6975 29.6856 66.9197 29.9026 67.2309 29.9026H68.652C70.4737 29.9026 71.9396 28.47 71.9396 26.7768C71.9396 25.0836 70.4737 23.6509 68.652 23.6509H67.2309C66.9197 23.6509 66.6975 23.8681 66.6975 24.1719V29.3817ZM68.652 28.8607H67.8974V24.6495H68.6967C69.8073 24.6495 70.6961 25.5612 70.6961 26.7334C70.6961 27.9056 69.7632 28.8607 68.652 28.8607Z" fill="#6AB0FF"/>
<path d="M34.2672 29.9026C33.9563 29.8591 33.7341 29.6421 33.7341 29.3382V24.1719C33.7341 23.8679 34.0007 23.6074 34.3117 23.6074H37.0217C37.3326 23.6074 37.5547 23.8245 37.5547 24.1284C37.5547 24.4323 37.3326 24.6494 37.0217 24.6494H34.8892V25.9952H36.844C37.1549 25.9952 37.377 26.2123 37.377 26.5162C37.377 26.8201 37.1549 27.0372 36.844 27.0372H34.8892V28.8606H37.0217C37.3326 28.8606 37.5547 29.0777 37.5547 29.3816C37.5547 29.6854 37.3326 29.9026 37.0217 29.9026H34.2672Z" fill="#6AB0FF"/>
<path d="M84.6899 29.9459C84.3787 29.9459 84.1123 29.6854 84.1123 29.3816V27.6016L82.0688 24.4757C81.98 24.3454 81.98 24.2152 81.98 24.0416C82.0241 23.9114 82.1129 23.7811 82.2464 23.6943C82.3353 23.6509 82.4241 23.6074 82.5576 23.6074C82.7793 23.6074 82.957 23.6943 83.0458 23.8679L84.6899 26.3859L86.3334 23.8679C86.4222 23.6943 86.6446 23.6074 86.8222 23.6074C86.911 23.6074 87.0446 23.6509 87.1334 23.6943C87.2663 23.7811 87.3551 23.9114 87.3999 24.0416C87.444 24.1719 87.3999 24.3454 87.3111 24.4757L85.2676 27.6016V29.3816C85.2676 29.6854 85.0452 29.9459 84.6899 29.9459Z" fill="#6AB0FF"/>
</svg>
