<svg width="132" height="59" viewBox="0 0 132 59" fill="none" xmlns="http://www.w3.org/2000/svg">
<path d="M64.7609 22.8509C63.9962 22.5978 63.3978 22.3131 62.9656 21.9335L63.5308 20.7947C63.9297 21.1426 64.4617 21.4274 65.1266 21.6488C65.7583 21.8702 66.4234 21.9651 67.1215 21.9651C68.0191 21.9651 68.6839 21.807 69.116 21.5222C69.5481 21.2375 69.7808 20.8579 69.7808 20.3834C69.7808 20.0354 69.6481 19.7507 69.4154 19.5293C69.1827 19.3078 68.8833 19.1497 68.5178 19.0231C68.1518 18.8966 67.6531 18.7701 67.0216 18.6119C66.2235 18.4221 65.5588 18.2322 65.0601 18.0425C64.5614 17.8526 64.1291 17.5679 63.7635 17.1883C63.3977 16.8087 63.2316 16.2709 63.2316 15.6382C63.2316 15.1004 63.3977 14.5943 63.697 14.1514C63.9962 13.7085 64.4616 13.3606 65.0933 13.1075C65.725 12.8544 66.4895 12.6962 67.3876 12.6962C68.0191 12.6962 68.6506 12.7595 69.2826 12.9176C69.9141 13.0758 70.4462 13.2972 70.8783 13.582L70.3795 14.7525C69.9141 14.4677 69.4487 14.2779 68.9166 14.1198C68.4179 13.9932 67.8858 13.8983 67.3876 13.8983C66.5228 13.8983 65.858 14.0565 65.4258 14.3412C64.9936 14.6575 64.7609 15.0372 64.7609 15.5117C64.7609 15.8597 64.8938 16.1444 65.1266 16.3658C65.3593 16.5872 65.6918 16.7454 66.0574 16.872C66.4234 16.9985 66.9216 17.1251 67.5536 17.2516C68.3512 17.4414 69.0166 17.6312 69.5148 17.821C70.0136 18.0108 70.4462 18.2955 70.7783 18.6751C71.1443 19.0548 71.3104 19.5609 71.3104 20.2252C71.3104 20.763 71.1443 21.2692 70.845 21.7121C70.5456 22.1549 70.0802 22.5029 69.4487 22.756C68.8167 23.009 68.0524 23.1356 67.1215 23.1356C66.2901 23.1989 65.4923 23.0724 64.7609 22.8509Z" fill="#232323"/>
<path d="M85.581 16.4934C86.1822 17.0332 86.4828 17.8431 86.4828 18.8928V23.1519H84.9803V19.0428C84.9803 18.323 84.78 17.7831 84.446 17.4232C84.0789 17.0633 83.5446 16.8833 82.877 16.8833C82.109 16.8833 81.5083 17.0932 81.0739 17.5132C80.6399 17.9331 80.4062 18.5329 80.4062 19.3427V23.1519H78.9042V19.0428C78.9042 18.323 78.7035 17.7831 78.3699 17.4232C78.0024 17.0633 77.4686 16.8833 76.8004 16.8833C76.033 16.8833 75.4317 17.0932 74.9978 17.5132C74.5639 17.9331 74.3302 18.5329 74.3302 19.3427V23.1519H72.8276V15.7436H74.2633V16.8533C74.5639 16.4634 74.9643 16.1935 75.4317 15.9835C75.9326 15.7735 76.4669 15.6835 77.1011 15.6835C77.7352 15.6835 78.303 15.8035 78.8038 16.0435C79.3047 16.2834 79.6717 16.6134 79.9388 17.0633C80.2395 16.6434 80.6734 16.3134 81.2412 16.0735C81.8084 15.8335 82.4096 15.7136 83.1107 15.7136C84.1454 15.6835 84.9803 15.9535 85.581 16.4934Z" fill="#232323"/>
<path d="M94.7248 16.4483C95.2994 17.0063 95.5861 17.8268 95.5861 18.9099V23.8003H94.2462V22.75C94.0229 23.111 93.6722 23.4064 93.2255 23.6033C92.7789 23.8003 92.2683 23.8987 91.6622 23.8987C90.7685 23.8987 90.067 23.669 89.5564 23.2423C89.0138 22.8156 88.7585 22.2248 88.7585 21.5356C88.7585 20.8463 89.0138 20.2556 89.5244 19.8289C90.035 19.4022 90.8324 19.1725 91.917 19.1725H94.1822V18.8771C94.1822 18.2535 93.9909 17.7611 93.6402 17.4329C93.289 17.1047 92.7469 16.9406 92.0769 16.9406C91.5983 16.9406 91.1516 17.0063 90.705 17.1704C90.2584 17.3345 89.8752 17.5314 89.5884 17.794L88.9819 16.7109C89.397 16.3826 89.8752 16.1201 90.4177 15.956C90.9923 15.7919 91.5663 15.6934 92.2043 15.6934C93.3209 15.6278 94.1508 15.8903 94.7248 16.4483ZM93.3209 22.3561C93.7041 22.0936 93.9909 21.7653 94.1822 21.3059V20.1899H91.981C90.7685 20.1899 90.1624 20.6166 90.1624 21.4371C90.1624 21.831 90.3218 22.1592 90.6091 22.3889C90.9283 22.6187 91.343 22.75 91.8856 22.75C92.4596 22.75 92.9063 22.6187 93.3209 22.3561Z" fill="#232323"/>
<path d="M100.845 16.0122C101.273 15.8031 101.815 15.6835 102.414 15.6835V16.9681C102.357 16.9681 102.243 16.9681 102.128 16.9681C101.444 16.9681 100.902 17.1772 100.503 17.6253C100.103 18.0436 99.9037 18.6709 99.9037 19.4775V23.1519H98.6206V15.7433H99.847V16.998C100.075 16.5499 100.417 16.2213 100.845 16.0122Z" fill="#232323"/>
<path d="M109.242 22.6491C109.058 22.8266 108.784 22.9449 108.509 23.0336C108.204 23.1223 107.929 23.1519 107.594 23.1519C106.831 23.1519 106.251 22.9449 105.824 22.5603C105.396 22.1759 105.213 21.6139 105.213 20.8744V16.8814H103.931V15.7871H105.213V14.1899H106.586V15.7871H108.753V16.8814H106.586V20.8153C106.586 21.1998 106.678 21.5251 106.892 21.7322C107.105 21.9392 107.38 22.0575 107.777 22.0575C108.204 22.0575 108.539 21.9392 108.845 21.7026L109.242 22.6491Z" fill="#232323"/>
<path d="M64.7609 38.5345C63.9962 38.2814 63.3978 37.9967 62.9656 37.6171L63.5308 36.4782C63.9297 36.8262 64.4617 37.1109 65.1266 37.3323C65.7583 37.5538 66.4234 37.6487 67.1215 37.6487C68.0191 37.6487 68.6839 37.4905 69.116 37.2058C69.5481 36.9211 69.7808 36.5415 69.7808 36.0669C69.7808 35.719 69.6481 35.4342 69.4154 35.2128C69.1827 34.9914 68.8833 34.8332 68.5178 34.7067C68.1518 34.5801 67.6531 34.4536 67.0216 34.2954C66.2235 34.1056 65.5588 33.9158 65.0601 33.726C64.5614 33.5362 64.1291 33.2515 63.7635 32.8718C63.3977 32.4922 63.2316 31.9545 63.2316 31.3218C63.2316 30.784 63.3977 30.2778 63.697 29.8349C63.9962 29.3921 64.4616 29.0441 65.0933 28.791C65.725 28.5379 66.4895 28.3797 67.3876 28.3797C68.0191 28.3797 68.6506 28.443 69.2826 28.6012C69.9141 28.7594 70.4462 28.9808 70.8783 29.2655L70.3795 30.436C69.9141 30.1513 69.4487 29.9614 68.9166 29.8033C68.4179 29.6767 67.8858 29.5818 67.3876 29.5818C66.5228 29.5818 65.858 29.74 65.4258 30.0248C64.9936 30.3411 64.7609 30.7207 64.7609 31.1952C64.7609 31.5432 64.8938 31.8279 65.1266 32.0494C65.3593 32.2708 65.6918 32.429 66.0574 32.5555C66.4234 32.6821 66.9216 32.8086 67.5536 32.9351C68.3512 33.1249 69.0166 33.3147 69.5148 33.5045C70.0136 33.6944 70.4462 33.9791 70.7783 34.3587C71.1443 34.7383 71.3104 35.2445 71.3104 35.9088C71.3104 36.4466 71.1443 36.9527 70.845 37.3956C70.5456 37.8385 70.0802 38.1865 69.4487 38.4396C68.8167 38.6926 68.0524 38.8192 67.1215 38.8192C66.2901 38.8824 65.4923 38.7559 64.7609 38.5345Z" fill="#1380F6"/>
<path d="M80.3459 35.2169H73.5335C73.6354 35.934 73.9421 36.4882 74.5214 36.9121C75.066 37.3358 75.7476 37.564 76.5989 37.564C77.5867 37.564 78.4044 37.2381 79.0173 36.5861L79.8691 37.5314C79.4941 37.9553 79.0173 38.2813 78.438 38.5094C77.8593 38.7376 77.2459 38.8354 76.5648 38.8354C75.6793 38.8354 74.8958 38.6724 74.2147 38.3138C73.5335 37.9553 72.9884 37.4662 72.614 36.8468C72.239 36.2274 72.0688 35.5102 72.0688 34.7279C72.0688 33.9454 72.239 33.2608 72.614 32.6088C72.9884 31.9895 73.4653 31.5005 74.1123 31.1418C74.7598 30.7833 75.4751 30.6203 76.2586 30.6203C77.0757 30.6203 77.7569 30.7833 78.4044 31.1418C79.0173 31.5005 79.5283 31.9895 79.8691 32.6088C80.2094 33.2282 80.4137 33.9454 80.4137 34.7604C80.3801 34.8909 80.3801 35.0539 80.3459 35.2169ZM74.419 32.511C73.9421 32.9348 73.6354 33.489 73.5677 34.1737H78.9154C78.8471 33.489 78.5404 32.9348 78.0636 32.511C77.5867 32.0872 76.9739 31.859 76.2245 31.859C75.5092 31.8916 74.8958 32.0872 74.419 32.511Z" fill="#1380F6"/>
<path d="M89.3682 31.4566C89.952 32.0522 90.2759 32.9456 90.2759 34.1037V38.8023H88.8168V34.3022C88.8168 33.5081 88.6224 32.9125 88.266 32.5154C87.9091 32.1183 87.3583 31.9198 86.6775 31.9198C85.8992 31.9198 85.2834 32.1514 84.8296 32.6147C84.3757 33.0779 84.1488 33.7397 84.1488 34.6331V38.8354H82.6897V30.6955H84.0838V31.9198C84.3757 31.4897 84.7646 31.1918 85.2509 30.9602C85.7373 30.7286 86.3206 30.6293 86.9369 30.6293C87.9741 30.5632 88.7849 30.8609 89.3682 31.4566Z" fill="#1380F6"/>
<path d="M100.138 27.6651V38.7389H98.7308V37.4834C98.4034 37.9341 98.0108 38.256 97.4871 38.4813C96.9962 38.7067 96.4402 38.8354 95.8508 38.8354C95.0658 38.8354 94.3786 38.6745 93.7564 38.3204C93.1348 37.9662 92.6439 37.5156 92.3169 36.904C91.9567 36.2923 91.7932 35.5841 91.7932 34.7793C91.7932 33.9746 91.9567 33.2663 92.3169 32.6869C92.6767 32.0753 93.1348 31.5924 93.7564 31.2705C94.3786 30.9164 95.0658 30.7555 95.8508 30.7555C96.4402 30.7555 96.9639 30.852 97.4548 31.0774C97.9453 31.3027 98.3383 31.5924 98.6653 32.0109V27.6329H100.138V27.6651ZM97.3892 37.2259C97.8146 37.0005 98.142 36.6786 98.3711 36.2279C98.6002 35.8095 98.7308 35.3266 98.7308 34.7793C98.7308 34.2321 98.6002 33.7492 98.3711 33.3308C98.142 32.9123 97.8146 32.5904 97.3892 32.365C96.9639 32.1397 96.5058 32.0109 96.0148 32.0109C95.4911 32.0109 95.033 32.1397 94.6404 32.365C94.2146 32.5904 93.9204 32.9123 93.6586 33.3308C93.4295 33.7492 93.2983 34.2321 93.2983 34.7793C93.2983 35.3266 93.4295 35.8095 93.6586 36.2279C93.8876 36.6464 94.2146 36.9683 94.6404 37.2259C95.0658 37.4512 95.5239 37.58 96.0148 37.58C96.5058 37.58 96.9639 37.4834 97.3892 37.2259Z" fill="#1380F6"/>
<path d="M110.691 35.2169H103.878C103.98 35.934 104.287 36.4882 104.866 36.9121C105.411 37.3358 106.093 37.564 106.944 37.564C107.932 37.564 108.749 37.2381 109.362 36.5861L110.214 37.5314C109.839 37.9553 109.362 38.2813 108.784 38.5094C108.204 38.7376 107.591 38.8354 106.91 38.8354C106.024 38.8354 105.241 38.6724 104.56 38.3138C103.878 37.9553 103.333 37.4662 102.959 36.8468C102.584 36.2274 102.414 35.5102 102.414 34.7279C102.414 33.9454 102.584 33.2608 102.959 32.6088C103.333 31.9895 103.81 31.5005 104.457 31.1418C105.105 30.7833 105.82 30.6203 106.604 30.6203C107.421 30.6203 108.102 30.7833 108.749 31.1418C109.362 31.5005 109.873 31.9895 110.214 32.6088C110.554 33.2282 110.759 33.9454 110.759 34.7604C110.725 34.8909 110.725 35.0539 110.691 35.2169ZM104.764 32.511C104.287 32.9348 103.98 33.489 103.913 34.1737H109.294C109.226 33.489 108.92 32.9348 108.443 32.511C107.966 32.0872 107.352 31.859 106.604 31.859C105.854 31.8916 105.241 32.0872 104.764 32.511Z" fill="#1380F6"/>
<path d="M114.945 30.9817C115.459 30.7517 116.109 30.6203 116.828 30.6203V32.0333C116.76 32.0333 116.622 32.0333 116.486 32.0333C115.664 32.0333 115.014 32.2633 114.535 32.7562C114.056 33.2163 113.816 33.9064 113.816 34.7936V38.8354H112.276V30.7517H113.748V32.099C114.021 31.6061 114.432 31.2446 114.945 30.9817Z" fill="#1380F6"/>
<path d="M53.862 25.6024C53.862 15.1876 45.188 6.72152 34.5172 6.72152C23.8464 6.72152 15.1724 15.1876 15.1724 25.6024C15.1724 36.0173 23.8137 44.4833 34.5172 44.4833V52.2785L48.1012 39.0523C51.6362 35.6339 53.862 30.8738 53.862 25.6024ZM43.1913 34.2602L34.5172 42.7262V37.7105C27.6761 37.7105 22.1116 32.2794 22.1116 25.6024C22.1116 18.9254 27.6761 13.4943 34.5172 13.4943C41.3583 13.4943 46.9228 18.9254 46.9228 25.6024C46.9228 28.9569 45.548 31.96 43.2895 34.1643L43.1913 34.2602Z" fill="#1380F6"/>
</svg>
