<svg width="132" height="30" viewBox="0 0 132 30" fill="none" xmlns="http://www.w3.org/2000/svg">
<path d="M85.2601 20.3021C82.5124 20.3021 81.1013 18.0625 81.1013 15.3117C81.1013 12.561 82.4876 10.4431 85.2601 10.4431C88.0823 10.4431 89.4195 12.6583 89.4195 15.3117C89.3947 18.1112 87.9837 20.3021 85.2601 20.3021ZM58.3752 10.4431C59.984 10.4431 60.6526 11.3682 60.6526 12.1715C60.6526 14.1189 58.6473 14.9709 54.4637 15.0927C54.4637 12.6827 55.85 10.4431 58.3752 10.4431ZM40.5506 20.3021C37.9512 20.3021 36.8619 18.2086 36.8619 15.3117C36.8619 12.4393 37.976 10.4431 40.5506 10.4431C43.1748 10.4431 44.4126 12.5123 44.4126 15.3117C44.4126 18.2329 43.1253 20.3021 40.5506 20.3021ZM18.5671 7.59504H14.5071L21.2408 22.8825C19.9535 25.7062 19.2603 26.4122 18.3691 26.4122C17.4284 26.4122 16.5371 25.6575 15.8934 25.0003L14.111 27.3372C15.3241 28.603 16.9827 29.3333 18.6909 29.3333C20.82 29.3333 22.4538 28.1162 23.3946 25.9253L31.1681 7.57067H27.1823L23.1223 18.525L18.5671 7.59504ZM126.108 10.4431C128.088 10.4431 128.484 11.782 128.484 14.9223V23.1746H132V12.7557C132 9.00693 129.4 7.37595 126.999 7.37595C124.87 7.37595 122.915 8.69045 121.825 11.1247C121.206 8.78784 119.226 7.37595 116.923 7.37595C114.918 7.37595 112.913 8.64176 111.824 11.003V7.59504H108.308V23.1502H111.824V16.5046C111.824 13.1452 113.606 10.4431 116.032 10.4431C118.013 10.4431 118.384 11.782 118.384 14.9223V23.1746H121.9L121.875 16.5046C121.875 13.1452 123.682 10.4431 126.108 10.4431ZM98.0571 7.59504H96.277V23.1502H99.792V17.1862C99.792 13.413 101.476 10.857 103.976 10.857C104.619 10.857 105.164 10.8813 105.758 11.1247L106.303 7.44896C105.858 7.40027 105.462 7.35157 105.065 7.35157C102.59 7.35157 100.807 9.03125 99.7672 11.1978V7.59504H98.0571ZM85.2601 7.35157C80.6062 7.35157 77.4619 10.857 77.4619 15.2874C77.4619 19.8883 80.6558 23.3206 85.2601 23.3206C89.9394 23.3206 93.1327 19.7909 93.1327 15.2874C93.108 10.8326 89.8651 7.35157 85.2601 7.35157ZM58.573 20.3021C56.7411 20.3021 55.3797 19.3771 54.8102 17.5026C59.4641 17.3079 64.0195 16.1881 64.0195 12.1228C64.0195 9.78587 61.6925 7.37595 58.3505 7.37595C53.8447 7.37595 50.7997 11.003 50.7997 15.3117C50.7997 19.8152 53.7952 23.345 58.2761 23.345C61.3951 23.345 63.3756 22.1035 64.9354 20.3021L63.2275 18.0138C61.4199 19.8396 60.3062 20.3021 58.573 20.3021ZM41.2438 7.35157C39.4614 7.35157 37.6789 8.37397 36.9858 9.98064V7.59504H33.4704V29.2603H36.9858V21.5192C37.7285 22.639 39.4366 23.3693 40.9467 23.3693C45.6257 23.3693 48.1013 19.9369 48.1013 15.3117C48.0765 10.7353 45.6504 7.35157 41.2438 7.35157ZM16.5866 1.36321H0V4.74689H6.4861V23.1502H10.1748V4.74689H16.5866V1.36321ZM68.8469 7.59504H66.7424V10.7109H68.8469V23.1502H72.3624V10.7109H75.7788V7.59504H72.3624V5.16072C72.3624 3.60277 73.0062 3.06722 74.4669 3.06722C75.011 3.06722 75.5062 3.21328 76.1748 3.43236L76.9668 0.511203C76.3235 0.146058 75.0358 0 74.1942 0C70.8274 0 68.8469 1.99613 68.8469 5.45285V7.59504Z" fill="#262627"/>
</svg>
