<svg width="128" height="21" viewBox="0 0 128 21" fill="none" xmlns="http://www.w3.org/2000/svg">
<path d="M15.9987 10.5C15.9987 6.80976 12.9781 3.81821 9.25202 3.81821C5.52595 3.81821 2.50537 6.80976 2.50537 10.5C2.50537 14.1903 5.52595 17.1818 9.25202 17.1818C12.9781 17.1818 15.9987 14.1903 15.9987 10.5Z" fill="#605FFF"/>
<path d="M18.6978 17.0355V3.9708C18.6978 3.91094 18.6269 3.87869 18.5811 3.91773L10.6662 10.6608C10.6327 10.6893 10.6336 10.7409 10.6679 10.7684L18.5828 17.09C18.629 17.1269 18.6978 17.0943 18.6978 17.0355Z" fill="black"/>
<path d="M29.7388 10.9808V15.0484H26.7158V2.59007H29.7388V9.04288H30.0477L33.0707 5.99748H36.9101L32.7176 10.2568L36.888 15.0484H33.2472L29.7388 10.9808Z" fill="black"/>
<path d="M38.3096 5.99748H41.2884V15.0484H38.3096V5.99748ZM38.3096 2.59007H41.2884V4.95396H38.3096V2.59007Z" fill="black"/>
<path d="M46.5462 6.84932C46.811 6.57957 47.0905 6.3737 47.3847 6.23172C47.6936 6.08975 47.9879 5.99036 48.2673 5.93357C48.5468 5.86259 48.8116 5.82 49.0617 5.8058C49.3118 5.7916 49.5177 5.7845 49.6795 5.7845C50.9741 5.7845 51.9817 6.13234 52.7025 6.82802C53.4233 7.52373 53.7837 8.51752 53.7837 9.80951V15.0484H50.8049V10.1289C50.8049 9.6462 50.7461 9.25581 50.6284 8.95768C50.5254 8.65948 50.3782 8.43233 50.1871 8.27616C50.0105 8.10578 49.7972 7.99224 49.5471 7.9354C49.3118 7.87863 49.0617 7.85028 48.7969 7.85028C48.5321 7.85028 48.2673 7.90705 48.0026 8.02059C47.7377 8.11999 47.495 8.26909 47.2744 8.46782C47.0685 8.65241 46.8919 8.86535 46.7448 9.10671C46.6125 9.34807 46.5462 9.61071 46.5462 9.8947V15.0484H43.5674V5.99747H46.3697L46.5462 6.84932Z" fill="black"/>
<path d="M65.4271 12.3012C65.383 12.6845 65.2432 13.0465 65.0079 13.3873C64.7725 13.728 64.4489 14.0332 64.037 14.303C63.6398 14.5728 63.1617 14.7857 62.6027 14.9419C62.0437 15.0981 61.4259 15.1762 60.7492 15.1762C59.7048 15.1762 58.8369 15.0342 58.1455 14.7502C57.4541 14.4521 56.9025 14.0829 56.4906 13.6428C56.0787 13.1885 55.7845 12.6845 55.6079 12.1308C55.4462 11.5629 55.3652 11.0163 55.3652 10.491C55.3652 9.95147 55.4462 9.40484 55.6079 8.85114C55.7698 8.2833 56.0493 7.77216 56.4465 7.31786C56.8583 6.86351 57.4026 6.49438 58.0793 6.21043C58.7707 5.92647 59.6386 5.7845 60.683 5.7845C61.7127 5.7845 62.5586 5.92647 63.2205 6.21043C63.8972 6.49438 64.4342 6.86351 64.8313 7.31786C65.2285 7.75795 65.5006 8.26195 65.6478 8.82986C65.8096 9.38356 65.8905 9.93726 65.8905 10.491V11.5345H58.3441C58.4324 12.1734 58.6824 12.5993 59.0943 12.8123C59.5209 13.011 60.0652 13.1104 60.7272 13.1104C61.0213 13.1104 61.3376 13.0607 61.676 12.9613C62.0143 12.8478 62.2644 12.6277 62.4262 12.3012H65.4271ZM60.6609 7.85028C60.4256 7.85028 60.1902 7.86442 59.9549 7.89284C59.7342 7.92126 59.5209 7.99224 59.315 8.10578C59.1237 8.21939 58.9472 8.38977 58.7854 8.61692C58.6236 8.82986 58.4838 9.12799 58.3661 9.51138H62.9558C62.8381 9.12799 62.6983 8.82986 62.5366 8.61692C62.3747 8.38977 62.1909 8.21939 61.9849 8.10578C61.7936 7.99224 61.5803 7.92126 61.345 7.89284C61.1243 7.86442 60.8963 7.85028 60.6609 7.85028Z" fill="black"/>
<path d="M76.5079 12.1308C76.5079 12.5567 76.4195 12.9613 76.2435 13.3447C76.0668 13.7138 75.7869 14.0332 75.4046 14.303C75.037 14.5728 74.5592 14.7857 73.9705 14.9419C73.3966 15.0981 72.7053 15.1762 71.896 15.1762C71.3228 15.1762 70.7786 15.1336 70.2636 15.0484C69.7487 14.949 69.278 14.7928 68.8513 14.5799C68.4395 14.3669 68.0864 14.0829 67.7922 13.728C67.498 13.3731 67.2847 12.933 67.1523 12.4076H70.1091C70.2415 12.649 70.4327 12.8549 70.6825 13.0252C70.9475 13.1814 71.3151 13.2595 71.7858 13.2595C72.1689 13.2595 72.47 13.2382 72.6905 13.1956C72.9258 13.1388 73.1025 13.0679 73.2206 12.9827C73.3379 12.8975 73.4192 12.8052 73.463 12.7058C73.5068 12.6064 73.5294 12.5141 73.5294 12.429C73.5294 12.1876 73.3231 12.0172 72.9117 11.9178C72.5145 11.8184 72.007 11.712 71.3886 11.5984C70.8592 11.5132 70.3371 11.3996 69.8223 11.2577C69.3221 11.1157 68.8808 10.9382 68.4983 10.7252C68.1158 10.4981 67.8069 10.2283 67.5715 9.91598C67.3362 9.58943 67.2185 9.1919 67.2185 8.72339C67.2185 8.2833 67.2994 7.88577 67.4612 7.5308C67.6231 7.16169 67.8805 6.84932 68.2335 6.59376C68.5866 6.33821 69.0426 6.13944 69.6016 5.99747C70.1606 5.85549 70.8443 5.7845 71.6536 5.7845C72.8007 5.7845 73.7648 5.99036 74.5444 6.4021C75.3388 6.81382 75.8682 7.5308 76.1333 8.55301H73.1541C73.0361 8.2833 72.882 8.07743 72.6905 7.9354C72.5145 7.77923 72.1689 7.70118 71.6536 7.70118C71.3299 7.70118 71.0656 7.73667 70.8592 7.80765C70.6681 7.86442 70.521 7.9354 70.418 8.02059C70.3297 8.10578 70.2709 8.19811 70.2415 8.29744C70.212 8.39684 70.1973 8.48203 70.1973 8.55301C70.1973 8.75181 70.3297 8.92219 70.5946 9.06415C70.8592 9.1919 71.1758 9.30551 71.5434 9.40491C71.9257 9.49003 72.3159 9.56815 72.7131 9.63913C73.1245 9.71011 73.4778 9.77402 73.7719 9.83079C74.5515 9.98696 75.1989 10.2425 75.7134 10.5975C76.2435 10.9382 76.5079 11.4493 76.5079 12.1308Z" fill="black"/>
<path d="M80.7543 10.491C80.7543 11.3429 80.9748 11.9959 81.4166 12.4503C81.8576 12.8903 82.498 13.1104 83.3362 13.1104C83.8656 13.1104 84.3144 13.011 84.6819 12.8123C85.0643 12.5993 85.3075 12.2728 85.4106 11.8326H88.3891C88.3156 12.2728 88.1834 12.6987 87.9918 13.1104C87.8151 13.508 87.536 13.8629 87.1536 14.1753C86.7712 14.4876 86.2708 14.736 85.6531 14.9206C85.0353 15.091 84.2628 15.1762 83.3362 15.1762C82.2916 15.1762 81.4088 15.0413 80.6886 14.7715C79.9825 14.4876 79.4086 14.1256 78.9675 13.6854C78.5406 13.2311 78.2318 12.7271 78.0402 12.1734C77.8642 11.6055 77.7759 11.0447 77.7759 10.491C77.7759 9.93726 77.8642 9.38356 78.0402 8.82986C78.2318 8.26195 78.5406 7.75795 78.9675 7.31786C79.4086 6.86351 79.9825 6.49438 80.6886 6.21043C81.4088 5.92647 82.2916 5.7845 83.3362 5.7845C84.2628 5.7845 85.0353 5.87679 85.6531 6.06135C86.2708 6.23172 86.7712 6.47308 87.1536 6.78543C87.536 7.09778 87.8151 7.45268 87.9918 7.85028C88.1834 8.24781 88.3156 8.67369 88.3891 9.12799H85.4106C85.3075 8.6879 85.0643 8.36849 84.6819 8.16969C84.3144 7.95675 83.8656 7.85028 83.3362 7.85028C82.498 7.85028 81.8576 8.07743 81.4166 8.53173C80.9748 8.98603 80.7543 9.63913 80.7543 10.491Z" fill="black"/>
<path d="M100.463 10.491C100.463 11.0447 100.375 11.6055 100.198 12.1734C100.021 12.7271 99.72 13.2311 99.2931 13.6854C98.8811 14.1256 98.322 14.4876 97.6159 14.7715C96.9247 15.0413 96.0567 15.1762 95.0128 15.1762C93.9682 15.1762 93.0924 15.0413 92.3864 14.7715C91.6951 14.4876 91.136 14.1256 90.7098 13.6854C90.2978 13.2311 90.0038 12.7271 89.8271 12.1734C89.6504 11.6055 89.562 11.0447 89.562 10.491C89.562 9.93726 89.6504 9.38356 89.8271 8.82986C90.0038 8.26195 90.2978 7.75795 90.7098 7.31786C91.136 6.86351 91.6951 6.49438 92.3864 6.21043C93.0924 5.92647 93.9682 5.7845 95.0128 5.7845C96.0567 5.7845 96.9247 5.92647 97.6159 6.21043C98.322 6.49438 98.8811 6.86351 99.2931 7.31786C99.72 7.75795 100.021 8.26195 100.198 8.82986C100.375 9.38356 100.463 9.93726 100.463 10.491ZM97.4837 10.491C97.4837 9.55394 97.2413 8.87956 96.7557 8.46782C96.285 8.05608 95.704 7.85028 95.0128 7.85028C94.3357 7.85028 93.7547 8.05608 93.2691 8.46782C92.7836 8.87956 92.5411 9.55394 92.5411 10.491C92.5411 11.428 92.7836 12.1024 93.2691 12.5141C93.7547 12.9117 94.3357 13.1104 95.0128 13.1104C95.704 13.1104 96.285 12.9117 96.7557 12.5141C97.2413 12.1024 97.4837 11.428 97.4837 10.491Z" fill="black"/>
<path d="M110.009 10.2141C110.009 9.73139 109.929 9.341 109.767 9.04287C109.62 8.73046 109.428 8.4891 109.193 8.31879C108.972 8.1342 108.715 8.01352 108.42 7.95675C108.141 7.88577 107.869 7.85028 107.604 7.85028C107.325 7.85028 107.038 7.89991 106.744 7.99931C106.464 8.0845 106.214 8.21225 105.993 8.38263C105.773 8.5388 105.589 8.73046 105.442 8.95768C105.309 9.18483 105.243 9.4404 105.243 9.72432V11.1512C105.243 11.4209 105.309 11.6765 105.442 11.9178C105.574 12.1592 105.758 12.3721 105.993 12.5567C106.229 12.7271 106.501 12.862 106.81 12.9613C107.118 13.0607 107.45 13.1104 107.803 13.1104C108.097 13.1104 108.376 13.0537 108.641 12.94C108.906 12.8123 109.134 12.6348 109.325 12.4076C109.531 12.1805 109.693 11.9036 109.811 11.5771C109.943 11.2505 110.009 10.8743 110.009 10.4484V10.2141ZM108.509 5.7845C109.244 5.7845 109.884 5.89808 110.428 6.12525C110.987 6.3524 111.458 6.67185 111.84 7.08357C112.223 7.49531 112.51 7.9851 112.701 8.55301C112.892 9.12092 112.988 9.75274 112.988 10.4484C112.988 11.1015 112.885 11.719 112.679 12.3012C112.488 12.8691 112.209 13.366 111.84 13.7919C111.488 14.2178 111.061 14.5586 110.561 14.8142C110.076 15.0555 109.538 15.1762 108.95 15.1762C108.715 15.1762 108.442 15.1691 108.133 15.1548C107.839 15.1407 107.523 15.0981 107.185 15.0271C106.861 14.9561 106.53 14.8425 106.192 14.6863C105.853 14.5302 105.537 14.303 105.243 14.0049V18.6901H102.264V5.99747H105.067L105.243 6.87061C105.537 6.60086 105.831 6.395 106.125 6.25302C106.42 6.09685 106.707 5.99036 106.986 5.93357C107.265 5.86259 107.53 5.82 107.781 5.8058C108.046 5.7916 108.288 5.7845 108.509 5.7845Z" fill="black"/>
<path d="M124.426 12.3012C124.382 12.6845 124.242 13.0465 124.007 13.3873C123.772 13.728 123.448 14.0332 123.037 14.303C122.639 14.5728 122.161 14.7857 121.602 14.9419C121.043 15.0981 120.425 15.1762 119.749 15.1762C118.704 15.1762 117.836 15.0342 117.145 14.7502C116.454 14.4521 115.902 14.0829 115.49 13.6428C115.078 13.1885 114.784 12.6845 114.607 12.1308C114.446 11.5629 114.364 11.0163 114.364 10.491C114.364 9.95147 114.446 9.40484 114.607 8.85114C114.769 8.2833 115.048 7.77216 115.446 7.31786C115.858 6.86351 116.402 6.49438 117.078 6.21043C117.77 5.92647 118.638 5.7845 119.682 5.7845C120.712 5.7845 121.558 5.92647 122.22 6.21043C122.897 6.49438 123.434 6.86351 123.83 7.31786C124.228 7.75795 124.5 8.26195 124.647 8.82986C124.809 9.38356 124.89 9.93726 124.89 10.491V11.5345H117.343C117.432 12.1734 117.682 12.5993 118.093 12.8123C118.52 13.011 119.064 13.1104 119.727 13.1104C120.021 13.1104 120.337 13.0607 120.675 12.9613C121.014 12.8478 121.264 12.6277 121.426 12.3012H124.426ZM119.66 7.85028C119.425 7.85028 119.19 7.86442 118.954 7.89284C118.734 7.92126 118.52 7.99224 118.315 8.10578C118.123 8.21939 117.946 8.38977 117.784 8.61692C117.623 8.82986 117.483 9.12799 117.365 9.51138H121.955C121.837 9.12799 121.698 8.82986 121.536 8.61692C121.374 8.38977 121.19 8.21939 120.984 8.10578C120.793 7.99224 120.58 7.92126 120.344 7.89284C120.124 7.86442 119.896 7.85028 119.66 7.85028Z" fill="black"/>
</svg>
