<svg width="149" height="34" viewBox="0 0 149 34" fill="none" xmlns="http://www.w3.org/2000/svg">
<path d="M14.1245 0.233682C15.0388 0.0801437 15.9777 0 16.9354 0C17.8932 0 18.8321 0.0801437 19.7464 0.233682V5.98357C18.8479 5.752 17.9058 5.62883 16.9354 5.62883C15.9651 5.62883 15.023 5.752 14.1245 5.98357V0.233682Z" fill="#262B37"/>
<path d="M11.2505 7.12088V0.946655C4.69895 3.26428 0 9.51696 0 16.8583C0 26.1702 7.56029 33.7305 16.8724 33.7305C26.1844 33.7305 33.7445 26.1702 33.7445 16.8583C33.7445 9.51696 29.046 3.26428 22.4942 0.946655V7.12088C25.8539 9.06584 28.1161 12.6999 28.1161 16.8583C28.1161 23.0638 23.078 28.1019 16.8724 28.1019C10.6667 28.1019 5.62862 23.0638 5.62862 16.8583C5.62862 12.6999 7.89078 9.06584 11.2505 7.12088Z" fill="#262B37"/>
<path d="M44.6409 11.6299H47.3427V22.4379H44.6409V11.6299Z" fill="#262B37"/>
<path d="M47.6131 8.57451C47.6131 9.10093 47.4952 9.47866 47.2596 9.70728C47.0241 9.9359 46.6084 10.0502 46.0126 10.0502C45.4168 10.0502 45.0011 9.9359 44.7655 9.70728C44.5299 9.47866 44.4122 9.10093 44.4122 8.57451C44.4122 8.06181 44.5299 7.68766 44.7655 7.45208C45.0011 7.2165 45.4168 7.09882 46.0126 7.09882C46.6084 7.09882 47.0241 7.2165 47.2596 7.45208C47.4952 7.68766 47.6131 8.06181 47.6131 8.57451Z" fill="#262B37"/>
<path d="M49.5093 22.4259V15.0681C49.5093 14.3892 49.6063 13.8071 49.8001 13.3223C49.9941 12.8372 50.2922 12.4457 50.6939 12.1479C51.0957 11.8499 51.6084 11.6316 52.2321 11.4931C52.8555 11.3545 53.5968 11.2853 54.456 11.2853C56.1743 11.2853 57.4247 11.5728 58.2076 12.1479C58.9905 12.7229 59.3819 13.6964 59.3819 15.0681V22.4259H56.68V15.4007C56.68 15.082 56.6591 14.8049 56.6176 14.5693C56.576 14.3338 56.4824 14.1363 56.3371 13.9769C56.1916 13.8177 55.9699 13.6998 55.6719 13.6236C55.3739 13.5475 54.9688 13.5093 54.456 13.5093C53.9433 13.5093 53.538 13.5475 53.2402 13.6236C52.9422 13.6998 52.7169 13.8177 52.5647 13.9769C52.4122 14.1363 52.3152 14.3338 52.2736 14.5693C52.2321 14.8049 52.2112 15.082 52.2112 15.4007V22.4259H49.5093Z" fill="#262B37"/>
<path d="M65.9388 22.4237H67.6223L68.0589 20.1997H66.1259C65.7518 20.1997 65.4434 20.1755 65.2009 20.127C64.9584 20.0785 64.7713 19.9814 64.6397 19.8361C64.5081 19.6906 64.418 19.4862 64.3695 19.2228C64.321 18.9596 64.2967 18.62 64.2967 18.2044V13.8397H67.7471L68.1835 11.6157H64.2967V8.66431L61.5948 9.10067V18.3499C61.5948 19.1397 61.6571 19.7979 61.7819 20.3244C61.9066 20.851 62.1318 21.2703 62.4572 21.582C62.7829 21.8937 63.2264 22.112 63.7876 22.2366C64.3488 22.3613 65.0659 22.4237 65.9388 22.4237Z" fill="#262B37"/>
<path fill-rule="evenodd" clip-rule="evenodd" d="M72.1601 17.9364C72.1601 18.4352 72.188 18.8442 72.2435 19.1628C72.2987 19.4815 72.413 19.7308 72.5864 19.9109C72.7595 20.0912 72.9985 20.2159 73.3035 20.2851C73.6082 20.3544 74.01 20.389 74.509 20.389H76.1718C76.7952 20.389 77.5642 20.3751 78.4789 20.3475L78.0632 22.4259C77.6751 22.4399 77.3288 22.4502 77.0238 22.4572C76.7191 22.4641 76.4246 22.4675 76.1406 22.4675H74.3841C73.4005 22.4675 72.5898 22.3568 71.9524 22.1349C71.3151 21.9132 70.8127 21.5946 70.4455 21.1789C70.0783 20.7632 69.8219 20.2541 69.6765 19.6513C69.531 19.0485 69.4583 18.3591 69.4583 17.5832V16.4192C69.4583 15.5878 69.5344 14.8534 69.6869 14.2161C69.8394 13.5785 70.1059 13.0415 70.487 12.6052C70.8682 12.1686 71.3809 11.8396 72.0252 11.6179C72.6695 11.3963 73.4836 11.2853 74.4672 11.2853C75.3819 11.2853 76.1406 11.3857 76.7433 11.5867C77.3461 11.7877 77.8309 12.0682 78.1981 12.4284C78.5653 12.7887 78.8252 13.2149 78.9776 13.7067C79.1301 14.1986 79.2063 14.7355 79.2063 15.3176V15.6709C79.2063 16.142 79.1786 16.5265 79.1232 16.8245C79.0677 17.1223 78.9743 17.3545 78.8424 17.5207C78.7108 17.6871 78.5411 17.7979 78.3333 17.8533C78.1254 17.9088 77.8691 17.9364 77.5642 17.9364H72.1601ZM74.405 13.3223C73.9339 13.3223 73.5527 13.3604 73.2619 13.4366C72.9709 13.5127 72.7422 13.6513 72.5758 13.8523C72.4097 14.0533 72.2987 14.3234 72.2435 14.6628C72.188 15.0023 72.1601 15.4353 72.1601 15.9619H76.629V15.4838C76.629 15.082 76.5942 14.7425 76.525 14.4654C76.4556 14.1882 76.338 13.9666 76.1718 13.8004C76.0054 13.634 75.7767 13.5127 75.4857 13.4366C75.1949 13.3604 74.8346 13.3223 74.405 13.3223Z" fill="#262B37"/>
<path fill-rule="evenodd" clip-rule="evenodd" d="M87.1349 21.8025C87.5645 21.6639 87.9178 21.4836 88.1949 21.262V21.4075C88.1949 21.9063 88.15 22.322 88.0599 22.6546C87.9699 22.9872 87.821 23.247 87.613 23.4341C87.4051 23.6211 87.1385 23.7527 86.8129 23.8289C86.4872 23.9052 86.0888 23.9432 85.6177 23.9432H84.1107C83.8406 23.9432 83.5495 23.9398 83.2378 23.9328C82.9261 23.9259 82.5762 23.9156 82.1881 23.9016L81.7518 26.0632C82.2506 26.0771 82.6836 26.0874 83.0507 26.0944C83.4179 26.1014 83.7539 26.105 84.0589 26.105H85.7423C86.6707 26.105 87.4605 26.0183 88.1118 25.8451C88.7631 25.6718 89.2967 25.3982 89.7124 25.0241C90.1281 24.6499 90.4295 24.1648 90.6165 23.569C90.8036 22.9732 90.897 22.2597 90.897 21.4284V16.0659C90.897 15.3452 90.8276 14.6906 90.6891 14.1018C90.5505 13.5127 90.2909 13.0105 89.9098 12.5948C89.5287 12.1792 89.0056 11.8569 88.3404 11.6283C87.6755 11.3996 86.8232 11.2853 85.7841 11.2853C84.7587 11.2853 83.9167 11.3963 83.2587 11.6179C82.6005 11.8396 82.0774 12.1652 81.6894 12.5948C81.3013 13.0242 81.0347 13.5542 80.8892 14.1849C80.7437 14.8152 80.6709 15.5393 80.6709 16.3567V16.9388C80.6709 17.7839 80.7506 18.5253 80.9099 19.1628C81.0693 19.8002 81.3325 20.3302 81.6997 20.7528C82.0669 21.1755 82.552 21.4906 83.1547 21.6985C83.7575 21.9063 84.5092 22.0102 85.4099 22.0102C86.1304 22.0102 86.7055 21.9411 87.1349 21.8025ZM87.0103 19.7344C86.7055 19.8105 86.3035 19.8487 85.8047 19.8487C85.2644 19.8487 84.8348 19.8071 84.5161 19.7238C84.1974 19.6407 83.9585 19.4885 83.799 19.2666C83.6396 19.0449 83.5358 18.7402 83.4873 18.3521C83.4388 17.9643 83.4146 17.4653 83.4146 16.8557V16.4401C83.4146 15.8303 83.4352 15.3313 83.4768 14.9435C83.5185 14.5554 83.6223 14.2507 83.7887 14.029C83.9549 13.8071 84.1974 13.6548 84.5161 13.5718C84.8348 13.4884 85.2644 13.4469 85.8047 13.4469C86.3451 13.4469 86.7747 13.4884 87.0934 13.5718C87.412 13.6548 87.6546 13.8071 87.821 14.029C87.9872 14.2507 88.0912 14.5554 88.1327 14.9435C88.1743 15.3313 88.1949 15.8303 88.1949 16.4401V17.4583C88.1949 17.9295 88.1639 18.3175 88.1015 18.6223C88.0391 18.9272 87.9178 19.1696 87.7377 19.3499C87.5576 19.53 87.315 19.658 87.0103 19.7344Z" fill="#262B37"/>
<path d="M95.7497 22.4262H93.0476V15.3178C93.0476 14.625 93.1446 14.0395 93.3387 13.5614C93.5327 13.0835 93.8168 12.6988 94.1909 12.408C94.5651 12.1169 95.0223 11.9056 95.5626 11.774C96.103 11.6424 96.7197 11.5766 97.4125 11.5766H98.7635C99.1377 11.5766 99.5049 11.5836 99.8651 11.5973L99.4285 13.8421C99.1514 13.8282 98.8466 13.8179 98.514 13.8109C98.1814 13.804 97.9043 13.8006 97.6827 13.8006C97.2393 13.8006 96.8928 13.8421 96.6435 13.9252C96.394 14.0083 96.2 14.1296 96.0614 14.289C95.9229 14.4483 95.8364 14.6493 95.8016 14.8916C95.767 15.1341 95.7497 15.4218 95.7497 15.7542V22.4262Z" fill="#262B37"/>
<path fill-rule="evenodd" clip-rule="evenodd" d="M108.165 11.5348C107.513 11.3684 106.724 11.2853 105.795 11.2853C104.853 11.2853 104.056 11.3684 103.405 11.5348C102.754 11.701 102.22 11.9815 101.805 12.3766C101.389 12.7714 101.087 13.3014 100.9 13.9666C100.713 14.6318 100.62 15.4631 100.62 16.4607V17.5832C100.62 18.5807 100.713 19.4121 100.9 20.0773C101.087 20.7423 101.389 21.2725 101.805 21.6673C102.22 22.0621 102.754 22.3428 103.405 22.509C104.056 22.6754 104.853 22.7585 105.795 22.7585C106.724 22.7585 107.513 22.6754 108.165 22.509C108.816 22.3428 109.349 22.0621 109.765 21.6673C110.181 21.2725 110.482 20.7423 110.669 20.0773C110.856 19.4121 110.95 18.5807 110.95 17.5832V16.4607C110.95 15.4631 110.856 14.6318 110.669 13.9666C110.482 13.3014 110.181 12.7714 109.765 12.3766C109.349 11.9815 108.816 11.701 108.165 11.5348ZM108.102 14.8707C108.172 15.2655 108.206 15.7818 108.206 16.4192V17.6454C108.206 18.2829 108.172 18.7956 108.102 19.1835C108.033 19.5716 107.912 19.8694 107.739 20.0773C107.565 20.2851 107.323 20.4236 107.011 20.493C106.699 20.5622 106.294 20.597 105.795 20.597C105.296 20.597 104.888 20.5622 104.569 20.493C104.25 20.4236 104.004 20.2851 103.831 20.0773C103.658 19.8694 103.537 19.5716 103.467 19.1835C103.398 18.7956 103.363 18.2829 103.363 17.6454V16.4192C103.363 15.7818 103.398 15.2655 103.467 14.8707C103.537 14.4757 103.658 14.1743 103.831 13.9666C104.004 13.7586 104.25 13.6201 104.569 13.5509C104.888 13.4815 105.296 13.4469 105.795 13.4469C106.294 13.4469 106.699 13.4815 107.011 13.5509C107.323 13.6201 107.565 13.7586 107.739 13.9666C107.912 14.1743 108.033 14.4757 108.102 14.8707Z" fill="#262B37"/>
<path fill-rule="evenodd" clip-rule="evenodd" d="M140.156 20.4723C140.156 21.2067 139.99 21.716 139.657 22.0001C139.325 22.2842 138.75 22.4262 137.932 22.4262H134.544C133.062 22.4262 132.012 22.149 131.395 21.5948C130.779 21.0405 130.47 20.2437 130.47 19.2046V18.7473C130.47 17.5971 130.81 16.7623 131.489 16.2426C132.168 15.7232 133.228 15.4634 134.669 15.4634C135.389 15.4634 135.989 15.5222 136.467 15.6399C136.945 15.7578 137.302 15.8928 137.537 16.0452V15.6711C137.537 15.297 137.499 14.9852 137.423 14.7357C137.347 14.4864 137.218 14.289 137.038 14.1435C136.858 13.998 136.612 13.8974 136.301 13.8421C135.989 13.7867 135.597 13.7588 135.126 13.7588H134.253C133.934 13.7588 133.612 13.7624 133.287 13.7694L132.32 13.79C132.001 13.797 131.711 13.8006 131.447 13.8006L131.884 11.6181C132.272 11.6042 132.757 11.5939 133.339 11.5869C133.921 11.58 134.558 11.5766 135.251 11.5766C136.941 11.5766 138.182 11.8744 138.971 12.4702C139.761 13.066 140.156 14.0014 140.156 15.2763V20.4723ZM137.537 20.4723V18.7889C137.537 18.5394 137.513 18.3281 137.465 18.1549C137.416 17.9818 137.315 17.8396 137.163 17.7289C137.011 17.618 136.796 17.5382 136.519 17.4897C136.242 17.4412 135.875 17.417 135.417 17.417H135.105C134.316 17.417 133.782 17.514 133.505 17.708C133.228 17.902 133.089 18.2553 133.089 18.768V19.163C133.089 19.6064 133.217 19.9354 133.474 20.1503C133.73 20.365 134.205 20.4723 134.898 20.4723H137.537Z" fill="#262B37"/>
<path d="M146.755 22.4237H148.439L148.875 20.1997H146.942C146.568 20.1997 146.26 20.1755 146.018 20.127C145.775 20.0785 145.588 19.9814 145.456 19.8361C145.325 19.6906 145.235 19.4862 145.186 19.2228C145.138 18.9596 145.113 18.62 145.113 18.2044V13.8397H148.564L149 11.6157H145.113V8.66431L142.411 9.10067V18.3499C142.411 19.1397 142.474 19.7979 142.598 20.3244C142.723 20.851 142.948 21.2703 143.274 21.582C143.6 21.8937 144.043 22.112 144.604 22.2366C145.165 22.3613 145.882 22.4237 146.755 22.4237Z" fill="#262B37"/>
<path d="M112.997 18.7667V15.0266C112.997 14.3338 113.094 13.7483 113.288 13.2704C113.482 12.7923 113.769 12.4078 114.15 12.1167C114.531 11.8257 114.999 11.6144 115.553 11.4827C116.107 11.3511 116.745 11.2853 117.465 11.2853C118.214 11.2853 118.875 11.3893 119.45 11.5971C120.025 11.805 120.472 12.1028 120.791 12.4909C121.11 12.1028 121.56 11.805 122.142 11.5971C122.724 11.3893 123.396 11.2853 124.158 11.2853C124.865 11.2853 125.495 11.3511 126.049 11.4827C126.604 11.6144 127.071 11.8257 127.452 12.1167C127.834 12.4078 128.121 12.7923 128.315 13.2704C128.509 13.7483 128.606 14.3338 128.606 15.0266V22.4259H125.904V15.4007C125.904 15.082 125.887 14.8049 125.852 14.5693C125.817 14.3338 125.738 14.1363 125.613 13.9769C125.488 13.8177 125.298 13.6998 125.041 13.6236C124.785 13.5475 124.442 13.5093 124.013 13.5093C123.611 13.5093 123.292 13.5439 123.057 13.6133C122.821 13.6825 122.634 13.7865 122.495 13.925C122.357 14.0636 122.267 14.2367 122.225 14.4447C122.184 14.6524 122.163 14.895 122.163 15.1721V20.6079H119.461V15.4007C119.461 15.082 119.443 14.8049 119.409 14.5693C119.374 14.3338 119.291 14.1363 119.159 13.9769C119.028 13.8177 118.837 13.6998 118.588 13.6236C118.338 13.5475 117.999 13.5093 117.569 13.5093C117.14 13.5093 116.8 13.5475 116.551 13.6236C116.301 13.6998 116.114 13.8177 115.99 13.9769C115.865 14.1363 115.785 14.3338 115.751 14.5693C115.716 14.8049 115.699 15.082 115.699 15.4007V18.7667H112.997Z" fill="#262B37"/>
<path d="M14.1245 8.8902V21.996C15.004 22.3073 15.9501 22.4767 16.9354 22.4767C17.9208 22.4767 18.8669 22.3073 19.7464 21.996V8.8902C18.8669 8.57869 17.9208 8.40955 16.9354 8.40955C15.9501 8.40955 15.004 8.57869 14.1245 8.8902Z" fill="#262B37"/>
</svg>
