<svg width="152" height="68" viewBox="0 0 152 68" fill="none" xmlns="http://www.w3.org/2000/svg">
<path d="M7.13961 66.2257L7.13146 60.5204H6.03933L3.93658 64.0658L1.80122 60.5204H0.709102V66.2257H1.94793V62.8759L3.62688 65.6225H4.21369L5.89263 62.8107L5.90078 66.2257H7.13961Z" fill="#4C4C4C"/>
<path d="M9.86833 65.1661V63.8458H12.5171V62.8188H9.86833V61.58H12.8676V60.5204H8.55614V66.2257H12.9735V65.1661H9.86833Z" fill="#4C4C4C"/>
<path d="M16.7219 66.3232C17.7162 66.3232 18.5393 65.9645 19.0773 65.3043L18.2296 64.5219C17.8465 64.9702 17.3656 65.1984 16.7952 65.1984C15.7275 65.1984 14.9695 64.4487 14.9695 63.3728C14.9695 62.297 15.7275 61.5471 16.7952 61.5471C17.3656 61.5471 17.8465 61.7754 18.2296 62.2155L19.0773 61.433C18.5393 60.781 17.7162 60.4224 16.7299 60.4224C14.9532 60.4224 13.6329 61.6531 13.6329 63.3728C13.6329 65.0924 14.9532 66.3232 16.7219 66.3232Z" fill="#4C4C4C"/>
<path d="M24.2433 60.5204H19.2961V61.5962H21.1136V66.2257H22.4176V61.5962H24.2433V60.5204Z" fill="#4C4C4C"/>
<path d="M27.7151 66.3231C29.5082 66.3231 30.8366 65.0761 30.8366 63.3728C30.8366 61.6693 29.5082 60.4223 27.7151 60.4223C25.9139 60.4223 24.5936 61.6775 24.5936 63.3728C24.5936 65.068 25.9139 66.3231 27.7151 66.3231ZM27.7151 65.1983C26.6964 65.1983 25.9303 64.4567 25.9303 63.3728C25.9303 62.2887 26.6964 61.5471 27.7151 61.5471C28.7339 61.5471 29.5 62.2887 29.5 63.3728C29.5 64.4567 28.7339 65.1983 27.7151 65.1983Z" fill="#4C4C4C"/>
<path d="M38.1867 60.5204H34.1606V66.2257H35.4727L35.4645 61.5962H38.1785L38.1867 60.5204Z" fill="#4C4C4C"/>
<path d="M43.3691 65.1498V60.5204H38.9843L38.919 62.3053C38.862 63.9028 38.6746 65.1254 37.9329 65.1498H37.7047L37.6965 67.4075H38.919V66.2257H42.9452V67.4075H44.1677V65.1498H43.3691ZM40.0846 62.4276L40.1089 61.5962H42.065V65.1498H39.514C39.9052 64.6852 40.0356 63.6421 40.0846 62.4276Z" fill="#4C4C4C"/>
<path d="M46.3695 65.1661V63.8458H49.0184V62.8188H46.3695V61.58H49.3688V60.5204H45.0573V66.2257H49.4748V65.1661H46.3695Z" fill="#4C4C4C"/>
<path d="M56.7621 60.5204V62.77H54.1703V60.5204H52.8499V66.2257H54.1703V63.8865H56.7621V66.2257H58.0824V60.5204H56.7621Z" fill="#4C4C4C"/>
<path d="M63.8807 66.2257H65.2662L62.7151 60.5204H61.4111L58.8683 66.2257H60.2212L60.7265 65.0031H63.3753L63.8807 66.2257ZM61.1504 64.0006L62.055 61.8164L62.9596 64.0006H61.1504Z" fill="#4C4C4C"/>
<path d="M68.9748 60.5204V63.0877C68.6081 63.2507 68.1842 63.3404 67.7522 63.3404C66.9616 63.3404 66.5297 62.941 66.5297 62.1586V60.5204H65.2256V62.3053C65.2256 63.6828 66.0652 64.4407 67.5974 64.4407C68.0212 64.4407 68.4776 64.351 68.9748 64.1718V66.2257H70.2788V60.5204H68.9748Z" fill="#4C4C4C"/>
<path d="M71.6971 66.2257H72.944L75.6663 62.5173V66.2257H76.9703V60.5204H75.7315L73.0092 64.237V60.5204H71.6971V66.2257Z" fill="#4C4C4C"/>
<path d="M82.3025 60.5204V62.77H79.7109V60.5204H78.3904V66.2257H79.7109V63.8865H82.3025V66.2257H83.6228V60.5204H82.3025Z" fill="#4C4C4C"/>
<path d="M89.4211 66.2257H90.8067L88.2556 60.5204H86.9516L84.4087 66.2257H85.7617L86.2669 65.0031H88.9158L89.4211 66.2257ZM86.6908 64.0006L87.5955 61.8164L88.5002 64.0006H86.6908Z" fill="#4C4C4C"/>
<path d="M92.8749 65.1661V63.8458H95.5237V62.8188H92.8749V61.58H95.8742V60.5204H91.5626V66.2257H95.98V65.1661H92.8749Z" fill="#4C4C4C"/>
<path d="M101.406 60.5204H96.4592V61.5962H98.2767V66.2257H99.5807V61.5962H101.406V60.5204Z" fill="#4C4C4C"/>
<path d="M104.855 66.3231C105.85 66.3231 106.673 65.9644 107.211 65.3043L106.363 64.5219C105.98 64.9701 105.499 65.1983 104.929 65.1983C103.861 65.1983 103.103 64.4486 103.103 63.3728C103.103 62.2969 103.861 61.5471 104.929 61.5471C105.499 61.5471 105.98 61.7753 106.363 62.2155L107.211 61.4329C106.673 60.781 105.85 60.4223 104.863 60.4223C103.087 60.4223 101.766 61.6531 101.766 63.3728C101.766 65.0923 103.087 66.3231 104.855 66.3231Z" fill="#4C4C4C"/>
<path d="M110.053 60.5204C108.545 60.5204 107.592 61.3192 107.592 62.6477C107.592 63.5442 108.024 64.1963 108.79 64.506L107.6 66.2257H108.993L110.004 64.7097H111.21V66.2257H112.514V60.5204H110.053ZM110.086 61.5962H111.21V63.6664H110.053C109.311 63.6664 108.928 63.2915 108.928 62.6313C108.928 61.9468 109.336 61.5962 110.086 61.5962Z" fill="#4C4C4C"/>
<path d="M116.252 66.2257H118.958C120.425 66.2257 121.265 65.5655 121.265 64.4245C121.265 63.3324 120.523 62.7455 119.145 62.7455H117.564V61.5719H120.857V60.5204H116.252V66.2257ZM117.564 65.2476V63.7154H118.885C119.577 63.7154 119.928 63.9598 119.928 64.4652C119.928 64.9786 119.561 65.2476 118.885 65.2476H117.564Z" fill="#4C4C4C"/>
<path d="M122.269 66.2257H123.516L126.239 62.5173V66.2257H127.543V60.5204H126.304L123.582 64.237V60.5204H122.269V66.2257Z" fill="#4C4C4C"/>
<path d="M132.206 63.2509C132.711 63.0309 133.029 62.5907 133.029 62.0365C133.029 61.0015 131.888 60.3983 130.568 60.3983C129.916 60.3983 129.231 60.545 128.612 60.8629L129.011 61.8898C129.5 61.6128 130.063 61.4824 130.543 61.4824C131.187 61.4824 131.693 61.7268 131.693 62.1915C131.693 62.5664 131.383 62.8027 130.845 62.8027H129.549V63.797H130.943C131.538 63.797 131.929 64.0089 131.929 64.4409C131.929 64.9706 131.318 65.2477 130.568 65.2477C130.014 65.2477 129.378 65.101 128.856 64.7831L128.449 65.7286C129.158 66.1361 129.965 66.3236 130.723 66.3236C132.092 66.3236 133.266 65.7042 133.266 64.6283C133.266 63.9845 132.866 63.4791 132.206 63.2509Z" fill="#4C4C4C"/>
<path d="M138.223 60.5204V62.77H135.632V60.5204H134.311V66.2257H135.632V63.8865H138.223V66.2257H139.544V60.5204H138.223Z" fill="#4C4C4C"/>
<path d="M142.285 65.1661V63.8458H144.934V62.8188H142.285V61.58H145.284V60.5204H140.973V66.2257H145.391V65.1661H142.285Z" fill="#4C4C4C"/>
<path d="M149.14 66.3231C150.134 66.3231 150.958 65.9644 151.496 65.3043L150.649 64.5219C150.266 64.9701 149.784 65.1983 149.214 65.1983C148.146 65.1983 147.387 64.4486 147.387 63.3728C147.387 62.2969 148.146 61.5471 149.214 61.5471C149.784 61.5471 150.266 61.7753 150.649 62.2155L151.496 61.4329C150.958 60.781 150.134 60.4223 149.149 60.4223C147.372 60.4223 146.052 61.6531 146.052 63.3728C146.052 65.0923 147.372 66.3231 149.14 66.3231Z" fill="#4C4C4C"/>
<path d="M65.6063 47.5034H71.9426C76.3838 47.5034 79.4275 44.9192 79.4275 40.8034C79.4275 36.6877 76.3838 34.1034 71.9426 34.1034H65.6063V47.5034ZM69.3966 44.4789V37.128H71.7895C74.0675 37.128 75.5989 38.4872 75.5989 40.8034C75.5989 43.1197 74.0675 44.4789 71.7895 44.4789H69.3966Z" fill="#4C4C4C"/>
<path d="M89.327 47.7713C93.6151 47.7713 96.7736 44.8233 96.7736 40.8033C96.7736 36.7833 93.6151 33.8353 89.327 33.8353C85.039 33.8353 81.8805 36.7833 81.8805 40.8033C81.8805 44.8233 85.039 47.7713 89.327 47.7713ZM89.327 44.6318C87.2979 44.6318 85.7091 43.1195 85.7091 40.8033C85.7091 38.487 87.2979 36.9747 89.327 36.9747C91.3562 36.9747 92.9451 38.487 92.9451 40.8033C92.9451 43.1195 91.3562 44.6318 89.327 44.6318Z" fill="#4C4C4C"/>
<path d="M99.9077 47.5034H110.092V44.498H103.698V34.1034H99.9077V47.5034Z" fill="#4C4C4C"/>
<path d="M112.74 47.5034H116.53V34.1034H112.74V47.5034Z" fill="#4C4C4C"/>
<path d="M129.41 34.1034V41.2437L123.495 34.1034H120.375V47.5034H124.088V40.3631L130.003 47.5034H133.124V34.1034H129.41Z" fill="#4C4C4C"/>
<path d="M146.978 47.5034H150.921L144.987 34.1034H141.254L135.338 47.5034H139.206L140.258 44.9H145.925L146.978 47.5034ZM141.369 42.1051L143.092 37.8172L144.814 42.1051H141.369Z" fill="#4C4C4C"/>
<path d="M65.6714 25.2048H72.3178C76.9763 25.2048 80.1691 22.4939 80.1691 18.1768C80.1691 13.8596 76.9763 11.1488 72.3178 11.1488H65.6714V25.2048ZM69.6471 22.0321V14.3214H72.1571C74.5467 14.3214 76.153 15.7471 76.153 18.1768C76.153 20.6064 74.5467 22.0321 72.1571 22.0321H69.6471Z" fill="#4C4C4C"/>
<path d="M82.2601 25.2048H86.2359V11.1488H82.2601V25.2048Z" fill="#4C4C4C"/>
<path d="M98.4827 21.7311C97.7799 22.0524 97.0773 22.1929 96.3342 22.1929C93.9648 22.1929 92.3584 20.5464 92.3584 18.1769C92.3584 15.7473 93.9648 14.1609 96.3744 14.1609C97.7198 14.1609 98.8242 14.663 99.788 15.7272L102.318 13.4381C100.932 11.7714 98.8041 10.8678 96.1736 10.8678C91.6155 10.8678 88.3424 13.8999 88.3424 18.1769C88.3424 22.454 91.6155 25.4861 96.0933 25.4861C98.1415 25.4861 100.37 24.8635 101.997 23.6989V17.8757H98.4827V21.7311Z" fill="#4C4C4C"/>
<path d="M104.516 25.2048H108.492V11.1488H104.516V25.2048Z" fill="#4C4C4C"/>
<path d="M114.314 25.2048H118.29V14.3013H122.587V11.1488H109.997V14.3013H114.314V25.2048Z" fill="#4C4C4C"/>
<path d="M133.884 25.2048H138.021L131.796 11.1488H127.88L121.675 25.2048H125.732L126.836 22.4739H132.78L133.884 25.2048ZM128.001 19.5422L129.808 15.0443L131.615 19.5422H128.001Z" fill="#4C4C4C"/>
<path d="M139.146 25.2048H149.829V22.0522H143.122V11.1488H139.146V25.2048Z" fill="#4C4C4C"/>
<path d="M0 18.3683H16.4082C26.2253 18.3683 34.1837 26.3267 34.1837 36.1438C34.1837 45.961 26.2253 53.9193 16.4082 53.9193H0V18.3683Z" fill="#4C4C4C"/>
<path d="M17.7755 0.592773H34.1837C44.0008 0.592773 51.9592 8.55114 51.9592 18.3683C51.9592 28.1854 44.0008 36.1438 34.1837 36.1438L17.7755 36.1438V0.592773Z" fill="#4C4C4C"/>
</svg>
