<svg width="228" height="62" viewBox="0 0 228 62" fill="none" xmlns="http://www.w3.org/2000/svg">
<path d="M117.748 35.2C117.748 38.6 116.848 41.2999 114.948 43.2C113.048 45.2 110.248 46.2999 106.548 46.2999H103.348V48.5H97.0481V46.2999H93.8481C86.5481 46.2999 82.6481 42.1 82.6481 35.2C82.6481 27.7 86.5481 23.4 93.2481 23.4H97.0481V21.2H103.348V23.4H107.148C113.848 23.4 117.748 27.7 117.748 35.2ZM97.0481 41.7V28H95.0481C91.1481 28 89.0481 30.5 89.0481 34.7C89.0481 39.2 91.2481 41.7 95.5481 41.7H97.0481ZM111.348 34.7C111.348 30.6 109.248 28 105.348 28H103.348V41.7H104.848C109.148 41.7 111.348 39.2 111.348 34.7Z" fill="#4C4C4C"/>
<path d="M142.548 46.2999H136.248V32.6L126.748 46.2999H120.448V23.4H126.748V37.1L136.248 23.3H142.548V46.2999Z" fill="#4C4C4C"/>
<path d="M168.648 46.2999H162.348V37.1H152.848V46.2999H146.548V23.4H152.848V32.6H162.348V23.4H168.648V46.2999Z" fill="#4C4C4C"/>
<path d="M194.548 46.2999H180.448C177.848 46.2999 175.948 45.7999 174.548 44.7999C173.048 43.7 172.048 41.7999 172.048 39.3999C172.048 37.2999 172.748 35.7 173.948 34.5C175.348 33.1 177.348 32.5 180.148 32.5H188.748V32.1C188.748 29.2 187.448 28 183.948 28H173.448V23.4H185.848C188.248 23.4 190.048 23.9 191.248 24.7C193.448 26.2 194.548 29.2 194.548 33.6V46.2999ZM188.748 41.7V37.1H180.448C178.748 37.1 177.648 37.5999 177.648 39.3999C177.648 41.0999 178.948 41.7 180.448 41.7H188.748Z" fill="#4C4C4C"/>
<path d="M221.848 23.4C219.448 23.4 217.948 24.7 217.148 27L212.948 39.5L208.848 27C208.148 24.7 206.648 23.4 204.148 23.4H198.448V46.2999H204.748V30.2L210.048 46.3999H216.048L221.348 30.2V46.3999H227.648V23.4H221.848Z" fill="#4C4C4C"/>
<path d="M10.9481 48.5L17.9481 53.9C17.9481 53.9 18.5481 51.8 19.9481 49.1L12.9481 43.7C11.5481 46.5 10.9481 48.5 10.9481 48.5Z" fill="#4C4C4C"/>
<path d="M13.4481 43L20.4481 48.4C21.2481 47.1 22.1481 45.7 23.3481 44.3L16.3481 38.9C15.1481 40.2 14.2481 41.7 13.4481 43Z" fill="#4C4C4C"/>
<path d="M16.9481 38.2L23.9481 43.6C25.0481 42.4 26.3481 41.2 27.7481 40.2L20.7481 34.8C19.3481 35.8 18.0481 37 16.9481 38.2Z" fill="#4C4C4C"/>
<path d="M44.2481 21.9L51.2481 27.3C52.4481 26.2 53.5481 25 54.6481 23.6L47.6481 18.2C46.5481 19.5 45.4481 20.7999 44.2481 21.9Z" fill="#4C4C4C"/>
<path d="M27.5481 31.4L34.5481 36.7999C36.2481 36.0999 38.0481 35.4 39.9481 34.6L32.9481 29.2C31.0481 30.1 29.2481 30.7999 27.5481 31.4Z" fill="#4C4C4C"/>
<path d="M22.1481 33.8999C21.9481 33.9999 21.7481 34.0999 21.5481 34.2999L28.5481 39.7C28.7481 39.6 28.9481 39.3999 29.1481 39.2999C30.4481 38.5 31.9481 37.9 33.6481 37.2L26.6481 31.8C24.9481 32.5 23.4481 33.0999 22.1481 33.8999Z" fill="#4C4C4C"/>
<path d="M54.2481 7.09995L61.2481 12.5C61.9481 11 62.5481 9.29995 63.1481 7.59995L56.1481 2.19995C55.5481 3.99995 54.9481 5.59995 54.2481 7.09995Z" fill="#4C4C4C"/>
<path d="M51.5481 12.5L58.5481 17.9C59.3481 16.5 60.1481 15 60.8481 13.3L53.8481 7.89995C53.1481 9.59995 52.3481 11.1 51.5481 12.5Z" fill="#4C4C4C"/>
<path d="M33.8481 28.8L40.8481 34.2C42.4481 33.5 44.0481 32.6 45.6481 31.6L38.6481 26.2C37.0481 27.2 35.4481 28.1 33.8481 28.8Z" fill="#4C4C4C"/>
<path d="M39.4481 25.7L46.4481 31.1C47.8481 30.2 49.1481 29.1 50.5481 27.9L43.5481 22.5C42.2481 23.7 40.8481 24.7 39.4481 25.7Z" fill="#4C4C4C"/>
<path d="M48.2481 17.5L55.2481 22.9C56.2481 21.6 57.1481 20.3 58.0481 18.7L51.0481 13.3C50.1481 14.8 49.2481 16.2 48.2481 17.5Z" fill="#4C4C4C"/>
<path d="M0.848145 40.7L7.84814 46.1C7.84814 46.1 8.44814 44 9.84814 41.3L2.84814 35.9C1.44814 38.6 0.848145 40.7 0.848145 40.7Z" fill="#4C4C4C"/>
<path d="M3.34814 35.1L10.3481 40.5C11.1481 39.2 12.0481 37.7999 13.2481 36.3999L6.24814 31C5.04814 32.2999 4.04814 33.8 3.34814 35.1Z" fill="#4C4C4C"/>
<path d="M6.84814 30.3L13.8481 35.7C14.9481 34.5 16.2481 33.2999 17.6481 32.2999L10.6481 26.9C9.14814 27.9 7.94814 29.1 6.84814 30.3Z" fill="#4C4C4C"/>
<path d="M34.1481 14L41.1481 19.4C42.3481 18.2999 43.4481 17.1 44.5481 15.7L37.5481 10.3C36.4481 11.7 35.2481 12.9 34.1481 14Z" fill="#4C4C4C"/>
<path d="M17.4481 23.5L24.4481 28.9C26.1481 28.1999 27.9481 27.5 29.8481 26.7L22.8481 21.3C20.9481 22.2 19.1481 22.9 17.4481 23.5Z" fill="#4C4C4C"/>
<path d="M12.0481 26C11.8481 26.1 11.6481 26.1999 11.4481 26.4L18.4481 31.8C18.6481 31.7 18.8481 31.5 19.0481 31.4C20.3481 30.6 21.8481 30 23.5481 29.3L16.5481 23.9C14.8481 24.6 13.3481 25.2 12.0481 26Z" fill="#4C4C4C"/>
<path d="M41.4481 4.69995L48.4481 10.1C49.2481 8.69995 50.0481 7.19995 50.7481 5.59995L43.7481 0.199951C43.0481 1.69995 42.2481 3.19995 41.4481 4.69995Z" fill="#4C4C4C"/>
<path d="M23.7481 20.9L30.7481 26.3C32.3481 25.6 33.9481 24.7 35.5481 23.7L28.5481 18.3C26.9481 19.3 25.2481 20.1999 23.7481 20.9Z" fill="#4C4C4C"/>
<path d="M29.3481 17.8L36.3481 23.2C37.7481 22.3 39.0481 21.2 40.4481 20L33.4481 14.6C32.0481 15.8 30.7481 16.9 29.3481 17.8Z" fill="#4C4C4C"/>
<path d="M38.1481 9.59995L45.1481 15C46.1481 13.7 47.0481 12.4 47.9481 10.8L40.9481 5.39995C40.0481 6.89995 39.0481 8.29995 38.1481 9.59995Z" fill="#4C4C4C"/>
<path d="M21.1481 56.4L28.1481 61.8C28.1481 61.8 28.7481 59.7 30.1481 57L23.1481 51.6C21.7481 54.3 21.1481 56.4 21.1481 56.4Z" fill="#4C4C4C"/>
<path d="M23.6481 50.8L30.6481 56.2C31.4481 54.9 32.3481 53.5 33.5481 52.1L26.5481 46.7C25.3481 48.1 24.3481 49.5 23.6481 50.8Z" fill="#4C4C4C"/>
<path d="M27.1481 46.1L34.1481 51.5C35.2481 50.3 36.5481 49.1 37.9481 48.1L30.9481 42.7C29.4481 43.7 28.2481 44.8 27.1481 46.1Z" fill="#4C4C4C"/>
<path d="M54.3481 29.8L61.3481 35.2C62.5481 34.1 63.6481 32.9 64.7481 31.5L57.7481 26.1C56.7481 27.4 55.5481 28.7 54.3481 29.8Z" fill="#4C4C4C"/>
<path d="M37.7481 39.3L44.7481 44.7C46.4481 44 48.2481 43.3 50.1481 42.5L43.1481 37.1C41.2481 37.9 39.4481 38.6 37.7481 39.3Z" fill="#4C4C4C"/>
<path d="M32.3481 41.8C32.1481 41.9 31.9481 42.1 31.7481 42.2L38.7481 47.6C38.9481 47.5 39.1481 47.4 39.3481 47.2C40.6481 46.4 42.1481 45.8 43.8481 45.1L36.8481 39.7C35.1481 40.4 33.5481 41 32.3481 41.8Z" fill="#4C4C4C"/>
<path d="M44.0481 36.7L51.0481 42.1C52.6481 41.4 54.2481 40.5 55.8481 39.5L48.8481 34.1C47.2481 35.1 45.5481 35.9 44.0481 36.7Z" fill="#4C4C4C"/>
<path d="M49.6481 33.5L56.6481 38.8999C58.0481 37.9999 59.3481 36.9 60.7481 35.7L53.7481 30.3C52.3481 31.6 50.9481 32.6 49.6481 33.5Z" fill="#4C4C4C"/>
<path d="M58.3481 25.4L65.3481 30.8C66.3481 29.5 67.2481 28.2 68.1481 26.6L61.1481 21.2C60.3481 22.7 59.3481 24.1 58.3481 25.4Z" fill="#4C4C4C"/>
</svg>
