<svg width="111" height="53" viewBox="0 0 111 53" fill="none" xmlns="http://www.w3.org/2000/svg">
<path d="M62.9365 3.30634L50.8848 7.92351L51.9123 15.9604L64.6178 3.13098L62.9365 3.30634Z" fill="#4C4C4C"/>
<path d="M68.7306 6.19016L62.5412 6.83548L49.8357 19.6647L49.9364 20.4533L56.3057 18.1945L54.7705 27.9264L57.2691 25.4035L54.115 45.3973L59.4023 44.8459L65.6971 38.4902L69.8176 12.5508L67.3193 15.0736L68.7306 6.19016Z" fill="#4C4C4C"/>
<path d="M62.2436 47.7159L63.1644 41.92L56.8698 48.276L62.2436 47.7159Z" fill="#4C4C4C"/>
<path d="M87.1867 36.7996C85.7502 36.9493 84.4612 36.6364 83.424 35.8555L85.2428 34.0189C84.0945 32.9717 83.3115 31.274 83.0692 28.9041C82.7932 26.205 83.1349 23.101 84.0643 20.3611L86.839 17.5597C88.0781 14.1432 90.2578 11.3688 93.3221 10.7778L90.9531 13.1698C91.0408 13.1569 91.127 13.1399 91.2161 13.1308C94.5096 12.7874 97.0845 14.7974 97.5628 19.4755C97.6087 19.9218 97.6349 20.3802 97.646 20.8454L95.4787 23.0337C95.428 29.1318 92.5542 36.2401 87.1867 36.7996ZM106.322 19.2542C106.131 17.3813 105.692 15.6297 105.037 14.0323L107.019 12.0312C105.519 8.65753 103.008 6.03684 99.7107 4.56248L102.2 2.04887C99.7906 1.00664 96.9714 0.569533 93.8236 0.897567C80.7622 2.25927 73.501 15.6619 74.7802 28.1742C74.8206 28.5693 74.8764 28.9565 74.9387 29.34L72.321 31.9834C72.9794 35.8454 74.7025 39.1112 77.27 41.4194L75.44 43.2676C77.3262 44.854 79.6379 45.9422 82.2974 46.3988L106.466 21.9947C106.462 21.0803 106.415 20.1652 106.322 19.2542Z" fill="#4C4C4C"/>
<path d="M85.5682 44.8544C87.1004 45.1175 88.746 45.1743 90.4938 44.9921C102.66 43.7238 109.792 32.1502 109.737 20.4502L85.5682 44.8544Z" fill="#4C4C4C"/>
<path d="M30.9561 46.4456L31.3034 46.4094L39.141 38.4956L34.1902 29.6683L31.0225 32.8666L29.2347 29.679L39.7919 15.5638L3.27493 52.436L12.6197 51.4621L21.9805 38.1823L23.3785 40.9355L26.5382 37.7449L30.9561 46.4456Z" fill="#4C4C4C"/>
<path d="M28.9785 50.6739L40.5764 49.4646L36.8161 42.76L28.9785 50.6739Z" fill="#4C4C4C"/>
<path d="M10.136 8.8598L6.71345 9.2167L7.81848 11.2L10.136 8.8598Z" fill="#4C4C4C"/>
<path d="M40.9018 4.178L38.5065 6.59666L33.5224 7.11618L25.0011 19.226L20.4075 10.2182L21.3105 9.30633L20.5064 7.72926L12.0396 8.61184L9.72208 10.9521L13.2695 17.3191L12.3687 18.2288L17.6966 27.7915L2.5323 48.0519L6.30514 47.6585L42.8221 10.7863L48.3447 3.4021L40.9018 4.178Z" fill="#4C4C4C"/>
</svg>
