<svg width="153" height="40" viewBox="0 0 153 40" fill="none" xmlns="http://www.w3.org/2000/svg">
<path d="M20.2727 12.6655L23 5.42087L25.6591 12.6655H20.2727ZM17.2045 19.5C17.3409 19.5 17.4773 19.4316 17.6136 19.3633C17.6818 19.295 17.8182 19.1583 17.8864 19.0216L19.1136 15.946H26.9545L28.1818 19.0216C28.25 19.1583 28.3182 19.295 28.3864 19.3633C28.5227 19.4316 28.5909 19.5 28.7955 19.5H31.5909C31.7273 19.5 31.7955 19.5 31.8636 19.4317C31.9318 19.3633 32 19.295 32 19.2266C32 19.1583 32 19.1583 32 19.0899C32 19.0216 32 19.0216 31.9318 18.9532L24.7045 0.978425C24.6364 0.841735 24.5682 0.705044 24.4318 0.636699C24.2955 0.568354 24.2273 0.5 24.0227 0.5H21.9091C21.7727 0.5 21.6364 0.568354 21.5682 0.636699C21.4318 0.705044 21.3636 0.841735 21.2955 0.978425L14.0682 18.9532C14.0682 19.0216 14.0682 19.0216 14 19.0899C14 19.1583 14 19.1583 14 19.2266C14 19.3633 14 19.4317 14.0682 19.4317C14.1364 19.5 14.2727 19.5 14.4091 19.5H17.2045Z" fill="#4C4C4C"/>
<path d="M3.99015 9.35305V3.70073H7.75862C8.20197 3.70073 8.64532 3.76882 9.01478 3.90502C9.38424 4.04122 9.7537 4.24552 10.0493 4.51792C10.3448 4.79032 10.5665 5.06274 10.7143 5.47134C10.8621 5.81184 10.936 6.15233 10.936 6.56093C10.936 6.96953 10.8621 7.31004 10.7143 7.65054C10.5665 7.99104 10.3448 8.26346 10.0493 8.53586C9.7537 8.80826 9.38424 9.01256 9.01478 9.14876C8.64532 9.28496 8.20197 9.35305 7.75862 9.35305H3.99015ZM3.4729 19.3638C3.69458 19.3638 3.76847 19.2957 3.91625 19.2276C3.99015 19.1595 4.06404 19.0233 4.06404 18.819V12.5538H8.57143C9.45813 12.5538 10.3448 12.4176 11.0837 12.0771C11.8966 11.7366 12.5616 11.328 13.1527 10.7151C13.5222 10.3065 13.8916 9.89786 14.1133 9.48926C14.4089 9.01256 14.6305 8.53585 14.7783 8.05915C14.9261 7.58244 15 7.03763 15 6.56093C15 6.01613 14.9261 5.53943 14.7783 4.99463C14.6305 4.51793 14.4089 4.04122 14.1872 3.56452C13.8916 3.08781 13.5961 2.67922 13.2266 2.33872C12.6355 1.72582 11.9704 1.31721 11.1576 0.976711C10.3448 0.636209 9.53202 0.5 8.64532 0.5H0.517239C0.369456 0.5 0.221673 0.568109 0.147781 0.636209C0.0738894 0.704309 0 0.840514 0 1.04482V18.9552C0 19.1595 0.0738894 19.2276 0.147781 19.3638C0.221673 19.4319 0.369455 19.5 0.59113 19.5H3.4729V19.3638Z" fill="#4C4C4C"/>
<path d="M27.2727 28.5971L30 21.3525L32.6591 28.5971H27.2727ZM24.2045 35.5C24.3409 35.5 24.4773 35.5 24.6136 35.3633C24.6818 35.295 24.8182 35.1583 24.8864 35.0216L26.1136 31.946H33.9545L35.1818 35.0216C35.25 35.1583 35.3182 35.295 35.3864 35.3633C35.5227 35.4316 35.5909 35.5 35.7954 35.5H38.5909C38.7273 35.5 38.7954 35.5 38.8636 35.4317C38.9318 35.3633 39 35.295 39 35.2266C39 35.1583 39 35.1583 39 35.0899C39 35.0216 39 35.0216 38.9318 34.9532L31.7045 16.9784C31.6364 16.8417 31.5682 16.705 31.4318 16.6367C31.2955 16.5683 31.1591 16.5 31.0227 16.5H28.9091C28.7727 16.5 28.6364 16.5683 28.5682 16.6367C28.4318 16.705 28.3636 16.8417 28.2954 16.9784L21.0682 34.9532C21.0682 35.0216 21.0682 35.0216 21 35.0899C21 35.1583 21 35.1583 21 35.2266C21 35.295 21.0682 35.4317 21.1364 35.4317C21.2045 35.5 21.3409 35.5 21.4773 35.5H24.2045Z" fill="#4C4C4C"/>
<path d="M12.2601 35.4317C12.4682 35.4317 12.6069 35.3633 12.6763 35.295C12.7457 35.2266 12.815 35.0899 12.815 34.8849V19.9173H20.4451C20.5838 19.9173 20.7225 19.8489 20.8613 19.7806C20.9306 19.6439 21 19.5072 21 19.3705V17.0468C21 16.8417 20.9306 16.705 20.8613 16.6367C20.7919 16.5684 20.5838 16.5 20.4451 16.5H9.55491C9.34682 16.5 9.20809 16.5684 9.13873 16.6367C9.06936 16.705 9 16.9101 9 17.0468V34.9532C9 35.0899 9.06936 35.2266 9.13873 35.3633C9.27745 35.5 9.41618 35.5 9.55491 35.5H12.2601V35.4317Z" fill="#4C4C4C"/>
<path d="M37.7491 16.1787C38.4502 14.7282 39.0111 13.2087 39.3616 11.6892C39.7823 10.1697 39.9926 8.58107 40.0627 6.99249C40.1328 5.88738 40.2029 4.85136 40.2029 3.81533H44.9004V16.1096H37.7491V16.1787ZM34.8044 23.2928C34.9446 23.2928 35.0849 23.2928 35.155 23.2237C35.2251 23.1546 35.2952 23.0856 35.2952 22.9474V19.7012H47.4244V22.9474C47.4244 23.0856 47.4945 23.1546 47.5646 23.2928C47.6347 23.3619 47.7749 23.4309 47.9151 23.4309H50.5092C50.6494 23.4309 50.7897 23.4309 50.8598 23.2928C50.9299 23.2237 51 23.0856 51 22.9474V16.7312C51 16.5931 50.9299 16.4549 50.8598 16.3859C50.7195 16.3168 50.6494 16.2478 50.5092 16.2478H48.8266V0.914418C48.8266 0.77628 48.7565 0.707216 48.6863 0.638147C48.6162 0.569077 48.476 0.5 48.3358 0.5H37.3985C37.2583 0.5 37.1181 0.569077 37.048 0.638147C36.9779 0.707216 36.9077 0.845354 36.9077 0.983492C36.9077 1.53604 36.9077 1.95046 36.9077 2.36487C36.9077 2.77929 36.9077 3.05556 36.9077 3.33183L36.8376 5.54205C36.8376 6.37088 36.7675 7.13063 36.6974 7.82132C36.6273 8.51201 36.5572 9.2027 36.417 9.82432C36.2768 10.4459 36.2066 10.9985 35.9963 11.551C35.8561 12.1036 35.6458 12.6562 35.4354 13.1396C35.2251 13.6922 35.0148 14.1757 34.7343 14.7282C34.4539 15.2808 34.1734 15.7643 33.8229 16.3168H32.4908C32.3506 16.3168 32.2103 16.3859 32.1402 16.455C32.0701 16.524 32 16.6622 32 16.8694V23.0856C32 23.3619 32.1402 23.5 32.4207 23.5H34.8044V23.2928Z" fill="#4C4C4C"/>
<path d="M45.2 35.5C45.4043 35.5 45.5404 35.4319 45.6085 35.3638C45.6766 35.2957 45.7447 35.1595 45.7447 34.9552V27.2599H54.2553V34.9552C54.2553 35.1595 54.3234 35.2276 54.3915 35.3638C54.4596 35.4319 54.5957 35.5 54.7319 35.5H57.4553C57.6596 35.5 57.7957 35.4319 57.8638 35.3638C57.9319 35.2957 58 35.1595 58 34.9552V17.0448C58 16.8405 57.9319 16.7043 57.8638 16.6362C57.7957 16.5681 57.6596 16.5 57.5234 16.5H54.7319C54.5957 16.5 54.4596 16.5681 54.3915 16.6362C54.3234 16.7043 54.2553 16.8405 54.2553 17.0448V23.7186H45.7447V17.0448C45.7447 16.8405 45.6766 16.7043 45.6085 16.6362C45.5404 16.5681 45.4043 16.5 45.2681 16.5H42.4766C42.3404 16.5 42.2043 16.5681 42.1362 16.6362C42.0681 16.7043 42 16.8405 42 17.0448V34.9552C42 35.1595 42.0681 35.2276 42.1362 35.3638C42.2043 35.4319 42.3404 35.5 42.5447 35.5H45.2Z" fill="#4C4C4C"/>
<path d="M132.698 16.5717V11.1236H137.023C137.163 11.1236 137.372 11.1236 137.512 11.1236C137.721 11.1236 137.86 11.1917 138.07 11.1917C138.349 11.2598 138.628 11.3279 138.907 11.4641C139.186 11.6003 139.395 11.8047 139.605 12.0771C139.814 12.3495 139.953 12.5538 140.093 12.8943C140.233 13.1667 140.233 13.5072 140.233 13.7796C140.233 14.1201 140.163 14.3925 140.093 14.733C139.953 15.0054 139.814 15.2778 139.605 15.5502C139.395 15.8226 139.186 16.0269 138.907 16.1631C138.628 16.2993 138.349 16.4355 138.07 16.4355C137.86 16.5036 137.651 16.5036 137.512 16.5036C137.302 16.5036 137.163 16.5036 137.023 16.5036H132.698V16.5717ZM132.698 8.33154V3.56452H136.953C137.302 3.56452 137.651 3.63261 137.93 3.76881C138.209 3.90501 138.488 4.04122 138.698 4.24552C138.907 4.44982 139.116 4.72221 139.186 4.99461C139.326 5.26701 139.395 5.60753 139.395 5.94803C139.395 6.28853 139.326 6.62903 139.186 6.90143C139.047 7.17383 138.907 7.44622 138.698 7.71862C138.488 7.92292 138.209 8.12724 137.86 8.26344C137.581 8.39964 137.233 8.46773 136.884 8.46773H132.698V8.33154ZM138.419 19.5C139.186 19.5 139.884 19.3638 140.581 19.0233C141.279 18.7509 141.837 18.3423 142.395 17.7975C142.884 17.2527 143.302 16.7079 143.581 16.0269C143.86 15.3459 144 14.6649 144 13.9158C144 13.0305 143.791 12.1452 143.302 11.328C143.093 10.9194 142.814 10.5788 142.535 10.2383C142.256 9.89784 141.907 9.62545 141.488 9.35305C141.977 8.87635 142.326 8.33153 142.605 7.71862C142.884 7.10572 143.023 6.49282 143.023 5.74372C143.023 4.99461 142.884 4.31361 142.605 3.70071C142.326 3.0878 141.907 2.4749 141.419 1.9982C140.93 1.52149 140.302 1.11289 139.674 0.908586C139.047 0.636184 138.279 0.5 137.581 0.5H129.558C129.349 0.5 129.209 0.568088 129.14 0.636188C129.07 0.772389 129 0.908594 129 1.04479V18.8871C129 19.0914 129.07 19.2276 129.14 19.2957C129.209 19.3638 129.419 19.4319 129.558 19.4319H138.419V19.5Z" fill="#4C4C4C"/>
<path d="M115.273 12.6655L118 5.42087L120.659 12.6655H115.273ZM112.205 19.5C112.341 19.5 112.477 19.4316 112.614 19.3633C112.682 19.295 112.818 19.1583 112.886 19.0216L114.114 15.946H121.955L123.182 19.0216C123.25 19.1583 123.318 19.295 123.386 19.3633C123.523 19.4316 123.591 19.5 123.795 19.5H126.591C126.727 19.5 126.795 19.5 126.864 19.4317C126.932 19.3633 127 19.295 127 19.2266C127 19.1583 127 19.1583 127 19.0899C127 19.0216 127 19.0216 126.932 18.9532L119.705 0.978425C119.636 0.841735 119.568 0.705044 119.432 0.636699C119.295 0.568354 119.159 0.5 119.023 0.5H116.909C116.773 0.5 116.636 0.568354 116.568 0.636699C116.432 0.705044 116.364 0.841735 116.295 0.978425L109.068 18.9532C109.068 19.0216 109 19.0216 109 19.0899C109 19.1583 109 19.1583 109 19.2266C109 19.3633 109.068 19.4317 109.068 19.4317C109.136 19.5 109.273 19.5 109.409 19.5H112.205Z" fill="#4C4C4C"/>
<path d="M87.6212 28.5971L90.5 21.3525L93.3068 28.5971H87.6212ZM84.3826 35.5C84.5265 35.5 84.6705 35.5 84.8144 35.3633C84.8864 35.295 85.0303 35.1583 85.1023 35.0216L86.3977 31.946H94.6742L95.9697 35.0216C96.0417 35.1583 96.1136 35.295 96.1856 35.3633C96.3296 35.4316 96.4015 35.5 96.6174 35.5H99.5682C99.7121 35.5 99.7841 35.5 99.8561 35.4317C99.928 35.3633 100 35.295 100 35.2266C100 35.1583 100 35.1583 100 35.0899C100 35.0216 100 35.0216 99.928 34.9532L92.2992 16.9784C92.2273 16.8417 92.1553 16.705 92.0114 16.6367C91.8674 16.5683 91.7235 16.5 91.5795 16.5H89.3485C89.2046 16.5 89.0606 16.5683 88.9886 16.6367C88.8447 16.705 88.7727 16.8417 88.7008 16.9784L81.072 34.9532C81.072 35.0216 81 35.0216 81 35.0899C81 35.1583 81 35.1583 81 35.2266C81 35.295 81 35.4317 81.072 35.4317C81.1439 35.5 81.2879 35.5 81.4318 35.5H84.3826Z" fill="#4C4C4C"/>
<path d="M125.341 28.5971L128.068 21.3525L130.727 28.5971H125.341ZM122.273 35.5C122.409 35.5 122.545 35.5 122.682 35.3633C122.818 35.295 122.886 35.1583 122.955 35.0216L124.182 31.946H131.955L133.182 35.0216C133.25 35.1583 133.318 35.295 133.386 35.3633C133.523 35.4316 133.591 35.5 133.795 35.5H136.591C136.727 35.5 136.795 35.5 136.864 35.4317C136.932 35.3633 137 35.295 137 35.2266C137 35.1583 137 35.1583 137 35.0899C137 35.0216 137 35.0216 136.932 34.9532L129.705 16.9784C129.636 16.8417 129.568 16.705 129.432 16.6367C129.295 16.5683 129.159 16.5 129.023 16.5H126.909C126.773 16.5 126.636 16.5683 126.568 16.6367C126.432 16.705 126.364 16.8417 126.295 16.9784L119.068 34.9532C119.068 35.0216 119 35.0216 119 35.0899C119 35.1583 119 35.1583 119 35.2266C119 35.295 119 35.4317 119.068 35.4317C119.136 35.5 119.273 35.5 119.409 35.5H122.273Z" fill="#4C4C4C"/>
<path d="M147.087 35.5C148.2 35.5 149.243 35.3602 150.148 35.0105C151.052 34.6609 151.957 34.2413 152.722 33.6818C152.791 33.6119 152.861 33.542 152.93 33.472C153 33.4021 153 33.3322 153 33.2622C153 33.1923 153 33.1923 152.93 33.1224C152.93 33.0525 152.861 32.9825 152.791 32.9825L151.47 30.7448C151.4 30.6049 151.261 30.535 151.122 30.535C151.052 30.535 150.983 30.535 150.913 30.6049C150.843 30.6748 150.774 30.6748 150.635 30.7448C150.148 31.0944 149.591 31.4441 148.965 31.6538C148.339 31.8636 147.643 32.0035 147.017 32.0035C146.183 32.0035 145.348 31.8636 144.583 31.514C143.817 31.1643 143.191 30.7448 142.635 30.1154C142.078 29.486 141.661 28.7867 141.313 28.0175C141.035 27.2483 140.826 26.4091 140.826 25.5C140.826 24.5909 140.965 23.8217 141.313 23.0524C141.591 22.2832 142.078 21.5839 142.635 21.0245C143.191 20.465 143.817 19.9755 144.583 19.6958C145.348 19.3462 146.113 19.2063 147.017 19.2063C147.365 19.2063 147.713 19.2063 147.991 19.2762C148.339 19.3462 148.617 19.4161 148.965 19.486C149.243 19.5559 149.522 19.6958 149.8 19.8357C150.078 19.9755 150.426 20.1853 150.774 20.3951C150.843 20.465 150.913 20.465 150.983 20.535C151.052 20.535 151.122 20.6049 151.191 20.6049C151.261 20.6049 151.33 20.6049 151.4 20.535C151.47 20.535 151.47 20.465 151.539 20.3951L152.93 18.0175C152.93 18.0175 153 17.9476 153 17.8776C153 17.8077 153 17.8077 153 17.7378C153 17.6678 153 17.5979 152.93 17.528C152.861 17.458 152.861 17.3881 152.791 17.3182C152.026 16.7587 151.122 16.2692 150.217 15.9895C149.313 15.7098 148.27 15.5 147.087 15.5C146.183 15.5 145.278 15.6399 144.443 15.8497C143.609 16.0594 142.774 16.4091 142.009 16.8287C141.243 17.2482 140.617 17.7377 139.991 18.3671C139.365 18.9965 138.878 19.6259 138.391 20.3951C137.974 21.1643 137.626 21.9336 137.348 22.8427C137.139 23.6818 137 24.5909 137 25.5C137 26.4091 137.139 27.3182 137.348 28.1573C137.557 28.9965 137.904 29.8357 138.391 30.6049C138.809 31.3741 139.365 32.0035 139.991 32.6329C140.617 33.2623 141.313 33.7518 142.009 34.1713C142.774 34.5909 143.539 34.9406 144.443 35.2203C145.278 35.4301 146.183 35.5 147.087 35.5Z" fill="#4C4C4C"/>
<path d="M56.0667 19.5C56.2 19.5 56.2667 19.5 56.3333 19.4319C56.4 19.4319 56.4667 19.3638 56.5333 19.2957C56.6 19.2276 56.6667 19.1595 56.7333 19.0233L65.4 6.22043V18.8871C65.4 19.0914 65.4 19.2276 65.5333 19.2957C65.6 19.3638 65.8 19.4319 65.9333 19.4319H68.4667C68.6667 19.4319 68.8 19.3638 68.8667 19.2957C68.9333 19.2276 69 19.0233 69 18.8871V1.04479C69 0.908594 68.9333 0.772389 68.8667 0.636188C68.8 0.499988 68.6667 0.5 68.4667 0.5H65.5333C65.4 0.5 65.2667 0.568088 65.1333 0.636188C65 0.704289 64.8667 0.772385 64.8 0.908586L56.6 12.9624V0.908586C56.5333 0.772385 56.4667 0.704289 56.4 0.636188C56.2667 0.568088 56.2 0.568084 56.0667 0.568084H53.5333C53.4667 0.568084 53.3333 0.568088 53.2667 0.636188C53.2 0.704289 53.0667 0.772402 53.0667 0.840502C53 0.908602 53 1.0448 53 1.1129V18.9552C53 19.1595 53.0667 19.2957 53.1333 19.3638C53.2667 19.4319 53.4 19.5 53.6 19.5H56.0667Z" fill="#4C4C4C"/>
<path d="M66.7491 32.1787C67.4502 30.7282 68.0111 29.2087 68.3616 27.6892C68.7823 26.1697 68.9926 24.5811 69.0627 22.9925C69.1328 21.8874 69.2029 20.8513 69.2029 19.8153H73.9004V32.1096H66.7491V32.1787ZM63.8044 39.2928C63.9446 39.2928 64.0849 39.2237 64.155 39.2237C64.2251 39.1547 64.2952 39.0856 64.2952 38.9475V35.7012H76.4244V38.9475C76.4244 39.0856 76.4945 39.1547 76.5646 39.2928C76.6347 39.3619 76.7749 39.4309 76.9151 39.4309H79.5092C79.6494 39.4309 79.7897 39.3619 79.8598 39.2928C79.9299 39.2237 80 39.0856 80 38.9475V32.7312C80 32.5931 79.9299 32.455 79.8598 32.3859C79.7897 32.3168 79.6494 32.2477 79.5092 32.2477H77.8266V16.9144C77.8266 16.7763 77.7565 16.7072 77.6863 16.6381C77.6162 16.5691 77.476 16.5 77.3358 16.5H66.3985C66.2583 16.5 66.1181 16.5691 66.048 16.6381C65.9779 16.7072 65.9077 16.8453 65.9077 16.9835C65.9077 17.536 65.9077 17.9504 65.9077 18.3649C65.9077 18.7793 65.9077 19.0555 65.9077 19.3318L65.8376 21.542C65.8376 22.3709 65.7675 23.1306 65.6974 23.8213C65.6273 24.512 65.5572 25.2027 65.417 25.8243C65.2768 26.4459 65.2066 26.9985 64.9963 27.5511C64.8561 28.1036 64.6458 28.6562 64.4354 29.1396C64.2251 29.6922 64.0148 30.1757 63.7343 30.7282C63.4539 31.2808 63.1734 31.7643 62.8229 32.3168H61.4908C61.3506 32.3168 61.2103 32.3859 61.1402 32.4549C61.0701 32.524 61 32.6622 61 32.8694V39.0856C61 39.3619 61.1402 39.5 61.4207 39.5H63.8044V39.2928Z" fill="#4C4C4C"/>
<path d="M90.3414 19.5C91.1606 19.5 91.9799 19.3648 92.6626 19.0267C93.3454 18.7562 93.9598 18.2829 94.506 17.8096C94.8474 17.4715 95.1205 17.0658 95.3253 16.6602C95.5301 16.2545 95.7349 15.8488 95.8715 15.3754C96.008 14.9021 96.0763 14.4964 96.0763 14.0231V3.88078H103.177V18.7562C103.177 18.9591 103.245 19.0267 103.313 19.1619C103.382 19.2295 103.518 19.2972 103.655 19.2972H106.522C106.659 19.2972 106.727 19.2295 106.863 19.1619C106.932 19.0943 107 18.9591 107 18.8238V0.973318C107 0.838086 106.932 0.702855 106.863 0.63524C106.727 0.567624 106.59 0.5 106.454 0.5H93.1406C92.8675 0.5 92.6627 0.567628 92.5944 0.702859C92.4578 0.838091 92.3896 1.04093 92.3896 1.3114V14.0907C92.3896 14.3612 92.3213 14.6317 92.253 14.8345C92.1847 15.0374 92.0482 15.2402 91.8434 15.4431C91.6386 15.6459 91.4337 15.7811 91.2289 15.8488C91.0241 15.9164 90.751 15.984 90.4779 15.984C90.3414 15.984 90.2048 16.0516 90.1365 16.1192C90.0683 16.1868 90 16.2544 90 16.3897V18.9591C90 19.1619 90.0683 19.2972 90.1365 19.3648C90.0683 19.4324 90.2048 19.5 90.3414 19.5Z" fill="#4C4C4C"/>
<path d="M105.111 35.5C105.249 35.5 105.387 35.4319 105.525 35.3638C105.664 35.2957 105.664 35.1595 105.664 34.9552V19.8369H113.336V34.8871C113.336 35.0233 113.406 35.1595 113.475 35.2957C113.613 35.3638 113.751 35.4319 113.889 35.4319H116.447C116.654 35.4319 116.793 35.3638 116.862 35.2957C116.931 35.2276 117 35.0914 117 34.8871V16.9767C117 16.8405 116.931 16.7043 116.862 16.6362C116.793 16.5681 116.654 16.5 116.516 16.5H102.484C102.346 16.5 102.207 16.5681 102.138 16.6362C102.069 16.7043 102 16.8405 102 17.0448V34.9552C102 35.0914 102.069 35.2276 102.138 35.3638C102.276 35.4319 102.346 35.5 102.553 35.5H105.111Z" fill="#4C4C4C"/>
<path d="M82.087 19.5C83.2 19.5 84.2435 19.3676 85.1478 19.0366C86.0522 18.7056 86.9565 18.3084 87.7217 17.7787C87.7913 17.7125 87.9304 17.6463 87.9304 17.5801C88 17.5139 88 17.4477 88 17.3815C88 17.3153 88 17.3153 87.9304 17.2491C87.9304 17.1829 87.8609 17.1167 87.7913 17.1167L86.4696 14.9983C86.4 14.8659 86.2609 14.7996 86.1217 14.7996C86.0522 14.7996 85.9826 14.7997 85.913 14.8659C85.8435 14.9321 85.7739 14.9321 85.6348 14.9983C85.1478 15.3293 84.5913 15.6603 83.9652 15.8589C83.3391 16.0575 82.6435 16.1899 82.0174 16.1899C81.1826 16.1899 80.3478 16.0575 79.5826 15.7265C78.8174 15.3955 78.1913 14.9983 77.6348 14.4024C77.0783 13.8066 76.6609 13.1446 76.313 12.4164C76.0348 11.6881 75.8261 10.8937 75.8261 10.0331C75.8261 9.17249 75.9652 8.44426 76.313 7.71604C76.5913 6.98782 77.0783 6.32578 77.6348 5.79616C78.1913 5.26655 78.8174 4.80314 79.5826 4.53833C80.3478 4.20732 81.113 4.07493 82.0174 4.07493C82.3652 4.07493 82.713 4.07491 82.9913 4.14111C83.3391 4.20732 83.6174 4.27353 83.9652 4.33973C84.2435 4.40593 84.5217 4.53834 84.8 4.67074C85.0783 4.80315 85.4261 5.00174 85.7739 5.20035C85.8435 5.26655 85.913 5.26656 85.9826 5.26656C86.0522 5.26656 86.1217 5.33276 86.1913 5.33276C86.2609 5.33276 86.3304 5.33276 86.4 5.26656C86.4696 5.26656 86.4696 5.20035 86.5391 5.13414L87.9304 2.88328C87.9304 2.88328 88 2.81709 88 2.75089C88 2.68468 88 2.68468 88 2.61847C88 2.55227 88 2.48608 87.9304 2.41988C87.8609 2.35367 87.8609 2.28746 87.7913 2.22126C87.0261 1.69164 86.1217 1.22823 85.2174 0.963423C84.313 0.698614 83.2696 0.5 82.087 0.5C81.1826 0.5 80.2783 0.632404 79.4435 0.83101C78.6087 1.02962 77.7739 1.36064 77.0087 1.75786C76.2435 2.15507 75.6174 2.61847 74.9913 3.21429C74.3652 3.81011 73.8783 4.40592 73.3913 5.13414C72.9739 5.86237 72.6261 6.59059 72.3478 7.45122C72.1391 8.24564 72 9.10628 72 9.96691C72 10.8275 72.1391 11.6882 72.3478 12.4826C72.5565 13.277 72.9043 14.0714 73.3913 14.7996C73.8087 15.5279 74.3652 16.1237 74.9913 16.7195C75.6174 17.3153 76.313 17.7787 77.0087 18.176C77.7739 18.5732 78.5391 18.9042 79.4435 19.169C80.3478 19.4338 81.1826 19.5 82.087 19.5Z" fill="#4C4C4C"/>
</svg>
