<svg width="217" height="44" viewBox="0 0 217 44" fill="none" xmlns="http://www.w3.org/2000/svg">
<path d="M101.09 4.55376C100.497 5.02849 100.082 5.74057 99.9036 6.57134C99.7849 7.3428 99.9036 8.29225 100.438 9.12302C100.497 9.18236 100.556 9.30104 100.616 9.36038C100.853 9.65709 101.15 9.95379 101.446 10.3098C104.77 13.3955 108.805 15.6505 112.246 17.3714C114.62 18.5582 115.985 19.8637 116.519 21.8812C117.29 18.2021 116.519 16.3626 115.807 15.2944C114.561 13.2769 112.543 12.3274 112.365 12.2087C109.517 10.6065 105.6 8.70764 103.227 6.69005C102.337 5.9186 101.624 5.14717 101.328 4.3164C101.268 4.37574 101.15 4.43508 101.09 4.55376Z" fill="#4C4C4C"/>
<path d="M99.5475 11.2C98.6573 12.0307 98.0639 13.277 98.0639 14.345C98.0639 15.1759 98.1826 16.0066 98.954 17.3121C101.802 22.178 110.882 25.9759 113.136 27.3406C114.798 28.3495 116.163 29.833 116.638 32.0879C117.053 29.5363 117.172 26.8066 116.46 25.145C115.569 23.0681 114.323 21.9407 112.484 20.9319C109.517 19.3297 105.304 16.8967 102.099 13.989C100.972 13.0989 100.022 12.2088 99.5475 11.2Z" fill="#4C4C4C"/>
<path d="M106.728 6.69027C104.71 7.93642 101.802 9.00455 99.6068 11.2002C98.6574 12.0309 98.0639 13.2769 98.0639 14.345C98.0639 15.1759 98.1826 16.0066 98.954 17.3121C98.954 16.3033 99.9628 14.7606 101.921 13.6331C103.998 12.387 107.558 10.6661 109.754 8.17378C111.119 6.63093 110.288 4.73201 108.627 4.25729C108.983 5.32542 107.44 6.21553 106.728 6.69027Z" fill="#4C4C4C"/>
<path d="M104.71 2.35833C103.701 2.83306 102.455 3.42646 101.327 4.25723C101.209 4.31657 101.149 4.43525 101.031 4.49459C100.437 4.96932 100.022 5.68141 99.8439 6.51218C99.7252 7.2836 99.8439 8.23306 100.378 9.06382C100.437 9.12317 100.497 9.24185 100.556 9.30119C100.615 8.05503 101.565 7.16492 103.108 6.39349C104.651 5.56273 106.075 4.55393 106.965 3.66382C108.033 2.53635 107.143 0.815473 106.134 0.637451C106.371 1.52756 105.422 2.06163 104.71 2.35833Z" fill="#4C4C4C"/>
<path d="M97.2926 20.2199C95.3937 22.8902 95.5124 25.0858 96.7585 27.044C98.8948 30.3078 104.235 32.8001 108.508 34.9364C110.585 36.0045 112.484 37.132 114.027 38.9122C115.035 40.099 115.926 41.5232 116.519 43.3627H116.578C117.053 40.7517 116.994 37.4287 116.341 35.5891C115.748 33.8089 114.442 31.9693 111.831 30.3078C108.449 28.1715 103.227 26.2133 100.141 23.3056C98.9541 22.0594 97.7673 21.1693 97.2926 20.2199C97.3519 20.2199 97.3519 20.2199 97.2926 20.2199Z" fill="#4C4C4C"/>
<path d="M109.754 11.4968C106.55 13.8705 100.26 16.8375 97.3519 20.1606C97.3519 20.1606 97.3519 20.2199 97.2926 20.2199C95.3937 22.8902 95.5124 25.0858 96.7585 27.044C96.7585 26.0353 98.242 24.6111 100.2 23.0683C103.642 20.2793 109.754 17.787 113.196 13.3364C114.442 11.7342 113.611 9.12322 111.772 8.41114C112.187 9.41993 111.06 10.4881 109.754 11.4968Z" fill="#4C4C4C"/>
<path d="M130.245 12.5056V16.3204H130.701V18.4396H128.989V17.5919H126.479V18.4396H124.767V16.3204H125.224C125.566 15.6845 125.68 14.9428 125.68 13.7772V12.5056H130.245ZM127.392 13.6712V14.201C127.392 15.0487 127.278 15.7905 126.936 16.3204H128.419V13.6712H127.392Z" fill="#4C4C4C"/>
<path d="M134.82 12.5056L136.635 17.8462H135.033L134.82 17.1645H133.111L132.897 17.8462H131.295L133.111 12.5056H134.82ZM134.499 16.0282L133.965 14.0964L133.431 16.0282H134.499Z" fill="#4C4C4C"/>
<path d="M142.569 12.5056V17.735H140.935V13.7295H139.735V15.1759C139.735 17.2899 139.081 17.8462 138.1 17.8462C137.774 17.8462 137.556 17.8462 137.229 17.735V16.5111C137.338 16.5111 137.447 16.5111 137.665 16.5111C137.992 16.5111 138.21 16.3998 138.21 15.1759V12.5056H142.569Z" fill="#4C4C4C"/>
<path d="M146.088 14.3237C147.613 14.3237 148.503 14.8918 148.503 16.1418C148.503 17.2781 147.613 17.8462 145.96 17.8462H143.163V12.5056H145.07V14.3237H146.088ZM145.198 16.4827H145.96C146.469 16.4827 146.85 16.369 146.85 16.0282C146.85 15.5736 146.342 15.5736 145.833 15.5736H145.325V16.4827H145.198Z" fill="#4C4C4C"/>
<path d="M150.877 14.4373H152.657V12.5056H154.438V17.8462H152.657V15.6873H150.877V17.8462H149.097V12.5056H150.877V14.4373Z" fill="#4C4C4C"/>
<path d="M160.372 12.5056V13.7555H157.222V14.5509H159.824V15.8009H157.222V16.5963H160.372V17.8462H155.031V12.5056H160.372Z" fill="#4C4C4C"/>
<path d="M160.965 12.5056H163.698C165.064 12.5056 166.057 12.7329 166.057 13.8692C166.057 14.4373 165.684 14.7782 165.312 15.0055C165.933 15.1191 166.306 15.6873 166.306 16.2554C166.306 17.5053 165.312 17.8462 163.822 17.8462H160.965V12.5056ZM162.828 14.6646H163.573C163.946 14.6646 164.194 14.5509 164.194 14.21C164.194 13.7555 163.822 13.7555 163.449 13.7555H162.828V14.6646ZM162.828 16.5963H163.698C164.194 16.5963 164.567 16.4827 164.567 16.1418C164.567 15.6873 164.07 15.6873 163.573 15.6873H162.952V16.5963H162.828Z" fill="#4C4C4C"/>
<path d="M172.24 15.1246C172.24 16.8665 171.065 17.8462 169.569 17.8462C167.967 17.8462 166.899 16.8665 166.899 15.1246C166.899 13.4917 167.967 12.5119 169.569 12.5119C171.385 12.4031 172.24 13.7094 172.24 15.1246ZM168.608 15.1246C168.608 15.7779 168.822 16.6488 169.569 16.6488C170.317 16.6488 170.531 15.9956 170.531 15.1246C170.531 14.4715 170.21 13.7094 169.569 13.7094C168.822 13.7094 168.608 14.4715 168.608 15.1246Z" fill="#4C4C4C"/>
<path d="M176.47 14.6418C176.47 14.1078 176.015 13.7873 175.56 13.7873C174.992 13.7873 174.537 14.3214 174.537 15.2827C174.537 16.0304 174.651 16.6713 175.56 16.6713C176.128 16.6713 176.356 16.3509 176.47 15.8168H178.174C178.06 17.0985 177.037 17.8462 175.674 17.8462C173.856 17.8462 172.833 16.7781 172.833 15.1759C172.833 13.5737 173.97 12.5056 175.447 12.5056C177.037 12.5056 177.947 13.2533 178.174 14.535H176.47V14.6418Z" fill="#4C4C4C"/>
<path d="M182.369 17.8462H180.506V13.7555H178.767V12.5056H184.108V13.7555H182.369V17.8462Z" fill="#4C4C4C"/>
<path d="M190.042 15.1246C190.042 16.8665 188.867 17.8462 187.372 17.8462C185.769 17.8462 184.701 16.8665 184.701 15.1246C184.701 13.4917 185.769 12.5119 187.372 12.5119C189.187 12.4031 190.042 13.7094 190.042 15.1246ZM186.41 15.1246C186.41 15.7779 186.624 16.6488 187.372 16.6488C188.119 16.6488 188.333 15.9956 188.333 15.1246C188.333 14.4715 188.013 13.7094 187.372 13.7094C186.624 13.7094 186.41 14.4715 186.41 15.1246Z" fill="#4C4C4C"/>
<path d="M192.499 14.0633C192.499 14.5083 192.747 14.6196 193.243 14.6196C193.616 14.6196 193.989 14.6196 194.113 14.5083V12.5056H195.976V17.8462H194.113V15.7322C193.741 15.8435 193.492 15.8435 192.499 15.8435C191.629 15.8435 190.635 15.3984 190.635 14.1745V12.5056H192.499V14.0633Z" fill="#4C4C4C"/>
<path d="M198.427 14.4373H200.053V12.5056H201.91V17.8462H200.053V15.6873H198.427V17.8462H196.569V12.5056H198.427V14.4373Z" fill="#4C4C4C"/>
<path d="M204.297 14.3706H205.195C206.629 14.3706 207.527 14.964 207.527 16.1508C207.527 17.3376 206.629 17.8462 205.195 17.8462H202.504V12.5056H204.387V14.3706H204.297ZM204.297 16.5746H205.015C205.463 16.5746 205.822 16.4899 205.822 16.066C205.822 15.5574 205.374 15.5574 204.836 15.5574H204.387V16.5746H204.297ZM210.218 17.8462H208.334V12.5056H210.218V17.8462Z" fill="#4C4C4C"/>
<path d="M216.152 12.6627V17.8462H214.372V16.2624L214.49 14.9953L212.473 17.8462H210.811V12.6627H212.591V14.4673L212.473 15.7344L214.49 12.6627H216.152ZM212.769 11.3188C212.769 11.7412 213.244 11.7412 213.6 11.7412C214.075 11.7412 214.312 11.6356 214.312 11.3188H214.906C214.906 12.0579 214.194 12.3747 213.482 12.3747C212.651 12.3747 212.176 12.0579 212.057 11.3188H212.769Z" fill="#4C4C4C"/>
<path d="M129.507 20.8133V21.3974H129.972C131.645 21.3974 132.482 22.3154 132.482 23.4002C132.482 24.5684 131.738 25.4029 130.065 25.4029H129.601V26.1539H127.648V25.4029H127.184C125.511 25.4029 124.767 24.5684 124.767 23.4002C124.767 22.3154 125.511 21.3974 127.277 21.3974H127.741V20.8133H129.507ZM127.556 22.6492H127.277C126.719 22.6492 126.44 22.8995 126.44 23.4002C126.44 23.8174 126.626 24.1512 127.184 24.1512H127.556V22.6492ZM129.507 24.0678H129.879C130.344 24.0678 130.622 23.734 130.622 23.3167C130.622 22.816 130.344 22.5657 129.786 22.5657H129.507V24.0678Z" fill="#4C4C4C"/>
<path d="M138.313 20.8133V22.0001H135.129V22.763H137.8V24.0346H135.129V24.8823H138.416V26.1539H133.075V20.8133H138.313Z" fill="#4C4C4C"/>
<path d="M144.427 20.8133V24.7693H144.943V26.7473H143.223V26.0056H140.729V26.7473H139.009V24.7693H139.439C139.783 24.0276 139.955 23.2858 139.955 22.1319V20.8133H144.427ZM141.589 21.9671V22.5441C141.589 23.3682 141.503 24.1924 141.159 24.7693H142.707V21.9671H141.589Z" fill="#4C4C4C"/>
<path d="M150.675 20.8133V22.0001H147.653V22.763H150.272V24.0346H147.653V24.8823H150.877V26.1539H145.536V20.8133H150.675Z" fill="#4C4C4C"/>
<path d="M153.438 26.1539H151.471V20.8133H154.282C155.968 20.8133 156.811 21.4915 156.811 22.5935C156.811 23.7803 156.062 24.4585 154.375 24.4585H153.438V26.1539ZM153.438 23.1869H154.282C154.75 23.1869 155.031 23.0174 155.031 22.5935C155.031 22.0849 154.375 22.0001 154 22.0001H153.438V23.1869Z" fill="#4C4C4C"/>
<path d="M160.291 20.8133L162.152 26.1539H160.452L160.291 25.4757H158.591L158.429 26.1539H156.811L158.672 20.8133H160.291ZM159.967 24.2889L159.401 22.3392L158.915 24.2889H159.967Z" fill="#4C4C4C"/>
<path d="M168.086 20.8133V26.0705H166.412V21.9815H165.216V23.4836C165.216 25.5698 164.579 26.1539 163.622 26.1539C163.303 26.1539 163.064 26.1539 162.745 26.0705V24.8188C162.825 24.8188 162.905 24.9022 163.144 24.9022C163.463 24.9022 163.622 24.7353 163.622 23.4836V20.8133H168.086Z" fill="#4C4C4C"/>
<path d="M170.587 22.6783H171.54C173.066 22.6783 174.02 23.2717 174.02 24.4585C174.02 25.6453 173.066 26.1539 171.54 26.1539H168.679V20.8133H170.682V22.6783H170.587ZM170.587 24.8823H171.35C171.827 24.8823 172.208 24.7976 172.208 24.3737C172.208 23.8651 171.731 23.8651 171.159 23.8651H170.682V24.8823H170.587Z" fill="#4C4C4C"/>
<path d="M176.394 22.6783H178.174V20.8133H179.954V26.1539H178.174V23.8651H176.394V26.1539H174.613V20.8133H176.394V22.6783Z" fill="#4C4C4C"/>
<path d="M182.341 22.6783H183.239C184.673 22.6783 185.571 23.2717 185.571 24.4585C185.571 25.6453 184.673 26.1539 183.239 26.1539H180.547V20.8133H182.431V22.6783H182.341ZM182.341 24.8823H183.059C183.507 24.8823 183.866 24.7976 183.866 24.3737C183.866 23.8651 183.418 23.8651 182.88 23.8651H182.431V24.8823H182.341ZM188.262 26.1539H186.378V20.8133H188.262V26.1539Z" fill="#4C4C4C"/>
<path d="M194.196 20.9704V26.1539H192.416V24.5701L192.534 23.303L190.517 26.1539H188.855V20.9704H190.635V22.775L190.517 24.0421L192.534 20.9704H194.196ZM190.813 19.6265C190.813 20.0488 191.288 20.0488 191.644 20.0488C192.119 20.0488 192.356 19.9433 192.356 19.6265H192.95C192.95 20.3656 192.238 20.6824 191.525 20.6824C190.695 20.6824 190.22 20.3656 190.101 19.6265H190.813Z" fill="#4C4C4C"/>
<path d="M126.802 29.121L127.734 31.1809L128.667 29.121H130.701L128.582 33.1646C128.073 34.0801 127.565 34.4616 126.886 34.4616C126.547 34.4616 126.209 34.3853 126.039 34.3091V33.1646C126.124 33.1646 126.209 33.2409 126.463 33.2409C126.632 33.2409 126.802 33.1646 126.886 32.9357L124.767 29.121H126.802Z" fill="#4C4C4C"/>
<path d="M133.075 31.0059H134.774V29.121H136.635V34.4616H134.774V32.2625H133.075V34.4616H131.295V29.121H133.075V31.0059Z" fill="#4C4C4C"/>
<path d="M142.569 29.121V34.4616H140.844V32.8123L140.926 31.3986L138.954 34.4616H137.229V29.121H138.954V30.8488L138.872 32.184L140.926 29.121H142.569Z" fill="#4C4C4C"/>
<path d="M146.005 29.121C147.298 29.121 148.331 29.4305 148.331 30.4368C148.331 30.9786 147.901 31.3656 147.556 31.5978C148.159 31.7526 148.503 32.217 148.503 32.8362C148.503 33.9972 147.47 34.4616 146.005 34.4616H143.163V29.121H146.005ZM145.144 31.2108H145.919C146.264 31.2108 146.608 31.056 146.608 30.7464C146.608 30.3594 146.264 30.3594 145.833 30.3594H145.144V31.2108ZM145.144 33.1458H146.005C146.436 33.1458 146.867 33.0684 146.867 32.6814C146.867 32.217 146.436 32.217 145.833 32.217H145.23V33.1458H145.144Z" fill="#4C4C4C"/>
<path d="M154.438 29.121V30.3776H151.195V31.163H153.866V32.4196H151.195V33.205H154.438V34.4616H149.097V29.121H154.438Z" fill="#4C4C4C"/>
<path d="M155.031 34.4616V29.121H157.873C159.597 29.121 160.372 29.8278 160.372 30.9274C160.372 32.1054 159.597 32.8123 157.959 32.8123H157.012V34.4616H155.031ZM156.926 31.5557H157.701C158.132 31.5557 158.476 31.3986 158.476 30.9274C158.476 30.4561 157.873 30.3776 157.443 30.3776H156.926V31.5557Z" fill="#4C4C4C"/>
<path d="M164.735 31.1979C164.657 30.6787 164.342 30.382 163.793 30.382C163.164 30.382 162.771 30.9012 162.771 31.8655C162.771 32.6072 162.929 33.2748 163.793 33.2748C164.342 33.2748 164.657 32.9039 164.657 32.3847H166.306C166.148 33.7199 165.128 34.4616 163.793 34.4616C162.065 34.4616 160.965 33.4232 160.965 31.7913C160.965 30.1594 162.143 29.121 163.635 29.121C165.284 29.121 166.148 29.8627 166.306 31.1979H164.735Z" fill="#4C4C4C"/>
<path d="M172.24 29.121V34.4616H170.46V32.8123L170.622 31.3986L168.599 34.4616H166.899V29.121H168.679V30.8488L168.517 32.184L170.54 29.121H172.24Z" fill="#4C4C4C"/>
<path d="M176.948 34.4616H174.748V30.3776H172.833V29.121H178.767V30.3776H176.948V34.4616Z" fill="#4C4C4C"/>
<path d="M184.701 29.121V30.3776H181.422V31.163H184.046V32.4196H181.422V33.205H184.701V34.4616H179.361V29.121H184.701Z" fill="#4C4C4C"/>
<path d="M188.913 34.4616H187.017V30.3776H185.295V29.121H190.635V30.3776H188.913V34.4616Z" fill="#4C4C4C"/>
<path d="M20.3208 12.5056V27.616H22.1079V34.4616H15.8104V32.2076H6.44932V34.4616H0.151855V27.616H1.76878C3.13039 24.9446 3.55589 22.0226 3.55589 17.598V12.5056H20.3208ZM9.85334 17.0971V19.2677C9.85334 22.5235 9.51296 25.6125 8.23643 27.616H13.768V17.0971H9.85334Z" fill="#4C4C4C"/>
<path d="M24.4815 12.5056H34.0643C38.5991 12.5056 42.1926 13.5055 42.1926 17.422C42.1926 19.4219 40.8237 20.9219 39.5402 21.6718C41.6793 22.2551 42.8771 24.005 42.8771 26.1716C42.8771 30.588 39.4547 32.088 34.2355 32.088H24.4815V12.5056ZM31.0697 20.3386H33.8077C35.0911 20.3386 36.0322 19.7552 36.0322 18.5887C36.0322 17.0887 34.7488 17.0054 33.3799 17.0054H31.0697V20.3386ZM31.0697 27.5882H33.9788C35.6045 27.5882 36.8023 27.2549 36.8023 25.755C36.8023 24.005 35.2622 23.9217 33.2088 23.9217H31.0697V27.5882Z" fill="#4C4C4C"/>
<path d="M60.204 12.5056V14.7555H61.6466C67.1765 14.7555 69.5804 18.0886 69.5804 22.0884C69.5804 26.3382 67.0964 29.4215 61.7267 29.4215H60.204V32.088H54.0335V29.4215H52.5109C47.0615 29.4215 44.6573 26.3382 44.6573 22.0884C44.6573 18.0886 47.1416 14.7555 52.5911 14.7555H54.0335V12.5056H60.204ZM53.2322 19.3386C51.3088 19.3386 50.5876 20.2552 50.5876 22.0884C50.5876 23.755 51.3088 24.8384 52.9116 24.8384H54.1137V19.3386H53.2322ZM60.204 24.8384H61.4062C63.009 24.8384 63.73 23.755 63.73 22.0884C63.73 20.2552 63.009 19.3386 61.0858 19.3386H60.2841V24.8384H60.204Z" fill="#4C4C4C"/>
<path d="M76.9007 12.5056L80.1354 20.0234L83.2846 12.5056H90.3497L82.9439 27.3796C81.2421 30.7747 79.5396 31.9065 77.071 32.0681C75.9643 32.149 74.5176 31.9873 72.7296 31.5023V27.1371C73.9218 27.3796 74.6024 27.4604 75.3685 27.3796C76.0497 27.2988 76.5601 27.0563 76.9007 26.3287L69.5804 12.5056H76.9007Z" fill="#4C4C4C"/>
</svg>
