<svg width="204" height="46" viewBox="0 0 204 46" fill="none" xmlns="http://www.w3.org/2000/svg">
<path d="M72.5201 8.86539C72.5201 5.20397 70.6641 1.2688 65.4742 1.2688H56.0569V26.6592H57.8097V16.4278H62.7934L70.0798 26.625H72.2107L64.9931 16.4278H65.268C69.8049 16.462 72.5201 13.6218 72.5201 8.86539ZM57.8097 14.751V3.04818H65.4742C70.3891 3.04818 70.7672 7.56508 70.7672 8.93383C70.7672 10.679 70.2517 14.751 65.3024 14.751H57.8097Z" fill="#4C4C4C"/>
<path d="M85.2368 26.6592V14.5799L94.8604 1.2688H92.7295L84.3432 12.9374L76.0257 1.2688H73.8604L83.4496 14.5457V26.6592H85.2368Z" fill="#4C4C4C"/>
<path d="M113.867 7.39402C113.867 3.59572 111.289 1.23462 107.165 1.23462H98.2288V26.6592H108.23C112.252 26.6592 115.276 23.6822 115.276 19.7128C115.311 16.8384 113.558 14.2036 110.946 13.1086C112.733 12.0136 113.867 9.82355 113.867 7.39402ZM111.771 15.6065C112.87 16.6673 113.489 18.0703 113.489 19.5759V19.747C113.523 21.1158 113.008 22.4161 112.045 23.3742C111.083 24.3666 109.811 24.9141 108.437 24.9483H99.9473V14.0667H107.68C109.262 13.9983 110.671 14.5458 111.771 15.6065ZM108.093 12.39H100.016V3.014H107.199C110.293 3.014 112.149 4.6565 112.149 7.42824C112.114 10.8501 110.086 12.39 108.093 12.39Z" fill="#4C4C4C"/>
<path d="M128.509 1.2688H126.893L117.132 26.6592H118.988L122.116 18.5835L127.684 4.04053L133.252 18.5835L136.379 26.6592H138.235L128.577 1.47411L128.509 1.2688Z" fill="#4C4C4C"/>
<path d="M141.844 1.2688V26.6592H143.631V15.9145L155.249 26.6592H157.826L144.834 14.6826L156.073 1.2688H153.771L143.631 13.4507V1.2688H141.844Z" fill="#4C4C4C"/>
<path d="M170.062 27.0354C177.142 27.0354 182.882 21.184 182.882 14.0323C182.882 6.8463 177.108 0.994873 170.062 0.994873C162.879 0.994873 157.242 6.70943 157.242 14.0323C157.242 21.3209 162.879 27.0354 170.062 27.0354ZM170.062 2.74004C176.18 2.74004 181.129 7.80442 181.129 14.0323C181.129 20.3627 176.249 25.2903 170.062 25.2903C163.978 25.2903 159.029 20.2259 159.029 14.0323C159.029 7.80443 163.978 2.74004 170.062 2.74004Z" fill="#4C4C4C"/>
<path d="M192.437 26.6592H194.086L203.847 1.2688H201.992L193.262 23.8875L187.694 9.34445L184.566 1.2688H182.71L192.368 26.4539L192.437 26.6592Z" fill="#4C4C4C"/>
<path d="M56.415 33.9744V38.3083V44.847H57.8733V40.1758H61.8153V38.8346H57.8733V38.3308V35.2997H62.8409V33.9744H62.5812H56.415Z" fill="#4C4C4C"/>
<path d="M74.908 33.8484C71.7673 33.8484 69.3315 36.3417 69.3315 39.4347C69.3315 42.5118 71.7673 45.0051 74.908 45.0051C78.0649 45.0051 80.5167 42.5118 80.5167 39.4347C80.5167 36.3417 78.0649 33.8484 74.908 33.8484ZM74.908 43.6797C72.5846 43.6797 70.7898 41.7544 70.7898 39.4347C70.7898 37.0991 72.5846 35.174 74.908 35.174C77.2637 35.174 79.0584 37.0991 79.0584 39.4347C79.0584 41.7544 77.2637 43.6797 74.908 43.6797Z" fill="#4C4C4C"/>
<path d="M94.7473 41.1229C94.7473 42.8271 93.5614 43.6318 92.1833 43.6318C90.8051 43.6318 89.6194 42.8271 89.6194 41.1229V33.9744H88.1611V41.1229C88.1611 43.5846 90.004 45.0047 92.1833 45.0047C94.3627 45.0047 96.2054 43.5846 96.2054 41.1229V33.9744H94.7473V41.1229Z" fill="#4C4C4C"/>
<path d="M140.707 33.9744L136.509 44.847H138.031L141.477 35.8679L144.922 44.847H146.444L142.246 33.9744H140.707Z" fill="#4C4C4C"/>
<path d="M151.3 35.2997H154.665V44.847H156.123V35.2997H159.489V33.9744H151.3V35.2997Z" fill="#4C4C4C"/>
<path d="M168.254 33.9744H166.796V44.847H168.254V33.9744Z" fill="#4C4C4C"/>
<path d="M181.571 33.8484C178.431 33.8484 175.995 36.3417 175.995 39.4347C175.995 42.5118 178.431 45.0051 181.571 45.0051C184.728 45.0051 187.18 42.5118 187.18 39.4347C187.18 36.3417 184.728 33.8484 181.571 33.8484ZM181.571 43.6797C179.248 43.6797 177.453 41.7544 177.453 39.4347C177.453 37.0991 179.248 35.174 181.571 35.174C183.927 35.174 185.722 37.0991 185.722 39.4347C185.722 41.7544 183.927 43.6797 181.571 43.6797Z" fill="#4C4C4C"/>
<path d="M108.625 33.8171C106.446 33.8171 104.603 35.2373 104.603 37.699V44.8475H106.061V37.699C106.061 35.9947 107.247 35.19 108.625 35.19C110.003 35.19 111.189 35.9947 111.189 37.699V44.8475H112.647V37.699C112.647 35.2373 110.804 33.8171 108.625 33.8171Z" fill="#4C4C4C"/>
<path d="M198.161 33.9119C195.982 33.9119 194.139 35.332 194.139 37.7937V44.9422H195.597V37.7937C195.597 36.0895 196.783 35.2847 198.161 35.2847C199.539 35.2847 200.725 36.0895 200.725 37.7937V44.9422H202.183V37.7937C202.183 35.332 200.341 33.9119 198.161 33.9119Z" fill="#4C4C4C"/>
<path d="M125.355 33.9744H122.535H121.077V35.2997V43.5214V44.847H122.535H125.355C128.496 44.847 130.339 42.5114 130.339 39.4343C130.339 36.3413 128.496 33.9744 125.355 33.9744ZM125.355 43.5214H123.187H122.535H122.535V35.2997H122.535H123.187H125.355C127.679 35.2997 128.881 37.1147 128.881 39.4343C128.881 41.754 127.679 43.5214 125.355 43.5214Z" fill="#4C4C4C"/>
<path fill-rule="evenodd" clip-rule="evenodd" d="M44.5081 23.025C44.5081 35.0457 34.6127 44.7904 22.406 44.7904C10.1994 44.7904 0.303955 35.0457 0.303955 23.025C0.303955 11.0042 10.1994 1.25952 22.406 1.25952C34.6127 1.25952 44.5081 11.0042 44.5081 23.025ZM16.6545 36.4997C14.8919 35.7871 13.2407 34.7091 11.8492 33.3388C11.3853 32.882 10.94 32.3887 10.5319 31.8589H20.7362V37.5228C19.3262 37.3767 17.9532 37.0295 16.6545 36.4997ZM27.7309 14.3371C28.4545 13.6246 29.6233 13.6246 30.3469 14.3371C31.0705 15.0497 31.0705 16.2008 30.3469 16.8951C29.6233 17.6076 28.4545 17.6076 27.7309 16.8951C27.0073 16.2008 27.0073 15.0497 27.7309 14.3371ZM11.8492 12.7293C14.3539 10.281 17.5079 8.89244 20.7548 8.5453V19.9463L7.84162 19.928C8.41677 17.297 9.75262 14.7757 11.8492 12.7293ZM36.8963 19.9646L23.9089 19.9463V8.52703C27.1743 8.8559 30.3655 10.2445 32.8702 12.711C34.1132 13.9352 35.0966 15.3238 35.8202 16.822C36.3026 17.8269 36.6551 18.8683 36.8963 19.9646ZM8.71362 28.7711C7.91583 26.944 7.50765 24.989 7.50765 23.0341L40.4771 23.0706L40.3101 21.3714C40.1246 19.3434 39.568 17.3518 38.6774 15.5065C37.7868 13.6611 36.5994 11.9619 35.1151 10.5185C31.6085 7.06536 26.9887 5.3479 22.3689 5.3479C17.7491 5.3479 13.1293 7.06536 9.62274 10.5185C6.09759 13.9717 4.33502 18.5029 4.33502 23.0341C4.33502 27.547 6.09759 32.0781 9.6413 35.5313C11.3111 37.1757 13.2963 38.4729 15.4671 39.3499C17.6193 40.2269 19.957 40.702 22.3318 40.702H23.9089L23.9274 28.7711H8.71362Z" fill="#4C4C4C"/>
</svg>
