<svg width="172" height="54" viewBox="0 0 172 54" fill="none" xmlns="http://www.w3.org/2000/svg">
<path d="M50.0701 30.627V25.7638H54.3425C54.3374 25.9057 54.3347 26.0481 54.3347 26.1907C54.3347 32.284 58.8454 37.7895 66.4336 37.6291C67.8664 37.6291 69.246 37.255 70.4665 36.6135C70.6257 36.5599 70.6802 36.4381 70.6257 36.2928C70.6081 36.2394 70.4931 36.1512 70.3073 36.2394C69.3522 36.6135 68.3439 36.7739 67.1765 36.7739C61.976 36.7739 59.6412 32.4443 59.6412 26.4045V25.9235C59.6412 25.8702 59.6412 25.817 59.6414 25.7638L75.9323 25.763C76.3036 25.763 76.4628 25.6026 76.4099 25.2285C75.8791 20.2576 73.1199 16.6764 68.5561 15.3403C68.2378 15.2334 68.0255 15.2334 67.9194 15.4472C67.8133 15.661 68.0786 15.8748 68.2908 16.0351C70.6122 17.5939 71.1784 20.5672 71.2082 25.1021H59.6458C59.695 20.92 60.1742 17.4341 62.666 15.9282C62.6984 15.9037 62.7306 15.8806 62.7621 15.858C62.9369 15.7328 63.0825 15.6283 63.0375 15.4472C62.9824 15.2254 62.7722 15.1798 62.4007 15.2868C57.7834 16.6722 54.8029 20.6222 54.3853 25.1021H50.0701V0H42.0573V0.267252C43.7023 1.06901 44.7637 2.51216 44.7637 6.7882V25.1021H40.8693C40.3055 20.197 37.5544 16.6651 33.0297 15.3403C32.7113 15.2334 32.499 15.2334 32.3929 15.4472C32.2866 15.661 32.5521 15.8748 32.7644 16.0351C35.0857 17.5939 35.6518 20.5672 35.6816 25.1021H28.6134V25.7638H44.7637V30.627C44.7637 34.9031 43.7023 36.3463 42.0573 37.148V37.4154H52.7764V37.148C51.1314 36.3463 50.0701 34.9031 50.0701 30.627Z" fill="#4C4C4C"/>
<path d="M15.0694 20.4176C14.9633 19.2953 14.0612 16.8899 11.4079 15.7676C11.3018 15.7141 11.1957 15.6072 11.1957 15.5003C11.1957 15.3934 11.3549 15.3934 11.5141 15.4469C14.2735 16.5158 14.751 16.6228 15.0163 15.0728H15.3348V20.4176H15.0694Z" fill="#4C4C4C"/>
<path d="M11.992 36.9341C12.0739 37.0712 12.1513 37.0944 12.4696 36.9875C15.6535 35.7581 16.7148 32.9254 16.7678 30.7872C16.8295 24.7992 11.9739 23.8898 7.88905 23.1249C4.93688 22.5722 2.38726 22.0946 2.38726 19.8299C2.38726 18.6541 2.81179 16.8901 4.56293 15.8747C4.58567 15.8593 4.6095 15.8441 4.63334 15.8288C4.77627 15.7373 4.87912 15.6517 4.82826 15.554C4.73645 15.4125 4.66907 15.3936 4.35066 15.5005C1.75049 16.5696 0.105478 18.761 0.0524134 21.2731C-0.162451 27.1784 4.52315 28.1299 8.55291 28.9481C11.4897 29.5443 14.0783 30.07 14.1677 32.3909C14.1677 33.246 14.1146 35.3306 12.2574 36.5065C12.045 36.6134 11.8932 36.7685 11.992 36.9341Z" fill="#4C4C4C"/>
<path d="M-0.000488281 30.8944V30.8408H0.424031C0.848551 33.0858 2.65276 35.5981 5.46519 36.7205C5.62439 36.7739 5.73403 36.9053 5.67747 36.9877C5.64473 37.0353 5.57392 37.0584 5.35907 36.9877C5.20748 36.9378 5.05861 36.8884 4.91253 36.8398L4.90598 36.8376L4.90319 36.8366L4.89217 36.833L4.89078 36.8325L4.88851 36.8318C2.5418 36.0511 0.922047 35.5124 0.424031 37.4688H0.0525766L-0.000488281 30.8944Z" fill="#4C4C4C"/>
<path d="M34.7819 36.2396C33.8267 36.6137 32.8184 36.7741 31.651 36.7741C26.4507 36.7741 24.1157 32.4445 24.1157 26.4047V25.9235C24.1157 21.3803 24.4873 17.5318 27.1406 15.9284C27.1728 15.9039 27.2053 15.8808 27.2366 15.8582C27.4114 15.7329 27.557 15.6285 27.512 15.4473C27.4551 15.2183 27.2467 15.18 26.8752 15.2869C21.8872 16.7836 18.8093 21.2735 18.8093 26.1909C18.8093 32.2842 23.3199 37.7896 30.9082 37.6292C32.3409 37.6292 33.7206 37.2551 34.9411 36.6137C35.1003 36.5602 35.1429 36.4218 35.1002 36.2929C35.0681 36.1959 34.9411 36.1772 34.7819 36.2396Z" fill="#4C4C4C"/>
<path d="M86.6336 15.4469C86.5793 15.228 86.3683 15.1796 85.9969 15.2865C81.0088 16.7832 77.8779 21.2731 77.8779 26.1905C77.8779 32.2838 82.3885 37.7892 89.4461 37.6288C90.9319 37.6288 92.3116 37.2547 93.5321 36.6133C93.6913 36.5598 93.7443 36.4529 93.6913 36.2925C93.6645 36.2118 93.5321 36.1856 93.3729 36.2392C92.3647 36.6133 91.4095 36.7737 90.242 36.7737C85.5193 36.7737 83.1845 32.4441 83.1845 26.4042V25.9231C83.1845 21.3799 83.609 17.5314 86.2622 15.928C86.2945 15.9035 86.3269 15.8804 86.3584 15.8578C86.533 15.7325 86.6786 15.6281 86.6336 15.4469Z" fill="#4C4C4C"/>
<path d="M92.5219 15.7144C92.4158 15.661 92.3284 15.5542 92.3627 15.4472C92.3971 15.3403 92.4689 15.2869 92.6281 15.3403C95.7059 16.3025 97.9876 18.5473 97.9876 21.006C97.9876 22.7164 97.0325 23.8924 95.5467 24.1062C93.9016 24.3201 92.3628 23.1976 92.2566 21.9682C92.0974 20.9527 92.5219 19.9905 93.4241 19.4561C95.1752 18.3336 94.3262 16.5697 92.5219 15.7144Z" fill="#4C4C4C"/>
<path d="M121.744 30.6271V15.0195H113.732V15.2869C115.377 16.0886 116.438 17.5318 116.438 21.8079V30.6271C116.438 34.9032 115.377 36.3462 113.732 37.148V37.4154H124.451V37.148C122.806 36.3462 121.744 34.9032 121.744 30.6271Z" fill="#4C4C4C"/>
<path d="M136.497 15.2869V15.0195H124.132V15.2869C126.255 16.0351 128.324 17.318 130.076 20.9526L137.452 37.4687H137.716L140.283 31.4891L146.15 19.099C147.662 16.6784 149.228 15.9406 150.93 15.3402V15.0731H144.032V15.3402C144.993 15.9457 145.986 16.6123 145.568 18.79L140.079 30.3849L136.073 21.3802C134.162 17.0506 135.223 16.0886 136.443 15.3402L136.497 15.2869Z" fill="#4C4C4C"/>
<path d="M165.885 36.2392C164.931 36.6134 163.922 36.7737 162.756 36.7737C157.554 36.7737 155.221 32.4441 155.221 26.4043V25.9232C155.221 21.38 155.591 17.5316 158.244 15.928C158.277 15.9037 158.31 15.8804 158.34 15.8578C158.515 15.7325 158.661 15.6283 158.617 15.447C158.556 15.2053 158.351 15.1797 157.979 15.2867C152.991 16.7832 149.913 21.2731 149.913 26.1905C149.913 32.2838 154.424 37.7893 162.011 37.6288C163.445 37.6288 164.824 37.2547 166.044 36.6134C166.193 36.5353 166.242 36.4084 166.204 36.2927C166.176 36.2068 166.068 36.1681 165.885 36.2392Z" fill="#4C4C4C"/>
<path d="M164.137 15.3406C168.7 16.6769 171.46 20.2581 171.99 25.229C172.044 25.6031 171.885 25.7634 171.514 25.7634L159.72 25.7643V25.1026H166.79C166.76 20.5675 166.194 17.5943 163.872 16.0354C163.66 15.8751 163.394 15.6613 163.501 15.4476C163.607 15.2339 163.819 15.2339 164.137 15.3406Z" fill="#4C4C4C"/>
<path d="M123.555 8.61205C121.123 8.55057 119.163 6.57609 119.102 4.12646H119.099C119.038 6.57609 117.077 8.55057 114.646 8.61205V8.615C117.077 8.67649 119.038 10.651 119.099 13.1006H119.102C119.163 10.651 121.123 8.67649 123.555 8.615V8.61205Z" fill="#4C4C4C"/>
<path d="M106.393 4.60738C106.332 8.56968 105.298 9.95841 103.718 10.7388C103.029 11.0571 102.34 11.2247 101.743 11.2247V30.0926C101.743 36.1859 105.51 37.4155 109.066 37.4155C109.596 37.4155 110.074 37.4155 110.499 37.3084C110.658 37.2551 110.711 37.2015 110.711 37.0946C110.711 36.9688 110.58 36.9746 110.395 36.983C110.345 36.9853 110.29 36.9878 110.233 36.9878C108.217 36.9878 107.049 35.0101 107.049 30.0926L107.05 15.6818H111.782V15.02L107.05 15.0196V0.000976562H106.393V4.60738Z" fill="#4C4C4C"/>
<path d="M56.0303 50.961C54.934 50.961 54.0726 50.4675 54.0726 49.4675C54.0726 48.5716 54.8817 47.9742 56.1999 47.9742C56.983 47.9742 57.74 48.221 58.4838 48.7014V49.7273C57.9748 50.4026 57.0744 50.961 56.0303 50.961ZM55.8606 51.5064C56.9698 51.5064 57.8573 51.1167 58.536 50.3246C58.5881 51.0389 59.0449 51.4024 59.6061 51.4024C59.8279 51.4024 59.9977 51.3635 60.1151 51.2985V50.8181C60.0106 50.87 59.8933 50.896 59.7496 50.896C59.3321 50.896 59.0711 50.5453 59.0711 50.0129V47.2599C59.0711 45.7537 57.9878 45.0005 56.3696 45.0005C55.5213 45.0005 54.7774 45.2083 54.1511 45.6108V46.2081C54.8166 45.7666 55.5213 45.5459 56.2652 45.5459C57.6746 45.5459 58.4838 46.1172 58.4838 47.312V48.13C57.74 47.6756 56.9177 47.4549 56.0432 47.4549C55.2995 47.4549 54.6861 47.6365 54.1901 48.0131C53.7073 48.3767 53.4594 48.8702 53.4594 49.4805C53.4594 50.1169 53.6942 50.6103 54.164 50.974C54.647 51.3244 55.2081 51.5064 55.8606 51.5064Z" fill="#4C4C4C"/>
<path d="M66.0552 51.5064C66.8512 51.5064 67.517 51.3244 68.065 50.961V50.3765C67.5039 50.7662 66.8645 50.961 66.1335 50.961C65.3506 50.961 64.6981 50.7012 64.163 50.1949C63.6409 49.6754 63.3799 49.0261 63.3799 48.2599C63.3799 47.4938 63.6409 46.8445 64.163 46.325C64.6981 45.8055 65.3506 45.5459 66.1335 45.5459C66.7599 45.5459 67.3604 45.7147 67.9475 46.0524V45.4809C67.3865 45.1563 66.7599 45.0005 66.0683 45.0005C65.1156 45.0005 64.3196 45.3122 63.7061 45.9484C63.0927 46.5848 62.7795 47.3509 62.7795 48.247C62.7795 49.1559 63.0927 49.922 63.7061 50.5583C64.3196 51.1947 65.1026 51.5064 66.0552 51.5064Z" fill="#4C4C4C"/>
<path d="M73.6764 50.961C72.5801 50.961 71.7188 50.4675 71.7188 49.4675C71.7188 48.5716 72.528 47.9742 73.8459 47.9742C74.629 47.9742 75.3859 48.221 76.1298 48.7014V49.7273C75.621 50.4026 74.7204 50.961 73.6764 50.961ZM73.5067 51.5064C74.6159 51.5064 75.5034 51.1167 76.182 50.3246C76.2341 51.0389 76.6911 51.4024 77.2522 51.4024C77.474 51.4024 77.6437 51.3635 77.7612 51.2985V50.8181C77.6568 50.87 77.5392 50.896 77.3957 50.896C76.9781 50.896 76.7171 50.5453 76.7171 50.0129V47.2599C76.7171 45.7537 75.6339 45.0005 74.0156 45.0005C73.1673 45.0005 72.4234 45.2083 71.7971 45.6108V46.2081C72.4626 45.7666 73.1673 45.5459 73.9113 45.5459C75.3207 45.5459 76.1298 46.1172 76.1298 47.312V48.13C75.3859 47.6756 74.5638 47.4549 73.6893 47.4549C72.9455 47.4549 72.3321 47.6365 71.8361 48.0131C71.3533 48.3767 71.1053 48.8702 71.1053 49.4805C71.1053 50.1169 71.3404 50.6103 71.81 50.974C72.293 51.3244 72.8541 51.5064 73.5067 51.5064Z" fill="#4C4C4C"/>
<path d="M83.5969 51.5066C84.7063 51.5066 85.5546 51.0911 86.168 50.2601V51.3509H86.7551V42.2607H86.168V46.2605C85.5546 45.4164 84.6932 45.0008 83.5969 45.0008C82.6573 45.0008 81.8874 45.3255 81.3001 45.9618C80.7127 46.598 80.4257 47.3642 80.4257 48.2601C80.4257 49.1563 80.7127 49.9224 81.3001 50.5587C81.8874 51.195 82.6573 51.5066 83.5969 51.5066ZM83.7014 50.9613C82.9314 50.9613 82.2919 50.7016 81.7829 50.1951C81.274 49.6756 81.0259 49.0264 81.0259 48.2601C81.0259 47.494 81.274 46.8448 81.7829 46.3253C82.2919 45.8059 82.9314 45.5462 83.7014 45.5462C84.7584 45.5462 85.7502 46.1955 86.168 47.0914V49.4289C85.7634 50.325 84.7845 50.9613 83.7014 50.9613Z" fill="#4C4C4C"/>
<path d="M93.6094 51.5064C94.5098 51.5064 95.2015 51.3244 95.6975 50.9478V50.3765C95.1102 50.7662 94.4315 50.961 93.6877 50.961C92.8525 50.961 92.1607 50.7141 91.6257 50.2336C91.0906 49.7532 90.8167 49.117 90.8035 48.3378H96.1803V48.143C96.1803 47.4677 95.9845 46.7925 95.567 46.1303C95.1625 45.4549 94.3532 45.0005 93.3093 45.0005C92.3956 45.0005 91.6517 45.3122 91.0775 45.9354C90.5033 46.5457 90.2163 47.325 90.2163 48.2599C90.2163 49.2078 90.5424 49.987 91.182 50.5974C91.8214 51.2077 92.6306 51.5064 93.6094 51.5064ZM90.8167 47.8313C90.8557 47.234 91.1037 46.7016 91.5344 46.2471C91.9781 45.7796 92.5653 45.5459 93.2962 45.5459C94.9665 45.5459 95.5932 46.9354 95.5932 47.8313H90.8167Z" fill="#4C4C4C"/>
<path d="M100.223 51.3506V46.9484C100.445 46.5457 100.758 46.2212 101.163 45.9484C101.58 45.6758 102.011 45.5459 102.442 45.5459C103.603 45.5459 104.191 46.2212 104.191 47.5846V51.3506H104.778V47.6625C104.778 47.5457 104.765 47.325 104.752 47.0133C104.947 46.6108 105.261 46.2601 105.665 45.9744C106.083 45.6888 106.514 45.5459 106.97 45.5459C107.375 45.5459 107.675 45.6237 108.08 45.8835C108.484 46.1303 108.732 46.7275 108.732 47.5976V51.3506H109.319V47.4808C109.319 45.8835 108.523 45.0005 107.114 45.0005C106.005 45.0005 105.091 45.5588 104.608 46.325C104.321 45.442 103.642 45.0005 102.585 45.0005C101.541 45.0005 100.68 45.507 100.223 46.1821V45.1563H99.636V51.3506H100.223Z" fill="#4C4C4C"/>
<path d="M113.254 54C114.194 54 114.82 53.3377 115.394 52.0521L118.54 45.1567H117.9L115.46 50.5458L112.941 45.1567H112.275L115.16 51.26C114.807 52.0521 114.494 52.6234 114.22 52.9482C113.959 53.2858 113.619 53.4546 113.189 53.4546C112.902 53.4546 112.628 53.3897 112.367 53.2468V53.8052C112.576 53.9351 112.876 54 113.254 54Z" fill="#4C4C4C"/>
</svg>
