<svg width="136" height="46" viewBox="0 0 136 46" fill="none" xmlns="http://www.w3.org/2000/svg">
<path d="M0 18.283L7.859 0H19.344L39.112 46H26.412L22.367 35.165H13.75C10.2 35.165 7.322 32.335 7.322 28.845C7.322 25.354 10.2 22.524 13.75 22.524H17.645L13.6 11.689C10.9847 11.7035 8.40579 12.3032 6.05246 13.4442C3.69914 14.5852 1.63108 16.2386 0 18.283Z" fill="#4C4C4C"/>
<path d="M42.0089 18.4279L47.1889 4.21094H49.3389L54.5189 18.4279H52.4309L50.9769 14.3399H45.5299L44.0769 18.4279H42.0089ZM46.0629 12.6889H50.4449L48.8479 8.19994L48.2739 6.16494H48.2339C48.0279 7.02494 47.8439 7.70294 47.6799 8.19894L46.0629 12.6889ZM56.3549 18.4279V8.23794H58.3409V12.3469H59.7949L62.6199 8.23894H64.8729L61.4129 13.0919V13.1319L65.2829 18.4279H62.9279L59.8359 14.0179H58.3399V18.4279H56.3549ZM66.0929 15.6499C66.0929 14.8979 66.3039 14.2669 66.7279 13.7559C67.1509 13.2459 67.7099 12.8839 68.4069 12.6689C69.047 12.457 69.7046 12.3021 70.3719 12.2059C70.9719 12.1259 71.6079 12.0849 72.2769 12.0849H72.8089V11.8829C72.8089 10.3929 72.0509 9.64794 70.5359 9.64794C69.5399 9.64794 68.5699 9.97794 67.6289 10.6349L66.8289 9.20494C67.2529 8.85594 67.8259 8.56694 68.5489 8.33894C69.2438 8.11535 69.969 8 70.6989 7.99694C72.0099 7.99694 73.0209 8.33894 73.7299 9.02394C74.4399 9.70894 74.7949 10.6949 74.7949 11.9839V18.4279H72.9319V17.4009L72.9929 16.5959H72.9529C72.6308 17.2087 72.1497 17.7234 71.5599 18.0859C70.9599 18.4759 70.2899 18.6699 69.5529 18.6699C68.6109 18.6699 67.7989 18.3949 67.1169 17.8439C66.4339 17.2939 66.0929 16.5629 66.0929 15.6499ZM68.0789 15.4879C68.0789 15.9309 68.2489 16.3139 68.5909 16.6359C68.9319 16.9579 69.4099 17.1189 70.0239 17.1189C70.8439 17.1189 71.5119 16.7839 72.0309 16.1129C72.5499 15.4409 72.8089 14.6959 72.8089 13.8769V13.4949H72.2969C69.4849 13.4949 68.0789 14.1589 68.0789 15.4879ZM79.7579 16.8169H84.3449V9.82994H81.2319V10.3739C81.2319 13.1669 80.7409 15.3139 79.7579 16.8179V16.8169ZM76.4409 16.8169H77.7109C78.7889 15.3669 79.3279 13.1319 79.3279 10.1109V8.23994H86.3309V16.8179H87.8049V20.8459H85.9829V18.4289H78.3039V20.8459H76.4409V16.8169ZM89.0929 13.3339C89.0929 11.7359 89.5839 10.4469 90.5669 9.46694C91.5499 8.48694 92.7919 7.99694 94.2939 7.99694C95.6999 7.99694 96.7989 8.45294 97.5909 9.36694C98.3819 10.2659 98.7779 11.3999 98.7779 12.7699C98.7779 12.9439 98.7509 13.2199 98.6959 13.5949H91.1609C91.2159 14.6549 91.5769 15.4879 92.2459 16.0919C92.9289 16.6829 93.7549 16.9789 94.7239 16.9789C95.8569 16.9789 96.8739 16.5819 97.7749 15.7899L98.6139 17.2199C98.1229 17.6629 97.5089 18.0189 96.7709 18.2869C96.0748 18.5375 95.3408 18.667 94.6009 18.6699C92.9899 18.6699 91.6659 18.1669 90.6289 17.1599C89.6049 16.1399 89.0929 14.8639 89.0929 13.3339ZM91.2219 12.1859H96.7709C96.7439 11.3399 96.4919 10.6819 96.0139 10.2119C95.5499 9.74194 94.9629 9.50694 94.2529 9.50694C93.4749 9.50694 92.8059 9.74894 92.2459 10.2319C91.6999 10.7019 91.3589 11.3529 91.2219 12.1859ZM100.737 18.4279L101.638 8.23794H103.849L106.49 13.9979L107.064 15.3679H107.105C107.309 14.8709 107.501 14.4139 107.678 13.9979L110.381 8.23794H112.551L113.452 18.4279H111.528L111.077 12.3669L111.098 10.6149H111.057C110.879 11.0849 110.661 11.5809 110.401 12.1049L107.944 17.1999H106.245L103.788 12.1249L103.132 10.6149H103.091L103.112 12.3669L102.661 18.4279H100.737ZM116.124 18.4279V8.23794H118.028V14.3199C118.028 15.0319 118.008 15.4879 117.967 15.6899H118.008C118.076 15.5279 118.383 15.0719 118.929 14.3199L123.393 8.23894H125.318V18.4289H123.393V12.3469C123.393 12.1589 123.4 11.8969 123.413 11.5609C123.441 11.2119 123.454 11.0239 123.454 10.9979H123.413C123.4 11.0239 123.099 11.4739 122.512 12.3469L118.028 18.4279H116.124ZM127.317 18.4279L129.713 15.0449L130.184 14.4209V14.4009C129.556 14.2263 128.998 13.8603 128.587 13.3539C128.15 12.8169 127.932 12.1789 127.932 11.4409C127.932 10.4209 128.266 9.63494 128.935 9.08394C129.618 8.51994 130.518 8.23894 131.638 8.23894H135.774V18.4289H133.788V14.7429H132.047L129.508 18.4279H127.317ZM132.068 13.3129H133.788V9.58794H132.129C130.669 9.58794 129.938 10.1979 129.938 11.4199C129.938 12.0379 130.136 12.5079 130.532 12.8299C130.928 13.1519 131.44 13.3129 132.068 13.3129ZM44.5249 32.8399C44.5249 30.7579 45.2149 29.0259 46.5929 27.6429C47.9849 26.2609 49.7459 25.5689 51.8759 25.5689C54.0739 25.5689 55.8349 26.1939 57.1589 27.4419L56.1349 28.9319C55.6029 28.4619 54.9549 28.0869 54.1899 27.8049C53.4776 27.5302 52.7214 27.3869 51.9579 27.3819C50.3199 27.3819 49.0159 27.8989 48.0469 28.9319C47.0909 29.9659 46.6129 31.2619 46.6129 32.8189C46.6129 34.3889 47.1049 35.7189 48.0879 36.8059C49.0709 37.8939 50.3739 38.4379 51.9979 38.4379C52.8039 38.4379 53.5959 38.2759 54.3739 37.9539C55.1439 37.6325 55.8457 37.1676 56.4419 36.5839L57.5269 38.0139C55.9979 39.5179 54.1349 40.2699 51.9369 40.2699C49.7389 40.2699 47.9509 39.5649 46.5719 38.1559C45.2069 36.7329 44.5249 34.9609 44.5249 32.8399ZM58.8539 37.2499C58.8539 36.4979 59.0659 35.8669 59.4889 35.3559C59.9119 34.8459 60.4719 34.4839 61.1679 34.2689C61.8779 34.0409 62.5329 33.8859 63.1339 33.8059C63.7339 33.7259 64.3689 33.6849 65.0379 33.6849H65.5699V33.4829C65.5699 31.9929 64.8129 31.2479 63.2969 31.2479C62.3009 31.2479 61.3319 31.5779 60.3899 32.2349L59.5909 30.8049C60.0139 30.4559 60.5879 30.1679 61.3109 29.9389C62.0058 29.7154 62.731 29.6 63.4609 29.5969C64.7709 29.5969 65.7809 29.9389 66.4909 30.6239C67.2009 31.3089 67.5569 32.2949 67.5569 33.5839V40.0279H65.6929V39.0009L65.7549 38.1959H65.7139C65.3918 38.8087 64.9106 39.3234 64.3209 39.6859C63.7209 40.0759 63.0509 40.2699 62.3149 40.2699C61.3729 40.2699 60.5599 39.9949 59.8779 39.4439C59.1949 38.8939 58.8539 38.1629 58.8539 37.2499ZM60.8399 37.0879C60.8399 37.5309 61.0099 37.9139 61.3519 38.2359C61.6929 38.5579 62.1719 38.7189 62.7849 38.7189C63.6049 38.7189 64.2729 38.3839 64.7919 37.7119C65.3109 37.0419 65.5699 36.2959 65.5699 35.4769V35.0949H65.0579C62.2459 35.0949 60.8399 35.7589 60.8399 37.0879ZM70.5119 37.2299V25.8099H72.4779V36.9069C72.4779 37.4569 72.5729 37.8399 72.7639 38.0549C72.9689 38.2559 73.2489 38.3569 73.6039 38.3569C73.7539 38.3569 73.8699 38.3499 73.9519 38.3369V40.0689C73.6649 40.1089 73.4469 40.1289 73.2969 40.1289C71.4399 40.1289 70.5119 39.1639 70.5119 37.2299ZM75.9709 37.2299V25.8099H77.9369V36.9069C77.9369 37.4569 78.0319 37.8399 78.2239 38.0549C78.4279 38.2559 78.7079 38.3569 79.0629 38.3569C79.2129 38.3569 79.3289 38.3499 79.4109 38.3369V40.0689C79.1239 40.1089 78.9059 40.1289 78.7559 40.1289C76.8989 40.1289 75.9709 39.1639 75.9709 37.2299ZM81.8599 36.3029V31.5299H80.5099V29.9399H81.9019V27.0399H83.8469V29.9399H86.3449V31.5299H83.8469V36.0809C83.8469 36.4709 83.9019 36.8129 84.0109 37.1079C84.1209 37.3899 84.2499 37.6119 84.4009 37.7729C84.5639 37.9339 84.7479 38.0619 84.9529 38.1559C85.1719 38.2489 85.3629 38.3099 85.5259 38.3359C85.7039 38.3639 85.8809 38.3769 86.0589 38.3769C86.2359 38.3769 86.3929 38.3639 86.5289 38.3369V40.0689C86.2985 40.1011 86.0665 40.1212 85.8339 40.1289C85.5199 40.1289 85.2059 40.1019 84.8919 40.0489C84.5409 39.9947 84.1973 39.9001 83.8679 39.7669C83.5011 39.6155 83.1618 39.4043 82.8639 39.1419C82.5909 38.8739 82.3529 38.4979 82.1479 38.0149C81.9569 37.5179 81.8609 36.9469 81.8609 36.3029H81.8599ZM87.7729 34.9129C87.7729 33.3959 88.3119 32.1339 89.3909 31.1269C90.4689 30.1069 91.7859 29.5969 93.3429 29.5969C94.9129 29.5969 96.2369 30.0999 97.3149 31.1069C98.3929 32.1139 98.9329 33.3829 98.9329 34.9129C98.9329 36.4429 98.3929 37.7189 97.3149 38.7399C96.2369 39.7599 94.9189 40.2699 93.3629 40.2699C91.8069 40.2699 90.4829 39.7599 89.3909 38.7399C88.3119 37.7199 87.7729 36.4439 87.7729 34.9129ZM89.7999 34.9129C89.7999 35.9729 90.1419 36.8529 90.8239 37.5509C91.5199 38.2359 92.3669 38.5779 93.3629 38.5779C94.3459 38.5779 95.1859 38.2289 95.8819 37.5309C96.5779 36.8329 96.9259 35.9609 96.9259 34.9129C96.9259 33.8659 96.5779 32.9999 95.8819 32.3159C95.5532 31.9834 95.1606 31.7208 94.7277 31.5441C94.2947 31.3674 93.8305 31.2803 93.3629 31.2879C92.3669 31.2879 91.5199 31.6309 90.8239 32.3149C90.1419 32.9999 89.7999 33.8659 89.7999 34.9129ZM101.204 36.3629V29.8399H103.19V35.9209C103.19 36.7269 103.326 37.3509 103.599 37.7939C103.872 38.2369 104.384 38.4589 105.135 38.4589C106.159 38.4589 106.978 38.0829 107.592 37.3309C108.207 36.5789 108.514 35.6729 108.514 34.6119V29.8399H110.479V40.0299H108.555V38.6199L108.637 37.8749H108.596C108.323 38.4789 107.845 39.0289 107.162 39.5249C106.48 40.0229 105.674 40.2709 104.746 40.2709C102.384 40.2709 101.204 38.9679 101.204 36.3629ZM112.869 34.9339C112.869 33.4159 113.387 32.1479 114.425 31.1269C115.476 30.1069 116.807 29.5969 118.418 29.5969C120.056 29.5969 121.353 30.0939 122.308 31.0869L121.366 32.4569C120.575 31.6769 119.619 31.2879 118.5 31.2879C117.462 31.2879 116.602 31.6379 115.92 32.3359C115.237 33.0199 114.896 33.8799 114.896 34.9129C114.896 35.9609 115.237 36.8329 115.92 37.5309C116.616 38.2289 117.496 38.5779 118.561 38.5779C119.134 38.5779 119.708 38.4579 120.281 38.2159C120.835 37.9832 121.337 37.6407 121.755 37.2089L122.554 38.6389C122.076 39.1359 121.469 39.5319 120.731 39.8269C119.996 40.122 119.21 40.2724 118.418 40.2699C116.793 40.2699 115.462 39.7669 114.425 38.7599C113.387 37.7529 112.869 36.4769 112.869 34.9339ZM124.702 40.0279V25.8109H126.688V31.0869L126.607 31.9329H126.648C126.934 31.3429 127.419 30.8049 128.101 30.3219C128.784 29.8389 129.596 29.5969 130.538 29.5969C132.9 29.5969 134.08 30.8989 134.08 33.5039V40.0279H132.094V33.9469C132.094 33.1269 131.958 32.4969 131.685 32.0539C131.425 31.6109 130.913 31.3889 130.149 31.3889C129.152 31.3889 128.327 31.7519 127.671 32.4769C127.016 33.1879 126.688 34.0939 126.688 35.1949V40.0279H124.702Z" fill="#4C4C4C"/>
</svg>
