<svg width="170" height="62" viewBox="0 0 170 62" fill="none" xmlns="http://www.w3.org/2000/svg">
<path fill-rule="evenodd" clip-rule="evenodd" d="M43.9208 12.4538C47.7663 14.8066 50.7903 19.3326 52.2048 24.9293C52.2547 25.1268 52.4455 25.2534 52.642 25.2158C58.1749 24.1624 63.0702 22.52 66.8172 20.406C67.0557 20.2715 67.0802 19.9256 66.8625 19.7577C65.7505 18.8991 64.5138 18.0844 63.1577 17.3216C61.2198 16.232 59.0992 15.2841 56.8371 14.4847V11.4246C56.8371 11.4179 56.8365 11.4113 56.8357 11.4048L56.8344 11.3949L56.8332 11.3853C56.8327 11.3809 56.8322 11.3765 56.832 11.372V10.0534C56.832 8.2853 58.2388 6.84654 59.9686 6.84654H62.423C62.4301 6.84654 62.4369 6.84555 62.4437 6.84457C62.449 6.84379 62.4543 6.84302 62.4597 6.84275C62.4654 6.84302 62.471 6.84382 62.4765 6.84461L62.486 6.84587C62.4896 6.84627 62.4933 6.84654 62.497 6.84654C62.9795 6.84654 63.3705 6.44692 63.3705 5.95347V1.13023C63.3705 0.636926 62.9795 0.237305 62.497 0.237305H45.5486C45.0659 0.237305 44.6745 0.636926 44.6745 1.13023V5.95347C44.6745 6.44692 45.0659 6.84654 45.5486 6.84654C45.5649 6.84654 45.5804 6.8444 45.596 6.84223C45.6043 6.84109 45.6126 6.83994 45.621 6.8391C45.6292 6.83992 45.6372 6.84103 45.6453 6.84215C45.6612 6.84434 45.6771 6.84654 45.6937 6.84654H48.1486C49.8777 6.84654 51.2847 8.2853 51.2847 10.0534V11.4176C51.2847 11.4199 51.2842 11.4221 51.2842 11.4246V12.8898C48.9925 12.3681 46.6061 11.9791 44.1518 11.7352C43.7495 11.6953 43.5739 12.2419 43.9208 12.4538ZM55.0847 10.0534V11.7147C55.0847 11.7246 55.086 11.7342 55.0872 11.7438V11.7438L55.0883 11.7519C55.0889 11.7568 55.0894 11.7617 55.0896 11.7667V13.9085L54.9778 13.8738L54.9776 13.8737C54.8224 13.8254 54.6673 13.7772 54.5106 13.7304V9.46352C54.6796 7.79625 55.794 6.41534 57.2933 5.8812C55.965 6.77473 55.0847 8.3099 55.0847 10.0534ZM61.623 2.0233V4.92648H58.6611C56.618 4.92648 54.8675 6.22008 54.1445 8.04708C53.4216 6.22008 51.6714 4.92648 49.6284 4.92648H46.4221V2.0233H61.623ZM53.0312 11.7217L53.0314 11.7197C53.0317 11.718 53.0321 11.7163 53.0321 11.7147V10.0534C53.0321 8.23899 52.0769 6.65189 50.6569 5.7778C52.4206 6.23724 53.7363 7.84393 53.7953 9.77386C53.7947 9.79326 53.7933 9.81249 53.792 9.8317L53.792 9.83182C53.7902 9.85707 53.7884 9.88227 53.7884 9.90777V13.5246L53.7252 13.5068C53.4947 13.4421 53.2643 13.3775 53.0312 13.3164V11.7217ZM38.6869 51.4722C44.3438 50.9202 49.118 45.9771 51.1655 39.1429C51.2454 38.8759 51.0621 38.5987 50.7782 38.5557C46.9356 37.9721 42.8384 37.642 38.6364 37.5962C38.3689 37.5931 38.1494 37.8034 38.1494 38.0622V51.0112C38.1494 51.2894 38.4006 51.5 38.6869 51.4722ZM51.1843 25.056C47.1877 25.7272 42.8964 26.1046 38.4894 26.1478C38.3027 26.1496 38.1494 25.9959 38.1494 25.8071V11.3418C44.1959 11.644 49.298 17.2919 51.1843 25.056ZM66.7296 43.5206C62.9061 41.4897 57.9529 39.915 52.375 38.9058C52.2245 38.8785 52.0782 38.9706 52.0375 39.1161C50.5113 44.5933 47.35 48.9801 43.3698 51.1781C43.0891 51.3327 43.2179 51.7543 43.5377 51.7254C45.5653 51.544 47.5477 51.2671 49.4727 50.905C47.6736 53.4584 44.735 54.9981 41.5222 54.9981H40.9175C37.4559 54.9981 34.4138 53.1943 32.6987 50.4896C33.9122 51.0969 35.1994 51.4896 36.5389 51.6215C36.8124 51.6484 37.0479 51.4266 37.0479 51.1548V38.1C37.0479 37.8391 36.831 37.6271 36.567 37.6304C34.7623 37.6502 32.9785 37.7292 31.2235 37.856V36.8346C32.9835 36.7081 34.772 36.631 36.5803 36.611C36.8389 36.6083 37.0479 36.4017 37.0479 36.1459V27.7217C37.0479 27.4663 36.8389 27.2597 36.5803 27.257C34.772 27.237 32.9835 27.1598 31.2235 27.0339V26.0115C33.0084 26.1406 34.8232 26.2199 36.6598 26.2385C36.873 26.2405 37.0479 26.0693 37.0479 25.8591V11.6919C34.9627 11.7955 32.9927 12.5243 31.2235 13.7346V12.4996C31.5061 12.3244 31.7927 12.1584 32.0839 12.0065C32.2972 11.8953 32.197 11.5742 31.9565 11.5948C31.8066 11.6073 31.658 11.6225 31.5094 11.6378C31.4143 11.6475 31.3191 11.6573 31.2235 11.6663V11.6505C31.2235 11.6493 31.2237 11.6481 31.2238 11.647L31.2241 11.6436V10.0099C31.2241 8.27066 32.6563 6.85603 34.416 6.85603H36.9146C36.9191 6.85603 36.9234 6.85534 36.9277 6.85465L36.9346 6.85365C36.9369 6.85338 36.9393 6.85319 36.9418 6.85319C36.9463 6.85319 36.9507 6.85389 36.9551 6.85459C36.9595 6.8553 36.9641 6.85603 36.969 6.85603C37.46 6.85603 37.858 6.46239 37.858 5.97721V1.23336C37.858 0.748024 37.46 0.35498 36.969 0.35498H11.2292C10.7382 0.35498 10.3404 0.748024 10.3404 1.23336V5.97721C10.3404 6.46239 10.7382 6.85603 11.2292 6.85603L11.2321 6.85582L11.2341 6.85551C11.2358 6.85525 11.2374 6.85499 11.2391 6.85499C11.2406 6.85499 11.2422 6.85524 11.2438 6.8555C11.2454 6.85576 11.247 6.85603 11.2487 6.85603H13.7467C15.5069 6.85603 16.9387 8.27066 16.9387 10.0099V11.2587C16.9387 11.2614 16.9383 11.264 16.9379 11.2668C16.9374 11.2696 16.9369 11.2725 16.9369 11.2755V14.8506C15.135 15.5282 13.4287 16.2976 11.844 17.1586C10.5056 17.886 9.28158 18.6617 8.17665 19.4781C7.90068 19.6819 7.94073 20.0998 8.2436 20.2625C10.7054 21.5882 13.6534 22.7188 16.9369 23.6322V24.6876C13.0137 23.6182 9.54274 22.2445 6.76522 20.6069L6.7632 20.6049C6.76218 20.6038 6.76119 20.6028 6.76008 20.6023C2.94957 23.8561 0.90625 27.6678 0.90625 31.6757C0.90625 35.7225 2.98886 39.5695 6.87177 42.8448C7.0223 42.972 7.23827 42.9916 7.41086 42.8954C10.0737 41.4182 13.3114 40.1687 16.9369 39.1796V40.2334C13.8361 41.0953 11.035 42.1516 8.66028 43.3824C8.34471 43.5462 8.31509 43.9763 8.60451 44.1819C9.59534 44.8851 10.6755 45.5574 11.844 46.1927C13.7678 47.238 15.8693 48.1495 18.1082 48.9231C18.2126 48.9591 18.3174 48.9541 18.4114 48.9226C21.4573 56.4378 28.8983 61.7627 37.5791 61.7627H38.0661C46.0163 61.7627 53.1373 56.7895 55.7868 49.3872C55.789 49.3811 55.7907 49.3749 55.7922 49.3687L55.7938 49.3615L55.7958 49.3524L55.7958 49.3523C55.7975 49.3441 55.7992 49.3358 55.8015 49.3276C58.5012 48.4739 61.0194 47.4266 63.2897 46.1927C64.5517 45.5068 65.7101 44.778 66.7642 44.0131C66.9382 43.8868 66.9198 43.6214 66.7296 43.5206ZM29.4457 10.0099V11.2682L29.4455 11.272L29.4453 11.2755V45.4191C29.4453 51.6697 34.592 56.7548 40.9175 56.7548H41.5222C45.8681 56.7548 49.7904 54.3748 51.7587 50.5429C51.779 50.5042 51.7925 50.4641 51.8062 50.4238L51.8083 50.4176C51.8995 50.3963 51.9901 50.3744 52.0808 50.3524C52.1345 50.3394 52.1883 50.3264 52.2422 50.3135C49.8392 55.2808 44.8129 58.4426 39.1752 58.4426H38.8751C30.8853 58.4426 24.3843 52.0196 24.3843 44.1249V13.7524V11.2924V11.266C24.3843 11.2424 24.3827 11.2193 24.3811 11.196C24.3797 11.1766 24.3784 11.1571 24.378 11.1373C24.4481 8.11147 26.9561 5.66973 30.0352 5.66973H32.0965C30.5221 6.4948 29.4457 8.12969 29.4457 10.0099ZM36.0796 2.11203V4.96697H30.0352C27.2557 4.96697 24.8926 6.73642 24.0225 9.19234C23.1521 6.73642 20.7888 4.96697 18.01 4.96697H12.1187V2.11203H36.0796ZM38.0661 60.0055H37.5791C27.1777 60.0055 18.7152 51.6438 18.7152 41.3662V11.661C18.7152 11.658 18.7156 11.6551 18.7161 11.6522V11.6522C18.7165 11.6493 18.717 11.6465 18.717 11.6436V10.0099C18.717 8.12969 17.6412 6.4948 16.0664 5.66973H18.01C21.0888 5.66973 23.5966 8.11147 23.6666 11.1373C23.6662 11.1575 23.6648 11.1773 23.6634 11.1972C23.6618 11.22 23.6602 11.2428 23.6602 11.266V13.7524C23.6602 13.7673 23.664 13.781 23.6677 13.7947L23.6699 13.8028C23.6711 13.8073 23.6722 13.8119 23.6731 13.8166V44.1249C23.6731 52.4073 30.4929 59.1453 38.8751 59.1453H39.1752C45.2855 59.1453 50.7138 55.6069 53.1269 50.0946C53.3009 50.0499 53.4735 50.0029 53.6462 49.9564C50.9517 56.015 44.8417 60.0055 38.0661 60.0055ZM67.6205 20.6831C67.8655 20.5414 68.1741 20.5692 68.3841 20.7594C71.9092 23.9498 73.7953 27.6528 73.7953 31.5402C73.7953 35.5598 71.7798 39.3829 68.019 42.6454C67.8108 42.8258 67.5129 42.8525 67.2727 42.718C63.4706 40.5927 58.5128 38.9371 52.9142 37.8671C52.5538 37.7985 52.3224 37.4494 52.3938 37.088C52.7425 35.3194 52.9295 33.4595 52.9295 31.5402C52.9295 29.7958 52.7724 28.1023 52.4816 26.4803C52.4175 26.1226 52.6484 25.7818 53.0033 25.7133C58.7369 24.6098 63.7947 22.8921 67.6205 20.6831ZM38.6193 36.4251C42.9031 36.4705 47.0826 36.809 51.0015 37.4077C51.251 37.446 51.4888 37.2922 51.5404 37.055C51.9142 35.3282 52.1154 33.504 52.1154 31.6172C52.1154 29.91 51.948 28.2551 51.6396 26.6762C51.5924 26.4345 51.3512 26.276 51.0975 26.315C47.1514 26.9232 42.9383 27.2671 38.6193 27.3129C38.3591 27.3155 38.1494 27.5167 38.1494 27.7656V35.9719C38.1494 36.2211 38.3591 36.4223 38.6193 36.4251ZM84.6055 27.5714L84.6576 28.6635C84.6576 28.6635 86.501 28.5796 87.5236 28.5796C88.5466 28.5796 90.4422 28.6635 90.4422 28.6635L90.4943 27.5714L88.7855 27.1645V23.6672C89.0105 23.7248 89.6073 23.857 90.3648 23.8594L93.9688 29.2564L96.1291 28.7722L96.3531 28.0298L92.6214 23.438C93.9733 22.9234 95.2707 21.8593 94.9062 19.4409C94.4888 16.6746 91.6099 16.7172 90.5019 16.7336H90.5017C90.4272 16.7347 90.3606 16.7357 90.3034 16.7357C90.0766 16.7357 89.7618 16.7619 89.3854 16.7931C88.2555 16.887 86.5711 17.027 85.049 16.6436L84.7573 17.7622C84.7573 17.7622 85.2964 18.0158 86.1797 18.2133V27.1966L84.6055 27.5714ZM92.171 20.2807C92.171 21.4255 91.4997 22.6121 88.7855 22.1493V18.421L88.8543 18.4169L88.8544 18.4169C88.9245 18.4127 88.9944 18.4086 89.0664 18.4021C91.5407 18.1708 92.171 19.1255 92.171 20.2807ZM113.705 28.5878H114.517C114.621 28.5878 114.805 28.5906 115.07 28.5964C115.315 28.6019 115.573 28.607 115.843 28.6124L115.844 28.6124L115.908 28.6137C116.202 28.6196 116.478 28.6254 116.737 28.6309C116.997 28.6368 117.161 28.6392 117.23 28.6392C118.025 28.6392 118.716 28.5391 119.303 28.3372C119.891 28.1357 120.392 27.8706 120.807 27.542C121.221 27.2141 121.562 26.8369 121.826 26.41C122.091 25.9844 122.296 25.5499 122.44 25.1057C122.584 24.6628 122.685 24.2245 122.743 23.7927C122.8 23.3606 122.829 22.9661 122.829 22.6089C122.829 21.8948 122.731 21.1866 122.535 20.4835C122.339 19.7812 122.014 19.1502 121.558 18.5915C121.104 18.0327 120.496 17.5802 119.736 17.2354C118.975 16.8892 118.036 16.7163 116.919 16.7163C116.711 16.7163 116.507 16.7198 116.305 16.7249C116.104 16.7315 115.897 16.7398 115.683 16.7515C115.47 16.7626 115.234 16.7712 114.975 16.7771C114.715 16.7829 114.425 16.786 114.102 16.786H113.48C113.296 16.786 113.109 16.7829 112.919 16.7771C112.729 16.7712 112.527 16.7653 112.314 16.7595C112.101 16.7543 111.844 16.7456 111.545 16.7339L111.424 17.7876L112.806 18.2025V27.1883L111.269 27.6545L111.372 28.6392C111.694 28.6282 111.986 28.6196 112.245 28.6137L112.329 28.6118L112.329 28.6118L112.329 28.6118C112.558 28.6066 112.777 28.6017 112.987 28.5964C113.223 28.5906 113.463 28.5878 113.705 28.5878ZM115.433 18.3927C115.559 18.3813 115.702 18.373 115.863 18.3664C116.024 18.3613 116.185 18.3581 116.345 18.3581C116.85 18.3581 117.329 18.4185 117.783 18.5397C118.236 18.6605 118.635 18.8766 118.979 19.1879C119.323 19.4988 119.599 19.9247 119.805 20.4659C120.012 21.0078 120.116 21.6991 120.116 22.5399C120.116 23.1273 120.058 23.6951 119.943 24.2421C119.828 24.7892 119.642 25.2731 119.384 25.6934C119.125 26.1138 118.781 26.4479 118.351 26.6957C117.92 26.9435 117.395 27.0671 116.776 27.0671C116.569 27.0671 116.343 27.0581 116.096 27.0412C115.849 27.0243 115.628 26.9926 115.433 26.9463V18.3927ZM108.172 18.2202L108.138 24.6133C108.126 25.5007 107.965 26.2241 107.654 26.7822C107.342 27.3413 106.942 27.7786 106.453 28.0954C105.962 28.4123 105.418 28.6283 104.82 28.7433C104.22 28.8582 103.639 28.9162 103.074 28.9162C102.579 28.9162 102.052 28.8582 101.493 28.7433C100.934 28.6283 100.419 28.4213 99.9467 28.1213C99.4742 27.8217 99.0828 27.4103 98.7715 26.8857C98.4605 26.3618 98.3052 25.6908 98.3052 24.8729V18.2548L96.75 17.7709L96.8366 16.7855C96.8366 16.7855 99.1249 16.8531 100.615 16.8531C102.105 16.8531 102.487 16.7855 102.487 16.7855L102.539 17.8399L100.932 18.2372V24.1639C100.932 24.5674 100.963 24.9477 101.026 25.3046C101.089 25.6622 101.219 25.9763 101.414 26.2465C101.609 26.5171 101.885 26.7332 102.24 26.8943C102.596 27.0562 103.067 27.1363 103.653 27.1363C104.182 27.1363 104.621 27.0531 104.971 26.8857C105.321 26.719 105.597 26.4885 105.798 26.1947C105.999 25.901 106.139 25.5528 106.219 25.1493C106.3 24.7462 106.34 24.3141 106.34 23.8533V18.2372L104.837 17.7533L104.923 16.751C104.923 16.751 107.21 16.8186 108.104 16.8186C108.998 16.8186 109.744 16.751 109.744 16.751L109.813 17.8226L108.172 18.2202ZM150.771 31.5865C150.532 31.8315 150.228 31.954 149.857 31.954C149.474 31.954 149.17 31.8315 148.943 31.5865C148.715 31.3411 148.602 31.0453 148.602 30.6981C148.602 30.3522 148.724 30.0596 148.969 29.82C149.214 29.5815 149.51 29.4614 149.857 29.4614C150.228 29.4614 150.532 29.5815 150.771 29.82C151.01 30.0596 151.13 30.3522 151.13 30.6981C151.13 31.0453 151.01 31.3411 150.771 31.5865ZM108.379 30.6982C108.379 30.3524 108.501 30.059 108.747 29.8202C108.991 29.5813 109.287 29.4619 109.633 29.4619C110.005 29.4619 110.309 29.5813 110.548 29.8202C110.787 30.059 110.907 30.3524 110.907 30.6982C110.907 31.0458 110.787 31.3409 110.548 31.5863C110.309 31.831 110.005 31.9542 109.633 31.9542C109.251 31.9542 108.947 31.831 108.72 31.5863C108.492 31.3409 108.379 31.0458 108.379 30.6982ZM93.3362 40.9361V33.3347C93.2647 33.2871 93.2116 33.2571 93.175 33.2446L90.1988 33.6391V34.4102L91.4362 34.7325V40.1654C91.0434 40.4046 90.6392 40.5892 90.2226 40.7211C89.8064 40.8522 89.4613 40.9178 89.1876 40.9178C88.6654 40.9178 88.2957 40.778 88.0817 40.4971C87.8674 40.2158 87.7608 39.7889 87.7608 39.2149C87.7608 38.2233 87.758 37.24 87.7518 36.2657C87.7456 35.2917 87.7428 34.3146 87.7428 33.3347L87.5799 33.2629L84.6055 33.6571V34.4102C84.8084 34.4699 85.0117 34.5268 85.2153 34.581C85.4183 34.6342 85.6209 34.6908 85.8245 34.7505V39.9856C85.8245 40.8943 86.0426 41.528 86.4789 41.8863C86.9152 42.2452 87.5271 42.4244 88.3164 42.4244C88.5794 42.4244 88.8752 42.4064 89.2038 42.3698C89.5324 42.3346 89.8406 42.2808 90.127 42.209C90.5454 41.8383 90.982 41.4376 91.4362 41.0076C91.4479 41.0196 91.4596 41.0258 91.4721 41.0258L91.8842 42.3346L92.0277 42.3881L94.7167 42.0299V41.2588C94.4779 41.1995 94.2449 41.1453 94.0182 41.0976C93.7904 41.0497 93.5636 40.9965 93.3362 40.9361ZM104.775 35.7008C104.775 34.8286 104.566 34.2008 104.145 33.8187C103.726 33.436 103.114 33.2451 102.311 33.2451C102.035 33.2451 101.733 33.2624 101.403 33.2986C101.073 33.3345 100.758 33.388 100.458 33.4601L99.1634 34.6792C99.1516 34.6792 99.1454 34.6757 99.1454 34.6702C99.1454 34.6643 99.1399 34.6605 99.1278 34.6605L98.715 33.3521L98.5542 33.28C98.1355 33.3521 97.7145 33.4184 97.2899 33.4777C96.8661 33.5378 96.444 33.6034 96.026 33.6748V34.4279L97.263 34.751V40.9715L95.9004 41.456L95.9366 42.2084H100.437L100.455 41.4198L99.1634 41.0433C99.1516 39.9205 99.1454 38.9158 99.1454 38.0315V35.5393C99.552 35.3129 99.9465 35.1358 100.329 35.0105C100.711 34.8856 101.07 34.8228 101.404 34.8228C101.954 34.8228 102.331 34.957 102.534 35.2255C102.737 35.4944 102.839 35.9158 102.839 36.4894V40.9894L101.548 41.4377L101.566 42.2084H105.994L106.031 41.4198L104.775 41.0433V35.7008ZM110.647 37.1622C110.64 35.8769 110.638 34.583 110.638 33.2804L110.476 33.209L107.518 33.657V34.4097C107.718 34.4698 107.921 34.5267 108.128 34.5802C108.334 34.6344 108.537 34.6907 108.737 34.7507V40.954L107.339 41.4737C107.339 41.6052 107.341 41.7278 107.348 41.8413C107.353 41.9552 107.362 42.0774 107.375 42.2089H112.036C112.036 42.0774 112.038 41.9552 112.045 41.8413C112.051 41.7278 112.054 41.6052 112.054 41.4737L110.674 41.0434C110.661 39.7408 110.653 38.4469 110.647 37.1622ZM120.295 33.3996C120.581 33.3898 120.854 33.3804 121.113 33.3705C121.429 33.3587 121.642 33.3525 121.749 33.3525L121.839 34.1408C121.456 34.4401 121.134 34.8139 120.871 35.2615C120.608 35.7095 120.351 36.2207 120.1 36.7946L117.751 42.2448L116.622 42.4781C116.562 42.3583 116.446 42.095 116.273 41.6887C116.099 41.2829 115.899 40.8107 115.671 40.2726C115.445 39.7346 115.203 39.1578 114.945 38.5424C114.688 37.9274 114.446 37.3507 114.219 36.8126C113.992 36.2749 113.792 35.8058 113.618 35.4054C113.445 35.0047 113.329 34.739 113.269 34.6075L112.337 34.2844V33.4782L115.367 33.3525C115.39 33.639 115.447 33.9655 115.537 34.3293C115.626 34.6941 115.738 35.0441 115.869 35.3782L117.572 39.914H117.661C117.685 39.8547 117.745 39.69 117.841 39.4215L117.92 39.1987L117.921 39.1967L117.922 39.1936C117.999 38.9768 118.086 38.7329 118.182 38.462L118.603 37.2696C118.752 36.8454 118.893 36.4481 119.024 36.0774C119.156 35.7071 119.269 35.3903 119.365 35.1273C119.461 34.8646 119.526 34.6969 119.562 34.6254L118.45 34.2668V33.4599C118.558 33.4599 118.77 33.4544 119.087 33.4419L119.25 33.436C119.519 33.4263 119.802 33.4161 120.1 33.4064L120.293 33.3997L120.295 33.3996ZM129.498 34.5801C129.223 34.1915 128.844 33.8746 128.359 33.6299C127.876 33.3849 127.239 33.2627 126.45 33.2627C125.602 33.2627 124.902 33.4001 124.353 33.6748C123.803 33.9502 123.366 34.3088 123.044 34.7506C122.721 35.1931 122.494 35.6918 122.362 36.2475C122.231 36.8032 122.165 37.3678 122.165 37.9418C122.165 38.6473 122.243 39.2771 122.398 39.8335C122.554 40.3892 122.799 40.8613 123.134 41.2496C123.468 41.6376 123.905 41.934 124.442 42.137C124.98 42.3403 125.625 42.4417 126.379 42.4417C127.024 42.4417 127.651 42.3458 128.261 42.1553C128.871 41.9641 129.402 41.7125 129.856 41.4025L129.516 40.4523C129.025 40.6556 128.556 40.7958 128.109 40.8727C127.661 40.9507 127.299 40.9897 127.024 40.9897C126.498 40.9897 126.058 40.9207 125.706 40.7837C125.353 40.646 125.067 40.4399 124.846 40.1648C124.625 39.8904 124.466 39.5495 124.371 39.1432C124.275 38.737 124.227 38.2645 124.227 37.7268L130.053 37.422L130.215 37.2242C130.203 36.7828 130.15 36.3282 130.053 35.8626C129.958 35.396 129.773 34.9687 129.498 34.5801ZM124.263 36.8846C124.263 36.633 124.292 36.3676 124.353 36.0863C124.412 35.8057 124.516 35.5424 124.666 35.2973C124.816 35.0529 125.019 34.8493 125.276 34.6878C125.533 34.527 125.865 34.4458 126.271 34.4458C126.629 34.4458 126.917 34.5087 127.132 34.6343C127.347 34.7596 127.514 34.9208 127.633 35.1182C127.753 35.3153 127.833 35.5365 127.876 35.7815C127.917 36.0262 127.938 36.2685 127.938 36.5077L124.263 36.8846ZM137.264 33.2447C137.546 33.1494 137.835 33.1011 138.134 33.1011C138.278 33.1011 138.403 33.1494 138.511 33.2447C138.618 33.3406 138.672 33.5077 138.672 33.7465C138.672 34.0333 138.62 34.3322 138.519 34.6428C138.418 34.9538 138.271 35.2289 138.081 35.4681L135.14 35.2527V41.0435L136.539 41.4559L136.521 42.2087H131.859L131.823 41.4559L133.24 40.9537V34.7332L132.003 34.4102V33.6571L134.656 33.2447L134.818 33.3344L135.122 34.5893L135.158 34.6073C135.337 34.4399 135.538 34.2666 135.759 34.0875C135.98 33.9077 136.216 33.7465 136.467 33.6036C136.718 33.4597 136.984 33.3406 137.264 33.2447ZM145.552 38.0315C145.318 37.8165 145.038 37.6249 144.709 37.4576C144.38 37.2908 144.001 37.1172 143.571 36.9378C143.224 36.7945 142.922 36.6692 142.665 36.5616C142.408 36.4542 142.196 36.3462 142.029 36.2389C141.862 36.1312 141.739 36.0142 141.661 35.8885C141.583 35.7639 141.545 35.6176 141.545 35.4502C141.545 35.1151 141.664 34.8645 141.903 34.6971C142.142 34.5297 142.453 34.4458 142.836 34.4458C143.003 34.4458 143.227 34.4724 143.508 34.5269C143.788 34.5801 144.067 34.6905 144.342 34.8583L145.005 36.3106L145.686 36.2389C145.686 35.8444 145.689 35.4526 145.695 35.064C145.701 34.676 145.704 34.285 145.704 33.8898C145.25 33.6513 144.763 33.4867 144.243 33.3973C143.723 33.3072 143.254 33.2627 142.836 33.2627C142.226 33.2627 141.712 33.3314 141.294 33.4687C140.875 33.6065 140.538 33.7887 140.281 34.0154C140.024 34.2429 139.835 34.5056 139.716 34.8044C139.596 35.1033 139.536 35.414 139.536 35.737C139.536 36.1312 139.617 36.4625 139.779 36.7317C139.94 37.0009 140.155 37.2336 140.424 37.4313C140.693 37.628 140.995 37.8013 141.329 37.9511L141.548 38.0486L141.747 38.1379L141.752 38.1399L141.752 38.1401C141.95 38.2286 142.15 38.318 142.352 38.4077C142.615 38.5275 142.859 38.6379 143.087 38.7401C143.314 38.8412 143.514 38.952 143.687 39.0718C143.86 39.1905 143.995 39.3317 144.09 39.4925C144.186 39.654 144.234 39.8487 144.234 40.0751C144.234 40.4938 144.064 40.7958 143.723 40.9804C143.383 41.1661 142.949 41.2589 142.423 41.2589C142.184 41.2589 141.9 41.2199 141.572 41.1419C141.243 41.0643 140.953 40.9359 140.702 40.7568L139.931 39.1608C139.835 39.1857 139.731 39.2057 139.617 39.2236C139.504 39.2416 139.399 39.2626 139.304 39.2868L139.447 41.8143C139.794 42.0176 140.236 42.1763 140.774 42.2895C141.312 42.4031 141.868 42.46 142.441 42.46C143.098 42.46 143.669 42.3907 144.153 42.2536C144.638 42.1163 145.034 41.9278 145.345 41.689C145.656 41.4498 145.886 41.1661 146.036 40.8368C146.185 40.5093 146.26 40.1531 146.26 39.7703C146.26 39.3762 146.2 39.0421 146.081 38.7667C145.961 38.4916 145.784 38.2465 145.552 38.0315ZM150.869 37.1622C150.863 35.8769 150.86 34.583 150.86 33.2804L150.699 33.209L147.741 33.657V34.4097C147.941 34.4698 148.144 34.5267 148.35 34.5802C148.557 34.6344 148.76 34.6907 148.96 34.7507V40.954L147.562 41.4737C147.562 41.6052 147.564 41.7278 147.57 41.8413C147.576 41.9552 147.585 42.0774 147.597 42.2089H152.258C152.258 42.0774 152.262 41.9552 152.268 41.8413C152.273 41.7278 152.277 41.6052 152.277 41.4737L150.896 41.0434C150.884 39.7408 150.875 38.4469 150.869 37.1622ZM158.191 40.9711C158.443 40.9242 158.76 40.8586 159.142 40.7744C159.19 40.9421 159.237 41.1054 159.286 41.2645C159.333 41.4243 159.381 41.5865 159.429 41.7515C158.497 42.1998 157.558 42.4235 156.614 42.4235C156.146 42.4235 155.758 42.3731 155.451 42.2716C155.143 42.1705 154.899 42.0117 154.718 41.7967C154.537 41.5817 154.411 41.3097 154.338 40.9808C154.266 40.6522 154.23 40.2546 154.23 39.7886V34.4641H152.957V33.8004C153.183 33.7045 153.411 33.6185 153.638 33.5405C153.865 33.4622 154.099 33.3756 154.339 33.2807L154.99 31.3803L156.003 31.0752C156.027 31.0994 156.054 31.1201 156.084 31.1384C156.114 31.1556 156.142 31.1767 156.166 31.2012V33.4598H158.819V34.4641H156.166V39.7131C156.166 40.1445 156.259 40.4741 156.444 40.7019C156.629 40.9297 156.961 41.0432 157.439 41.0432C157.69 41.0432 157.941 41.0198 158.191 40.9711ZM169.37 33.7646C169.352 33.6338 169.337 33.5013 169.326 33.3701L166.027 33.4778C166.027 33.6093 166.024 33.7377 166.018 33.8633C166.012 33.9886 166.009 34.1173 166.009 34.2482L167.12 34.6254C166.774 35.6056 166.43 36.5827 166.089 37.5563L165.515 39.2004L165.059 40.5059H164.987C164.712 39.6572 164.416 38.8175 164.099 37.9864C163.783 37.156 163.487 36.3104 163.212 35.4503C163.08 35.0675 162.979 34.6972 162.907 34.3386C162.835 33.9796 162.788 33.6569 162.764 33.3701L159.734 33.4958V34.3027L160.667 34.6254C161.168 35.9045 161.668 37.177 162.163 38.444C162.659 39.7107 163.159 40.9777 163.66 42.2447L164.306 42.3162L163.857 43.4821C163.81 43.6136 163.747 43.7565 163.669 43.9121C163.592 44.0671 163.499 44.2172 163.392 44.3601C163.284 44.5037 163.155 44.6293 163.006 44.737C162.857 44.8447 162.686 44.9165 162.495 44.952L160.917 44.055C160.678 44.163 160.487 44.3246 160.344 44.5399C160.2 44.755 160.129 44.9755 160.129 45.2033C160.129 45.5495 160.289 45.8214 160.612 46.0189C160.935 46.2159 161.323 46.3143 161.778 46.3143C162.483 46.3143 163.077 46.0758 163.562 45.5978C164.046 45.1187 164.449 44.4854 164.772 43.6968C165.262 42.5499 165.752 41.4023 166.242 40.255C166.731 39.1071 167.216 37.9539 167.694 36.795C167.933 36.221 168.187 35.7074 168.456 35.2529C168.725 34.799 169.045 34.4342 169.415 34.1595C169.404 34.028 169.388 33.8965 169.37 33.7646ZM123.723 28.6396L123.654 27.6197L125.434 27.1361L125.659 18.2543L123.879 17.7535L124 16.7508C125.013 16.7743 125.886 16.7767 126.618 16.7598C127.349 16.7422 127.882 16.728 128.216 16.7163C128.32 16.9465 128.429 17.1546 128.545 17.3386C128.66 17.5229 128.769 17.6841 128.873 17.8225L131.845 21.7447L133.971 24.5617L134.04 24.5441L133.884 18.2025L132.225 17.7535L132.295 16.7508H137.271L137.34 17.8225L135.56 18.2373C135.549 18.4327 135.54 18.7961 135.534 19.3256C135.528 19.8557 135.517 20.4746 135.499 21.1831C135.482 21.8917 135.468 22.6407 135.456 23.4293C135.445 24.219 135.433 24.9648 135.422 25.6672C135.411 26.3699 135.398 26.9891 135.387 27.5251C135.376 28.0608 135.37 28.4263 135.37 28.622L134.04 28.8984L129.564 23.0755L127.076 19.7919L127.007 19.8095L127.111 27.1879L128.821 27.5507L128.752 28.6396H123.723Z" fill="#4C4C4C"/>
</svg>
