<svg width="150" height="36" viewBox="0 0 150 36" fill="none" xmlns="http://www.w3.org/2000/svg">
<path fill-rule="evenodd" clip-rule="evenodd" d="M15.8455 13.5424L19.7548 0.5H11.0895L7.19182 13.5424H15.8455ZM18.8151 13.6321L17.0636 19.5644H30.4152L25.8564 34.9283H34.5449L44.8226 0.5H36.1225L32.19 13.6321H18.8151ZM0.811768 34.9283H9.47706L13.9895 19.7664H5.33581L0.811768 34.9283ZM104.32 28.3117L105.108 25.6764H96.1531L97.1043 22.4577H106.872L107.672 19.7776H94.1462L89.6222 34.9283H103.6L104.412 32.2031H94.2044L95.3527 28.3117H104.32ZM144.42 13.542L140.488 26.6966C140.198 27.871 139.652 28.9722 138.887 29.9263C138.277 30.5609 137.525 31.0526 136.689 31.3636C135.853 31.6745 134.954 31.7967 134.061 31.7206C131.846 31.7206 130.581 31.1262 130.28 29.9263C130.087 28.841 130.199 27.7256 130.605 26.6966L134.537 13.542H129.015L125.071 26.6966C124.417 28.398 124.311 30.2515 124.77 32.0122C125.698 34.3372 128.404 35.4999 132.89 35.4999C137.375 35.4999 140.778 34.3372 143.098 32.0122C144.513 30.4967 145.528 28.673 146.056 26.6966L150 13.542H144.42ZM121.59 20.1707C122.172 20.3783 122.68 20.7444 123.051 21.225V21.2586C123.334 21.6403 123.528 22.0764 123.62 22.537C123.706 23.0703 123.662 23.6155 123.492 24.1295C123.221 24.9104 122.773 25.623 122.181 26.2154C121.47 26.9446 120.555 27.4588 119.548 27.6956C119.863 27.7836 120.155 27.935 120.405 28.1398C120.655 28.3448 120.857 28.5985 120.998 28.8844C121.183 29.6762 121.123 30.5032 120.824 31.2618L120.522 32.2823C120.367 32.7382 120.258 33.2078 120.198 33.6841C120.179 33.8537 120.21 34.025 120.288 34.1779C120.366 34.3309 120.488 34.4592 120.638 34.5477L120.534 34.9289H116.3C116.284 34.66 116.284 34.3905 116.3 34.1215C116.328 33.6774 116.406 33.2375 116.532 32.8094L116.926 31.4076C117.193 30.4433 117.17 29.7927 116.857 29.4675C116.212 29.0614 115.439 28.8903 114.676 28.9853H110.697L108.934 34.9289H105.152L109.676 19.7783H118.724C119.696 19.7497 120.665 19.8825 121.59 20.1707ZM118.893 25.6198C119.185 25.32 119.394 24.954 119.502 24.5556H119.444C119.71 23.636 119.525 23.0193 118.875 22.7165C118.303 22.5025 117.69 22.4107 117.077 22.4473H112.6L111.44 26.5182H115.801C116.487 26.5385 117.172 26.4552 117.831 26.2714C118.236 26.1437 118.601 25.9197 118.893 25.6198ZM36.7927 34.9289L47.9057 19.7783H52.2558L54.2161 34.9289H50.0401L49.7734 31.8113H43.022L40.8296 34.9289H36.7927ZM48.9961 23.2436L44.8432 29.2096H49.5297L48.9961 23.2436ZM92.5122 19.7774H87.5241L78.5457 26.0126L80.4133 19.7774H76.62L72.096 34.9281H75.8892L77.3972 29.8591L79.694 28.3115L83.4177 34.9281H88.371L83.0929 26.0126L92.5122 19.7774ZM67.8377 29.7368H71.6541C70.8258 31.4048 69.5218 32.8093 67.8957 33.7852C66.1825 34.8314 64.1913 35.373 62.1652 35.3439C59.5087 35.3439 57.6295 34.6936 56.5275 33.2805C55.4256 31.8675 55.2515 29.9498 55.9824 27.4939C56.649 25.0099 58.2073 22.8358 60.3787 21.3596C62.2279 20.1216 64.4284 19.4674 66.6777 19.4867C69.7709 19.4867 71.7894 20.3242 72.7328 21.9988C73.2318 22.8576 73.3808 23.8654 73.1506 24.8249H69.2993C69.3185 24.2413 69.1525 23.6661 68.8236 23.1764C68.4698 22.8089 68.0308 22.528 67.5429 22.3563C67.0549 22.1848 66.5317 22.1276 66.0165 22.1895C64.6171 22.1734 63.2642 22.675 62.2348 23.5913C61.0627 24.6517 60.2363 26.0198 59.8567 27.5275C59.3463 29.2209 59.3812 30.4993 59.9844 31.3516C60.3125 31.7823 60.7491 32.1247 61.2525 32.3464C61.756 32.5683 62.3098 32.662 62.8611 32.6188C64.1223 32.6573 65.3562 32.2597 66.3412 31.4974C66.9437 31.0006 67.4502 30.4045 67.8377 29.7368Z" fill="#4C4C4C"/>
</svg>
