<svg width="290" height="269" viewBox="0 0 290 269" fill="none" xmlns="http://www.w3.org/2000/svg">
<path d="M241.454 113.028L241.454 113.029L241.46 113.034C241.555 113.124 241.662 113.194 241.741 113.242C241.782 113.266 241.817 113.285 241.842 113.298L241.869 113.313C242.603 113.791 243.423 114.074 244.225 114.193C244.899 114.311 245.824 114.285 246.459 114.119C247.165 113.942 247.8 113.599 248.34 113.192C248.594 113.011 248.829 112.808 249.056 112.611C249.15 112.531 249.242 112.451 249.333 112.375L249.335 112.374C249.896 111.898 250.336 111.297 250.715 110.641L250.716 110.64C250.946 110.24 251.022 109.816 251.053 109.404C251.067 109.215 251.071 109.025 251.076 108.841C251.076 108.825 251.077 108.808 251.077 108.792C251.082 108.591 251.088 108.396 251.106 108.205L251.106 108.202C251.141 107.766 251.016 107.377 250.865 107.025C250.81 106.898 250.75 106.771 250.692 106.648C250.67 106.602 250.648 106.556 250.627 106.512C250.549 106.345 250.478 106.184 250.424 106.022L250.422 106.017C250.243 105.532 250.01 104.992 249.653 104.537C249.07 103.756 248.209 103.11 247.207 102.837C246.22 102.553 245.155 102.486 244.135 102.675H244.133C243.114 102.872 242.164 103.37 241.527 104.055C240.351 105.301 239.661 107.032 239.696 108.711C239.701 110.397 240.427 111.978 241.454 113.028ZM243.494 111.471C243.423 111.445 243.33 111.411 243.238 111.349L243.2 111.313C242.486 110.626 242.153 109.506 242.272 108.444C242.391 107.372 242.903 106.395 243.64 105.504C243.907 105.184 244.34 105.026 244.789 104.999C245.158 104.976 245.511 105.021 245.876 105.068C245.965 105.079 246.054 105.091 246.145 105.102C246.481 105.154 246.758 105.201 246.99 105.369L246.994 105.371C247.011 105.384 247.029 105.396 247.047 105.408C247.362 105.627 247.622 105.808 247.794 106.081L247.796 106.085C247.941 106.305 248.063 106.506 248.121 106.719C248.131 106.755 248.14 106.789 248.149 106.823C248.202 107.014 248.246 107.175 248.267 107.344C248.296 107.645 248.287 107.922 248.23 108.177H248.23L248.229 108.182C248.194 108.361 248.22 108.534 248.24 108.665C248.242 108.682 248.245 108.698 248.247 108.713C248.267 108.858 248.271 108.954 248.233 109.045C248.178 109.163 248.174 109.286 248.181 109.388C248.187 109.466 248.201 109.55 248.214 109.623C248.217 109.644 248.221 109.664 248.224 109.682C248.254 109.869 248.248 109.963 248.194 110.031C248.17 110.054 248.147 110.074 248.122 110.097C248.106 110.111 248.09 110.125 248.072 110.141C248.025 110.184 247.973 110.235 247.925 110.297L247.925 110.296L247.919 110.305C247.814 110.456 247.671 110.576 247.502 110.696C247.453 110.731 247.399 110.767 247.344 110.805C247.22 110.889 247.086 110.98 246.97 111.077C246.693 111.303 246.379 111.501 246.016 111.622C245.881 111.658 245.746 111.683 245.6 111.697L245.589 111.698L245.577 111.701C245.216 111.778 244.653 111.844 244.273 111.751L244.263 111.749C244.021 111.702 243.785 111.623 243.574 111.504L243.563 111.498L243.551 111.493C243.534 111.486 243.515 111.479 243.494 111.471Z" fill="black" stroke="black" stroke-width="0.420936"/>
<mask id="mask0_33_2001" style="mask-type:alpha" maskUnits="userSpaceOnUse" x="36" y="34" width="219" height="202">
<path d="M36.1453 34.0476H254.009V235.039H36.1453V34.0476Z" fill="white"/>
<path fill-rule="evenodd" clip-rule="evenodd" d="M105.889 225.286C105.374 225.554 104.859 225.823 104.346 226.095C103.868 226.342 103.394 226.593 102.921 226.845C102.664 226.981 102.407 227.118 102.15 227.253C103.255 225.787 104.187 224.13 105.102 222.503C105.223 222.288 105.343 222.074 105.464 221.861C106.458 220.181 107.434 218.475 108.282 216.707C108.572 216.121 108.867 215.538 109.162 214.955C109.753 213.79 110.343 212.624 110.891 211.433C111.234 210.666 111.584 209.903 111.935 209.139V209.138L111.936 209.136C112.556 207.785 113.177 206.433 113.757 205.063C114.126 204.137 114.511 203.218 114.895 202.299V202.298C115.409 201.067 115.923 199.837 116.402 198.595C116.869 197.367 117.301 196.115 117.732 194.867C117.85 194.527 117.967 194.188 118.085 193.849C118.308 193.201 118.515 192.547 118.722 191.894C119.018 190.96 119.313 190.029 119.652 189.124C120.387 187.19 120.933 185.213 121.471 183.228C121.563 182.886 121.657 182.546 121.75 182.206C121.93 181.554 122.108 180.905 122.268 180.253L122.984 177.259C124.253 172.261 125.214 167.125 125.832 162.018C127.716 162.973 129.723 163.707 131.825 164.075C134.107 164.429 136.444 164.33 138.674 163.861C141.527 163.253 144.46 162.226 146.992 160.721C149.714 159.098 152.165 157.084 154.532 155.134C157.397 152.757 159.787 149.959 162.176 147.163C162.672 146.581 163.169 146 163.669 145.423C165.234 143.611 166.596 141.605 167.95 139.612C168.369 138.995 168.787 138.379 169.21 137.771C171.546 134.466 173.684 131.005 175.656 127.499V127.498C178.206 122.971 180.757 118.443 182.926 113.727C183.641 112.157 184.37 110.592 185.099 109.027C187.712 103.421 190.328 97.8092 192.285 91.8938C192.523 91.1679 192.759 90.4365 192.997 89.7017C193.883 86.9593 194.784 84.1706 195.82 81.4524C195.96 81.0822 196.11 80.7127 196.259 80.3431C196.581 79.5458 196.904 78.7485 197.128 77.9446C197.646 76.0925 198.235 74.2592 198.824 72.4263L198.825 72.4262L198.825 72.4258L198.825 72.4256V72.4254C199.326 70.8661 199.827 69.3072 200.284 67.7373C201.617 63.1915 202.018 61.6372 202.78 58.6795C203.064 57.5807 203.397 56.2884 203.846 54.5771C204.198 53.2323 202.211 53.1767 202.126 53.8329C201.1 56.6631 200.171 59.6197 199.281 62.5593C198.924 63.7039 198.569 64.8498 198.214 65.9958L198.214 65.9969L198.213 65.9987L198.213 66.0012L198.213 66.0014V66.0015C197.1 69.5957 195.987 73.1912 194.796 76.7542C194.296 78.256 193.764 79.7533 193.232 81.2486V81.2487V81.2488C192.472 83.3866 191.714 85.5203 191.054 87.6572C188.859 94.7386 185.887 101.547 182.716 108.214C180.343 113.203 177.858 118.132 175.277 122.988C172.83 127.583 169.985 131.896 167.125 136.207C165.328 138.946 163.334 141.582 161.307 144.122C158.759 147.323 156 150.365 153.012 153.09C151.133 154.844 149.057 156.375 146.905 157.699C144.759 159.031 142.496 160.121 140.162 160.854C138.247 161.441 136.258 161.807 134.296 161.701C132.326 161.602 130.403 161.162 128.563 160.447C127.74 160.095 126.935 159.689 126.152 159.234C126.235 158.571 126.321 157.91 126.407 157.25L126.408 157.249C126.794 154.287 127.179 151.335 127.221 148.343C127.233 147.371 127.304 146.397 127.375 145.425C127.408 144.965 127.442 144.506 127.469 144.047C127.479 143.872 127.488 143.697 127.498 143.523C127.568 142.264 127.638 141.017 127.63 139.777C127.588 137.921 127.58 136.056 127.572 134.199V134.198C127.564 132.314 127.556 130.437 127.512 128.588C127.383 122.603 126.45 116.59 124.632 110.756C123.683 107.804 122.343 104.895 120.356 102.304C119.366 101.012 118.204 99.8106 116.828 98.7978C115.458 97.7935 113.815 96.97 111.931 96.7393C109.807 96.4378 107.496 97.2192 105.926 98.5935C104.325 99.9637 103.299 101.708 102.573 103.463C101.791 105.354 101.273 107.296 101.003 109.25C100.576 112.233 100.874 115.199 101.16 118.058C101.19 118.361 101.221 118.662 101.25 118.963C101.776 124.211 103.281 129.247 105.198 133.986C106.885 138.142 108.881 142.145 111.142 146.026C112.929 149.087 114.878 152.065 117.202 154.786C119.022 156.929 121.072 158.93 123.415 160.554C122.892 164.47 122.216 168.362 121.396 172.219C121.137 173.701 120.77 175.161 120.404 176.619V176.62C120.211 177.387 120.019 178.153 119.842 178.922C119.594 179.913 119.324 180.897 119.055 181.879V181.88C118.72 183.1 118.387 184.318 118.096 185.545C117.621 187.297 117.049 189.01 116.476 190.724L116.475 190.726C116.34 191.131 116.205 191.535 116.071 191.94C115.832 192.596 115.589 193.249 115.345 193.902L115.344 193.904V193.905L115.343 193.906C114.806 195.345 114.27 196.782 113.788 198.24C112.925 200.55 111.982 202.841 111.003 205.119C109.945 207.364 108.888 209.609 107.838 211.848L106.034 215.505C105.45 216.73 104.83 217.941 104.103 219.1L102.604 221.707C102.407 222.038 102.223 222.379 102.04 222.72C101.716 223.32 101.392 223.92 100.999 224.472C100.218 225.595 99.7909 226.247 99.4989 226.993C98.0889 223.317 96.5419 219.695 94.7699 216.169C94.5739 215.787 94.1859 215.59 93.7009 215.772C92.3949 216.27 92.5929 217.233 93.1519 218.321C94.0559 220.07 94.7789 221.892 95.5019 223.712C95.7159 224.252 95.9299 224.792 96.1489 225.329C96.3449 225.83 96.5479 226.327 96.7489 226.824H96.7499C97.3219 228.232 97.8919 229.632 98.3089 231.09L98.3149 231.107C98.3439 231.195 98.3709 231.275 98.4409 231.335C98.6609 231.515 99.0989 231.355 99.4279 231.235C99.5139 231.204 99.5929 231.175 99.6579 231.156C99.7459 231.132 99.8289 231.102 99.9069 231.068C100.132 231.097 100.368 231.051 100.595 230.92C100.8 230.807 101.005 230.691 101.21 230.575C101.69 230.304 102.173 230.032 102.668 229.782C106.307 227.952 109.876 225.984 113.318 223.787C113.678 223.553 113.834 223.148 113.604 222.683C112.975 221.435 112.037 221.731 111.012 222.398C109.365 223.476 107.626 224.381 105.889 225.286ZM123.774 157.654C123.579 157.508 123.387 157.359 123.195 157.207C121.579 155.807 120.032 154.288 118.762 152.505C118.444 152.077 118.123 151.65 117.802 151.222L117.8 151.22C115.817 148.58 113.818 145.918 112.27 142.893L111.897 142.149C109.783 137.938 107.662 133.711 106.2 129.198C105.088 125.786 104.215 122.285 103.718 118.739C103.227 115.201 103.133 111.574 103.815 108.116C104.14 106.478 104.647 104.889 105.374 103.451C106.122 102.023 107.135 100.753 108.438 100.005C109.72 99.2471 111.267 99.084 112.71 99.5025C114.159 99.9295 115.505 100.833 116.63 101.969C119.108 104.454 120.783 107.772 122.024 111.18C123.246 114.615 124.026 118.239 124.442 121.887C125.095 127.356 125.14 132.862 125.099 138.499C125.046 143.707 124.586 148.904 124.128 154.081C124.084 154.572 124.041 155.063 123.998 155.553C123.928 156.254 123.853 156.955 123.774 157.654Z" fill="black"/>
</mask>
<g mask="url(#mask0_33_2001)">
<path fill-rule="evenodd" clip-rule="evenodd" d="M105.889 225.286C105.374 225.554 104.859 225.823 104.346 226.095C103.868 226.342 103.394 226.593 102.921 226.845C102.664 226.981 102.407 227.118 102.15 227.253C103.255 225.787 104.187 224.13 105.102 222.503C105.223 222.288 105.343 222.074 105.464 221.861C106.458 220.181 107.434 218.475 108.282 216.707C108.572 216.121 108.867 215.538 109.162 214.955C109.753 213.79 110.343 212.624 110.891 211.433C111.234 210.666 111.584 209.903 111.935 209.139V209.138L111.936 209.136C112.556 207.785 113.177 206.433 113.757 205.063C114.126 204.137 114.511 203.218 114.895 202.299V202.298C115.409 201.067 115.923 199.837 116.402 198.595C116.869 197.367 117.301 196.115 117.732 194.867C117.85 194.527 117.967 194.188 118.085 193.849C118.308 193.201 118.515 192.547 118.722 191.894C119.018 190.96 119.313 190.029 119.652 189.124C120.387 187.19 120.933 185.213 121.471 183.228C121.563 182.886 121.657 182.546 121.75 182.206C121.93 181.554 122.108 180.905 122.268 180.253L122.984 177.259C124.253 172.261 125.214 167.125 125.832 162.018C127.716 162.973 129.723 163.707 131.825 164.075C134.107 164.429 136.444 164.33 138.674 163.861C141.527 163.253 144.46 162.226 146.992 160.721C149.714 159.098 152.165 157.084 154.532 155.134C157.397 152.757 159.787 149.959 162.176 147.163C162.672 146.581 163.169 146 163.669 145.423C165.234 143.611 166.596 141.605 167.95 139.612C168.369 138.995 168.787 138.379 169.21 137.771C171.546 134.466 173.684 131.005 175.656 127.499V127.498C178.206 122.971 180.757 118.443 182.926 113.727C183.641 112.157 184.37 110.592 185.099 109.027C187.712 103.421 190.328 97.8092 192.285 91.8938C192.523 91.1679 192.759 90.4365 192.997 89.7017C193.883 86.9593 194.784 84.1706 195.82 81.4524C195.96 81.0822 196.11 80.7127 196.259 80.3431C196.581 79.5458 196.904 78.7485 197.128 77.9446C197.646 76.0925 198.235 74.2592 198.824 72.4263L198.825 72.4262L198.825 72.4258L198.825 72.4256V72.4254C199.326 70.8661 199.827 69.3072 200.284 67.7373C201.617 63.1915 202.018 61.6372 202.78 58.6795C203.064 57.5807 203.397 56.2884 203.846 54.5771C204.198 53.2323 202.211 53.1767 202.126 53.8329C201.1 56.6631 200.171 59.6197 199.281 62.5593C198.924 63.7039 198.569 64.8498 198.214 65.9958L198.214 65.9969L198.213 65.9987L198.213 66.0012L198.213 66.0014V66.0015C197.1 69.5957 195.987 73.1912 194.796 76.7542C194.296 78.256 193.764 79.7533 193.232 81.2486V81.2487V81.2488C192.472 83.3866 191.714 85.5203 191.054 87.6572C188.859 94.7386 185.887 101.547 182.716 108.214C180.343 113.203 177.858 118.132 175.277 122.988C172.83 127.583 169.985 131.896 167.125 136.207C165.328 138.946 163.334 141.582 161.307 144.122C158.759 147.323 156 150.365 153.012 153.09C151.133 154.844 149.057 156.375 146.905 157.699C144.759 159.031 142.496 160.121 140.162 160.854C138.247 161.441 136.258 161.807 134.296 161.701C132.326 161.602 130.403 161.162 128.563 160.447C127.74 160.095 126.935 159.689 126.152 159.234C126.235 158.571 126.321 157.91 126.407 157.25L126.408 157.249C126.794 154.287 127.179 151.335 127.221 148.343C127.233 147.371 127.304 146.397 127.375 145.425C127.408 144.965 127.442 144.506 127.469 144.047C127.479 143.872 127.488 143.697 127.498 143.523C127.568 142.264 127.638 141.017 127.63 139.777C127.588 137.921 127.58 136.056 127.572 134.199V134.198C127.564 132.314 127.556 130.437 127.512 128.588C127.383 122.603 126.45 116.59 124.632 110.756C123.683 107.804 122.343 104.895 120.356 102.304C119.366 101.012 118.204 99.8106 116.828 98.7978C115.458 97.7935 113.815 96.97 111.931 96.7393C109.807 96.4378 107.496 97.2192 105.926 98.5935C104.325 99.9637 103.299 101.708 102.573 103.463C101.791 105.354 101.273 107.296 101.003 109.25C100.576 112.233 100.874 115.199 101.16 118.058C101.19 118.361 101.221 118.662 101.25 118.963C101.776 124.211 103.281 129.247 105.198 133.986C106.885 138.142 108.881 142.145 111.142 146.026C112.929 149.087 114.878 152.065 117.202 154.786C119.022 156.929 121.072 158.93 123.415 160.554C122.892 164.47 122.216 168.362 121.396 172.219C121.137 173.701 120.77 175.161 120.404 176.619V176.62C120.211 177.387 120.019 178.153 119.842 178.922C119.594 179.913 119.324 180.897 119.055 181.879V181.88C118.72 183.1 118.387 184.318 118.096 185.545C117.621 187.297 117.049 189.01 116.476 190.724L116.475 190.726C116.34 191.131 116.205 191.535 116.071 191.94C115.832 192.596 115.589 193.249 115.345 193.902L115.344 193.904V193.905L115.343 193.906C114.806 195.345 114.27 196.782 113.788 198.24C112.925 200.55 111.982 202.841 111.003 205.119C109.945 207.364 108.888 209.609 107.838 211.848L106.034 215.505C105.45 216.73 104.83 217.941 104.103 219.1L102.604 221.707C102.407 222.038 102.223 222.379 102.04 222.72C101.716 223.32 101.392 223.92 100.999 224.472C100.218 225.595 99.7909 226.247 99.4989 226.993C98.0889 223.317 96.5419 219.695 94.7699 216.169C94.5739 215.787 94.1859 215.59 93.7009 215.772C92.3949 216.27 92.5929 217.233 93.1519 218.321C94.0559 220.07 94.7789 221.892 95.5019 223.712C95.7159 224.252 95.9299 224.792 96.1489 225.329C96.3449 225.83 96.5479 226.327 96.7489 226.824H96.7499C97.3219 228.232 97.8919 229.632 98.3089 231.09L98.3149 231.107C98.3439 231.195 98.3709 231.275 98.4409 231.335C98.6609 231.515 99.0989 231.355 99.4279 231.235C99.5139 231.204 99.5929 231.175 99.6579 231.156C99.7459 231.132 99.8289 231.102 99.9069 231.068C100.132 231.097 100.368 231.051 100.595 230.92C100.8 230.807 101.005 230.691 101.21 230.575C101.69 230.304 102.173 230.032 102.668 229.782C106.307 227.952 109.876 225.984 113.318 223.787C113.678 223.553 113.834 223.148 113.604 222.683C112.975 221.435 112.037 221.731 111.012 222.398C109.365 223.476 107.626 224.381 105.889 225.286ZM123.774 157.654C123.579 157.508 123.387 157.359 123.195 157.207C121.579 155.807 120.032 154.288 118.762 152.505C118.444 152.077 118.123 151.65 117.802 151.222L117.8 151.22C115.817 148.58 113.818 145.918 112.27 142.893L111.897 142.149C109.783 137.938 107.662 133.711 106.2 129.198C105.088 125.786 104.215 122.285 103.718 118.739C103.227 115.201 103.133 111.574 103.815 108.116C104.14 106.478 104.647 104.889 105.374 103.451C106.122 102.023 107.135 100.753 108.438 100.005C109.72 99.2471 111.267 99.084 112.71 99.5025C114.159 99.9295 115.505 100.833 116.63 101.969C119.108 104.454 120.783 107.772 122.024 111.18C123.246 114.615 124.026 118.239 124.442 121.887C125.095 127.356 125.14 132.862 125.099 138.499C125.046 143.707 124.586 148.904 124.128 154.081C124.084 154.572 124.041 155.063 123.998 155.553C123.928 156.254 123.853 156.955 123.774 157.654Z" fill="black"/>
<path d="M104.346 226.095L104.539 226.47L104.544 226.467L104.346 226.095ZM105.889 225.286L106.083 225.659L105.889 225.286ZM102.921 226.845L102.724 226.473L102.921 226.845ZM102.15 227.253L101.814 227L102.347 227.626L102.15 227.253ZM105.102 222.503L105.469 222.709L105.102 222.503ZM105.464 221.861L105.102 221.647L105.097 221.654L105.464 221.861ZM108.282 216.707L107.905 216.52L107.903 216.525L108.282 216.707ZM109.162 214.955L108.787 214.765L109.162 214.955ZM110.891 211.433L111.273 211.608L111.275 211.605L110.891 211.433ZM111.935 209.139L111.562 208.943L111.557 208.953L111.552 208.963L111.935 209.139ZM111.935 209.139L112.307 209.335L112.311 209.327L112.315 209.319L111.935 209.139ZM111.935 209.138L112.316 209.318L112.318 209.313L111.935 209.138ZM111.936 209.136L111.553 208.96V208.961L111.936 209.136ZM113.757 205.063L114.144 205.227L114.147 205.219L113.757 205.063ZM114.895 202.299L114.511 202.125L114.506 202.137L114.895 202.299ZM114.895 202.299L115.278 202.473L115.282 202.464L114.895 202.299ZM114.895 202.298L114.508 202.132V202.134L114.895 202.298ZM114.895 202.298L114.512 202.124L114.508 202.132L114.895 202.298ZM114.895 202.298L115.278 202.472L115.283 202.46L114.895 202.298ZM116.402 198.595L116.795 198.746L116.796 198.744L116.402 198.595ZM117.732 194.867L117.334 194.73L117.732 194.867ZM118.085 193.849L118.483 193.987V193.986L118.085 193.849ZM118.722 191.894L119.123 192.022L118.722 191.894ZM119.652 189.124L119.258 188.975V188.977L119.652 189.124ZM121.471 183.228L121.878 183.339V183.337L121.471 183.228ZM121.75 182.206L121.344 182.094L121.75 182.206ZM122.268 180.253L122.677 180.353V180.351L122.268 180.253ZM122.984 177.259L122.576 177.156L122.575 177.162L122.984 177.259ZM125.832 162.018L126.022 161.643L125.486 161.371L125.414 161.968L125.832 162.018ZM131.825 164.075L131.753 164.49L131.761 164.491L131.825 164.075ZM138.674 163.861L138.761 164.273H138.762L138.674 163.861ZM146.992 160.721L147.207 161.082H147.208L146.992 160.721ZM154.532 155.134L154.8 155.459L154.801 155.458L154.532 155.134ZM162.176 147.163L162.496 147.436L162.503 147.427L162.176 147.163ZM162.176 147.163L161.855 146.889L161.848 146.899L162.176 147.163ZM163.669 145.423L163.987 145.698H163.988L163.669 145.423ZM167.95 139.612L168.298 139.848L167.95 139.612ZM169.21 137.771L168.866 137.528L168.864 137.53L169.21 137.771ZM175.656 127.499L176.023 127.705L176.026 127.699L175.656 127.499ZM175.656 127.498L175.289 127.292L175.286 127.298L175.656 127.498ZM182.926 113.727L183.308 113.903L183.309 113.901L182.926 113.727ZM185.099 109.027L185.481 109.205L185.099 109.027ZM192.285 91.8939L192.685 92.0261L192.685 92.0248L192.285 91.8939ZM192.997 89.7018L193.397 89.8312L192.997 89.7018ZM195.821 81.4525L196.214 81.6025L196.214 81.6011L195.821 81.4525ZM196.259 80.3432L196.649 80.5009L196.259 80.3432ZM197.128 77.9447L197.534 78.058V78.0579L197.128 77.9447ZM198.825 72.4264L199.225 72.5553L199.229 72.544L198.825 72.4264ZM198.825 72.4263L198.424 72.2957L198.42 72.3086L198.825 72.4263ZM198.825 72.4259L199.225 72.5564L199.227 72.5492L199.229 72.542L198.825 72.4259ZM198.825 72.4257L198.427 72.2873L198.423 72.2983L198.42 72.3096L198.825 72.4257ZM198.825 72.4255L199.223 72.5639L199.226 72.5544L198.825 72.4255ZM200.284 67.7374L199.88 67.619L199.88 67.6199L200.284 67.7374ZM202.781 58.6796L202.373 58.5745L202.781 58.6796ZM203.846 54.5772L204.253 54.6841L204.254 54.6837L203.846 54.5772ZM202.126 53.833L202.522 53.9763L202.538 53.9329L202.544 53.887L202.126 53.833ZM199.281 62.5594L199.683 62.6848L199.684 62.6813L199.281 62.5594ZM198.214 65.9959L197.812 65.8714L197.812 65.8727L198.214 65.9959ZM198.214 65.997L198.616 66.123L198.617 66.1202L198.214 65.997ZM198.213 65.9988L197.812 65.8728L197.811 65.8742L198.213 65.9988ZM198.213 66.0013L198.609 66.1435L198.612 66.1348L198.615 66.126L198.213 66.0013ZM198.213 66.0015L197.816 65.8594L197.807 65.8852L197.801 65.912L198.213 66.0015ZM198.213 66.0016L198.615 66.1261L198.62 66.1088L198.624 66.0911L198.213 66.0016ZM194.796 76.7543L194.397 76.6209L194.397 76.6214L194.796 76.7543ZM193.232 81.2487L193.615 81.4253L193.623 81.4079L193.629 81.3897L193.232 81.2487ZM193.232 81.2488L192.85 81.0721L192.845 81.0834L193.232 81.2488ZM193.232 81.2489L192.845 81.0835L192.84 81.0955L192.836 81.1079L193.232 81.2489ZM191.054 87.6573L191.456 87.782L191.456 87.7815L191.054 87.6573ZM182.716 108.214L182.336 108.033L182.716 108.214ZM175.277 122.988L175.649 123.186V123.185L175.277 122.988ZM167.125 136.207L166.775 135.975L166.773 135.976L167.125 136.207ZM161.307 144.122L160.978 143.86L161.307 144.122ZM153.012 153.09L152.729 152.779L152.725 152.782L153.012 153.09ZM146.905 157.699L146.685 157.34L146.683 157.341L146.905 157.699ZM140.162 160.854L140.285 161.256L140.288 161.255L140.162 160.854ZM134.296 161.701L134.319 161.281H134.317L134.296 161.701ZM128.563 160.447L128.397 160.834L128.404 160.837L128.411 160.84L128.563 160.447ZM126.152 159.234L125.735 159.181L125.7 159.458L125.941 159.597L126.152 159.234ZM126.407 157.25L125.99 157.192V157.195L126.407 157.25ZM126.408 157.249L126.825 157.307V157.304L126.408 157.249ZM127.221 148.343L127.642 148.349V148.348L127.221 148.343ZM127.375 145.425L126.955 145.394L127.375 145.425ZM127.469 144.047L127.889 144.072V144.07L127.469 144.047ZM127.498 143.523L127.919 143.546V143.534L127.498 143.523ZM127.498 143.523L127.078 143.499L127.077 143.511L127.498 143.523ZM127.63 139.777L128.051 139.774V139.767L127.63 139.777ZM127.572 134.199L127.151 134.195V134.2L127.572 134.199ZM127.572 134.198L127.993 134.202V134.197L127.572 134.198ZM127.512 128.588L127.091 128.597V128.598L127.512 128.588ZM124.632 110.756L125.034 110.631L125.033 110.627L124.632 110.756ZM120.356 102.304L120.69 102.048V102.047L120.356 102.304ZM116.828 98.7979L117.078 98.4589L117.077 98.4584L116.828 98.7979ZM111.931 96.7394L111.871 97.1562L111.879 97.1572L111.931 96.7394ZM105.926 98.5936L106.199 98.9134L106.203 98.9104L105.926 98.5936ZM102.573 103.463L102.962 103.624L102.573 103.463ZM101.003 109.25L101.42 109.31V109.308L101.003 109.25ZM101.16 118.058L100.741 118.1L101.16 118.058ZM101.25 118.963L100.831 119.004V119.005L101.25 118.963ZM105.198 133.986L104.807 134.144H104.808L105.198 133.986ZM111.142 146.026L110.778 146.238H110.779L111.142 146.026ZM117.202 154.786L117.522 154.513V154.512L117.202 154.786ZM123.415 160.554L123.832 160.61L123.866 160.355L123.655 160.208L123.415 160.554ZM121.396 172.219L120.985 172.132L120.983 172.139L120.982 172.147L121.396 172.219ZM120.404 176.619L120.812 176.725V176.722L120.404 176.619ZM120.404 176.62L119.996 176.515L119.995 176.518L120.404 176.62ZM119.842 178.922L120.251 179.024L120.253 179.016L119.842 178.922ZM119.055 181.879L118.649 181.768L118.646 181.781L118.643 181.794L119.055 181.879ZM119.055 181.88L119.461 181.991L119.465 181.978L119.467 181.965L119.055 181.88ZM118.096 185.545L118.502 185.655L118.505 185.642L118.096 185.545ZM116.476 190.724L116.873 190.865L116.875 190.857L116.476 190.724ZM116.476 190.724L116.079 190.583L116.076 190.593L116.476 190.724ZM116.476 190.724L116.876 190.856L116.476 190.724ZM116.475 190.726L116.875 190.859V190.858L116.475 190.726ZM116.071 191.94L116.467 192.085L116.471 192.073L116.071 191.94ZM115.345 193.902L115.739 194.051V194.049L115.345 193.902ZM115.344 193.904L114.951 193.755L114.95 193.757L115.344 193.904ZM115.344 193.905L115.738 194.053V194.052L115.344 193.905ZM115.343 193.906L115.731 194.07L115.734 194.062L115.738 194.053L115.343 193.906ZM115.343 193.906L114.956 193.742L114.952 193.75L114.949 193.759L115.343 193.906ZM113.788 198.24L114.183 198.388L114.185 198.38L114.188 198.372L113.788 198.24ZM111.003 205.119L111.384 205.299L111.387 205.292L111.39 205.285L111.003 205.119ZM107.838 211.848L108.216 212.034L108.22 212.026L107.838 211.848ZM106.034 215.505L105.657 215.319L105.655 215.324L106.034 215.505ZM104.103 219.1L103.747 218.877L103.743 218.884L103.739 218.891L104.103 219.1ZM102.604 221.707L102.966 221.921L102.968 221.917L102.604 221.707ZM102.04 222.72L102.41 222.92L102.04 222.72ZM100.999 224.472L100.656 224.227L100.653 224.232L100.999 224.472ZM99.499 226.993L99.106 227.144L99.496 228.158L99.891 227.146L99.499 226.993ZM94.77 216.169L95.146 215.98L95.144 215.977L94.77 216.169ZM93.701 215.772L93.553 215.378L93.551 215.379L93.701 215.772ZM93.152 218.321L92.777 218.513L92.778 218.515L93.152 218.321ZM95.502 223.712L95.111 223.867L95.502 223.712ZM96.149 225.329L96.541 225.176L96.539 225.171L96.149 225.329ZM96.749 226.824L97.141 226.669L97.139 226.665L96.749 226.824ZM96.75 226.824L96.358 226.978L96.36 226.983L96.75 226.824ZM98.309 231.09L97.904 231.206L97.907 231.215L97.91 231.224L98.309 231.09ZM98.315 231.107L98.714 230.973V230.972L98.315 231.107ZM98.441 231.335L98.168 231.655L98.175 231.661L98.441 231.335ZM99.428 231.235L99.572 231.631L99.428 231.235ZM99.658 231.156L99.546 230.75L99.539 230.752L99.658 231.156ZM99.907 231.068L99.961 230.65L99.845 230.636L99.738 230.683L99.907 231.068ZM100.595 230.92L100.391 230.552L100.385 230.556L100.595 230.92ZM101.21 230.575L101.003 230.209L101.21 230.575ZM102.668 229.782L102.479 229.406L102.668 229.782ZM113.318 223.787L113.544 224.142L113.547 224.14L113.318 223.787ZM113.604 222.683L113.981 222.496L113.979 222.494L113.604 222.683ZM111.012 222.398L110.782 222.045H110.781L111.012 222.398ZM123.195 157.207L122.92 157.526L122.927 157.531L122.933 157.537L123.195 157.207ZM123.774 157.654L123.521 157.991L124.109 158.432L124.192 157.702L123.774 157.654ZM118.762 152.505L119.105 152.261L119.1 152.254L118.762 152.505ZM117.802 151.222L118.138 150.969L118.137 150.968L117.802 151.222ZM117.8 151.22L117.463 151.472L117.464 151.474L117.8 151.22ZM112.27 142.893L111.894 143.082L111.895 143.085L112.27 142.893ZM111.897 142.149L111.518 142.332L111.52 142.338L111.897 142.149ZM111.897 142.149L112.276 141.966L112.273 141.96L111.897 142.149ZM106.2 129.198L106.6 129.069V129.068L106.2 129.198ZM103.718 118.739L103.301 118.797L103.718 118.739ZM103.815 108.116L103.402 108.034L103.815 108.116ZM105.374 103.451L105.001 103.255L104.998 103.261L105.374 103.451ZM108.438 100.005L108.648 100.37L108.653 100.367L108.438 100.005ZM112.71 99.5026L112.829 99.0988L112.827 99.0983L112.71 99.5026ZM116.63 101.969L116.331 102.265L116.332 102.266L116.63 101.969ZM122.024 111.18L122.421 111.039L122.419 111.036L122.024 111.18ZM124.442 121.887L124.023 121.935L124.024 121.937L124.442 121.887ZM125.099 138.499L125.52 138.503V138.502L125.099 138.499ZM124.128 154.081L123.709 154.044L124.128 154.081ZM123.998 155.553L124.417 155.595V155.59L123.998 155.553ZM104.544 226.467C105.054 226.195 105.568 225.928 106.083 225.659L105.694 224.913C105.18 225.181 104.663 225.45 104.148 225.724L104.544 226.467ZM103.119 227.217C103.592 226.965 104.064 226.714 104.539 226.47L104.154 225.721C103.672 225.969 103.196 226.222 102.724 226.473L103.119 227.217ZM102.347 227.626C102.604 227.49 102.862 227.353 103.119 227.217L102.724 226.473C102.467 226.61 102.211 226.746 101.954 226.881L102.347 227.626ZM102.487 227.506C103.611 226.013 104.557 224.331 105.469 222.709L104.735 222.296C103.818 223.928 102.899 225.56 101.814 227L102.487 227.506ZM105.469 222.709C105.59 222.494 105.71 222.281 105.83 222.068L105.097 221.654C104.977 221.867 104.856 222.082 104.735 222.296L105.469 222.709ZM105.826 222.076C106.822 220.393 107.805 218.674 108.662 216.889L107.903 216.525C107.062 218.276 106.095 219.969 105.102 221.647L105.826 222.076ZM108.659 216.893C108.948 216.31 109.243 215.729 109.538 215.146L108.787 214.765C108.492 215.348 108.196 215.932 107.905 216.52L108.659 216.893ZM109.538 215.146C110.128 213.981 110.722 212.809 111.273 211.608L110.508 211.257C109.965 212.44 109.378 213.598 108.787 214.765L109.538 215.146ZM111.275 211.605C111.617 210.84 111.966 210.079 112.317 209.315L111.552 208.963C111.202 209.727 110.85 210.492 110.506 211.261L111.275 211.605ZM112.307 209.335L111.562 208.943L112.307 209.335ZM112.315 209.319L112.316 209.318L111.554 208.958V208.959L112.315 209.319ZM112.318 209.313L112.319 209.311L111.553 208.961L111.552 208.963L112.318 209.313ZM112.318 209.312C112.938 207.961 113.561 206.604 114.144 205.227L113.369 204.899C112.792 206.262 112.174 207.608 111.553 208.96L112.318 209.312ZM114.147 205.219C114.516 204.297 114.899 203.381 115.283 202.461L114.506 202.137C114.122 203.055 113.737 203.978 113.366 204.907L114.147 205.219ZM115.278 202.473L114.511 202.125L115.278 202.473ZM115.282 202.464V202.463L114.508 202.134H114.507L115.282 202.464ZM115.282 202.464L114.508 202.132L115.282 202.464ZM115.278 202.472L114.512 202.124L115.278 202.472ZM115.283 202.46C115.797 201.23 116.314 199.995 116.795 198.746L116.009 198.443C115.533 199.679 115.021 200.904 114.507 202.136L115.283 202.46ZM116.796 198.744C117.265 197.509 117.699 196.252 118.13 195.005L117.334 194.73C116.903 195.979 116.472 197.224 116.009 198.445L116.796 198.744ZM118.13 195.005C118.248 194.665 118.365 194.325 118.483 193.987L117.688 193.71C117.569 194.05 117.452 194.39 117.334 194.73L118.13 195.005ZM118.483 193.986C118.708 193.332 118.917 192.673 119.123 192.022L118.321 191.767C118.114 192.42 117.908 193.069 117.687 193.712L118.483 193.986ZM119.123 192.022C119.42 191.085 119.712 190.164 120.046 189.272L119.258 188.977C118.915 189.893 118.617 190.834 118.321 191.767L119.123 192.022ZM120.045 189.274C120.789 187.317 121.339 185.322 121.878 183.339L121.065 183.118C120.526 185.104 119.986 187.062 119.258 188.975L120.045 189.274ZM121.878 183.337C121.969 182.997 122.062 182.658 122.156 182.318L121.344 182.094C121.251 182.434 121.157 182.776 121.065 183.12L121.878 183.337ZM122.156 182.318C122.335 181.667 122.516 181.012 122.677 180.353L121.859 180.153C121.701 180.798 121.524 181.442 121.344 182.094L122.156 182.318ZM122.677 180.351L123.394 177.357L122.575 177.162L121.859 180.155L122.677 180.351ZM123.392 177.363C124.665 172.347 125.63 167.194 126.25 162.069L125.414 161.968C124.799 167.057 123.841 172.174 122.576 177.156L123.392 177.363ZM125.642 162.394C127.555 163.363 129.601 164.113 131.753 164.49L131.898 163.66C129.844 163.301 127.877 162.582 126.022 161.643L125.642 162.394ZM131.761 164.491C134.097 164.853 136.485 164.751 138.761 164.273L138.588 163.45C136.403 163.908 134.117 164.004 131.89 163.659L131.761 164.491ZM138.762 164.273C141.649 163.658 144.628 162.616 147.207 161.082L146.777 160.359C144.293 161.836 141.405 162.849 138.586 163.45L138.762 164.273ZM147.208 161.082C149.961 159.441 152.436 157.406 154.8 155.459L154.265 154.809C151.894 156.762 149.466 158.756 146.777 160.359L147.208 161.082ZM154.801 155.458C157.698 153.055 160.111 150.228 162.496 147.436L161.855 146.889C159.463 149.69 157.096 152.46 154.264 154.81L154.801 155.458ZM162.503 147.427L161.848 146.899L162.503 147.427ZM162.496 147.436C162.992 146.854 163.488 146.274 163.987 145.698L163.351 145.147C162.85 145.726 162.352 146.308 161.856 146.889L162.496 147.436ZM163.988 145.698C165.571 143.865 166.947 141.838 168.298 139.848L167.601 139.375C166.245 141.372 164.896 143.358 163.351 145.147L163.988 145.698ZM168.298 139.848C168.717 139.231 169.134 138.617 169.555 138.011L168.864 137.53C168.44 138.141 168.02 138.759 167.601 139.375L168.298 139.848ZM169.553 138.014C171.899 134.695 174.046 131.221 176.023 127.705L175.289 127.292C173.323 130.789 171.192 134.237 168.866 137.528L169.553 138.014ZM176.026 127.699L175.286 127.298L176.026 127.699ZM176.023 127.705C178.572 123.18 181.131 118.637 183.308 113.903L182.544 113.551C180.383 118.249 177.841 122.762 175.289 127.292L176.023 127.705ZM183.309 113.901C184.023 112.333 184.751 110.77 185.481 109.205L184.718 108.849C183.988 110.414 183.258 111.98 182.543 113.553L183.309 113.901ZM185.481 109.205C188.092 103.603 190.719 97.9687 192.685 92.0261L191.886 91.7617C189.938 97.6498 187.332 103.24 184.718 108.849L185.481 109.205ZM192.685 92.0248C192.923 91.298 193.16 90.5658 193.397 89.8312L192.596 89.5724C192.359 90.3073 192.123 91.0379 191.885 91.7629L192.685 92.0248ZM193.397 89.8312C194.284 87.087 195.182 84.3088 196.214 81.6025L195.427 81.3025C194.386 84.0326 193.482 86.8317 192.596 89.5724L193.397 89.8312ZM196.214 81.6011C196.352 81.2363 196.5 80.8713 196.649 80.5009L195.869 80.1854C195.72 80.5542 195.568 80.9283 195.427 81.3039L196.214 81.6011ZM196.649 80.5009C196.97 79.7079 197.302 78.8885 197.534 78.058L196.723 77.8314C196.506 78.6086 196.193 79.384 195.869 80.1854L196.649 80.5009ZM197.534 78.0579C198.049 76.215 198.636 74.3894 199.225 72.5553L198.424 72.2975C197.835 74.1291 197.243 75.9702 196.723 77.8315L197.534 78.0579ZM199.229 72.544V72.5439L198.42 72.3086V72.3088L199.229 72.544ZM199.225 72.5567L199.225 72.5564L198.425 72.2954L198.424 72.2958L199.225 72.5567ZM199.229 72.542L199.229 72.5418L198.42 72.3096L198.42 72.3098L199.229 72.542ZM199.222 72.564L199.222 72.5639L198.427 72.2871L198.427 72.2873L199.222 72.564ZM199.226 72.5544C199.727 70.9961 200.23 69.4315 200.688 67.855L199.88 67.6199C199.425 69.1832 198.926 70.7364 198.424 72.2966L199.226 72.5544ZM200.688 67.8559C202.023 63.3045 202.425 61.7456 203.188 58.7846L202.373 58.5745C201.611 61.5291 201.212 63.0788 199.88 67.619L200.688 67.8559ZM203.188 58.7846C203.471 57.686 203.804 56.3944 204.253 54.6841L203.439 54.4703C202.99 56.1825 202.656 57.4757 202.373 58.5745L203.188 58.7846ZM204.254 54.6837C204.369 54.2444 204.302 53.8516 204.075 53.5486C203.858 53.2603 203.537 53.1076 203.239 53.0432C202.94 52.9788 202.616 52.9916 202.344 53.0851C202.087 53.1732 201.76 53.3817 201.709 53.7789L202.544 53.887C202.535 53.9561 202.488 53.9254 202.617 53.8815C202.729 53.8428 202.896 53.8306 203.061 53.8662C203.226 53.9018 203.341 53.9741 203.401 54.0539C203.45 54.119 203.5 54.2376 203.439 54.4706L204.254 54.6837ZM201.73 53.6896C200.701 56.5306 199.769 59.4958 198.878 62.4374L199.684 62.6813C200.573 59.7439 201.5 56.7958 202.522 53.9763L201.73 53.6896ZM198.879 62.434C198.522 63.5792 198.167 64.7255 197.812 65.8714L198.617 66.1204C198.971 64.9743 199.326 63.8289 199.683 62.6848L198.879 62.434ZM197.812 65.8727L197.812 65.8738L198.617 66.1202L198.617 66.1191L197.812 65.8727ZM197.812 65.871L197.812 65.8729L198.615 66.1248L198.616 66.123L197.812 65.871ZM197.811 65.8742L197.811 65.8767L198.615 66.126L198.616 66.1235L197.811 65.8742ZM197.816 65.8592V65.8594L198.609 66.1436L198.609 66.1435L197.816 65.8592ZM197.801 65.912V65.9121L198.624 66.0911V66.091L197.801 65.912ZM197.811 65.8771C196.698 69.4721 195.586 73.063 194.397 76.6209L195.195 76.8877C196.388 73.3195 197.502 69.7195 198.615 66.1261L197.811 65.8771ZM194.397 76.6214C193.899 78.1185 193.368 79.6117 192.836 81.1077L193.629 81.3897C194.161 79.8951 194.694 78.3938 195.196 76.8872L194.397 76.6214ZM192.85 81.0721L192.85 81.0722L193.615 81.4254V81.4253L192.85 81.0721ZM192.845 81.0834V81.0835L193.619 81.4143L193.62 81.4142L192.845 81.0834ZM192.836 81.1079C192.076 83.2442 191.315 85.3863 190.652 87.5332L191.456 87.7815C192.113 85.6545 192.868 83.5292 193.629 81.3899L192.836 81.1079ZM190.652 87.5327C188.466 94.5858 185.504 101.373 182.336 108.033L183.096 108.394C186.271 101.721 189.252 94.8917 191.456 87.782L190.652 87.5327ZM182.336 108.033C179.966 113.017 177.483 117.94 174.905 122.79L175.649 123.185C178.232 118.325 180.72 113.39 183.096 108.394L182.336 108.033ZM174.906 122.79C172.47 127.364 169.636 131.661 166.775 135.975L167.476 136.44C170.335 132.131 173.191 127.801 175.649 123.186L174.906 122.79ZM166.773 135.976C164.986 138.7 163 141.324 160.978 143.86L161.636 144.385C163.667 141.839 165.67 139.192 167.477 136.438L166.773 135.976ZM160.978 143.86C158.441 147.047 155.696 150.072 152.729 152.779L153.296 153.401C156.303 150.659 159.078 147.599 161.637 144.385L160.978 143.86ZM152.725 152.782C150.869 154.514 148.817 156.029 146.685 157.34L147.126 158.057C149.298 156.721 151.396 155.174 153.3 153.398L152.725 152.782ZM146.683 157.341C144.562 158.658 142.331 159.732 140.036 160.452L140.288 161.255C142.661 160.51 144.957 159.404 147.127 158.056L146.683 157.341ZM140.038 160.451C138.153 161.03 136.215 161.383 134.319 161.281L134.274 162.122C136.301 162.231 138.342 161.852 140.285 161.256L140.038 160.451ZM134.317 161.281C132.396 161.184 130.517 160.755 128.716 160.055L128.411 160.84C130.288 161.569 132.256 162.02 134.275 162.122L134.317 161.281ZM128.729 160.061C127.922 159.715 127.133 159.316 126.364 158.87L125.941 159.597C126.738 160.061 127.558 160.475 128.397 160.834L128.729 160.061ZM126.57 159.286C126.652 158.625 126.739 157.965 126.825 157.304L125.99 157.195C125.904 157.856 125.817 158.518 125.735 159.181L126.57 159.286ZM126.824 157.308V157.307L125.991 157.191L125.99 157.192L126.824 157.308ZM126.825 157.304C127.211 154.345 127.6 151.369 127.642 148.349L126.801 148.337C126.759 151.301 126.377 154.228 125.99 157.195L126.825 157.304ZM127.642 148.348C127.654 147.391 127.724 146.43 127.795 145.456L126.955 145.394C126.884 146.365 126.812 147.351 126.801 148.338L127.642 148.348ZM127.795 145.456C127.828 144.996 127.862 144.534 127.889 144.072L127.049 144.022C127.022 144.478 126.989 144.934 126.955 145.394L127.795 145.456ZM127.889 144.07C127.899 143.895 127.909 143.721 127.918 143.546L127.078 143.499C127.068 143.674 127.058 143.849 127.049 144.024L127.889 144.07ZM127.919 143.534L127.077 143.511V143.512L127.919 143.534ZM127.918 143.546C127.988 142.289 128.059 141.03 128.051 139.774L127.209 139.779C127.217 141.004 127.148 142.238 127.078 143.499L127.918 143.546ZM128.051 139.767C128.009 137.916 128.001 136.055 127.993 134.197L127.151 134.2C127.159 136.057 127.167 137.926 127.209 139.787L128.051 139.767ZM127.993 134.202L127.151 134.195L127.993 134.202ZM127.993 134.197C127.985 132.313 127.977 130.432 127.933 128.578L127.091 128.598C127.135 130.442 127.143 132.315 127.151 134.2L127.993 134.197ZM127.933 128.579C127.803 122.557 126.864 116.504 125.034 110.631L124.23 110.881C126.036 116.676 126.963 122.65 127.091 128.597L127.933 128.579ZM125.033 110.627C124.074 107.642 122.714 104.687 120.69 102.048L120.022 102.56C121.972 105.103 123.293 107.965 124.232 110.885L125.033 110.627ZM120.69 102.047C119.68 100.73 118.491 99.499 117.078 98.4589L116.579 99.1369C117.918 100.122 119.051 101.294 120.022 102.56L120.69 102.047ZM117.077 98.4584C115.668 97.4254 113.958 96.5635 111.982 96.3216L111.879 97.1572C113.672 97.3767 115.249 98.1618 116.579 99.1374L117.077 98.4584ZM111.99 96.3226C109.734 96.0024 107.303 96.8293 105.648 98.2768L106.203 98.9104C107.69 97.6093 109.88 96.8734 111.871 97.1561L111.99 96.3226ZM105.652 98.2738C103.984 99.7017 102.925 101.51 102.184 103.302L102.962 103.624C103.673 101.905 104.666 100.226 106.199 98.9134L105.652 98.2738ZM102.185 103.302C101.388 105.226 100.861 107.203 100.586 109.192L101.42 109.308C101.685 107.389 102.194 105.481 102.962 103.624L102.185 103.302ZM100.586 109.191C100.151 112.232 100.455 115.249 100.741 118.1L101.579 118.016C101.292 115.149 101.001 112.234 101.42 109.31L100.586 109.191ZM100.741 118.1C100.772 118.403 100.802 118.704 100.831 119.004L101.669 118.922C101.64 118.621 101.609 118.319 101.579 118.016L100.741 118.1ZM100.831 119.005C101.362 124.304 102.881 129.381 104.807 134.144L105.588 133.828C103.681 129.113 102.189 124.117 101.669 118.921L100.831 119.005ZM104.808 134.144C106.503 138.32 108.508 142.341 110.778 146.238L111.506 145.814C109.254 141.949 107.267 137.964 105.588 133.827L104.808 134.144ZM110.779 146.238C112.572 149.311 114.535 152.312 116.882 155.059L117.522 154.512C115.22 151.818 113.286 148.864 111.506 145.814L110.779 146.238ZM116.881 155.058C118.717 157.221 120.794 159.249 123.175 160.9L123.655 160.208C121.35 158.61 119.326 156.637 117.522 154.513L116.881 155.058ZM122.998 160.499C122.477 164.403 121.802 168.285 120.985 172.132L121.808 172.307C122.63 168.439 123.308 164.536 123.832 160.61L122.998 160.499ZM120.982 172.147C120.725 173.611 120.363 175.056 119.996 176.517L120.812 176.722C121.178 175.266 121.548 173.791 121.811 172.292L120.982 172.147ZM119.997 176.514L119.996 176.515L120.811 176.726L120.812 176.725L119.997 176.514ZM119.995 176.518C119.803 177.284 119.61 178.054 119.432 178.827L120.253 179.016C120.428 178.252 120.619 177.49 120.812 176.723L119.995 176.518ZM119.434 178.819C119.187 179.806 118.919 180.785 118.649 181.768L119.461 181.991C119.73 181.009 120.001 180.021 120.251 179.024L119.434 178.819ZM118.643 181.794L119.467 181.965L118.643 181.794ZM118.649 181.768C118.315 182.988 117.979 184.213 117.686 185.447L118.505 185.642C118.794 184.424 119.126 183.213 119.461 181.991L118.649 181.768ZM117.689 185.435C117.219 187.173 116.65 188.875 116.077 190.59L116.875 190.857C117.447 189.146 118.024 187.42 118.502 185.655L117.689 185.435ZM116.08 190.582V190.583L116.873 190.865L116.08 190.582ZM116.076 190.593L116.876 190.856V190.855L116.076 190.593ZM116.076 190.592V190.594L116.875 190.858L116.876 190.856L116.076 190.592ZM116.076 190.592C115.941 190.997 115.806 191.402 115.671 191.808L116.471 192.073C116.604 191.668 116.739 191.264 116.875 190.859L116.076 190.592ZM115.676 191.796C115.437 192.45 115.194 193.102 114.951 193.754L115.739 194.049C115.983 193.397 116.227 192.742 116.467 192.085L115.676 191.796ZM114.951 193.752V193.755L115.738 194.053L115.739 194.051L114.951 193.752ZM114.95 193.757L114.949 193.759L115.738 194.052L115.739 194.05L114.95 193.757ZM114.949 193.758V193.759L115.738 194.053L114.949 193.758ZM114.956 193.742L115.731 194.071V194.07L114.956 193.742ZM114.949 193.759C114.412 195.197 113.873 196.641 113.389 198.108L114.188 198.372C114.667 196.923 115.2 195.494 115.738 194.053L114.949 193.759ZM113.394 198.093C112.534 200.394 111.594 202.678 110.616 204.953L111.39 205.285C112.37 203.003 113.316 200.706 114.183 198.388L113.394 198.093ZM110.622 204.94C109.564 207.185 108.507 209.43 107.457 211.669L108.22 212.026C109.269 209.788 110.326 207.544 111.384 205.299L110.622 204.94ZM107.461 211.661L105.657 215.319L106.412 215.692L108.216 212.034L107.461 211.661ZM105.655 215.324C105.073 216.542 104.461 217.737 103.747 218.877L104.46 219.324C105.199 218.145 105.827 216.917 106.414 215.687L105.655 215.324ZM103.739 218.891L102.239 221.497L102.968 221.917L104.468 219.31L103.739 218.891ZM102.241 221.492C102.04 221.832 101.852 222.18 101.669 222.52L102.41 222.92C102.595 222.577 102.774 222.244 102.966 221.921L102.241 221.492ZM101.669 222.52C101.344 223.124 101.032 223.701 100.656 224.227L101.341 224.716C101.753 224.14 102.089 223.515 102.41 222.92L101.669 222.52ZM100.653 224.232C99.876 225.35 99.42 226.041 99.107 226.839L99.891 227.146C100.162 226.453 100.56 225.84 101.344 224.712L100.653 224.232ZM99.892 226.842C98.478 223.157 96.926 219.522 95.146 215.98L94.394 216.358C96.158 219.869 97.7 223.478 99.106 227.144L99.892 226.842ZM95.144 215.977C95.008 215.712 94.793 215.488 94.503 215.369C94.209 215.25 93.88 215.255 93.553 215.378L93.848 216.166C94.006 216.107 94.114 216.12 94.185 216.149C94.259 216.179 94.335 216.244 94.395 216.361L95.144 215.977ZM93.551 215.379C93.181 215.52 92.883 215.706 92.67 215.949C92.451 216.197 92.338 216.482 92.308 216.784C92.251 217.355 92.495 217.965 92.777 218.513L93.526 218.129C93.249 217.59 93.115 217.174 93.146 216.867C93.16 216.729 93.207 216.613 93.301 216.506C93.4 216.394 93.567 216.273 93.851 216.165L93.551 215.379ZM92.778 218.515C93.671 220.241 94.387 222.044 95.111 223.867L95.893 223.557C95.172 221.74 94.441 219.898 93.525 218.128L92.778 218.515ZM95.111 223.867C95.325 224.407 95.54 224.949 95.759 225.488L96.539 225.171C96.321 224.635 96.107 224.097 95.893 223.557L95.111 223.867ZM95.757 225.483C95.955 225.987 96.158 226.486 96.359 226.982L97.139 226.665C96.937 226.168 96.736 225.674 96.541 225.176L95.757 225.483ZM96.358 226.978L97.141 226.67V226.669L96.358 226.978ZM96.36 226.983C96.934 228.394 97.494 229.774 97.904 231.206L98.714 230.974C98.289 229.491 97.711 228.07 97.14 226.666L96.36 226.983ZM97.91 231.224L97.916 231.241L98.714 230.972L98.708 230.956L97.91 231.224ZM97.916 231.241C97.939 231.311 97.995 231.508 98.168 231.655L98.714 231.014C98.722 231.021 98.729 231.029 98.734 231.035C98.739 231.042 98.74 231.045 98.74 231.044C98.739 231.042 98.736 231.037 98.731 231.024C98.726 231.011 98.721 230.996 98.714 230.973L97.916 231.241ZM98.175 231.661C98.438 231.876 98.77 231.848 98.969 231.811C99.189 231.771 99.415 231.688 99.572 231.631L99.284 230.84C99.112 230.902 98.955 230.958 98.819 230.983C98.661 231.012 98.664 230.973 98.707 231.009L98.175 231.661ZM99.572 231.631C99.663 231.598 99.727 231.574 99.776 231.56L99.539 230.752C99.458 230.776 99.366 230.81 99.284 230.84L99.572 231.631ZM99.769 231.562C99.876 231.533 99.979 231.496 100.077 231.453L99.738 230.683C99.679 230.708 99.616 230.731 99.546 230.75L99.769 231.562ZM100.385 230.556C100.233 230.643 100.089 230.667 99.961 230.65L99.853 231.485C100.175 231.527 100.503 231.459 100.805 231.285L100.385 230.556ZM101.003 230.209C100.798 230.325 100.594 230.439 100.391 230.552L100.798 231.289C101.006 231.174 101.212 231.057 101.417 230.942L101.003 230.209ZM102.479 229.406C101.973 229.661 101.482 229.938 101.003 230.209L101.417 230.942C101.899 230.67 102.372 230.403 102.858 230.158L102.479 229.406ZM113.091 223.433C109.664 225.619 106.109 227.58 102.479 229.406L102.858 230.158C106.505 228.323 110.087 226.348 113.544 224.142L113.091 223.433ZM113.226 222.87C113.301 223.022 113.299 223.13 113.278 223.203C113.256 223.28 113.198 223.363 113.088 223.435L113.547 224.14C113.797 223.978 113.998 223.741 114.086 223.44C114.175 223.136 114.136 222.809 113.981 222.496L113.226 222.87ZM111.241 222.75C111.749 222.42 112.149 222.244 112.457 222.243C112.596 222.243 112.717 222.278 112.833 222.361C112.954 222.448 113.091 222.602 113.228 222.873L113.979 222.494C113.801 222.14 113.585 221.864 113.322 221.676C113.053 221.484 112.758 221.401 112.455 221.401C111.881 221.403 111.299 221.708 110.782 222.045L111.241 222.75ZM106.083 225.659C107.817 224.756 109.575 223.841 111.242 222.75L110.781 222.045C109.155 223.11 107.435 224.006 105.694 224.913L106.083 225.659ZM122.933 157.537C123.128 157.691 123.323 157.843 123.521 157.991L124.027 157.318C123.835 157.174 123.645 157.027 123.458 156.878L122.933 157.537ZM118.419 152.749C119.716 154.57 121.291 156.115 122.92 157.526L123.471 156.889C121.867 155.499 120.347 154.005 119.105 152.261L118.419 152.749ZM117.465 151.475C117.786 151.903 118.107 152.329 118.424 152.756L119.1 152.254C118.781 151.825 118.459 151.397 118.138 150.969L117.465 151.475ZM117.464 151.474L117.466 151.476L118.137 150.968L118.135 150.966L117.464 151.474ZM111.895 143.085C113.462 146.147 115.484 148.837 117.463 151.472L118.136 150.967C116.151 148.323 114.173 145.689 112.645 142.701L111.895 143.085ZM111.52 142.338L111.894 143.082L112.646 142.705L112.273 141.96L111.52 142.338ZM111.518 142.332L112.276 141.966L111.518 142.332ZM105.799 129.328C107.273 133.876 109.41 138.131 111.52 142.338L112.273 141.96C110.157 137.744 108.051 133.546 106.6 129.069L105.799 129.328ZM103.301 118.797C103.802 122.373 104.682 125.898 105.799 129.329L106.6 129.068C105.494 125.674 104.628 122.198 104.134 118.68L103.301 118.797ZM103.402 108.034C102.708 111.553 102.806 115.229 103.301 118.797L104.134 118.681C103.648 115.172 103.558 111.595 104.228 108.197L103.402 108.034ZM104.998 103.261C104.251 104.739 103.733 106.367 103.402 108.034L104.228 108.198C104.547 106.59 105.043 105.038 105.75 103.641L104.998 103.261ZM108.229 99.64C106.832 100.441 105.771 101.787 105.001 103.255L105.747 103.646C106.474 102.259 107.439 101.064 108.648 100.37L108.229 99.64ZM112.827 99.0983C111.279 98.6495 109.612 98.822 108.224 99.6428L108.653 100.367C109.828 99.6723 111.254 99.5186 112.593 99.9069L112.827 99.0983ZM116.93 101.673C115.768 100.499 114.363 99.5507 112.829 99.0988L112.591 99.9064C113.956 100.308 115.243 101.166 116.331 102.265L116.93 101.673ZM122.419 111.036C121.17 107.602 119.468 104.219 116.929 101.672L116.332 102.266C118.748 104.689 120.397 107.941 121.628 111.324L122.419 111.036ZM124.86 121.839C124.442 118.164 123.654 114.508 122.421 111.039L121.627 111.321C122.837 114.722 123.611 118.314 124.023 121.935L124.86 121.839ZM125.52 138.502C125.561 132.863 125.517 127.335 124.86 121.837L124.024 121.937C124.674 127.378 124.719 132.86 124.678 138.496L125.52 138.502ZM124.547 154.118C125.005 148.944 125.467 143.731 125.52 138.503L124.678 138.494C124.626 143.684 124.167 148.864 123.709 154.044L124.547 154.118ZM124.417 155.59C124.46 155.1 124.504 154.609 124.547 154.118L123.709 154.044C123.665 154.535 123.622 155.026 123.578 155.516L124.417 155.59ZM124.192 157.702C124.272 157 124.347 156.298 124.417 155.595L123.579 155.512C123.509 156.211 123.435 156.909 123.356 157.607L124.192 157.702Z" fill="black"/>
</g>
</svg>
