<svg width="154" height="50" viewBox="0 0 154 50" fill="none" xmlns="http://www.w3.org/2000/svg">
<g clip-path="url(#clip0_33_982)">
<path d="M82.9242 21.5912L79.1017 11.1074L75.2294 21.5912H82.9242ZM83.0113 4.23438L94.292 31.7637H86.6346L84.8167 26.8704H73.287L71.519 31.7637H64.0234L75.2668 4.23438H83.0113Z" fill="#C4C4C4"/>
<path d="M108.81 32.2483C99.5094 32.2483 93.8691 26.7823 93.8691 17.9794C93.8691 9.28854 99.7086 3.78516 109.009 3.78516C116.505 3.78516 121.772 8.26755 122.793 14.5304H115.882C115.098 10.7702 112.097 9.13912 108.76 9.13912C104.564 9.13912 101.314 12.364 101.314 17.9794C101.314 23.7941 104.564 26.9068 108.847 26.9068C111.898 26.9068 115.272 25.6866 116.094 21.5155H123.004C121.946 27.8905 116.343 32.2483 108.81 32.2483Z" fill="#C4C4C4"/>
<path d="M133.588 4.23438V22.0768L146.263 4.23438H153.061V31.7637H146.263V13.9213L133.588 31.7637H126.802V4.23438H133.588Z" fill="#C4C4C4"/>
<path d="M12.4013 9.17841L0 0.5V35.5L12.4013 26.8216V9.17841Z" fill="#C4C4C4"/>
<path d="M37.5898 9.17841V26.8216L49.9911 35.5V0.5L37.5898 9.17841Z" fill="#C4C4C4"/>
<path d="M68.6523 46.5001H67.1387V40.6212H65.2002V39.3614H70.5908V40.6212H68.6523V46.5001ZM91.561 46.5001V39.3501H96.221V40.6101H93.171V42.2801H95.611V43.4601H93.171V45.2401H96.381V46.5001H91.561ZM116.948 46.5001L119.298 39.3501H121.408L123.728 46.5001H122.038L121.548 44.9101H118.958L118.468 46.5001H116.948ZM120.258 40.6701L119.308 43.7601H121.198L120.258 40.6701ZM144.706 46.5001V39.3501H146.846L148.516 43.8001L150.166 39.3501H152.266V46.5001H150.656V41.4801L148.676 46.5001H148.146L146.156 41.4801V46.5001H144.706Z" fill="#C4C4C4"/>
</g>
<defs>
<clipPath id="clip0_33_982">
<rect width="154" height="49" fill="white" transform="translate(0 0.5)"/>
</clipPath>
</defs>
</svg>
