<svg width="28" height="28" viewBox="0 0 28 28" fill="none" xmlns="http://www.w3.org/2000/svg">
<mask id="path-1-inside-1_33_1763" fill="white">
<path d="M1.68224 3.89003L4.66392 0.90835L10.6274 6.8718L7.64568 9.85348L1.68224 3.89003Z"/>
<path d="M18.8211 21.0314L21.8027 18.0497L27.7662 24.0132L24.7845 26.9948L18.8211 21.0314Z"/>
<path d="M0.937285 24.0418L6.90061 18.0785L9.88233 21.0602L3.91901 27.0235L0.937285 24.0418Z"/>
<path d="M18.0819 6.89927L24.0452 0.935968L27.0269 3.91768L21.0636 9.88098L18.0819 6.89927Z"/>
</mask>
<path d="M1.68224 3.89003L-15.1098 -12.902L-31.9018 3.89003L-15.1098 20.6821L1.68224 3.89003ZM4.66392 0.90835L21.456 -15.8837L4.66392 -32.6757L-12.1281 -15.8837L4.66392 0.90835ZM10.6274 6.8718L27.4194 23.6638L44.2114 6.8718L27.4194 -9.92022L10.6274 6.8718ZM7.64568 9.85348L-9.14636 26.6455L7.64569 43.4376L24.4377 26.6455L7.64568 9.85348ZM18.8211 21.0314L2.02902 4.23937L-14.7629 21.0314L2.02901 37.8234L18.8211 21.0314ZM21.8027 18.0497L38.5948 1.2577L21.8027 -15.5344L5.01068 1.2577L21.8027 18.0497ZM27.7662 24.0132L44.5582 40.8052L61.3502 24.0132L44.5582 7.22116L27.7662 24.0132ZM24.7845 26.9948L7.99244 43.7868L24.7845 60.579L41.5766 43.7869L24.7845 26.9948ZM0.937285 24.0418L-15.8547 7.24974L-32.6468 24.0418L-15.8547 40.8338L0.937285 24.0418ZM6.90061 18.0785L23.6926 1.28642L6.90061 -15.5056L-9.89143 1.28642L6.90061 18.0785ZM9.88233 21.0602L26.6744 37.8522L43.4664 21.0602L26.6744 4.26815L9.88233 21.0602ZM3.91901 27.0235L-12.873 43.8155L3.91901 60.6076L20.711 43.8155L3.91901 27.0235ZM18.0819 6.89927L1.28986 -9.8928L-15.5023 6.89927L1.28985 23.6913L18.0819 6.89927ZM24.0452 0.935968L40.8372 -15.8561L24.0452 -32.648L7.25319 -15.8561L24.0452 0.935968ZM27.0269 3.91768L43.8189 20.7097L60.611 3.91768L43.8189 -12.8744L27.0269 3.91768ZM21.0636 9.88098L4.27157 26.673L21.0636 43.465L37.8556 26.673L21.0636 9.88098ZM18.4743 20.6821L21.456 17.7004L-12.1281 -15.8837L-15.1098 -12.902L18.4743 20.6821ZM-12.1281 17.7004L-6.16468 23.6638L27.4194 -9.92022L21.456 -15.8837L-12.1281 17.7004ZM-6.16468 -9.92022L-9.14636 -6.93854L24.4377 26.6455L27.4194 23.6638L-6.16468 -9.92022ZM24.4377 -6.93854L18.4743 -12.902L-15.1098 20.6821L-9.14636 26.6455L24.4377 -6.93854ZM35.6131 37.8234L38.5948 34.8417L5.01068 1.2577L2.02902 4.23937L35.6131 37.8234ZM5.01068 34.8417L10.9741 40.8052L44.5582 7.22116L38.5948 1.2577L5.01068 34.8417ZM10.9741 7.22115L7.99246 10.2028L41.5766 43.7869L44.5582 40.8052L10.9741 7.22115ZM41.5766 10.2028L35.6131 4.23938L2.02901 37.8234L7.99244 43.7868L41.5766 10.2028ZM17.7293 40.8338L23.6926 34.8705L-9.89143 1.28642L-15.8547 7.24974L17.7293 40.8338ZM-9.89143 34.8705L-6.9097 37.8522L26.6744 4.26815L23.6926 1.28642L-9.89143 34.8705ZM-6.9097 4.26815L-12.873 10.2315L20.711 43.8155L26.6744 37.8522L-6.9097 4.26815ZM20.711 10.2315L17.7293 7.24974L-15.8547 40.8338L-12.873 43.8155L20.711 10.2315ZM34.8739 23.6913L40.8372 17.728L7.25319 -15.8561L1.28986 -9.8928L34.8739 23.6913ZM7.25318 17.728L10.2349 20.7097L43.8189 -12.8744L40.8372 -15.8561L7.25318 17.728ZM10.2349 -12.8744L4.27157 -6.91109L37.8556 26.673L43.8189 20.7097L10.2349 -12.8744ZM37.8556 -6.91109L34.8739 -9.89279L1.28985 23.6913L4.27157 26.673L37.8556 -6.91109Z" fill="#E2E7EE" mask="url(#path-1-inside-1_33_1763)"/>
</svg>
