<svg width="16" height="14" viewBox="0 0 16 14" fill="none" xmlns="http://www.w3.org/2000/svg">
<path d="M9.22735 8.01184L9.22954 8.0351L9.23149 8.0584L9.23322 8.08174L9.23472 8.10513L9.23599 8.12855L9.23703 8.15201L9.23783 8.17549L9.23841 8.19901L9.23875 8.22256L9.23886 8.24613L9.23873 8.26973L9.23837 8.29335L9.23778 8.31698L9.23695 8.34064L9.23589 8.3643L9.23459 8.38798L9.23306 8.41167L9.23129 8.43537L9.22929 8.45907L9.22704 8.48277L9.22456 8.50647L9.22185 8.53017L9.2189 8.55387L9.2157 8.57755L9.21228 8.60123L9.20861 8.62489L9.2047 8.64855L9.20056 8.67218L9.19618 8.69579L9.19156 8.71939L9.18671 8.74295L9.18161 8.76649L9.17628 8.79001L9.17071 8.81349L9.1649 8.83693L9.15886 8.86034L9.15258 8.88372L9.14606 8.90704L9.1393 8.93033L9.1323 8.95357L9.12507 8.97676L9.1176 8.9999L9.1099 9.02299L9.10196 9.04602L9.09378 9.06899L9.08537 9.0919L9.07673 9.11475L9.06784 9.13753L9.05873 9.16024L9.04938 9.18289L9.0398 9.20546L9.02999 9.22795L9.01994 9.25037L9.00966 9.2727L8.99916 9.29496L8.98842 9.31712L8.97745 9.33921L8.96625 9.3612L8.95482 9.38309L8.94317 9.4049L8.93129 9.4266L8.91918 9.44821L8.90685 9.46972L8.89429 9.49112L8.88151 9.51241L8.86851 9.53359L8.85528 9.55467L8.84183 9.57563L8.82816 9.59647L8.81428 9.61719L8.80017 9.6378L8.78585 9.65828L8.77131 9.67864L8.75655 9.69886L8.74159 9.71896L8.7264 9.73893L8.71101 9.75876L8.6954 9.77845L8.67959 9.798L8.66356 9.81742L8.64733 9.83669L8.63089 9.85581L8.61425 9.87479L8.5974 9.89361L8.58035 9.91228L8.5631 9.9308L8.54565 9.94916L8.528 9.96736L8.51016 9.9854L8.49212 10.0033L8.47388 10.021L8.45545 10.0385L8.43683 10.0559L8.41802 10.0731L8.39903 10.0901L8.37984 10.107L8.36047 10.1237L8.34092 10.1402L8.32119 10.1565L8.30127 10.1726L8.28118 10.1885L8.26091 10.2043L8.24046 10.2199L8.21984 10.2352L8.19905 10.2504L8.17809 10.2654L8.15696 10.2802L8.13566 10.2948L8.1142 10.3091L8.09258 10.3233L8.0708 10.3373L8.04885 10.3511L8.02675 10.3646L8.0045 10.378L7.98209 10.3911L7.95953 10.404L7.93682 10.4167L7.91396 10.4292L7.89096 10.4415L7.86781 10.4535L7.84452 10.4653L7.8211 10.4769L7.79753 10.4883L7.77383 10.4994L7.75 10.5104L7.72604 10.521L7.70195 10.5315L7.67773 10.5417L7.65339 10.5517L7.62893 10.5615L7.60434 10.571L7.57964 10.5802L7.55482 10.5893L7.5299 10.598L7.50486 10.6066L7.47971 10.6149L7.45445 10.6229L7.4291 10.6307L7.40364 10.6383L7.37808 10.6456L7.35242 10.6526L7.32667 10.6594L7.30083 10.666L7.2749 10.6723L7.24888 10.6783L7.22278 10.6841L7.1966 10.6896L7.17034 10.6948L7.144 10.6998L7.11758 10.7046L7.09109 10.709L7.06454 10.7132L7.03792 10.7172L7.01123 10.7209L6.98448 10.7243L6.95767 10.7274L6.93081 10.7303L6.90389 10.7329L6.87692 10.7352L6.8499 10.7373L6.82283 10.7391L6.79572 10.7406L6.76857 10.7419L6.74139 10.7428L6.71416 10.7435L6.68691 10.744L6.65962 10.7441L6.63231 10.744L6.60497 10.7436L6.57761 10.7429L6.55023 10.742L6.52283 10.7407L6.49542 10.7392L6.468 10.7374L6.44057 10.7353L6.41314 10.733L6.3857 10.7304L6.35826 10.7275L6.33083 10.7243L6.3034 10.7208L6.27598 10.717L6.24856 10.713L6.22117 10.7087L6.19379 10.7041L6.16643 10.6992L6.13909 10.6941L6.11178 10.6886L6.08449 10.6829L6.05724 10.6769L6.03002 10.6706L6.00283 10.6641L5.97569 10.6572L5.94859 10.6501L5.92153 10.6427L5.89452 10.635L5.86756 10.627L5.84065 10.6188L5.8138 10.6102L5.78701 10.6014L5.76028 10.5923L5.73361 10.583L5.70702 10.5733L5.68049 10.5634L5.65403 10.5532L5.62766 10.5427L5.60136 10.5319L5.57514 10.5209L5.549 10.5096L5.52296 10.498L5.497 10.4862L5.47114 10.474L5.44537 10.4616L5.4197 10.4489L5.39413 10.436L5.36866 10.4228L5.3433 10.4093L5.31806 10.3955L5.29292 10.3815L5.2679 10.3672L5.24299 10.3526L5.21821 10.3378L5.19355 10.3227L5.16902 10.3073L5.14461 10.2917L5.12034 10.2758L5.0962 10.2597L5.0722 10.2433L5.04834 10.2266L5.02461 10.2097L5.00104 10.1925L4.97761 10.1751L4.95434 10.1574L4.93121 10.1395L4.90824 10.1213L4.88543 10.1028L4.86278 10.0842L4.8403 10.0652L4.81798 10.0461L4.79583 10.0266L4.77385 10.007L4.75204 9.98706L4.73041 9.96691L4.70896 9.94653L4.68769 9.92591L4.66661 9.90506L4.64571 9.88397L4.625 9.86265L4.60448 9.8411L4.58416 9.81933L4.56403 9.79732L4.5441 9.77509L4.52437 9.75264L4.50485 9.72997L4.48553 9.70708L4.46642 9.68397L4.44752 9.66065L4.42883 9.63711L4.41036 9.61337L4.39211 9.58941L4.37407 9.56524L4.35626 9.54087L4.33867 9.5163L4.32131 9.49152L4.30418 9.46655L4.28728 9.44138L4.27061 9.41601L4.25418 9.39045L4.23799 9.3647L4.22203 9.33877L4.20632 9.31264L4.19085 9.28634L4.17563 9.25985L4.16065 9.23318L4.14593 9.20633L4.13145 9.17931L4.11723 9.15212L4.10327 9.12476L4.08956 9.09723L4.07611 9.06954L4.06293 9.04168L4.05 9.01366L4.03735 8.98549L4.02496 8.95716L4.01284 8.92868L4.00099 8.90005L3.98941 8.87128L3.9781 8.84235L3.96707 8.81329L3.95632 8.78409L3.94585 8.75475L3.93566 8.72527L3.92575 8.69567L3.91612 8.66594L3.90678 8.63608L3.89773 8.6061L3.88896 8.576L3.88048 8.54578L3.8723 8.51544L3.86441 8.485L3.85681 8.45444L3.84951 8.42378L3.8425 8.39302L3.83579 8.36216L3.82938 8.3312L3.82328 8.30015L3.81747 8.269L3.81196 8.23777L3.80677 8.20645L3.80187 8.17505L3.79728 8.14356L3.793 8.11201L3.78903 8.08038L3.78537 8.04868L3.78201 8.01691L3.77897 7.98507L3.77625 7.95318L3.77383 7.92123L3.77173 7.88922L3.76994 7.85717L3.76847 7.82506L3.76732 7.79291L3.76648 7.76072L3.76596 7.72848L3.76576 7.69621L3.76588 7.66391L3.76632 7.63158L3.76708 7.59922L3.76816 7.56684L3.76957 7.53444L3.77129 7.50203L3.77334 7.4696L3.77571 7.43716L3.7784 7.40471L3.78142 7.37226L3.78477 7.33981L3.78843 7.30736L3.79242 7.27492L3.79674 7.24249L3.80138 7.21007L3.80635 7.17766L3.81164 7.14528L3.81726 7.11292L3.82321 7.08058L3.82948 7.04828L3.83608 7.01601L3.843 6.98377L3.85025 6.95157L3.85782 6.91942L3.86572 6.88731L3.87395 6.85525L3.8825 6.82325L3.89137 6.7913L3.90057 6.7594L3.9101 6.72758L3.91995 6.69582L3.93012 6.66412L3.94062 6.6325L3.95144 6.60096L3.96258 6.5695L3.97404 6.53812L3.98583 6.50682L3.99794 6.47562L4.01036 6.4445L4.02311 6.41349L4.03618 6.38257L4.04956 6.35176L4.06327 6.32105L4.07729 6.29045L4.09163 6.25996L4.10628 6.22959L4.12124 6.19934L4.13653 6.16922L4.15212 6.13922L4.16803 6.10934L4.18424 6.0796L4.20077 6.05L4.2176 6.02053L4.23475 5.99121L4.2522 5.96204L4.26995 5.93301L4.28801 5.90413L4.30638 5.87541L4.32504 5.84685L4.34401 5.81845L4.36327 5.79021L4.38283 5.76214L4.40269 5.73425L4.42285 5.70653L4.4433 5.67898L4.46404 5.65162L4.48507 5.62444L4.50639 5.59745L4.52799 5.57064L4.54989 5.54403L4.57207 5.51762L4.59453 5.49141L4.61727 5.46539L4.64029 5.43959L4.66359 5.41399L4.68716 5.3886L4.71101 5.36343L4.73513 5.33848L4.75952 5.31374L4.78418 5.28923L4.8091 5.26494L4.83429 5.24089L4.85974 5.21706L4.88545 5.19348L4.91142 5.17012L4.93764 5.14701L4.96412 5.12415L4.99085 5.10152L5.01783 5.07915L5.04506 5.05703L5.07253 5.03516L5.10024 5.01356L5.1282 4.99221L5.15639 4.97112L5.18482 4.9503L5.21348 4.92974L5.24237 4.90946L5.27149 4.88945L5.30084 4.86972L5.33041 4.85026L5.3602 4.83108L5.3902 4.81219L5.42043 4.79359L5.45087 4.77527L5.48151 4.75724L5.51237 4.7395L5.54343 4.72206L5.57469 4.70492L5.60615 4.68808L5.63781 4.67154L5.66966 4.6553L5.70171 4.63937L5.73394 4.62376L5.76636 4.60845L5.79895 4.59345L5.83173 4.57877L5.86469 4.56441L5.89782 4.55037L5.93112 4.53665L5.96458 4.52325L5.99822 4.51018L6.03201 4.49744L6.06596 4.48503L6.10007 4.47295L6.13432 4.4612L6.16873 4.44979L6.20328 4.43872L6.23798 4.42798L6.27281 4.41759L6.30779 4.40753L6.34289 4.39783L6.37812 4.38847L6.41348 4.37945L6.44896 4.37079L6.48457 4.36247L6.52028 4.35451L6.55611 4.3469L6.59205 4.33965L6.6281 4.33275L6.66425 4.32622L6.7005 4.32004L6.73684 4.31422L6.77328 4.30876L6.8098 4.30367L6.84641 4.29895L6.8831 4.29458L6.91987 4.29059L6.95671 4.28696L6.99363 4.28371L7.03061 4.28082L7.06765 4.27831L7.10476 4.27617L7.14192 4.2744L7.17914 4.273L7.2164 4.27198L7.25371 4.27134L7.29106 4.27107L7.32845 4.27118L7.36587 4.27167L7.40333 4.27254L7.44081 4.27379L7.47832 4.27542L7.51584 4.27743L7.55338 4.27982L7.59093 4.2826L7.62849 4.28575L7.66606 4.28929L7.70362 4.29321L7.74119 4.29752L7.77874 4.30221L7.81629 4.30729L7.85382 4.31275L7.89133 4.31859L7.92882 4.32482L7.96628 4.33143L8.00371 4.33843L8.04111 4.34582L8.07848 4.35359L8.1158 4.36175L8.15307 4.37029L8.1903 4.37922L8.22747 4.38853L8.26459 4.39823L8.30164 4.40831L8.33864 4.41878L8.37556 4.42963L8.41241 4.44086L8.44918 4.45248L8.48588 4.46448L8.52249 4.47686L8.55901 4.48963L8.59544 4.50278L8.63177 4.51631L8.66801 4.53022L8.70414 4.54451L8.74016 4.55917L8.77608 4.57422L8.81188 4.58964L8.84756 4.60545L8.88311 4.62162L8.91855 4.63818L8.95385 4.6551L8.98901 4.6724L9.02404 4.69007L9.05893 4.70812L9.09367 4.72653L9.12826 4.74531L9.1627 4.76446L9.19699 4.78398L9.23111 4.80386L9.26506 4.82411L9.29885 4.84472L9.33247 4.86569L9.36591 4.88702L9.39917 4.90871L9.43225 4.93076L9.46514 4.95316L9.49785 4.97592L9.53035 4.99902L9.56266 5.02248L9.59477 5.04629L9.62667 5.07045L9.65836 5.09495L9.68984 5.1198L9.72111 5.14499L9.75215 5.17051L9.78297 5.19638L9.81357 5.22258L9.84393 5.24912L9.87406 5.27599L9.90396 5.30319L9.93361 5.33072L9.96302 5.35858L9.99218 5.38676L10.0211 5.41526L10.0497 5.44408L10.0781 5.47321L10.1063 5.50267L10.1341 5.53243L10.1617 5.56251L10.1891 5.59289L10.2161 5.62358L10.2429 5.65457L10.2694 5.68586L10.2956 5.71745L10.3215 5.74934L10.3471 5.78152L10.3725 5.81398L10.3975 5.84674L10.4223 5.87978L10.4467 5.9131L10.4708 5.9467L10.4946 5.98058L10.5181 6.01472L10.5413 6.04914L10.5642 6.08383L10.5868 6.11878L10.609 6.15399L10.6309 6.18946L10.6524 6.22519L10.6737 6.26117L10.6946 6.2974L10.7151 6.33387L10.7353 6.37058L10.7552 6.40754L10.7747 6.44473L10.7939 6.48216L10.8127 6.51981L10.8312 6.55769L10.8493 6.59579L10.8671 6.63411L10.8845 6.67265L10.9015 6.7114L10.9181 6.75036L10.9344 6.78953L10.9503 6.8289L10.9659 6.86846L10.981 6.90822L10.9958 6.94817L11.0102 6.98831L11.0242 7.02864L11.0378 7.06914L11.0511 7.10982L11.0639 7.15067L11.0764 7.19169L11.0885 7.23288L11.1001 7.27423L11.1114 7.31573L11.1223 7.35739L11.1327 7.3992L11.1428 7.44115L11.1525 7.48325L11.1617 7.52548L11.1705 7.56785L11.179 7.61034L11.187 7.65296L11.1946 7.69571L11.2018 7.73857L11.2085 7.78154L11.2149 7.82463L11.2208 7.86782L11.2263 7.91111L11.2314 7.95449L11.2361 7.99797L11.2403 8.04154L11.2441 8.08519L11.2475 8.12893L11.2504 8.17273L11.2529 8.21661L11.255 8.26056L11.2567 8.30457L11.2579 8.34864L11.2587 8.39276L11.259 8.43693L11.2589 8.48115L11.2584 8.52541L11.2574 8.5697L11.256 8.61403L11.2541 8.65838L11.2519 8.70276L11.2491 8.74716L11.2459 8.79157L11.2423 8.83599L11.2383 8.88042L11.2338 8.92485L11.2288 8.96928L11.2234 9.01369L11.2176 9.0581L11.2113 9.10249L11.2046 9.14686L11.1974 9.1912L11.1898 9.23551L11.1817 9.27978L11.1732 9.32402L11.1642 9.36821L11.1548 9.41236L11.145 9.45645L11.1347 9.50048L11.1239 9.54445L11.1127 9.58835L11.1011 9.63218L11.089 9.67594L11.0765 9.71961L11.0635 9.7632L11.0501 9.8067L11.0362 9.85011L11.0219 9.89342L11.0072 9.93662L10.992 9.97971L10.9764 10.0227L10.9603 10.0656L10.9438 10.1083L10.9269 10.1509L10.9095 10.1934L10.8917 10.2358L10.8734 10.278L10.8547 10.32L10.8356 10.362L10.816 10.4037L10.796 10.4453L10.7756 10.4868L10.7548 10.528L10.7335 10.5691L10.7118 10.6101L10.6896 10.6508L10.6671 10.6914L10.6441 10.7317L10.6207 10.7719L10.5969 10.8119L10.5726 10.8517L10.548 10.8912L10.5229 10.9306L10.4974 10.9697L10.4715 11.0087L10.4452 11.0474L10.4185 11.0858L10.3913 11.124L10.3638 11.162L10.3359 11.1998L10.3076 11.2373L10.2788 11.2745L10.2497 11.3115L10.2202 11.3483L10.1903 11.3848L10.16 11.421L10.1293 11.4569L10.0982 11.4925L10.0667 11.5279L10.0349 11.563L10.0027 11.5978L9.9701 11.6323L9.93713 11.6665L9.9038 11.7005L9.8701 11.7341L9.83603 11.7674L9.80161 11.8004L9.76682 11.833L9.73167 11.8654L9.69618 11.8974L9.66033 11.9291L9.62413 11.9604L9.58759 11.9915L9.55071 12.0222L9.51348 12.0525L9.47593 12.0825L9.43804 12.1121L9.39982 12.1414L9.36127 12.1703L9.3224 12.1989L9.28321 12.2271L9.2437 12.2549L9.20388 12.2824L9.16375 12.3095L9.12332 12.3362L9.08258 12.3625L9.04154 12.3884L9.00021 12.414L8.95858 12.4391L8.91667 12.4638L8.87447 12.4882L8.83199 12.5121L8.78923 12.5357L8.7462 12.5588L8.7029 12.5815L8.65933 12.6038L8.6155 12.6257L8.57142 12.6471L8.52707 12.6681L8.48248 12.6887L8.43764 12.7089L8.39256 12.7286L8.34724 12.7479L8.30169 12.7668L8.2559 12.7852L8.2099 12.8032L8.16366 12.8207L8.11722 12.8378L8.07055 12.8544L8.02368 12.8705L7.97661 12.8862L7.92933 12.9015L7.88186 12.9162L7.8342 12.9305L7.78635 12.9444L7.73832 12.9577L7.69011 12.9706L7.64172 12.983L7.59317 12.995L7.54446 13.0064L7.49558 13.0174L7.44655 13.0279L7.39737 13.0379L7.34804 13.0474L7.29857 13.0565L7.24896 13.065L7.19922 13.073L7.14936 13.0806L7.09937 13.0876L7.04927 13.0942L6.99905 13.1002L6.94873 13.1058L6.8983 13.1108L6.84778 13.1154L6.79716 13.1194L6.74646 13.1229L6.69567 13.126L6.6448 13.1285L6.59386 13.1304L6.54285 13.1319L6.49178 13.1329L6.44065 13.1333L6.38947 13.1333L6.33824 13.1327L6.28696 13.1316L6.23565 13.1299L6.18431 13.1278L6.13294 13.1251L6.08155 13.1219L6.03013 13.1182L5.97871 13.114L5.92728 13.1092L5.87585 13.1039L5.82442 13.0981L5.773 13.0918L5.7216 13.0849L5.67021 13.0775L5.61885 13.0696L5.56752 13.0612L5.51622 13.0522L5.46496 13.0427L5.41375 13.0327L5.36259 13.0221L5.31148 13.011L5.26044 12.9994L5.20946 12.9873L5.15856 12.9746L5.10773 12.9614L5.05698 12.9477L5.00632 12.9335L4.95575 12.9187L4.90529 12.9034L4.85492 12.8876L4.80467 12.8712L4.75452 12.8543L4.7045 12.8369L4.65461 12.819L4.60484 12.8006L4.55521 12.7816L4.50571 12.7621L4.45637 12.7421L4.40717 12.7216L4.35814 12.7006L4.30926 12.679L4.26055 12.657L4.21201 12.6344L4.16365 12.6113L4.11548 12.5877L4.06749 12.5636L4.01969 12.539L3.9721 12.5138L3.9247 12.4882L3.87752 12.4621L3.83055 12.4354L3.7838 12.4083L3.73727 12.3806L3.69097 12.3525L3.64491 12.3239L3.59908 12.2947L3.55351 12.2651L3.50818 12.235L3.4631 12.2044L3.41829 12.1733L3.37374 12.1418L3.32946 12.1097L3.28546 12.0772L3.24174 12.0442L3.1983 12.0108L3.15515 11.9768L3.1123 11.9424L3.06975 11.9075L3.0275 11.8722L2.98557 11.8364L2.94394 11.8001L2.90264 11.7634L2.86166 11.7262L2.82101 11.6886L2.7807 11.6506L2.74072 11.612L2.70109 11.5731L2.6618 11.5337L2.62287 11.4939L2.58429 11.4536L2.54608 11.4129L2.50823 11.3718L2.47076 11.3303L2.43366 11.2883L2.39694 11.246L2.3606 11.2032L2.32466 11.16L2.28911 11.1164L2.25395 11.0724L2.2192 11.0281L2.18485 10.9833L2.15092 10.9381L2.1174 10.8925L2.0843 10.8466L2.05162 10.8003L2.01937 10.7536L1.98755 10.7065L1.95617 10.6591L1.92523 10.6113L1.89473 10.5631L1.86468 10.5146L1.83508 10.4658L1.80594 10.4166L1.77726 10.367L1.74904 10.3171L1.72128 10.2669L1.694 10.2164L1.6672 10.1655L1.64087 10.1143L1.61502 10.0628L1.58966 10.011L1.56479 9.95889L1.54041 9.90647L1.51652 9.85376L1.49314 9.80075L1.47026 9.74746L1.44788 9.69388L1.42601 9.64002L1.40466 9.5859L1.38382 9.5315L1.3635 9.47685L1.3437 9.42193L1.32443 9.36676L1.30569 9.31135L1.28747 9.25569L1.26979 9.1998L1.25265 9.14367L1.23605 9.08732L1.21999 9.03075L1.20447 8.97395L1.1895 8.91695L1.17508 8.85975L1.16122 8.80234L1.14791 8.74474L1.13516 8.68694L1.12296 8.62897L1.11134 8.57081L1.10027 8.51249L1.08977 8.45399L1.07984 8.39534L1.07049 8.33652L1.0617 8.27756L1.0535 8.21845L1.04587 8.15921L1.03882 8.09983L1.03235 8.04032L1.02646 7.98069L1.02116 7.92094L1.01644 7.86108L1.01232 7.80112L1.00878 7.74106L1.00584 7.68091L1.00348 7.62067L1.00173 7.56035L1.00057 7.49995L1 7.43949L1.00003 7.37896L1.00067 7.31837L1.0019 7.25773L1.00373 7.19705L1.00617 7.13633L1.00921 7.07557L1.01286 7.01479L1.01711 6.95399L1.02197 6.89317L1.02743 6.83235L1.0335 6.77152L1.04018 6.7107L1.04747 6.64988L1.05537 6.58908L1.06388 6.5283L1.07299 6.46756L1.08272 6.40684L1.09306 6.34617L1.10401 6.28554L1.11557 6.22497L1.12774 6.16446L1.14052 6.10401L1.15391 6.04363L1.16792 5.98333L1.18253 5.92312L1.19775 5.863L1.21358 5.80297L1.23003 5.74305L1.24708 5.68323L1.26474 5.62353L1.28301 5.56396L1.30188 5.50451L1.32137 5.4452L1.34145 5.38602L1.36215 5.327L1.38344 5.26813L1.40535 5.20941L1.42785 5.15087L1.45095 5.09249L1.47466 5.03429L1.49896 4.97628L1.52386 4.91846L1.54936 4.86084L1.57545 4.80341L1.60214 4.7462L1.62941 4.68921L1.65728 4.63243L1.68574 4.57588L1.71478 4.51957L1.74441 4.4635L1.77462 4.40767L1.80541 4.3521L1.83679 4.29679L1.86874 4.24174L1.90126 4.18696L1.93436 4.13246L1.96804 4.07824L2.00228 4.02431L2.03708 3.97068L2.07245 3.91734L2.10839 3.86432L2.14488 3.81161L2.18193 3.75921L2.21953 3.70714L2.25768 3.65541L2.29638 3.60401L2.33563 3.55295L2.37542 3.50224L2.41576 3.45189L2.45662 3.40189L2.49803 3.35226L2.53996 3.30301L2.58242 3.25413L2.6254 3.20563L2.66891 3.15752L2.71293 3.10981L2.75747 3.0625L2.80252 3.01559L2.84808 2.96909L2.89414 2.92301L2.9407 2.87736L2.98776 2.83213L3.03531 2.78733L3.08334 2.74297L3.13187 2.69906L3.18087 2.6556L3.23035 2.61259L3.28031 2.57004L3.33073 2.52795L3.38162 2.48634L3.43297 2.4452L3.48477 2.40454L3.53703 2.36436L3.58973 2.32468L3.64288 2.28549L3.69646 2.2468L3.75048 2.20862L3.80493 2.17095L3.8598 2.13379L3.9151 2.09716L3.97081 2.06104L4.02693 2.02546L4.08345 1.99041L4.14038 1.9559L4.1977 1.92194L4.25542 1.88852L4.31351 1.85565L4.37199 1.82334L4.43085 1.79159L4.49007 1.7604L4.54967 1.72979L4.60962 1.69975L4.66992 1.67029L4.73058 1.6414L4.79157 1.61311L4.85291 1.58541L4.91458 1.5583L4.97657 1.53178L5.03889 1.50587L5.10152 1.48057L5.16447 1.45588L5.22771 1.4318L5.29126 1.40833L5.3551 1.38549L5.41922 1.36327L5.48363 1.34168L5.54831 1.32072L5.61326 1.30039L5.67848 1.2807L5.74395 1.26166L5.80967 1.24326L5.87564 1.2255L5.94184 1.2084L6.00828 1.19195L6.07494 1.17615L6.14182 1.16102L6.20892 1.14654L6.27622 1.13274L6.34373 1.1196L6.41143 1.10713L6.47931 1.09533L6.54738 1.08421L6.61562 1.07377L6.68403 1.06401L6.7526 1.05493L6.82133 1.04654L6.89021 1.03883L6.95923 1.03181L7.02838 1.02549L7.09766 1.01986L7.16706 1.01492L7.23658 1.01068L7.30621 1.00714L7.37593 1.00431L7.44575 1.00217L7.51566 1.00074L7.58565 1.00002L7.65572 1L7.72584 1.00069L7.79603 1.00209L7.86628 1.00421L7.93657 1.00703L8.00689 1.01057L8.07725 1.01483L8.14763 1.0198L8.21804 1.02549L8.28845 1.03189L8.35886 1.03902L8.42927 1.04686L8.49968 1.05542L8.57006 1.06471L8.64042 1.07471L8.71074 1.08544L8.78103 1.09688L8.85127 1.10905L8.92146 1.12194L8.99158 1.13556L9.06164 1.14989L9.13162 1.16495L9.20152 1.18073L9.27133 1.19724L9.34104 1.21446L9.41065 1.23241L9.48014 1.25108L9.54952 1.27047L9.61877 1.29058L9.68789 1.31141L9.75687 1.33296L9.8257 1.35522L9.89437 1.37821L9.96288 1.40191L10.0312 1.42633L10.0994 1.45146L10.1674 1.4773L10.2352 1.50386L10.3028 1.53113L10.3701 1.55911L10.4373 1.5878L10.5043 1.61719L10.571 1.64729L10.6375 1.67809L10.7037 1.7096L10.7697 1.7418L10.8355 1.77471L10.901 1.80831L10.9662 1.8426L11.0311 1.87759L11.0957 1.91327L11.1601 1.94963L11.2242 1.98668L11.2879 2.02442L11.3513 2.06283L11.4145 2.10192L11.4772 2.14169L11.5397 2.18214L11.6018 2.22325L11.6636 2.26503L11.725 2.30747L11.786 2.35058L11.8467 2.39434L11.907 2.43876L11.967 2.48384L12.0265 2.52956L12.0856 2.57593L12.1444 2.62294L12.2027 2.67059L12.2606 2.71887L12.3181 2.76779L12.3751 2.81733L12.4317 2.8675L12.4879 2.91829L12.5436 2.9697L12.5989 3.02172L12.6537 3.07434L12.7081 3.12757L12.7619 3.18141L12.8153 3.23584L12.8682 3.29086L12.9206 3.34646L12.9725 3.40265L13.0239 3.45942L13.0748 3.51677L13.1251 3.57468L13.1749 3.63316L13.2242 3.69219L13.273 3.75178L13.3212 3.81192L13.3689 3.87261L13.416 3.93384L13.4626 3.9956L13.5085 4.05789L13.5539 4.12071L13.5988 4.18404L13.643 4.24789L13.6867 4.31225L13.7297 4.37711L13.7722 4.44246L13.8141 4.50831L13.8553 4.57465L13.8959 4.64146L13.9359 4.70875L13.9753 4.77651L14.014 4.84473L14.0521 4.91341L14.0896 4.98254L14.1264 5.05211L14.1625 5.12212L14.198 5.19256L14.2329 5.26343L14.267 5.33472L14.3005 5.40643L14.3333 5.47854L14.3654 5.55105L14.3969 5.62395L14.4276 5.69724L14.4577 5.77092L14.487 5.84496L14.5157 5.91938L14.5436 5.99415L14.5708 6.06928L14.5973 6.14476L14.6231 6.22057L14.6481 6.29672L14.6725 6.37319L14.696 6.44998L14.7189 6.52709L14.741 6.6045L14.7624 6.6822L14.783 6.7602L14.8028 6.83848L14.8219 6.91703L14.8403 6.99585L14.8579 7.07493L14.8747 7.15427L14.8907 7.23385L14.906 7.31367L14.9205 7.39372L14.9342 7.47399L14.9472 7.55448L14.9593 7.63517L14.9707 7.71607L14.9812 7.79715L14.991 7.87842L15 7.95987" stroke="#262B37" stroke-linecap="round"/>
</svg>
