<svg width="32" height="33" viewBox="0 0 32 33" fill="none" xmlns="http://www.w3.org/2000/svg">
<path d="M18.104 18.6359L18.1078 18.6761L18.1111 18.7165L18.1141 18.7569L18.1167 18.7973L18.1188 18.8379L18.1206 18.8785L18.122 18.9191L18.123 18.9598L18.1236 19.0006L18.1238 19.0414L18.1235 19.0822L18.1229 19.1231L18.1219 19.164L18.1205 19.2049L18.1187 19.2459L18.1164 19.2869L18.1138 19.3279L18.1108 19.3689L18.1073 19.4099L18.1035 19.4509L18.0993 19.492L18.0946 19.533L18.0895 19.574L18.0841 19.615L18.0782 19.656L18.0719 19.6969L18.0652 19.7379L18.0581 19.7788L18.0506 19.8196L18.0427 19.8605L18.0344 19.9013L18.0256 19.942L18.0165 19.9827L18.0069 20.0233L17.997 20.0639L17.9866 20.1044L17.9758 20.1449L17.9647 20.1853L17.9531 20.2256L17.9411 20.2658L17.9287 20.3059L17.9159 20.346L17.9027 20.3859L17.8891 20.4258L17.8751 20.4656L17.8606 20.5052L17.8458 20.5448L17.8306 20.5842L17.815 20.6235L17.7989 20.6627L17.7825 20.7017L17.7657 20.7407L17.7485 20.7795L17.7309 20.8181L17.7128 20.8567L17.6944 20.895L17.6756 20.9332L17.6564 20.9713L17.6368 21.0092L17.6169 21.0469L17.5965 21.0845L17.5757 21.1219L17.5546 21.1591L17.5331 21.1962L17.5112 21.233L17.4889 21.2697L17.4662 21.3062L17.4431 21.3424L17.4197 21.3785L17.3959 21.4144L17.3717 21.45L17.3472 21.4855L17.3222 21.5207L17.297 21.5557L17.2713 21.5905L17.2453 21.6251L17.2189 21.6594L17.1921 21.6935L17.165 21.7273L17.1375 21.7609L17.1097 21.7943L17.0815 21.8274L17.053 21.8602L17.0241 21.8928L16.9949 21.9251L16.9653 21.9572L16.9354 21.9889L16.9051 22.0204L16.8746 22.0517L16.8436 22.0826L16.8124 22.1133L16.7808 22.1436L16.7489 22.1737L16.7166 22.2035L16.684 22.2329L16.6512 22.2621L16.618 22.291L16.5844 22.3195L16.5506 22.3477L16.5165 22.3757L16.482 22.4032L16.4473 22.4305L16.4122 22.4574L16.3769 22.484L16.3412 22.5103L16.3053 22.5362L16.2691 22.5618L16.2326 22.5871L16.1958 22.612L16.1587 22.6365L16.1214 22.6607L16.0837 22.6845L16.0459 22.708L16.0077 22.7311L15.9693 22.7538L15.9306 22.7762L15.8917 22.7982L15.8525 22.8198L15.8131 22.841L15.7734 22.8618L15.7335 22.8823L15.6933 22.9024L15.6529 22.9221L15.6123 22.9414L15.5714 22.9602L15.5304 22.9787L15.4891 22.9968L15.4475 23.0145L15.4058 23.0318L15.3639 23.0487L15.3217 23.0651L15.2794 23.0812L15.2368 23.0968L15.1941 23.112L15.1512 23.1268L15.1081 23.1411L15.0648 23.1551L15.0213 23.1686L14.9777 23.1816L14.9338 23.1943L14.8899 23.2065L14.8457 23.2182L14.8014 23.2296L14.757 23.2405L14.7124 23.2509L14.6676 23.2609L14.6227 23.2704L14.5777 23.2795L14.5326 23.2882L14.4873 23.2964L14.4419 23.3041L14.3964 23.3114L14.3507 23.3182L14.305 23.3246L14.2591 23.3305L14.2131 23.3359L14.1671 23.3409L14.1209 23.3454L14.0747 23.3494L14.0284 23.353L13.982 23.3561L13.9355 23.3588L13.889 23.3609L13.8424 23.3626L13.7957 23.3638L13.749 23.3646L13.7022 23.3648L13.6554 23.3646L13.6085 23.3639L13.5616 23.3627L13.5147 23.3611L13.4677 23.3589L13.4207 23.3563L13.3737 23.3532L13.3267 23.3496L13.2797 23.3456L13.2326 23.341L13.1856 23.336L13.1386 23.3305L13.0915 23.3245L13.0445 23.318L12.9975 23.311L12.9506 23.3035L12.9036 23.2956L12.8567 23.2871L12.8099 23.2782L12.763 23.2688L12.7163 23.2589L12.6696 23.2485L12.6229 23.2376L12.5763 23.2262L12.5298 23.2144L12.4833 23.2021L12.4369 23.1892L12.3906 23.1759L12.3444 23.1621L12.2983 23.1479L12.2522 23.1331L12.2063 23.1178L12.1605 23.1021L12.1148 23.0859L12.0692 23.0692L12.0237 23.052L11.9783 23.0344L11.9331 23.0162L11.888 22.9976L11.8431 22.9785L11.7983 22.9589L11.7536 22.9389L11.7091 22.9184L11.6648 22.8974L11.6206 22.8759L11.5766 22.8539L11.5328 22.8315L11.4891 22.8086L11.4457 22.7853L11.4024 22.7615L11.3593 22.7372L11.3164 22.7124L11.2737 22.6872L11.2312 22.6616L11.1889 22.6354L11.1469 22.6088L11.1051 22.5818L11.0634 22.5543L11.0221 22.5264L10.9809 22.498L10.94 22.4691L10.8993 22.4399L10.8589 22.4101L10.8188 22.38L10.7789 22.3494L10.7392 22.3183L10.6998 22.2868L10.6607 22.2549L10.6219 22.2226L10.5834 22.1898L10.5451 22.1566L10.5071 22.123L10.4695 22.089L10.4321 22.0545L10.395 22.0197L10.3582 21.9844L10.3218 21.9487L10.2856 21.9126L10.2498 21.8761L10.2143 21.8392L10.1791 21.8019L10.1443 21.7642L10.1098 21.7261L10.0756 21.6877L10.0418 21.6488L10.0083 21.6096L9.97519 21.5699L9.94243 21.53L9.91003 21.4896L9.878 21.4489L9.84633 21.4077L9.81504 21.3663L9.78412 21.3245L9.75359 21.2823L9.72344 21.2397L9.69368 21.1969L9.66431 21.1536L9.63534 21.1101L9.60677 21.0662L9.5786 21.0219L9.55084 20.9774L9.52349 20.9325L9.49655 20.8873L9.47003 20.8417L9.44393 20.7959L9.41826 20.7497L9.39302 20.7033L9.3682 20.6565L9.34382 20.6094L9.31989 20.5621L9.29639 20.5144L9.27334 20.4665L9.25073 20.4183L9.22858 20.3698L9.20688 20.321L9.18564 20.272L9.16486 20.2227L9.14455 20.1732L9.1247 20.1234L9.10532 20.0733L9.08641 20.023L9.06798 19.9725L9.05003 19.9217L9.03255 19.8707L9.01557 19.8194L8.99906 19.768L8.98305 19.7163L8.96753 19.6644L8.9525 19.6123L8.93797 19.56L8.92394 19.5075L8.91041 19.4548L8.89739 19.4019L8.88487 19.3489L8.87286 19.2956L8.86136 19.2422L8.85037 19.1886L8.8399 19.1349L8.82995 19.081L8.82051 19.0269L8.8116 18.9727L8.80321 18.9183L8.79534 18.8639L8.788 18.8092L8.78119 18.7545L8.77491 18.6996L8.76917 18.6446L8.76395 18.5896L8.75928 18.5344L8.75514 18.4791L8.75153 18.4237L8.74847 18.3682L8.74595 18.3126L8.74397 18.257L8.74254 18.2012L8.74165 18.1455L8.74131 18.0896L8.74151 18.0337L8.74227 17.9777L8.74357 17.9217L8.74542 17.8657L8.74783 17.8096L8.75079 17.7535L8.7543 17.6974L8.75836 17.6412L8.76298 17.5851L8.76815 17.5289L8.77388 17.4727L8.78017 17.4166L8.78701 17.3604L8.79441 17.3043L8.80237 17.2482L8.81089 17.1921L8.81996 17.1361L8.82959 17.0801L8.83979 17.0241L8.85054 16.9682L8.86184 16.9123L8.87371 16.8565L8.88614 16.8008L8.89912 16.7451L8.91266 16.6896L8.92676 16.6341L8.94142 16.5787L8.95664 16.5234L8.97241 16.4682L8.98874 16.4131L9.00562 16.3581L9.02306 16.3033L9.04106 16.2486L9.0596 16.194L9.0787 16.1395L9.09836 16.0852L9.11856 16.031L9.13932 15.977L9.16062 15.9232L9.18248 15.8695L9.20488 15.816L9.22782 15.7627L9.25132 15.7095L9.27535 15.6565L9.29993 15.6038L9.32505 15.5512L9.35071 15.4989L9.3769 15.4467L9.40363 15.3948L9.4309 15.3431L9.4587 15.2916L9.48703 15.2404L9.51589 15.1894L9.54528 15.1386L9.5752 15.0881L9.60563 15.0379L9.63659 14.9879L9.66807 14.9382L9.70007 14.8888L9.73258 14.8396L9.76561 14.7908L9.79914 14.7422L9.83319 14.6939L9.86774 14.6459L9.90279 14.5982L9.93835 14.5509L9.9744 14.5038L10.0109 14.4571L10.048 14.4107L10.0855 14.3647L10.1235 14.319L10.162 14.2736L10.201 14.2286L10.2405 14.1839L10.2804 14.1396L10.3208 14.0957L10.3617 14.0521L10.4031 14.0089L10.4449 13.9661L10.4872 13.9237L10.5299 13.8816L10.5731 13.84L10.6167 13.7988L10.6608 13.7579L10.7053 13.7175L10.7502 13.6775L10.7956 13.6379L10.8415 13.5988L10.8877 13.5601L10.9344 13.5218L10.9815 13.4839L11.029 13.4465L11.0769 13.4096L11.1252 13.3731L11.174 13.3371L11.2231 13.3015L11.2726 13.2664L11.3226 13.2317L11.3729 13.1976L11.4236 13.1639L11.4746 13.1307L11.5261 13.098L11.5779 13.0658L11.6301 13.0341L11.6826 13.0029L11.7355 12.9722L11.7887 12.942L11.8423 12.9124L11.8963 12.8832L11.9505 12.8546L12.0051 12.8265L12.0601 12.7989L12.1153 12.7719L12.1709 12.7454L12.2268 12.7194L12.283 12.694L12.3395 12.6692L12.3963 12.6449L12.4533 12.6211L12.5107 12.5979L12.5684 12.5753L12.6263 12.5533L12.6845 12.5318L12.743 12.5109L12.8017 12.4905L12.8607 12.4708L12.9199 12.4516L12.9794 12.433L13.0391 12.4151L13.0991 12.3977L13.1592 12.3809L13.2196 12.3647L13.2803 12.349L13.3411 12.3341L13.4021 12.3197L13.4633 12.3059L13.5248 12.2927L13.5864 12.2802L13.6482 12.2682L13.7101 12.2569L13.7723 12.2462L13.8346 12.2362L13.897 12.2267L13.9597 12.2179L14.0224 12.2097L14.0853 12.2022L14.1483 12.1953L14.2115 12.189L14.2748 12.1833L14.3382 12.1783L14.4017 12.174L14.4653 12.1703L14.529 12.1672L14.5928 12.1648L14.6567 12.163L14.7206 12.1619L14.7847 12.1615L14.8488 12.1617L14.9129 12.1625L14.9771 12.164L15.0414 12.1662L15.1057 12.169L15.17 12.1725L15.2344 12.1766L15.2987 12.1814L15.3631 12.1869L15.4275 12.193L15.4919 12.1998L15.5563 12.2072L15.6207 12.2154L15.6851 12.2241L15.7494 12.2336L15.8137 12.2437L15.878 12.2545L15.9422 12.2659L16.0064 12.2781L16.0705 12.2908L16.1345 12.3043L16.1985 12.3184L16.2624 12.3332L16.3262 12.3486L16.39 12.3648L16.4536 12.3815L16.5171 12.399L16.5805 12.4171L16.6438 12.4359L16.707 12.4553L16.77 12.4754L16.8329 12.4962L16.8957 12.5176L16.9583 12.5397L17.0207 12.5625L17.083 12.5859L17.1452 12.61L17.2071 12.6347L17.2689 12.6601L17.3304 12.6861L17.3918 12.7128L17.453 12.7402L17.5139 12.7682L17.5746 12.7968L17.6352 12.8261L17.6955 12.8561L17.7555 12.8867L17.8153 12.9179L17.8749 12.9498L17.9342 12.9823L17.9932 13.0154L18.052 13.0492L18.1105 13.0836L18.1687 13.1187L18.2266 13.1543L18.2842 13.1906L18.3416 13.2275L18.3986 13.2651L18.4553 13.3032L18.5117 13.342L18.5677 13.3814L18.6235 13.4214L18.6788 13.462L18.7339 13.5032L18.7886 13.545L18.8429 13.5874L18.8969 13.6304L18.9505 13.674L19.0037 13.7182L19.0565 13.763L19.109 13.8083L19.161 13.8542L19.2127 13.9008L19.2639 13.9478L19.3148 13.9955L19.3652 14.0437L19.4152 14.0925L19.4647 14.1418L19.5138 14.1917L19.5625 14.2421L19.6107 14.2931L19.6585 14.3446L19.7058 14.3966L19.7527 14.4492L19.7991 14.5024L19.845 14.556L19.8904 14.6101L19.9353 14.6648L19.9797 14.72L20.0237 14.7757L20.0671 14.8319L20.11 14.8886L20.1524 14.9458L20.1943 15.0034L20.2357 15.0616L20.2765 15.1202L20.3168 15.1793L20.3566 15.2389L20.3958 15.2989L20.4344 15.3594L20.4725 15.4204L20.5101 15.4818L20.547 15.5436L20.5834 15.6059L20.6193 15.6686L20.6545 15.7317L20.6892 15.7952L20.7232 15.8592L20.7567 15.9236L20.7896 15.9883L20.8218 16.0535L20.8535 16.1191L20.8845 16.185L20.915 16.2514L20.9448 16.3181L20.974 16.3851L21.0025 16.4526L21.0304 16.5203L21.0577 16.5885L21.0843 16.657L21.1103 16.7258L21.1357 16.7949L21.1603 16.8644L21.1844 16.9342L21.2077 17.0043L21.2304 17.0747L21.2525 17.1454L21.2738 17.2164L21.2945 17.2877L21.3145 17.3592L21.3338 17.4311L21.3525 17.5032L21.3704 17.5755L21.3876 17.6481L21.4042 17.721L21.4201 17.7941L21.4352 17.8674L21.4497 17.941L21.4634 18.0147L21.4764 18.0887L21.4888 18.1629L21.5004 18.2373L21.5112 18.3119L21.5214 18.3866L21.5308 18.4615L21.5396 18.5366L21.5475 18.6119L21.5548 18.6873L21.5613 18.7628L21.5671 18.8385L21.5721 18.9143L21.5765 18.9903L21.58 19.0664L21.5829 19.1425L21.5849 19.2188L21.5863 19.2952L21.5869 19.3716L21.5867 19.4481L21.5858 19.5247L21.5841 19.6014L21.5817 19.6781L21.5785 19.7549L21.5746 19.8317L21.5699 19.9085L21.5645 19.9854L21.5583 20.0623L21.5513 20.1392L21.5436 20.2161L21.5351 20.293L21.5258 20.3699L21.5158 20.4467L21.5051 20.5235L21.4935 20.6003L21.4812 20.6771L21.4682 20.7538L21.4543 20.8304L21.4397 20.907L21.4244 20.9834L21.4082 21.0598L21.3914 21.1362L21.3737 21.2124L21.3553 21.2885L21.3361 21.3645L21.3162 21.4403L21.2954 21.516L21.274 21.5916L21.2517 21.6671L21.2287 21.7424L21.205 21.8175L21.1805 21.8925L21.1552 21.9672L21.1292 22.0418L21.1024 22.1162L21.0748 22.1904L21.0465 22.2644L21.0175 22.3381L20.9877 22.4117L20.9571 22.485L20.9258 22.558L20.8938 22.6308L20.861 22.7034L20.8275 22.7757L20.7932 22.8477L20.7582 22.9194L20.7224 22.9908L20.686 23.062L20.6488 23.1328L20.6108 23.2033L20.5721 23.2735L20.5327 23.3434L20.4926 23.4129L20.4518 23.4821L20.4102 23.551L20.3679 23.6195L20.325 23.6876L20.2813 23.7553L20.2369 23.8227L20.1918 23.8896L20.146 23.9562L20.0995 24.0224L20.0523 24.0881L20.0044 24.1535L19.9558 24.2184L19.9066 24.2829L19.8566 24.3469L19.806 24.4105L19.7547 24.4736L19.7028 24.5363L19.6502 24.5985L19.5969 24.6602L19.543 24.7214L19.4884 24.7821L19.4332 24.8424L19.3773 24.9021L19.3208 24.9613L19.2637 25.02L19.2059 25.0782L19.1475 25.1358L19.0885 25.1929L19.0288 25.2495L18.9686 25.3054L18.9077 25.3609L18.8463 25.4157L18.7842 25.47L18.7216 25.5237L18.6584 25.5768L18.5945 25.6293L18.5302 25.6812L18.4652 25.7325L18.3997 25.7832L18.3336 25.8333L18.267 25.8827L18.1998 25.9315L18.1321 25.9797L18.0638 26.0272L17.995 26.0741L17.9257 26.1203L17.8559 26.1658L17.7855 26.2107L17.7146 26.2549L17.6433 26.2984L17.5714 26.3413L17.4991 26.3834L17.4263 26.4248L17.353 26.4656L17.2792 26.5056L17.205 26.5449L17.1303 26.5835L17.0552 26.6213L16.9796 26.6585L16.9036 26.6949L16.8271 26.7305L16.7502 26.7654L16.673 26.7996L16.5953 26.833L16.5172 26.8656L16.4387 26.8975L16.3598 26.9286L16.2806 26.9589L16.2009 26.9884L16.121 27.0172L16.0406 27.0451L15.9599 27.0723L15.8789 27.0987L15.7975 27.1242L15.7158 27.149L15.6337 27.1729L15.5514 27.1961L15.4688 27.2184L15.3858 27.2399L15.3026 27.2605L15.2191 27.2804L15.1353 27.2994L15.0512 27.3175L14.9669 27.3349L14.8823 27.3513L14.7975 27.367L14.7125 27.3817L14.6272 27.3957L14.5418 27.4087L14.4561 27.4209L14.3702 27.4323L14.2841 27.4427L14.1978 27.4523L14.1114 27.4611L14.0248 27.4689L13.938 27.4759L13.8511 27.482L13.764 27.4872L13.6768 27.4916L13.5895 27.495L13.502 27.4976L13.4145 27.4992L13.3268 27.5L13.2391 27.4999L13.1513 27.4989L13.0634 27.4969L12.9754 27.4941L12.8874 27.4904L12.7993 27.4858L12.7112 27.4803L12.6231 27.4738L12.5349 27.4665L12.4468 27.4583L12.3586 27.4491L12.2704 27.4391L12.1823 27.4281L12.0942 27.4162L12.0061 27.4034L11.918 27.3897L11.83 27.3751L11.7421 27.3596L11.6542 27.3431L11.5664 27.3258L11.4787 27.3075L11.3911 27.2883L11.3036 27.2682L11.2162 27.2472L11.129 27.2253L11.0418 27.2025L10.9548 27.1787L10.868 27.1541L10.7813 27.1285L10.6948 27.102L10.6084 27.0746L10.5223 27.0463L10.4363 27.0171L10.3506 26.987L10.265 26.956L10.1797 26.9241L10.0946 26.8913L10.0098 26.8576L9.9252 26.823L9.84087 26.7874L9.75681 26.751L9.67302 26.7137L9.58952 26.6755L9.50631 26.6365L9.42341 26.5965L9.34082 26.5556L9.25855 26.5139L9.17662 26.4713L9.09502 26.4278L9.01377 26.3834L8.93289 26.3382L8.85237 26.2921L8.77222 26.2451L8.69246 26.1973L8.61309 26.1486L8.53413 26.099L8.45557 26.0486L8.37744 25.9973L8.29973 25.9452L8.22246 25.8923L8.14564 25.8385L8.06927 25.7839L7.99337 25.7284L7.91793 25.6721L7.84298 25.615L7.76852 25.5571L7.69455 25.4983L7.62109 25.4388L7.54814 25.3784L7.47572 25.3172L7.40383 25.2553L7.33248 25.1925L7.26167 25.129L7.19142 25.0646L7.12174 24.9995L7.05262 24.9336L6.98409 24.867L6.91615 24.7996L6.8488 24.7314L6.78206 24.6625L6.71593 24.5928L6.65042 24.5224L6.58554 24.4512L6.5213 24.3794L6.4577 24.3068L6.39475 24.2334L6.33246 24.1594L6.27084 24.0847L6.20989 24.0092L6.14963 23.9331L6.09005 23.8562L6.03118 23.7787L5.973 23.7005L5.91554 23.6217L5.85879 23.5422L5.80278 23.462L5.74749 23.3812L5.69295 23.2997L5.63915 23.2176L5.58611 23.1349L5.53382 23.0516L5.48231 22.9676L5.43157 22.8831L5.38161 22.7979L5.33244 22.7122L5.28406 22.6258L5.23649 22.5389L5.18972 22.4514L5.14376 22.3634L5.09863 22.2748L5.05432 22.1857L5.01084 22.096L4.9682 22.0058L4.92641 21.9151L4.88547 21.8238L4.84538 21.7321L4.80615 21.6398L4.76779 21.5471L4.73031 21.4539L4.6937 21.3602L4.65798 21.2661L4.62315 21.1715L4.58921 21.0764L4.55617 20.9809L4.52404 20.885L4.49281 20.7887L4.4625 20.692L4.43312 20.5948L4.40465 20.4973L4.37712 20.3994L4.35052 20.3011L4.32486 20.2024L4.30014 20.1034L4.27638 20.004L4.25356 19.9044L4.2317 19.8043L4.2108 19.704L4.19086 19.6033L4.17189 19.5024L4.1539 19.4011L4.13688 19.2996L4.12084 19.1978L4.10578 19.0958L4.09171 18.9935L4.07863 18.8909L4.06654 18.7882L4.05545 18.6852L4.04536 18.582L4.03627 18.4786L4.02819 18.375L4.02112 18.2712L4.01505 18.1672L4.01001 18.0631L4.00597 17.9588L4.00296 17.8544L4.00097 17.7499L4 17.6453L4.00006 17.5405L4.00114 17.4356L4.00326 17.3307L4.0064 17.2257L4.01058 17.1206L4.01579 17.0154L4.02204 16.9102L4.02933 16.805L4.03766 16.6997L4.04702 16.5944L4.05743 16.4892L4.06889 16.3839L4.08138 16.2786L4.09492 16.1734L4.1095 16.0682L4.12513 15.9631L4.14181 15.858L4.15953 15.753L4.1783 15.6481L4.19812 15.5432L4.21898 15.4385L4.24089 15.3339L4.26385 15.2294L4.28785 15.125L4.31291 15.0208L4.339 14.9167L4.36615 14.8128L4.39433 14.7091L4.42356 14.6056L4.45384 14.5023L4.48516 14.3992L4.51751 14.2963L4.55091 14.1936L4.58535 14.0912L4.62082 13.989L4.65733 13.8871L4.69488 13.7855L4.73345 13.6842L4.77306 13.5832L4.8137 13.4824L4.85536 13.382L4.89805 13.282L4.94176 13.1822L4.98649 13.0828L5.03223 12.9838L5.07899 12.8852L5.12677 12.7869L5.17555 12.689L5.22534 12.5916L5.27613 12.4945L5.32792 12.3979L5.38071 12.3017L5.43449 12.206L5.48927 12.1107L5.54503 12.0159L5.60177 11.9216L5.65949 11.8277L5.71819 11.7344L5.77785 11.6416L5.83849 11.5492L5.90009 11.4575L5.96265 11.3662L6.02616 11.2756L6.09062 11.1854L6.15603 11.0959L6.22237 11.0069L6.28966 10.9186L6.35787 10.8308L6.42701 10.7436L6.49707 10.6571L6.56804 10.5712L6.63993 10.486L6.71272 10.4014L6.78641 10.3174L6.86099 10.2342L6.93646 10.1516L7.01281 10.0697L7.09004 9.98852L7.16814 9.90805L7.2471 9.82829L7.32691 9.74927L7.40758 9.67099L7.4891 9.59346L7.57145 9.51669L7.65463 9.44068L7.73864 9.36545L7.82346 9.29101L7.9091 9.21737L7.99554 9.14453L8.08277 9.0725L8.1708 9.0013L8.25961 8.93093L8.34919 8.8614L8.43954 8.79271L8.53065 8.72489L8.62251 8.65793L8.71511 8.59184L8.80845 8.52664L8.90252 8.46233L8.99731 8.39892L9.09281 8.33642L9.18902 8.27484L9.28592 8.21418L9.38351 8.15445L9.48178 8.09566L9.58071 8.03782L9.68031 7.98093L9.78056 7.92501L9.88146 7.87006L9.98299 7.81608L10.0851 7.7631L10.1879 7.7111L10.2913 7.66011L10.3953 7.61012L10.4998 7.56115L10.605 7.5132L10.7107 7.46628L10.817 7.4204L10.9238 7.37555L11.0312 7.33176L11.1391 7.28902L11.2475 7.24734L11.3564 7.20673L11.4659 7.16719L11.5758 7.12874L11.6862 7.09137L11.7971 7.05509L11.9085 7.01991L12.0202 6.98584L12.1325 6.95287L12.2451 6.92102L12.3582 6.89029L12.4717 6.86069L12.5856 6.83221L12.6999 6.80488L12.8146 6.77868L12.9296 6.75363L13.045 6.72974L13.1607 6.707L13.2767 6.68541L13.3931 6.665L13.5098 6.64575L13.6268 6.62768L13.7441 6.61078L13.8616 6.59507L13.9794 6.58054L14.0975 6.56721L14.2158 6.55506L14.3344 6.54412L14.4531 6.53437L14.5721 6.52583L14.6913 6.51849L14.8106 6.51237L14.9302 6.50745L15.0499 6.50376L15.1697 6.50128L15.2897 6.50003L15.4098 6.5L15.53 6.5012L15.6503 6.50362L15.7708 6.50728L15.8913 6.51217L16.0118 6.5183L16.1324 6.52566L16.2531 6.53427L16.3738 6.54411L16.4945 6.5552L16.6152 6.56753L16.7359 6.5811L16.8566 6.59592L16.9772 6.61199L17.0979 6.6293L17.2184 6.64787L17.3389 6.66768L17.4593 6.68874L17.5796 6.71106L17.6999 6.73462L17.82 6.75943L17.9399 6.7855L18.0597 6.81281L18.1794 6.84137L18.2989 6.87119L18.4183 6.90225L18.5374 6.93456L18.6563 6.96812L18.775 7.00293L18.8935 7.03898L19.0118 7.07627L19.1298 7.11481L19.2475 7.15459L19.3649 7.19561L19.4821 7.23787L19.599 7.28137L19.7155 7.3261L19.8317 7.37207L19.9476 7.41927L20.0631 7.46769L20.1783 7.51734L20.293 7.56821L20.4074 7.62031L20.5214 7.67362L20.635 7.72815L20.7481 7.78389L20.8608 7.84084L20.9731 7.89899L21.0848 7.95835L21.1962 8.0189L21.307 8.08065L21.4173 8.14359L21.5271 8.20772L21.6364 8.27303L21.7452 8.33951L21.8534 8.40718L21.961 8.47601L22.0681 8.546L22.1745 8.61716L22.2804 8.68947L22.3857 8.76293L22.4904 8.83754L22.5944 8.91329L22.6978 8.99017L22.8005 9.06818L22.9025 9.14731L23.0039 9.22757L23.1046 9.30893L23.2046 9.3914L23.3039 9.47497L23.4024 9.55963L23.5002 9.64538L23.5973 9.73221L23.6936 9.82012L23.7891 9.90909L23.8839 9.99912L23.9778 10.0902L24.071 10.1823L24.1633 10.2755L24.2548 10.3697L24.3455 10.4649L24.4353 10.5612L24.5243 10.6584L24.6124 10.7567L24.6996 10.8559L24.7859 10.9562L24.8713 11.0574L24.9558 11.1596L25.0394 11.2627L25.1221 11.3668L25.2038 11.4718L25.2846 11.5778L25.3644 11.6847L25.4432 11.7925L25.521 11.9012L25.5979 12.0108L25.6738 12.1213L25.7486 12.2327L25.8224 12.345L25.8952 12.4581L25.9669 12.5721L26.0376 12.6869L26.1073 12.8025L26.1758 12.919L26.2433 13.0363L26.3097 13.1543L26.3751 13.2732L26.4393 13.3928L26.5024 13.5133L26.5643 13.6344L26.6252 13.7564L26.6849 13.879L26.7434 14.0024L26.8009 14.1265L26.8571 14.2513L26.9122 14.3768L26.9661 14.503L27.0188 14.6298L27.0703 14.7574L27.1206 14.8855L27.1697 15.0143L27.2176 15.1437L27.2642 15.2738L27.3097 15.4044L27.3539 15.5356L27.3968 15.6674L27.4385 15.7998L27.4789 15.9327L27.5181 16.0661L27.556 16.2001L27.5926 16.3346L27.628 16.4696L27.662 16.6051L27.6948 16.741L27.7262 16.8774L27.7563 17.0143L27.7852 17.1516L27.8127 17.2894L27.8389 17.4275L27.8637 17.566L27.8872 17.705L27.9094 17.8443L27.9302 17.984L27.9497 18.124L27.9678 18.2643L27.9846 18.405L28 18.5459" stroke="#262B37" stroke-width="2" stroke-linecap="round"/>
</svg>
