<svg width="643" height="315" viewBox="0 0 643 315" fill="none" xmlns="http://www.w3.org/2000/svg">
<path d="M66.5896 104.611L66.5903 104.613C75.9944 133.102 106.647 156.578 151.052 169.832L152.317 170.21L152.842 169.04C181.536 105.155 247.627 50.0264 331.307 20.8474C385.456 2.04402 438.753 -9.04548 485.282 -12.0592C531.854 -15.0757 571.476 -9.99075 598.394 3.38456C624.465 16.4021 634.317 34.4424 638.211 47.3716C640.763 55.8451 642.546 68.4891 638.1 83.4602C633.655 98.4276 622.947 115.848 600.303 133.811C561.13 164.78 493.744 193.011 393.927 220.278C325.164 238.963 259.451 245.381 200.537 239.602L198.885 239.44L198.914 241.07C199.205 257.373 202.986 273.545 210.938 289.124C224.18 315.951 246.891 337.273 275.778 352.405L277.173 353.135L277.832 351.757C284.339 338.156 293.667 325.071 305.729 313.051L305.734 313.045C332.683 285.899 373.274 263.071 420.302 248.911L420.308 248.909C461.294 236.368 506.481 230.505 544.339 235.569C582.199 240.632 612.351 256.545 624.095 287.21L624.734 289.329C630.928 309.899 628.028 331.653 616.184 350.979L616.18 350.986C594.666 386.545 545.913 412.422 466.353 429.311L466.351 429.312C423.683 438.407 380.089 439.957 339.078 434.073L336.293 433.673L337.545 436.174C346.415 453.89 361.726 473.093 388.263 485.302L388.272 485.306C423.558 501.29 477.579 502.98 533.924 488.104L562.29 539.983C526.59 549.4 489.313 554.775 454.792 555.053C419.674 555.336 387.512 550.343 362.77 539.054L362.769 539.053C318.126 518.722 285.641 481.447 271.304 433.838C269.437 427.64 268.135 421.557 267.394 415.588L267.286 414.714L266.458 414.365C216.071 393.124 176.869 358.316 155.63 315.154L155.63 315.152C141.984 287.507 135.951 258.63 137.936 229.946L138.02 228.741L136.835 228.384C70.1951 208.336 23.7261 170.088 7.86995 121.836C-3.69375 86.071 1.67067 45.9067 23.9368 5.74808C65.6068 -69.1815 159.476 -132.598 275.361 -163.649C378.338 -191.242 452.978 -197.567 502.517 -196.836C548.625 -196.155 573.016 -189.363 578.351 -187.878C578.385 -187.869 578.418 -187.859 578.45 -187.851L602.593 -128.791C601.68 -128.968 600.54 -129.184 599.179 -129.428C595.314 -130.121 589.665 -131.044 582.341 -131.99C567.692 -133.88 546.342 -135.856 519.145 -136.247C464.751 -137.028 386.975 -131.467 292.663 -106.196C192.708 -79.4135 112.344 -26.7956 78.4055 34.5976C64.2304 60.2068 59.9593 84.4241 66.5896 104.611ZM337.169 370.971L336.139 372.624L338.06 373.196C370.227 382.77 410.36 381.439 452.109 370.776C492.894 360.37 519.091 350.087 535.815 341.202C552.502 332.336 559.861 324.807 562.812 319.835C565.651 315.237 566.692 310.7 565.666 306.298L565.613 306.068L565.49 305.864C564.565 304.321 562.931 302.903 560.818 301.628C558.682 300.34 555.944 299.13 552.665 298.051C546.105 295.894 537.25 294.22 526.409 293.54C504.718 292.179 474.945 294.79 439.423 305.618L439.421 305.618C422.517 310.803 402.018 319.047 383.232 330.017C364.466 340.975 347.286 354.725 337.169 370.971ZM216.916 179.209L215.665 181.313L218.169 181.471C266.468 184.501 320.821 178.3 376.461 163.13C488.784 132.512 538.755 105.298 560.85 87.7842C568.527 81.7728 573.276 76.5799 576.027 72.5221C577.401 70.4945 578.294 68.7243 578.795 67.2549C579.274 65.8473 579.466 64.509 579.149 63.4579C578.756 62.15 577.596 60.8884 576.214 59.7919C574.776 58.652 572.868 57.5115 570.618 56.4917C562.568 52.4754 551.101 49.6527 536.979 48.1782C522.818 46.6997 505.89 46.5675 486.875 47.9981C448.846 50.8595 402.384 59.9789 352.866 77.1676L352.862 77.1691C292.709 98.262 242.406 136.355 216.916 179.209Z" stroke="white" stroke-opacity="0.2" stroke-width="3"/>
</svg>
