<svg width="158" height="38" viewBox="0 0 158 38" fill="none" xmlns="http://www.w3.org/2000/svg">
<path d="M4.0579 15.8317C4.0579 16.9099 4.20982 17.9243 4.51368 18.8751C4.82733 19.8259 5.27331 20.6737 5.85161 21.4186C6.42991 22.1538 7.16993 22.737 8.07169 23.1683C8.98325 23.5995 10.0026 23.8152 11.1298 23.8152C12.8647 23.8152 14.2909 23.33 15.4083 22.3596C16.5158 21.4383 17.2412 20.2964 17.5842 18.9339L21.3481 20.0219C20.8188 22.2469 19.6132 24.0357 17.7313 25.3883C15.8493 26.741 13.6292 27.4173 11.071 27.4173C9.34591 27.4173 7.77764 27.1183 6.3662 26.5204C4.95475 25.9127 3.78835 25.0845 2.86699 24.0357C1.94564 22.9869 1.23501 21.7617 0.735127 20.3601C0.245042 18.9584 0 17.449 0 15.8317C0 14.234 0.254844 12.7344 0.764532 11.3327C1.27422 9.93107 1.99464 8.70586 2.9258 7.65708C3.86677 6.5985 5.05277 5.76535 6.48382 5.15765C7.91486 4.54995 9.50274 4.24609 11.2474 4.24609C13.8743 4.24609 16.0552 4.91751 17.7901 6.26034C19.4956 7.60317 20.608 9.35767 21.1275 11.5238L17.3637 12.6118C17.05 11.2102 16.3492 10.0683 15.2612 9.18614C14.1732 8.29419 12.7961 7.84821 11.1298 7.84821C10.032 7.84821 9.03225 8.06875 8.1305 8.50983C7.22874 8.9411 6.48382 9.5243 5.89571 10.2594C5.30761 10.9946 4.85184 11.8424 4.52838 12.803C4.21473 13.7635 4.0579 14.7731 4.0579 15.8317Z" fill="#181818"/>
<path d="M24.8191 13.9939C26.3285 12.5138 28.2349 11.7738 30.5383 11.7738C32.8417 11.7738 34.7482 12.5138 36.2576 13.9939C37.7671 15.4739 38.5218 17.3411 38.5218 19.5955C38.5218 21.8499 37.7671 23.7171 36.2576 25.1972C34.7482 26.6773 32.8417 27.4173 30.5383 27.4173C28.2349 27.4173 26.3285 26.6773 24.8191 25.1972C23.3194 23.7171 22.5696 21.8499 22.5696 19.5955C22.5696 17.3411 23.3194 15.4739 24.8191 13.9939ZM33.5965 16.3316C32.8221 15.4984 31.8028 15.0819 30.5383 15.0819C29.2739 15.0819 28.2545 15.4984 27.4802 16.3316C26.7157 17.1647 26.3334 18.2527 26.3334 19.5955C26.3334 20.9384 26.7157 22.0264 27.4802 22.8595C28.2545 23.6926 29.2739 24.1092 30.5383 24.1092C31.8028 24.1092 32.8221 23.6926 33.5965 22.8595C34.3708 22.0264 34.758 20.9384 34.758 19.5955C34.758 18.2527 34.3708 17.1647 33.5965 16.3316Z" fill="#181818"/>
<path d="M44.2864 27.1232H40.6843V12.0678H44.0805L44.2864 13.9351C45.2665 12.5334 46.6535 11.8326 48.4472 11.8326C48.8883 11.8326 49.3783 11.9012 49.9174 12.0384L49.5058 15.567C48.9961 15.42 48.4717 15.3465 47.9326 15.3465C46.8838 15.3465 46.0115 15.6945 45.3156 16.3904C44.6294 17.0863 44.2864 18.042 44.2864 19.2574V27.1232Z" fill="#181818"/>
<path d="M52.2416 25.256C50.8302 23.8054 50.1245 21.9381 50.1245 19.6543C50.1245 17.3706 50.8547 15.4886 52.3151 14.0086C53.7756 12.5187 55.6428 11.7738 57.9168 11.7738C60.0928 11.7738 61.8718 12.4354 63.2538 13.7586C64.6162 15.0917 65.2975 16.807 65.2975 18.9045C65.2975 19.4142 65.2485 19.9533 65.1504 20.5218H53.8001C53.9275 21.747 54.3637 22.6782 55.1086 23.3153C55.8535 23.9426 56.8092 24.2562 57.9756 24.2562C58.9754 24.2562 59.8232 24.0553 60.5191 23.6534C61.2151 23.2418 61.661 22.6929 61.8571 22.0068L65.2093 22.6096C64.8956 24.0798 64.0625 25.2511 62.7098 26.1235C61.367 26.986 59.7889 27.4173 57.9756 27.4173C55.5644 27.4173 53.6531 26.6969 52.2416 25.256ZM57.9462 14.7731C56.8386 14.7731 55.9369 15.023 55.2409 15.5229C54.5548 16.013 54.1137 16.7285 53.9177 17.6695H61.7395C61.5434 16.7285 61.117 16.013 60.4603 15.5229C59.8134 15.023 58.9754 14.7731 57.9462 14.7731Z" fill="#181818"/>
<path d="M69.7535 27.1232H65.7838L74.4142 4.54014H78.6632L87.3083 27.1232H83.1475L80.5599 20.1395H72.3412L69.7535 27.1232ZM76.4726 9.02442L73.6056 16.6991H79.2954L76.4726 9.02442Z" fill="#181818"/>
<path d="M88.8239 33.7541V12.0678H92.1319L92.3084 13.9057C93.5728 12.4844 95.1803 11.7738 97.1308 11.7738C99.2382 11.7738 100.993 12.5187 102.394 14.0086C103.806 15.4886 104.511 17.3509 104.511 19.5955C104.511 21.8401 103.806 23.7073 102.394 25.1972C100.993 26.6773 99.2382 27.4173 97.1308 27.4173C95.3077 27.4173 93.7394 26.7459 92.426 25.403V33.7541H88.8239ZM99.6008 16.3316C98.8363 15.4984 97.8316 15.0819 96.5868 15.0819C95.342 15.0819 94.3373 15.4984 93.5728 16.3316C92.8083 17.1647 92.426 18.2527 92.426 19.5955C92.426 20.9384 92.8083 22.0264 93.5728 22.8595C94.3373 23.6926 95.342 24.1092 96.5868 24.1092C97.8316 24.1092 98.8363 23.6926 99.6008 22.8595C100.365 22.0264 100.748 20.9384 100.748 19.5955C100.748 18.2527 100.365 17.1647 99.6008 16.3316Z" fill="#181818"/>
<path d="M106.674 33.7541V12.0678H109.982L110.158 13.9057C111.423 12.4844 113.03 11.7738 114.981 11.7738C117.088 11.7738 118.843 12.5187 120.244 14.0086C121.656 15.4886 122.362 17.3509 122.362 19.5955C122.362 21.8401 121.656 23.7073 120.244 25.1972C118.843 26.6773 117.088 27.4173 114.981 27.4173C113.158 27.4173 111.589 26.7459 110.276 25.403V33.7541H106.674ZM117.451 16.3316C116.686 15.4984 115.682 15.0819 114.437 15.0819C113.192 15.0819 112.187 15.4984 111.423 16.3316C110.658 17.1647 110.276 18.2527 110.276 19.5955C110.276 20.9384 110.658 22.0264 111.423 22.8595C112.187 23.6926 113.192 24.1092 114.437 24.1092C115.682 24.1092 116.686 23.6926 117.451 22.8595C118.215 22.0264 118.598 20.9384 118.598 19.5955C118.598 18.2527 118.215 17.1647 117.451 16.3316Z" fill="#181818"/>
<g clip-path="url(#clip0_0_438)">
<path d="M157.394 6.48752C157.333 6.46288 152.1 3.57976 142.733 3.57976C137.772 3.57976 133.367 5.04597 130.973 7.49785C129.973 8.52049 129.455 9.59242 129.479 10.6027C129.516 12.032 130.578 13.5105 132.429 14.6933C134.65 12.0197 138.476 10.2454 142.746 9.92509C148.262 9.51849 153.198 10.5288 155.333 12.5002C156.37 13.4612 156.58 14.4592 156.58 15.1369C156.58 16.024 156.197 17.675 153.593 18.8085C151.347 19.7819 147.843 20.2624 142.869 20.2871C139.438 20.2994 136.316 19.7696 133.675 18.7469C133.466 19.5108 133.416 20.3117 133.564 21.1372C133.799 22.5541 134.539 23.8355 135.65 24.9074C136.143 24.3407 136.761 23.8355 137.489 23.4166C139.118 22.4679 141.314 21.9011 143.684 21.8272C147.818 21.6793 152.372 23.01 152.606 26.2874V26.3983C152.606 27.4702 152.162 28.4805 151.335 29.2568C149.829 30.686 147.201 31.2897 143.301 31.0803C141.203 30.9694 139.167 30.4889 137.353 29.688C137.513 30.6244 137.945 31.7086 138.982 32.6081C140.376 33.8032 142.845 34.5671 145.658 34.5671L146.275 37.5242C142.659 37.5242 138.957 36.6494 136.97 34.9367C135.181 33.3966 134.194 31.2035 134.194 28.7516C134.194 28.4312 134.218 28.1232 134.268 27.8275C132.231 26.1765 130.899 24.0203 130.516 21.6917C130.269 20.2008 130.393 18.7469 130.886 17.4039C128.085 15.6051 126.456 13.1902 126.394 10.6767C126.357 8.81619 127.172 6.96804 128.764 5.34167C131.738 2.3107 136.958 0.499512 142.733 0.499512C152.989 0.499512 156.851 3.08692 157.086 3.22246L157.394 6.48752ZM138.217 26.6693C139.55 27.5195 141.401 27.963 143.462 27.9877C147.497 28.037 148.83 27.3716 149.212 27.002C149.397 26.8295 149.496 26.6447 149.509 26.4476C149.373 25.9054 147.337 24.7719 143.782 24.8951C142.092 24.9567 139.574 25.4126 138.217 26.6693ZM135.341 16.0856C137.513 16.8372 140.093 17.2314 142.857 17.2191C148.447 17.1945 151.113 16.5415 152.359 15.9993C153.223 15.6297 153.495 15.2724 153.495 15.1492C153.495 15.0629 153.396 14.9151 153.223 14.7672C152.001 13.6337 147.991 12.6357 142.968 13.0053C139.92 13.2394 137.094 14.3976 135.341 16.0856Z" fill="#326BFF"/>
</g>
<defs>
<clipPath id="clip0_0_438">
<rect width="31" height="37" fill="white" transform="translate(126.394 0.5)"/>
</clipPath>
</defs>
</svg>
